M48
; DRILL file {KiCad (5.1.5)-3} date 8/20/2020 2:44:55 PM
; FORMAT={-:-/ absolute / inch / decimal}
; #@! TF.CreationDate,2020-08-20T14:44:55-04:00
; #@! TF.GenerationSoftware,Kicad,Pcbnew,(5.1.5)-3
FMAT,2
INCH
T1C0.0315
T2C0.0374
T3C0.0394
T4C0.0433
T5C0.0472
T6C0.0630
T7C0.0472
T8C0.1260
%
G90
G05
T1
X4.9716Y-3.3889
X5.138Y-3.5538
X5.1432Y-3.4884
X5.3214Y-3.6226
X5.3499Y-3.4391
X5.3673Y-3.5053
X5.4388Y-3.5724
X5.8426Y-3.2064
X4.9Y-5.2516
X4.9Y-5.35
T2
X5.6Y-4.4563
X5.6Y-4.5547
X5.6Y-4.6531
X5.6Y-4.7516
X5.6Y-4.85
X4.5433Y-3.6575
X4.5433Y-3.7559
X4.5433Y-3.8543
X4.5433Y-3.9528
X4.8228Y-3.4094
X4.8228Y-3.5079
X4.8228Y-3.6063
X4.8228Y-3.7047
X5.6689Y-4.1535
X5.7673Y-4.1535
X5.8657Y-4.1535
X5.9642Y-4.1535
X5.2Y-4.45
X5.2Y-4.5484
X5.2Y-4.6469
X5.2Y-4.7453
X5.2Y-4.8437
X4.9063Y-4.15
X5.0047Y-4.15
X5.1031Y-4.15
X5.2016Y-4.15
X5.3Y-4.15
X4.8228Y-2.8976
X4.8228Y-2.9961
X4.8228Y-3.0945
X4.75Y-4.45
X4.75Y-4.5484
X4.75Y-4.6469
X4.75Y-4.7453
X4.75Y-4.8437
X6.05Y-4.4563
X6.05Y-4.5547
X6.05Y-4.6531
X6.05Y-4.7516
X6.05Y-4.85
T3
X5.15Y-5.85
X5.3469Y-5.85
X5.8622Y-2.8031
X5.9622Y-2.8031
X4.8Y-5.8
X4.8Y-5.8984
X6.1Y-3.6516
X6.1Y-3.75
X6.2598Y-3.1268
X6.2598Y-3.2268
X6.2598Y-3.3268
X6.2598Y-3.4268
T4
X4.4764Y-3.1417
X4.4764Y-3.3976
X4.6535Y-3.1417
X4.6535Y-3.3976
T5
X5.6244Y-5.85
X5.9Y-5.85
T6
X6.15Y-5.15
X6.15Y-5.65
T7
X4.622Y-4.0157
X4.9016Y-3.7677
X6.0272Y-4.0748
X5.1213Y-4.387
X5.363Y-4.0713
X4.9016Y-3.1575
X4.6713Y-4.387
X6.1287Y-4.913
X5.6787Y-4.913
X4.8787Y-5.9614
X6.0213Y-3.5886
T8
X6.1811Y-2.8819
X6.1811Y-6.0472
X4.5079Y-6.0472
X4.5079Y-2.8819
T0
M30
