G04 #@! TF.GenerationSoftware,KiCad,Pcbnew,(5.1.5)-3*
G04 #@! TF.CreationDate,2020-08-20T14:44:53-04:00*
G04 #@! TF.ProjectId,Ebike Board,4562696b-6520-4426-9f61-72642e6b6963,rev?*
G04 #@! TF.SameCoordinates,Original*
G04 #@! TF.FileFunction,Legend,Top*
G04 #@! TF.FilePolarity,Positive*
%FSLAX46Y46*%
G04 Gerber Fmt 4.6, Leading zero omitted, Abs format (unit mm)*
G04 Created by KiCad (PCBNEW (5.1.5)-3) date 2020-08-20 14:44:53*
%MOMM*%
%LPD*%
G04 APERTURE LIST*
%ADD10C,0.120000*%
%ADD11C,0.050000*%
%ADD12C,1.000000*%
%ADD13C,0.100000*%
%ADD14C,0.150000*%
G04 APERTURE END LIST*
D10*
X111900000Y-157100000D02*
G75*
G02X111000000Y-156200000I0J900000D01*
G01*
X111000000Y-70600000D02*
G75*
G02X111900000Y-69700000I900000J0D01*
G01*
X159600000Y-69700000D02*
G75*
G02X160500000Y-70600000I0J-900000D01*
G01*
X160500000Y-156200000D02*
G75*
G02X159600000Y-157100000I-900000J0D01*
G01*
D11*
X111000000Y-156200000D02*
X111000000Y-70600000D01*
X159600000Y-157100000D02*
X111900000Y-157100000D01*
X160500000Y-70600000D02*
X160500000Y-156200000D01*
X111900000Y-69700000D02*
X159600000Y-69700000D01*
D12*
X116842857Y-130528571D02*
X117700000Y-130957142D01*
X118128571Y-131385714D01*
X118557142Y-132242857D01*
X118557142Y-133957142D01*
X118128571Y-134814285D01*
X117700000Y-135242857D01*
X116842857Y-135671428D01*
X115557142Y-135671428D01*
X114700000Y-135242857D01*
X114271428Y-134814285D01*
X113414285Y-138671428D02*
X113842857Y-138242857D01*
X114271428Y-137385714D01*
X114271428Y-127957142D01*
X114700000Y-127100000D01*
X115557142Y-126671428D01*
X116842857Y-126671428D01*
X117700000Y-127100000D01*
X118128571Y-127957142D01*
X118128571Y-129242857D01*
X117700000Y-130100000D01*
X116842857Y-130528571D01*
X115985714Y-130528571D01*
D10*
X141150000Y-130975000D02*
X142250000Y-130975000D01*
X141150000Y-130025000D02*
X141150000Y-130975000D01*
X139650000Y-130025000D02*
X141150000Y-130025000D01*
X141150000Y-139475000D02*
X146275000Y-139475000D01*
X141150000Y-140425000D02*
X141150000Y-139475000D01*
X139650000Y-140425000D02*
X141150000Y-140425000D01*
X112650000Y-103250000D02*
X113900000Y-103250000D01*
X112650000Y-102000000D02*
X112650000Y-103250000D01*
X118150000Y-91100000D02*
X118150000Y-96650000D01*
X115200000Y-91100000D02*
X118150000Y-91100000D01*
X115200000Y-90350000D02*
X115200000Y-91100000D01*
X118150000Y-96650000D02*
X118150000Y-101140000D01*
X115200000Y-102200000D02*
X116540000Y-102200000D01*
X115200000Y-102950000D02*
X115200000Y-102200000D01*
X112950000Y-90350000D02*
X112950000Y-92150000D01*
X113700000Y-90350000D02*
X112950000Y-90350000D01*
X113700000Y-92150000D02*
X113700000Y-90350000D01*
X112950000Y-92150000D02*
X113700000Y-92150000D01*
X112950000Y-101150000D02*
X112950000Y-102950000D01*
X113700000Y-101150000D02*
X112950000Y-101150000D01*
X113700000Y-102950000D02*
X113700000Y-101150000D01*
X112950000Y-102950000D02*
X113700000Y-102950000D01*
X112950000Y-93650000D02*
X112950000Y-99650000D01*
X113700000Y-93650000D02*
X112950000Y-93650000D01*
X113700000Y-99650000D02*
X113700000Y-93650000D01*
X112950000Y-99650000D02*
X113700000Y-99650000D01*
X112940000Y-90340000D02*
X112940000Y-102960000D01*
X118910000Y-90340000D02*
X112940000Y-90340000D01*
X118910000Y-102960000D02*
X118910000Y-90340000D01*
X112940000Y-102960000D02*
X118910000Y-102960000D01*
X152730000Y-148590000D02*
G75*
G03X152730000Y-148590000I-6370000J0D01*
G01*
X134540000Y-110470000D02*
X128570000Y-110470000D01*
X128570000Y-110470000D02*
X128570000Y-125590000D01*
X128570000Y-125590000D02*
X134540000Y-125590000D01*
X134540000Y-125590000D02*
X134540000Y-110470000D01*
X134530000Y-113780000D02*
X133780000Y-113780000D01*
X133780000Y-113780000D02*
X133780000Y-122280000D01*
X133780000Y-122280000D02*
X134530000Y-122280000D01*
X134530000Y-122280000D02*
X134530000Y-113780000D01*
X134530000Y-110480000D02*
X133780000Y-110480000D01*
X133780000Y-110480000D02*
X133780000Y-112280000D01*
X133780000Y-112280000D02*
X134530000Y-112280000D01*
X134530000Y-112280000D02*
X134530000Y-110480000D01*
X134530000Y-123780000D02*
X133780000Y-123780000D01*
X133780000Y-123780000D02*
X133780000Y-125580000D01*
X133780000Y-125580000D02*
X134530000Y-125580000D01*
X134530000Y-125580000D02*
X134530000Y-123780000D01*
X132280000Y-110480000D02*
X132280000Y-111230000D01*
X132280000Y-111230000D02*
X130940000Y-111230000D01*
X129330000Y-118030000D02*
X129330000Y-112290000D01*
X132280000Y-125580000D02*
X132280000Y-124830000D01*
X132280000Y-124830000D02*
X129330000Y-124830000D01*
X129330000Y-124830000D02*
X129330000Y-118030000D01*
X134830000Y-111430000D02*
X134830000Y-110180000D01*
X134830000Y-110180000D02*
X133580000Y-110180000D01*
X151210000Y-125750000D02*
X157180000Y-125750000D01*
X157180000Y-125750000D02*
X157180000Y-110630000D01*
X157180000Y-110630000D02*
X151210000Y-110630000D01*
X151210000Y-110630000D02*
X151210000Y-125750000D01*
X151220000Y-122440000D02*
X151970000Y-122440000D01*
X151970000Y-122440000D02*
X151970000Y-113940000D01*
X151970000Y-113940000D02*
X151220000Y-113940000D01*
X151220000Y-113940000D02*
X151220000Y-122440000D01*
X151220000Y-125740000D02*
X151970000Y-125740000D01*
X151970000Y-125740000D02*
X151970000Y-123940000D01*
X151970000Y-123940000D02*
X151220000Y-123940000D01*
X151220000Y-123940000D02*
X151220000Y-125740000D01*
X151220000Y-112440000D02*
X151970000Y-112440000D01*
X151970000Y-112440000D02*
X151970000Y-110640000D01*
X151970000Y-110640000D02*
X151220000Y-110640000D01*
X151220000Y-110640000D02*
X151220000Y-112440000D01*
X153470000Y-125740000D02*
X153470000Y-124990000D01*
X153470000Y-124990000D02*
X154810000Y-124990000D01*
X156420000Y-118190000D02*
X156420000Y-123930000D01*
X153470000Y-110640000D02*
X153470000Y-111390000D01*
X153470000Y-111390000D02*
X156420000Y-111390000D01*
X156420000Y-111390000D02*
X156420000Y-118190000D01*
X150920000Y-124790000D02*
X150920000Y-126040000D01*
X150920000Y-126040000D02*
X152170000Y-126040000D01*
X139780000Y-125750000D02*
X145750000Y-125750000D01*
X145750000Y-125750000D02*
X145750000Y-110630000D01*
X145750000Y-110630000D02*
X139780000Y-110630000D01*
X139780000Y-110630000D02*
X139780000Y-125750000D01*
X139790000Y-122440000D02*
X140540000Y-122440000D01*
X140540000Y-122440000D02*
X140540000Y-113940000D01*
X140540000Y-113940000D02*
X139790000Y-113940000D01*
X139790000Y-113940000D02*
X139790000Y-122440000D01*
X139790000Y-125740000D02*
X140540000Y-125740000D01*
X140540000Y-125740000D02*
X140540000Y-123940000D01*
X140540000Y-123940000D02*
X139790000Y-123940000D01*
X139790000Y-123940000D02*
X139790000Y-125740000D01*
X139790000Y-112440000D02*
X140540000Y-112440000D01*
X140540000Y-112440000D02*
X140540000Y-110640000D01*
X140540000Y-110640000D02*
X139790000Y-110640000D01*
X139790000Y-110640000D02*
X139790000Y-112440000D01*
X142040000Y-125740000D02*
X142040000Y-124990000D01*
X142040000Y-124990000D02*
X143380000Y-124990000D01*
X144990000Y-118190000D02*
X144990000Y-123930000D01*
X142040000Y-110640000D02*
X142040000Y-111390000D01*
X142040000Y-111390000D02*
X144990000Y-111390000D01*
X144990000Y-111390000D02*
X144990000Y-118190000D01*
X139490000Y-124790000D02*
X139490000Y-126040000D01*
X139490000Y-126040000D02*
X140740000Y-126040000D01*
X154050000Y-107960000D02*
X154050000Y-101990000D01*
X154050000Y-101990000D02*
X141430000Y-101990000D01*
X141430000Y-101990000D02*
X141430000Y-107960000D01*
X141430000Y-107960000D02*
X154050000Y-107960000D01*
X150740000Y-107950000D02*
X150740000Y-107200000D01*
X150740000Y-107200000D02*
X144740000Y-107200000D01*
X144740000Y-107200000D02*
X144740000Y-107950000D01*
X144740000Y-107950000D02*
X150740000Y-107950000D01*
X154040000Y-107950000D02*
X154040000Y-107200000D01*
X154040000Y-107200000D02*
X152240000Y-107200000D01*
X152240000Y-107200000D02*
X152240000Y-107950000D01*
X152240000Y-107950000D02*
X154040000Y-107950000D01*
X143240000Y-107950000D02*
X143240000Y-107200000D01*
X143240000Y-107200000D02*
X141440000Y-107200000D01*
X141440000Y-107200000D02*
X141440000Y-107950000D01*
X141440000Y-107950000D02*
X143240000Y-107950000D01*
X154040000Y-105700000D02*
X153290000Y-105700000D01*
X153290000Y-105700000D02*
X153290000Y-104360000D01*
X147740000Y-102750000D02*
X152230000Y-102750000D01*
X141440000Y-105700000D02*
X142190000Y-105700000D01*
X142190000Y-105700000D02*
X142190000Y-102750000D01*
X142190000Y-102750000D02*
X147740000Y-102750000D01*
X153090000Y-108250000D02*
X154340000Y-108250000D01*
X154340000Y-108250000D02*
X154340000Y-107000000D01*
X120040000Y-81160000D02*
X126010000Y-81160000D01*
X126010000Y-81160000D02*
X126010000Y-71040000D01*
X126010000Y-71040000D02*
X120040000Y-71040000D01*
X120040000Y-71040000D02*
X120040000Y-81160000D01*
X120050000Y-77850000D02*
X120800000Y-77850000D01*
X120800000Y-77850000D02*
X120800000Y-74350000D01*
X120800000Y-74350000D02*
X120050000Y-74350000D01*
X120050000Y-74350000D02*
X120050000Y-77850000D01*
X120050000Y-81150000D02*
X120800000Y-81150000D01*
X120800000Y-81150000D02*
X120800000Y-79350000D01*
X120800000Y-79350000D02*
X120050000Y-79350000D01*
X120050000Y-79350000D02*
X120050000Y-81150000D01*
X120050000Y-72850000D02*
X120800000Y-72850000D01*
X120800000Y-72850000D02*
X120800000Y-71050000D01*
X120800000Y-71050000D02*
X120050000Y-71050000D01*
X120050000Y-71050000D02*
X120050000Y-72850000D01*
X122300000Y-81150000D02*
X122300000Y-80400000D01*
X122300000Y-80400000D02*
X123640000Y-80400000D01*
X125250000Y-76100000D02*
X125250000Y-79340000D01*
X122300000Y-71050000D02*
X122300000Y-71800000D01*
X122300000Y-71800000D02*
X125250000Y-71800000D01*
X125250000Y-71800000D02*
X125250000Y-76100000D01*
X119750000Y-80200000D02*
X119750000Y-81450000D01*
X119750000Y-81450000D02*
X121000000Y-81450000D01*
X116700000Y-79550000D02*
X115200000Y-79550000D01*
X112700000Y-80800000D02*
X112700000Y-85300000D01*
X115200000Y-86550000D02*
X116700000Y-86550000D01*
X119200000Y-85300000D02*
X119200000Y-80800000D01*
D13*
X127630000Y-95530000D02*
X130280000Y-95530000D01*
X127630000Y-94480000D02*
X127630000Y-95530000D01*
X145780000Y-95550000D02*
X143080000Y-95550000D01*
X145780000Y-94510000D02*
X145780000Y-95550000D01*
X127660000Y-69910000D02*
X129290000Y-69910000D01*
X127660000Y-71540000D02*
X127660000Y-69910000D01*
X145730000Y-69910000D02*
X144090000Y-69910000D01*
X145730000Y-71530000D02*
X145730000Y-69910000D01*
D10*
X157400000Y-90190000D02*
X151430000Y-90190000D01*
X151430000Y-90190000D02*
X151430000Y-97810000D01*
X151430000Y-97810000D02*
X157400000Y-97810000D01*
X157400000Y-97810000D02*
X157400000Y-90190000D01*
X157390000Y-93500000D02*
X156640000Y-93500000D01*
X156640000Y-93500000D02*
X156640000Y-94500000D01*
X156640000Y-94500000D02*
X157390000Y-94500000D01*
X157390000Y-94500000D02*
X157390000Y-93500000D01*
X157390000Y-90200000D02*
X156640000Y-90200000D01*
X156640000Y-90200000D02*
X156640000Y-92000000D01*
X156640000Y-92000000D02*
X157390000Y-92000000D01*
X157390000Y-92000000D02*
X157390000Y-90200000D01*
X157390000Y-96000000D02*
X156640000Y-96000000D01*
X156640000Y-96000000D02*
X156640000Y-97800000D01*
X156640000Y-97800000D02*
X157390000Y-97800000D01*
X157390000Y-97800000D02*
X157390000Y-96000000D01*
X155140000Y-90200000D02*
X155140000Y-90950000D01*
X155140000Y-90950000D02*
X153800000Y-90950000D01*
X152190000Y-94000000D02*
X152190000Y-92010000D01*
X155140000Y-97800000D02*
X155140000Y-97050000D01*
X155140000Y-97050000D02*
X152190000Y-97050000D01*
X152190000Y-97050000D02*
X152190000Y-94000000D01*
X157690000Y-91150000D02*
X157690000Y-89900000D01*
X157690000Y-89900000D02*
X156440000Y-89900000D01*
X120040000Y-96660000D02*
X126010000Y-96660000D01*
X126010000Y-96660000D02*
X126010000Y-84040000D01*
X126010000Y-84040000D02*
X120040000Y-84040000D01*
X120040000Y-84040000D02*
X120040000Y-96660000D01*
X120050000Y-93350000D02*
X120800000Y-93350000D01*
X120800000Y-93350000D02*
X120800000Y-87350000D01*
X120800000Y-87350000D02*
X120050000Y-87350000D01*
X120050000Y-87350000D02*
X120050000Y-93350000D01*
X120050000Y-96650000D02*
X120800000Y-96650000D01*
X120800000Y-96650000D02*
X120800000Y-94850000D01*
X120800000Y-94850000D02*
X120050000Y-94850000D01*
X120050000Y-94850000D02*
X120050000Y-96650000D01*
X120050000Y-85850000D02*
X120800000Y-85850000D01*
X120800000Y-85850000D02*
X120800000Y-84050000D01*
X120800000Y-84050000D02*
X120050000Y-84050000D01*
X120050000Y-84050000D02*
X120050000Y-85850000D01*
X122300000Y-96650000D02*
X122300000Y-95900000D01*
X122300000Y-95900000D02*
X123640000Y-95900000D01*
X125250000Y-90350000D02*
X125250000Y-94840000D01*
X122300000Y-84050000D02*
X122300000Y-84800000D01*
X122300000Y-84800000D02*
X125250000Y-84800000D01*
X125250000Y-84800000D02*
X125250000Y-90350000D01*
X119750000Y-95700000D02*
X119750000Y-96950000D01*
X119750000Y-96950000D02*
X121000000Y-96950000D01*
X137180000Y-107870000D02*
X137180000Y-101900000D01*
X137180000Y-101900000D02*
X122060000Y-101900000D01*
X122060000Y-101900000D02*
X122060000Y-107870000D01*
X122060000Y-107870000D02*
X137180000Y-107870000D01*
X133870000Y-107860000D02*
X133870000Y-107110000D01*
X133870000Y-107110000D02*
X125370000Y-107110000D01*
X125370000Y-107110000D02*
X125370000Y-107860000D01*
X125370000Y-107860000D02*
X133870000Y-107860000D01*
X137170000Y-107860000D02*
X137170000Y-107110000D01*
X137170000Y-107110000D02*
X135370000Y-107110000D01*
X135370000Y-107110000D02*
X135370000Y-107860000D01*
X135370000Y-107860000D02*
X137170000Y-107860000D01*
X123870000Y-107860000D02*
X123870000Y-107110000D01*
X123870000Y-107110000D02*
X122070000Y-107110000D01*
X122070000Y-107110000D02*
X122070000Y-107860000D01*
X122070000Y-107860000D02*
X123870000Y-107860000D01*
X137170000Y-105610000D02*
X136420000Y-105610000D01*
X136420000Y-105610000D02*
X136420000Y-104270000D01*
X129620000Y-102660000D02*
X135360000Y-102660000D01*
X122070000Y-105610000D02*
X122820000Y-105610000D01*
X122820000Y-105610000D02*
X122820000Y-102660000D01*
X122820000Y-102660000D02*
X129620000Y-102660000D01*
X136220000Y-108160000D02*
X137470000Y-108160000D01*
X137470000Y-108160000D02*
X137470000Y-106910000D01*
X119460000Y-152380000D02*
X125430000Y-152380000D01*
X125430000Y-152380000D02*
X125430000Y-144760000D01*
X125430000Y-144760000D02*
X119460000Y-144760000D01*
X119460000Y-144760000D02*
X119460000Y-152380000D01*
X119470000Y-149070000D02*
X120220000Y-149070000D01*
X120220000Y-149070000D02*
X120220000Y-148070000D01*
X120220000Y-148070000D02*
X119470000Y-148070000D01*
X119470000Y-148070000D02*
X119470000Y-149070000D01*
X119470000Y-152370000D02*
X120220000Y-152370000D01*
X120220000Y-152370000D02*
X120220000Y-150570000D01*
X120220000Y-150570000D02*
X119470000Y-150570000D01*
X119470000Y-150570000D02*
X119470000Y-152370000D01*
X119470000Y-146570000D02*
X120220000Y-146570000D01*
X120220000Y-146570000D02*
X120220000Y-144770000D01*
X120220000Y-144770000D02*
X119470000Y-144770000D01*
X119470000Y-144770000D02*
X119470000Y-146570000D01*
X121720000Y-152370000D02*
X121720000Y-151620000D01*
X121720000Y-151620000D02*
X123060000Y-151620000D01*
X124670000Y-148570000D02*
X124670000Y-150560000D01*
X121720000Y-144770000D02*
X121720000Y-145520000D01*
X121720000Y-145520000D02*
X124670000Y-145520000D01*
X124670000Y-145520000D02*
X124670000Y-148570000D01*
X119170000Y-151420000D02*
X119170000Y-152670000D01*
X119170000Y-152670000D02*
X120420000Y-152670000D01*
X123110000Y-110470000D02*
X117140000Y-110470000D01*
X117140000Y-110470000D02*
X117140000Y-125590000D01*
X117140000Y-125590000D02*
X123110000Y-125590000D01*
X123110000Y-125590000D02*
X123110000Y-110470000D01*
X123100000Y-113780000D02*
X122350000Y-113780000D01*
X122350000Y-113780000D02*
X122350000Y-122280000D01*
X122350000Y-122280000D02*
X123100000Y-122280000D01*
X123100000Y-122280000D02*
X123100000Y-113780000D01*
X123100000Y-110480000D02*
X122350000Y-110480000D01*
X122350000Y-110480000D02*
X122350000Y-112280000D01*
X122350000Y-112280000D02*
X123100000Y-112280000D01*
X123100000Y-112280000D02*
X123100000Y-110480000D01*
X123100000Y-123780000D02*
X122350000Y-123780000D01*
X122350000Y-123780000D02*
X122350000Y-125580000D01*
X122350000Y-125580000D02*
X123100000Y-125580000D01*
X123100000Y-125580000D02*
X123100000Y-123780000D01*
X120850000Y-110480000D02*
X120850000Y-111230000D01*
X120850000Y-111230000D02*
X119510000Y-111230000D01*
X117900000Y-118030000D02*
X117900000Y-112290000D01*
X120850000Y-125580000D02*
X120850000Y-124830000D01*
X120850000Y-124830000D02*
X117900000Y-124830000D01*
X117900000Y-124830000D02*
X117900000Y-118030000D01*
X123400000Y-111430000D02*
X123400000Y-110180000D01*
X123400000Y-110180000D02*
X122150000Y-110180000D01*
X152770000Y-69870000D02*
X152770000Y-71200000D01*
X151440000Y-69870000D02*
X152770000Y-69870000D01*
X150170000Y-69870000D02*
X150170000Y-72530000D01*
X150170000Y-72530000D02*
X147570000Y-72530000D01*
X150170000Y-69870000D02*
X147570000Y-69870000D01*
X147570000Y-69870000D02*
X147570000Y-72530000D01*
X157670000Y-78090000D02*
X159000000Y-78090000D01*
X157670000Y-79420000D02*
X157670000Y-78090000D01*
X157670000Y-80690000D02*
X160330000Y-80690000D01*
X160330000Y-80690000D02*
X160330000Y-88370000D01*
X157670000Y-80690000D02*
X157670000Y-88370000D01*
X157670000Y-88370000D02*
X160330000Y-88370000D01*
X149290000Y-79797936D02*
X149290000Y-81002064D01*
X151110000Y-79797936D02*
X151110000Y-81002064D01*
X153490000Y-140605000D02*
X158930000Y-140605000D01*
X153490000Y-140365000D02*
X158930000Y-140365000D01*
X153490000Y-140485000D02*
X158930000Y-140485000D01*
X158930000Y-132290000D02*
X158050000Y-132290000D01*
X158930000Y-142030000D02*
X158930000Y-132290000D01*
X158050000Y-142030000D02*
X158930000Y-142030000D01*
X153490000Y-132290000D02*
X154370000Y-132290000D01*
X153490000Y-142030000D02*
X153490000Y-132290000D01*
X154370000Y-142030000D02*
X153490000Y-142030000D01*
X128330354Y-145215000D02*
X128330354Y-146215000D01*
X127830354Y-145715000D02*
X128830354Y-145715000D01*
X138391000Y-147991000D02*
X138391000Y-149189000D01*
X138351000Y-147728000D02*
X138351000Y-149452000D01*
X138311000Y-147528000D02*
X138311000Y-149652000D01*
X138271000Y-147360000D02*
X138271000Y-149820000D01*
X138231000Y-147212000D02*
X138231000Y-149968000D01*
X138191000Y-147080000D02*
X138191000Y-150100000D01*
X138151000Y-146960000D02*
X138151000Y-150220000D01*
X138111000Y-146848000D02*
X138111000Y-150332000D01*
X138071000Y-146744000D02*
X138071000Y-150436000D01*
X138031000Y-146646000D02*
X138031000Y-150534000D01*
X137991000Y-146553000D02*
X137991000Y-150627000D01*
X137951000Y-146465000D02*
X137951000Y-150715000D01*
X137911000Y-146381000D02*
X137911000Y-150799000D01*
X137871000Y-146301000D02*
X137871000Y-150879000D01*
X137831000Y-146225000D02*
X137831000Y-150955000D01*
X137791000Y-146151000D02*
X137791000Y-151029000D01*
X137751000Y-146080000D02*
X137751000Y-151100000D01*
X137711000Y-146011000D02*
X137711000Y-151169000D01*
X137671000Y-145945000D02*
X137671000Y-151235000D01*
X137631000Y-145881000D02*
X137631000Y-151299000D01*
X137591000Y-145820000D02*
X137591000Y-151360000D01*
X137551000Y-145760000D02*
X137551000Y-151420000D01*
X137511000Y-145701000D02*
X137511000Y-151479000D01*
X137471000Y-145645000D02*
X137471000Y-151535000D01*
X137431000Y-145590000D02*
X137431000Y-151590000D01*
X137391000Y-145536000D02*
X137391000Y-151644000D01*
X137351000Y-145484000D02*
X137351000Y-151696000D01*
X137311000Y-145434000D02*
X137311000Y-151746000D01*
X137271000Y-145384000D02*
X137271000Y-151796000D01*
X137231000Y-145336000D02*
X137231000Y-151844000D01*
X137191000Y-145289000D02*
X137191000Y-151891000D01*
X137151000Y-145243000D02*
X137151000Y-151937000D01*
X137111000Y-145198000D02*
X137111000Y-151982000D01*
X137071000Y-145154000D02*
X137071000Y-152026000D01*
X137031000Y-149831000D02*
X137031000Y-152068000D01*
X137031000Y-145112000D02*
X137031000Y-147349000D01*
X136991000Y-149831000D02*
X136991000Y-152110000D01*
X136991000Y-145070000D02*
X136991000Y-147349000D01*
X136951000Y-149831000D02*
X136951000Y-152151000D01*
X136951000Y-145029000D02*
X136951000Y-147349000D01*
X136911000Y-149831000D02*
X136911000Y-152191000D01*
X136911000Y-144989000D02*
X136911000Y-147349000D01*
X136871000Y-149831000D02*
X136871000Y-152230000D01*
X136871000Y-144950000D02*
X136871000Y-147349000D01*
X136831000Y-149831000D02*
X136831000Y-152269000D01*
X136831000Y-144911000D02*
X136831000Y-147349000D01*
X136791000Y-149831000D02*
X136791000Y-152306000D01*
X136791000Y-144874000D02*
X136791000Y-147349000D01*
X136751000Y-149831000D02*
X136751000Y-152343000D01*
X136751000Y-144837000D02*
X136751000Y-147349000D01*
X136711000Y-149831000D02*
X136711000Y-152379000D01*
X136711000Y-144801000D02*
X136711000Y-147349000D01*
X136671000Y-149831000D02*
X136671000Y-152414000D01*
X136671000Y-144766000D02*
X136671000Y-147349000D01*
X136631000Y-149831000D02*
X136631000Y-152448000D01*
X136631000Y-144732000D02*
X136631000Y-147349000D01*
X136591000Y-149831000D02*
X136591000Y-152482000D01*
X136591000Y-144698000D02*
X136591000Y-147349000D01*
X136551000Y-149831000D02*
X136551000Y-152515000D01*
X136551000Y-144665000D02*
X136551000Y-147349000D01*
X136511000Y-149831000D02*
X136511000Y-152547000D01*
X136511000Y-144633000D02*
X136511000Y-147349000D01*
X136471000Y-149831000D02*
X136471000Y-152579000D01*
X136471000Y-144601000D02*
X136471000Y-147349000D01*
X136431000Y-149831000D02*
X136431000Y-152610000D01*
X136431000Y-144570000D02*
X136431000Y-147349000D01*
X136391000Y-149831000D02*
X136391000Y-152640000D01*
X136391000Y-144540000D02*
X136391000Y-147349000D01*
X136351000Y-149831000D02*
X136351000Y-152670000D01*
X136351000Y-144510000D02*
X136351000Y-147349000D01*
X136311000Y-149831000D02*
X136311000Y-152700000D01*
X136311000Y-144480000D02*
X136311000Y-147349000D01*
X136271000Y-149831000D02*
X136271000Y-152728000D01*
X136271000Y-144452000D02*
X136271000Y-147349000D01*
X136231000Y-149831000D02*
X136231000Y-152756000D01*
X136231000Y-144424000D02*
X136231000Y-147349000D01*
X136191000Y-149831000D02*
X136191000Y-152784000D01*
X136191000Y-144396000D02*
X136191000Y-147349000D01*
X136151000Y-149831000D02*
X136151000Y-152811000D01*
X136151000Y-144369000D02*
X136151000Y-147349000D01*
X136111000Y-149831000D02*
X136111000Y-152837000D01*
X136111000Y-144343000D02*
X136111000Y-147349000D01*
X136071000Y-149831000D02*
X136071000Y-152863000D01*
X136071000Y-144317000D02*
X136071000Y-147349000D01*
X136031000Y-149831000D02*
X136031000Y-152888000D01*
X136031000Y-144292000D02*
X136031000Y-147349000D01*
X135991000Y-149831000D02*
X135991000Y-152913000D01*
X135991000Y-144267000D02*
X135991000Y-147349000D01*
X135951000Y-149831000D02*
X135951000Y-152937000D01*
X135951000Y-144243000D02*
X135951000Y-147349000D01*
X135911000Y-149831000D02*
X135911000Y-152961000D01*
X135911000Y-144219000D02*
X135911000Y-147349000D01*
X135871000Y-149831000D02*
X135871000Y-152985000D01*
X135871000Y-144195000D02*
X135871000Y-147349000D01*
X135831000Y-149831000D02*
X135831000Y-153007000D01*
X135831000Y-144173000D02*
X135831000Y-147349000D01*
X135791000Y-149831000D02*
X135791000Y-153030000D01*
X135791000Y-144150000D02*
X135791000Y-147349000D01*
X135751000Y-149831000D02*
X135751000Y-153052000D01*
X135751000Y-144128000D02*
X135751000Y-147349000D01*
X135711000Y-149831000D02*
X135711000Y-153073000D01*
X135711000Y-144107000D02*
X135711000Y-147349000D01*
X135671000Y-149831000D02*
X135671000Y-153094000D01*
X135671000Y-144086000D02*
X135671000Y-147349000D01*
X135631000Y-149831000D02*
X135631000Y-153115000D01*
X135631000Y-144065000D02*
X135631000Y-147349000D01*
X135591000Y-149831000D02*
X135591000Y-153135000D01*
X135591000Y-144045000D02*
X135591000Y-147349000D01*
X135551000Y-149831000D02*
X135551000Y-153154000D01*
X135551000Y-144026000D02*
X135551000Y-147349000D01*
X135511000Y-149831000D02*
X135511000Y-153174000D01*
X135511000Y-144006000D02*
X135511000Y-147349000D01*
X135471000Y-149831000D02*
X135471000Y-153193000D01*
X135471000Y-143987000D02*
X135471000Y-147349000D01*
X135431000Y-149831000D02*
X135431000Y-153211000D01*
X135431000Y-143969000D02*
X135431000Y-147349000D01*
X135391000Y-149831000D02*
X135391000Y-153229000D01*
X135391000Y-143951000D02*
X135391000Y-147349000D01*
X135351000Y-149831000D02*
X135351000Y-153247000D01*
X135351000Y-143933000D02*
X135351000Y-147349000D01*
X135311000Y-149831000D02*
X135311000Y-153264000D01*
X135311000Y-143916000D02*
X135311000Y-147349000D01*
X135271000Y-149831000D02*
X135271000Y-153280000D01*
X135271000Y-143900000D02*
X135271000Y-147349000D01*
X135231000Y-149831000D02*
X135231000Y-153297000D01*
X135231000Y-143883000D02*
X135231000Y-147349000D01*
X135191000Y-149831000D02*
X135191000Y-153313000D01*
X135191000Y-143867000D02*
X135191000Y-147349000D01*
X135151000Y-149831000D02*
X135151000Y-153328000D01*
X135151000Y-143852000D02*
X135151000Y-147349000D01*
X135111000Y-149831000D02*
X135111000Y-153344000D01*
X135111000Y-143836000D02*
X135111000Y-147349000D01*
X135071000Y-149831000D02*
X135071000Y-153358000D01*
X135071000Y-143822000D02*
X135071000Y-147349000D01*
X135031000Y-149831000D02*
X135031000Y-153373000D01*
X135031000Y-143807000D02*
X135031000Y-147349000D01*
X134991000Y-149831000D02*
X134991000Y-153387000D01*
X134991000Y-143793000D02*
X134991000Y-147349000D01*
X134951000Y-149831000D02*
X134951000Y-153401000D01*
X134951000Y-143779000D02*
X134951000Y-147349000D01*
X134911000Y-149831000D02*
X134911000Y-153414000D01*
X134911000Y-143766000D02*
X134911000Y-147349000D01*
X134871000Y-149831000D02*
X134871000Y-153427000D01*
X134871000Y-143753000D02*
X134871000Y-147349000D01*
X134831000Y-149831000D02*
X134831000Y-153440000D01*
X134831000Y-143740000D02*
X134831000Y-147349000D01*
X134791000Y-149831000D02*
X134791000Y-153452000D01*
X134791000Y-143728000D02*
X134791000Y-147349000D01*
X134751000Y-149831000D02*
X134751000Y-153464000D01*
X134751000Y-143716000D02*
X134751000Y-147349000D01*
X134711000Y-149831000D02*
X134711000Y-153475000D01*
X134711000Y-143705000D02*
X134711000Y-147349000D01*
X134671000Y-149831000D02*
X134671000Y-153487000D01*
X134671000Y-143693000D02*
X134671000Y-147349000D01*
X134631000Y-149831000D02*
X134631000Y-153497000D01*
X134631000Y-143683000D02*
X134631000Y-147349000D01*
X134591000Y-149831000D02*
X134591000Y-153508000D01*
X134591000Y-143672000D02*
X134591000Y-147349000D01*
X134551000Y-143662000D02*
X134551000Y-153518000D01*
X134511000Y-143652000D02*
X134511000Y-153528000D01*
X134471000Y-143643000D02*
X134471000Y-153537000D01*
X134431000Y-143634000D02*
X134431000Y-153546000D01*
X134391000Y-143625000D02*
X134391000Y-153555000D01*
X134351000Y-143616000D02*
X134351000Y-153564000D01*
X134311000Y-143608000D02*
X134311000Y-153572000D01*
X134271000Y-143600000D02*
X134271000Y-153580000D01*
X134231000Y-143593000D02*
X134231000Y-153587000D01*
X134191000Y-143586000D02*
X134191000Y-153594000D01*
X134151000Y-143579000D02*
X134151000Y-153601000D01*
X134111000Y-143572000D02*
X134111000Y-153608000D01*
X134071000Y-143566000D02*
X134071000Y-153614000D01*
X134031000Y-143560000D02*
X134031000Y-153620000D01*
X133990000Y-143555000D02*
X133990000Y-153625000D01*
X133950000Y-143550000D02*
X133950000Y-153630000D01*
X133910000Y-143545000D02*
X133910000Y-153635000D01*
X133870000Y-143540000D02*
X133870000Y-153640000D01*
X133830000Y-143536000D02*
X133830000Y-153644000D01*
X133790000Y-143532000D02*
X133790000Y-153648000D01*
X133750000Y-143528000D02*
X133750000Y-153652000D01*
X133710000Y-143525000D02*
X133710000Y-153655000D01*
X133670000Y-143522000D02*
X133670000Y-153658000D01*
X133630000Y-143520000D02*
X133630000Y-153660000D01*
X133590000Y-143517000D02*
X133590000Y-153663000D01*
X133550000Y-143515000D02*
X133550000Y-153665000D01*
X133510000Y-143513000D02*
X133510000Y-153667000D01*
X133470000Y-143512000D02*
X133470000Y-153668000D01*
X133430000Y-143511000D02*
X133430000Y-153669000D01*
X133390000Y-143510000D02*
X133390000Y-153670000D01*
X133350000Y-143510000D02*
X133350000Y-153670000D01*
X133310000Y-143510000D02*
X133310000Y-153670000D01*
X138430000Y-148590000D02*
G75*
G03X138430000Y-148590000I-5120000J0D01*
G01*
X122306000Y-137825241D02*
X122936000Y-137825241D01*
X122621000Y-138140241D02*
X122621000Y-137510241D01*
X124058000Y-131399000D02*
X124862000Y-131399000D01*
X123827000Y-131439000D02*
X125093000Y-131439000D01*
X123658000Y-131479000D02*
X125262000Y-131479000D01*
X123520000Y-131519000D02*
X125400000Y-131519000D01*
X123401000Y-131559000D02*
X125519000Y-131559000D01*
X123295000Y-131599000D02*
X125625000Y-131599000D01*
X123198000Y-131639000D02*
X125722000Y-131639000D01*
X123110000Y-131679000D02*
X125810000Y-131679000D01*
X123028000Y-131719000D02*
X125892000Y-131719000D01*
X122951000Y-131759000D02*
X125969000Y-131759000D01*
X122879000Y-131799000D02*
X126041000Y-131799000D01*
X122810000Y-131839000D02*
X126110000Y-131839000D01*
X122746000Y-131879000D02*
X126174000Y-131879000D01*
X122684000Y-131919000D02*
X126236000Y-131919000D01*
X122626000Y-131959000D02*
X126294000Y-131959000D01*
X122570000Y-131999000D02*
X126350000Y-131999000D01*
X122516000Y-132039000D02*
X126404000Y-132039000D01*
X122465000Y-132079000D02*
X126455000Y-132079000D01*
X122416000Y-132119000D02*
X126504000Y-132119000D01*
X122368000Y-132159000D02*
X126552000Y-132159000D01*
X122323000Y-132199000D02*
X126597000Y-132199000D01*
X122278000Y-132239000D02*
X126642000Y-132239000D01*
X122236000Y-132279000D02*
X126684000Y-132279000D01*
X122195000Y-132319000D02*
X126725000Y-132319000D01*
X125500000Y-132359000D02*
X126765000Y-132359000D01*
X122155000Y-132359000D02*
X123420000Y-132359000D01*
X125500000Y-132399000D02*
X126803000Y-132399000D01*
X122117000Y-132399000D02*
X123420000Y-132399000D01*
X125500000Y-132439000D02*
X126840000Y-132439000D01*
X122080000Y-132439000D02*
X123420000Y-132439000D01*
X125500000Y-132479000D02*
X126876000Y-132479000D01*
X122044000Y-132479000D02*
X123420000Y-132479000D01*
X125500000Y-132519000D02*
X126910000Y-132519000D01*
X122010000Y-132519000D02*
X123420000Y-132519000D01*
X125500000Y-132559000D02*
X126944000Y-132559000D01*
X121976000Y-132559000D02*
X123420000Y-132559000D01*
X125500000Y-132599000D02*
X126976000Y-132599000D01*
X121944000Y-132599000D02*
X123420000Y-132599000D01*
X125500000Y-132639000D02*
X127008000Y-132639000D01*
X121912000Y-132639000D02*
X123420000Y-132639000D01*
X125500000Y-132679000D02*
X127038000Y-132679000D01*
X121882000Y-132679000D02*
X123420000Y-132679000D01*
X125500000Y-132719000D02*
X127067000Y-132719000D01*
X121853000Y-132719000D02*
X123420000Y-132719000D01*
X125500000Y-132759000D02*
X127096000Y-132759000D01*
X121824000Y-132759000D02*
X123420000Y-132759000D01*
X125500000Y-132799000D02*
X127124000Y-132799000D01*
X121796000Y-132799000D02*
X123420000Y-132799000D01*
X125500000Y-132839000D02*
X127150000Y-132839000D01*
X121770000Y-132839000D02*
X123420000Y-132839000D01*
X125500000Y-132879000D02*
X127176000Y-132879000D01*
X121744000Y-132879000D02*
X123420000Y-132879000D01*
X125500000Y-132919000D02*
X127202000Y-132919000D01*
X121718000Y-132919000D02*
X123420000Y-132919000D01*
X125500000Y-132959000D02*
X127226000Y-132959000D01*
X121694000Y-132959000D02*
X123420000Y-132959000D01*
X125500000Y-132999000D02*
X127250000Y-132999000D01*
X121670000Y-132999000D02*
X123420000Y-132999000D01*
X125500000Y-133039000D02*
X127272000Y-133039000D01*
X121648000Y-133039000D02*
X123420000Y-133039000D01*
X125500000Y-133079000D02*
X127294000Y-133079000D01*
X121626000Y-133079000D02*
X123420000Y-133079000D01*
X125500000Y-133119000D02*
X127316000Y-133119000D01*
X121604000Y-133119000D02*
X123420000Y-133119000D01*
X125500000Y-133159000D02*
X127336000Y-133159000D01*
X121584000Y-133159000D02*
X123420000Y-133159000D01*
X125500000Y-133199000D02*
X127356000Y-133199000D01*
X121564000Y-133199000D02*
X123420000Y-133199000D01*
X125500000Y-133239000D02*
X127376000Y-133239000D01*
X121544000Y-133239000D02*
X123420000Y-133239000D01*
X125500000Y-133279000D02*
X127394000Y-133279000D01*
X121526000Y-133279000D02*
X123420000Y-133279000D01*
X125500000Y-133319000D02*
X127412000Y-133319000D01*
X121508000Y-133319000D02*
X123420000Y-133319000D01*
X125500000Y-133359000D02*
X127430000Y-133359000D01*
X121490000Y-133359000D02*
X123420000Y-133359000D01*
X125500000Y-133399000D02*
X127446000Y-133399000D01*
X121474000Y-133399000D02*
X123420000Y-133399000D01*
X125500000Y-133439000D02*
X127462000Y-133439000D01*
X121458000Y-133439000D02*
X123420000Y-133439000D01*
X125500000Y-133479000D02*
X127478000Y-133479000D01*
X121442000Y-133479000D02*
X123420000Y-133479000D01*
X125500000Y-133519000D02*
X127493000Y-133519000D01*
X121427000Y-133519000D02*
X123420000Y-133519000D01*
X125500000Y-133559000D02*
X127507000Y-133559000D01*
X121413000Y-133559000D02*
X123420000Y-133559000D01*
X125500000Y-133599000D02*
X127521000Y-133599000D01*
X121399000Y-133599000D02*
X123420000Y-133599000D01*
X125500000Y-133639000D02*
X127534000Y-133639000D01*
X121386000Y-133639000D02*
X123420000Y-133639000D01*
X125500000Y-133679000D02*
X127546000Y-133679000D01*
X121374000Y-133679000D02*
X123420000Y-133679000D01*
X125500000Y-133719000D02*
X127558000Y-133719000D01*
X121362000Y-133719000D02*
X123420000Y-133719000D01*
X125500000Y-133759000D02*
X127570000Y-133759000D01*
X121350000Y-133759000D02*
X123420000Y-133759000D01*
X125500000Y-133799000D02*
X127581000Y-133799000D01*
X121339000Y-133799000D02*
X123420000Y-133799000D01*
X125500000Y-133839000D02*
X127591000Y-133839000D01*
X121329000Y-133839000D02*
X123420000Y-133839000D01*
X125500000Y-133879000D02*
X127601000Y-133879000D01*
X121319000Y-133879000D02*
X123420000Y-133879000D01*
X125500000Y-133919000D02*
X127610000Y-133919000D01*
X121310000Y-133919000D02*
X123420000Y-133919000D01*
X125500000Y-133960000D02*
X127619000Y-133960000D01*
X121301000Y-133960000D02*
X123420000Y-133960000D01*
X125500000Y-134000000D02*
X127627000Y-134000000D01*
X121293000Y-134000000D02*
X123420000Y-134000000D01*
X125500000Y-134040000D02*
X127635000Y-134040000D01*
X121285000Y-134040000D02*
X123420000Y-134040000D01*
X125500000Y-134080000D02*
X127642000Y-134080000D01*
X121278000Y-134080000D02*
X123420000Y-134080000D01*
X125500000Y-134120000D02*
X127649000Y-134120000D01*
X121271000Y-134120000D02*
X123420000Y-134120000D01*
X125500000Y-134160000D02*
X127655000Y-134160000D01*
X121265000Y-134160000D02*
X123420000Y-134160000D01*
X125500000Y-134200000D02*
X127661000Y-134200000D01*
X121259000Y-134200000D02*
X123420000Y-134200000D01*
X125500000Y-134240000D02*
X127666000Y-134240000D01*
X121254000Y-134240000D02*
X123420000Y-134240000D01*
X125500000Y-134280000D02*
X127671000Y-134280000D01*
X121249000Y-134280000D02*
X123420000Y-134280000D01*
X125500000Y-134320000D02*
X127675000Y-134320000D01*
X121245000Y-134320000D02*
X123420000Y-134320000D01*
X125500000Y-134360000D02*
X127678000Y-134360000D01*
X121242000Y-134360000D02*
X123420000Y-134360000D01*
X125500000Y-134400000D02*
X127682000Y-134400000D01*
X121238000Y-134400000D02*
X123420000Y-134400000D01*
X121236000Y-134440000D02*
X127684000Y-134440000D01*
X121233000Y-134480000D02*
X127687000Y-134480000D01*
X121232000Y-134520000D02*
X127688000Y-134520000D01*
X121230000Y-134560000D02*
X127690000Y-134560000D01*
X121230000Y-134600000D02*
X127690000Y-134600000D01*
X121230000Y-134640000D02*
X127690000Y-134640000D01*
X127730000Y-134640000D02*
G75*
G03X127730000Y-134640000I-3270000J0D01*
G01*
D14*
X137438095Y-141327380D02*
X137438095Y-142136904D01*
X137485714Y-142232142D01*
X137533333Y-142279761D01*
X137628571Y-142327380D01*
X137819047Y-142327380D01*
X137914285Y-142279761D01*
X137961904Y-142232142D01*
X138009523Y-142136904D01*
X138009523Y-141327380D01*
X139009523Y-142327380D02*
X138438095Y-142327380D01*
X138723809Y-142327380D02*
X138723809Y-141327380D01*
X138628571Y-141470238D01*
X138533333Y-141565476D01*
X138438095Y-141613095D01*
X111302380Y-97459523D02*
X112016666Y-97459523D01*
X112159523Y-97507142D01*
X112254761Y-97602380D01*
X112302380Y-97745238D01*
X112302380Y-97840476D01*
X112302380Y-96459523D02*
X112302380Y-97030952D01*
X112302380Y-96745238D02*
X111302380Y-96745238D01*
X111445238Y-96840476D01*
X111540476Y-96935714D01*
X111588095Y-97030952D01*
X111397619Y-96078571D02*
X111350000Y-96030952D01*
X111302380Y-95935714D01*
X111302380Y-95697619D01*
X111350000Y-95602380D01*
X111397619Y-95554761D01*
X111492857Y-95507142D01*
X111588095Y-95507142D01*
X111730952Y-95554761D01*
X112302380Y-96126190D01*
X112302380Y-95507142D01*
X146193333Y-156542380D02*
X145717142Y-156542380D01*
X145717142Y-155542380D01*
X147050476Y-156542380D02*
X146479047Y-156542380D01*
X146764761Y-156542380D02*
X146764761Y-155542380D01*
X146669523Y-155685238D01*
X146574285Y-155780476D01*
X146479047Y-155828095D01*
X135082380Y-118839523D02*
X135796666Y-118839523D01*
X135939523Y-118887142D01*
X136034761Y-118982380D01*
X136082380Y-119125238D01*
X136082380Y-119220476D01*
X136082380Y-117839523D02*
X136082380Y-118410952D01*
X136082380Y-118125238D02*
X135082380Y-118125238D01*
X135225238Y-118220476D01*
X135320476Y-118315714D01*
X135368095Y-118410952D01*
X135082380Y-117220476D02*
X135082380Y-117125238D01*
X135130000Y-117030000D01*
X135177619Y-116982380D01*
X135272857Y-116934761D01*
X135463333Y-116887142D01*
X135701428Y-116887142D01*
X135891904Y-116934761D01*
X135987142Y-116982380D01*
X136034761Y-117030000D01*
X136082380Y-117125238D01*
X136082380Y-117220476D01*
X136034761Y-117315714D01*
X135987142Y-117363333D01*
X135891904Y-117410952D01*
X135701428Y-117458571D01*
X135463333Y-117458571D01*
X135272857Y-117410952D01*
X135177619Y-117363333D01*
X135130000Y-117315714D01*
X135082380Y-117220476D01*
X149572380Y-118523333D02*
X150286666Y-118523333D01*
X150429523Y-118570952D01*
X150524761Y-118666190D01*
X150572380Y-118809047D01*
X150572380Y-118904285D01*
X150572380Y-117999523D02*
X150572380Y-117809047D01*
X150524761Y-117713809D01*
X150477142Y-117666190D01*
X150334285Y-117570952D01*
X150143809Y-117523333D01*
X149762857Y-117523333D01*
X149667619Y-117570952D01*
X149620000Y-117618571D01*
X149572380Y-117713809D01*
X149572380Y-117904285D01*
X149620000Y-117999523D01*
X149667619Y-118047142D01*
X149762857Y-118094761D01*
X150000952Y-118094761D01*
X150096190Y-118047142D01*
X150143809Y-117999523D01*
X150191428Y-117904285D01*
X150191428Y-117713809D01*
X150143809Y-117618571D01*
X150096190Y-117570952D01*
X150000952Y-117523333D01*
X138142380Y-118523333D02*
X138856666Y-118523333D01*
X138999523Y-118570952D01*
X139094761Y-118666190D01*
X139142380Y-118809047D01*
X139142380Y-118904285D01*
X138570952Y-117904285D02*
X138523333Y-117999523D01*
X138475714Y-118047142D01*
X138380476Y-118094761D01*
X138332857Y-118094761D01*
X138237619Y-118047142D01*
X138190000Y-117999523D01*
X138142380Y-117904285D01*
X138142380Y-117713809D01*
X138190000Y-117618571D01*
X138237619Y-117570952D01*
X138332857Y-117523333D01*
X138380476Y-117523333D01*
X138475714Y-117570952D01*
X138523333Y-117618571D01*
X138570952Y-117713809D01*
X138570952Y-117904285D01*
X138618571Y-117999523D01*
X138666190Y-118047142D01*
X138761428Y-118094761D01*
X138951904Y-118094761D01*
X139047142Y-118047142D01*
X139094761Y-117999523D01*
X139142380Y-117904285D01*
X139142380Y-117713809D01*
X139094761Y-117618571D01*
X139047142Y-117570952D01*
X138951904Y-117523333D01*
X138761428Y-117523333D01*
X138666190Y-117570952D01*
X138618571Y-117618571D01*
X138570952Y-117713809D01*
X147406666Y-108502380D02*
X147406666Y-109216666D01*
X147359047Y-109359523D01*
X147263809Y-109454761D01*
X147120952Y-109502380D01*
X147025714Y-109502380D01*
X148311428Y-108502380D02*
X148120952Y-108502380D01*
X148025714Y-108550000D01*
X147978095Y-108597619D01*
X147882857Y-108740476D01*
X147835238Y-108930952D01*
X147835238Y-109311904D01*
X147882857Y-109407142D01*
X147930476Y-109454761D01*
X148025714Y-109502380D01*
X148216190Y-109502380D01*
X148311428Y-109454761D01*
X148359047Y-109407142D01*
X148406666Y-109311904D01*
X148406666Y-109073809D01*
X148359047Y-108978571D01*
X148311428Y-108930952D01*
X148216190Y-108883333D01*
X148025714Y-108883333D01*
X147930476Y-108930952D01*
X147882857Y-108978571D01*
X147835238Y-109073809D01*
X118402380Y-76433333D02*
X119116666Y-76433333D01*
X119259523Y-76480952D01*
X119354761Y-76576190D01*
X119402380Y-76719047D01*
X119402380Y-76814285D01*
X118402380Y-75480952D02*
X118402380Y-75957142D01*
X118878571Y-76004761D01*
X118830952Y-75957142D01*
X118783333Y-75861904D01*
X118783333Y-75623809D01*
X118830952Y-75528571D01*
X118878571Y-75480952D01*
X118973809Y-75433333D01*
X119211904Y-75433333D01*
X119307142Y-75480952D01*
X119354761Y-75528571D01*
X119402380Y-75623809D01*
X119402380Y-75861904D01*
X119354761Y-75957142D01*
X119307142Y-76004761D01*
X112104761Y-84383333D02*
X112152380Y-84240476D01*
X112152380Y-84002380D01*
X112104761Y-83907142D01*
X112057142Y-83859523D01*
X111961904Y-83811904D01*
X111866666Y-83811904D01*
X111771428Y-83859523D01*
X111723809Y-83907142D01*
X111676190Y-84002380D01*
X111628571Y-84192857D01*
X111580952Y-84288095D01*
X111533333Y-84335714D01*
X111438095Y-84383333D01*
X111342857Y-84383333D01*
X111247619Y-84335714D01*
X111200000Y-84288095D01*
X111152380Y-84192857D01*
X111152380Y-83954761D01*
X111200000Y-83811904D01*
X111152380Y-83478571D02*
X112152380Y-83240476D01*
X111438095Y-83050000D01*
X112152380Y-82859523D01*
X111152380Y-82621428D01*
X112152380Y-81716666D02*
X112152380Y-82288095D01*
X112152380Y-82002380D02*
X111152380Y-82002380D01*
X111295238Y-82097619D01*
X111390476Y-82192857D01*
X111438095Y-82288095D01*
X148052380Y-89733333D02*
X147052380Y-89733333D01*
X147766666Y-89400000D01*
X147052380Y-89066666D01*
X148052380Y-89066666D01*
X147052380Y-88400000D02*
X147052380Y-88209523D01*
X147100000Y-88114285D01*
X147195238Y-88019047D01*
X147385714Y-87971428D01*
X147719047Y-87971428D01*
X147909523Y-88019047D01*
X148004761Y-88114285D01*
X148052380Y-88209523D01*
X148052380Y-88400000D01*
X148004761Y-88495238D01*
X147909523Y-88590476D01*
X147719047Y-88638095D01*
X147385714Y-88638095D01*
X147195238Y-88590476D01*
X147100000Y-88495238D01*
X147052380Y-88400000D01*
X148052380Y-87542857D02*
X147052380Y-87542857D01*
X147052380Y-87304761D01*
X147100000Y-87161904D01*
X147195238Y-87066666D01*
X147290476Y-87019047D01*
X147480952Y-86971428D01*
X147623809Y-86971428D01*
X147814285Y-87019047D01*
X147909523Y-87066666D01*
X148004761Y-87161904D01*
X148052380Y-87304761D01*
X148052380Y-87542857D01*
X148052380Y-86019047D02*
X148052380Y-86590476D01*
X148052380Y-86304761D02*
X147052380Y-86304761D01*
X147195238Y-86400000D01*
X147290476Y-86495238D01*
X147338095Y-86590476D01*
X157942380Y-94333333D02*
X158656666Y-94333333D01*
X158799523Y-94380952D01*
X158894761Y-94476190D01*
X158942380Y-94619047D01*
X158942380Y-94714285D01*
X158275714Y-93428571D02*
X158942380Y-93428571D01*
X157894761Y-93666666D02*
X158609047Y-93904761D01*
X158609047Y-93285714D01*
X122166666Y-97052380D02*
X122166666Y-97766666D01*
X122119047Y-97909523D01*
X122023809Y-98004761D01*
X121880952Y-98052380D01*
X121785714Y-98052380D01*
X122547619Y-97052380D02*
X123166666Y-97052380D01*
X122833333Y-97433333D01*
X122976190Y-97433333D01*
X123071428Y-97480952D01*
X123119047Y-97528571D01*
X123166666Y-97623809D01*
X123166666Y-97861904D01*
X123119047Y-97957142D01*
X123071428Y-98004761D01*
X122976190Y-98052380D01*
X122690476Y-98052380D01*
X122595238Y-98004761D01*
X122547619Y-97957142D01*
X129286666Y-108412380D02*
X129286666Y-109126666D01*
X129239047Y-109269523D01*
X129143809Y-109364761D01*
X129000952Y-109412380D01*
X128905714Y-109412380D01*
X129715238Y-108507619D02*
X129762857Y-108460000D01*
X129858095Y-108412380D01*
X130096190Y-108412380D01*
X130191428Y-108460000D01*
X130239047Y-108507619D01*
X130286666Y-108602857D01*
X130286666Y-108698095D01*
X130239047Y-108840952D01*
X129667619Y-109412380D01*
X130286666Y-109412380D01*
X117822380Y-148903333D02*
X118536666Y-148903333D01*
X118679523Y-148950952D01*
X118774761Y-149046190D01*
X118822380Y-149189047D01*
X118822380Y-149284285D01*
X118822380Y-147903333D02*
X118822380Y-148474761D01*
X118822380Y-148189047D02*
X117822380Y-148189047D01*
X117965238Y-148284285D01*
X118060476Y-148379523D01*
X118108095Y-148474761D01*
X123652380Y-118839523D02*
X124366666Y-118839523D01*
X124509523Y-118887142D01*
X124604761Y-118982380D01*
X124652380Y-119125238D01*
X124652380Y-119220476D01*
X124652380Y-117839523D02*
X124652380Y-118410952D01*
X124652380Y-118125238D02*
X123652380Y-118125238D01*
X123795238Y-118220476D01*
X123890476Y-118315714D01*
X123938095Y-118410952D01*
X124652380Y-116887142D02*
X124652380Y-117458571D01*
X124652380Y-117172857D02*
X123652380Y-117172857D01*
X123795238Y-117268095D01*
X123890476Y-117363333D01*
X123938095Y-117458571D01*
X153222380Y-72033333D02*
X153936666Y-72033333D01*
X154079523Y-72080952D01*
X154174761Y-72176190D01*
X154222380Y-72319047D01*
X154222380Y-72414285D01*
X154222380Y-71557142D02*
X153222380Y-71557142D01*
X153222380Y-71176190D01*
X153270000Y-71080952D01*
X153317619Y-71033333D01*
X153412857Y-70985714D01*
X153555714Y-70985714D01*
X153650952Y-71033333D01*
X153698571Y-71080952D01*
X153746190Y-71176190D01*
X153746190Y-71557142D01*
X154222380Y-70033333D02*
X154222380Y-70604761D01*
X154222380Y-70319047D02*
X153222380Y-70319047D01*
X153365238Y-70414285D01*
X153460476Y-70509523D01*
X153508095Y-70604761D01*
X158666666Y-76542380D02*
X158666666Y-77256666D01*
X158619047Y-77399523D01*
X158523809Y-77494761D01*
X158380952Y-77542380D01*
X158285714Y-77542380D01*
X159047619Y-76542380D02*
X159714285Y-76542380D01*
X159285714Y-77542380D01*
X152472380Y-80566666D02*
X151996190Y-80900000D01*
X152472380Y-81138095D02*
X151472380Y-81138095D01*
X151472380Y-80757142D01*
X151520000Y-80661904D01*
X151567619Y-80614285D01*
X151662857Y-80566666D01*
X151805714Y-80566666D01*
X151900952Y-80614285D01*
X151948571Y-80661904D01*
X151996190Y-80757142D01*
X151996190Y-81138095D01*
X151805714Y-79709523D02*
X152472380Y-79709523D01*
X151424761Y-79947619D02*
X152139047Y-80185714D01*
X152139047Y-79566666D01*
X152942380Y-137898095D02*
X151942380Y-137898095D01*
X151942380Y-137660000D01*
X151990000Y-137517142D01*
X152085238Y-137421904D01*
X152180476Y-137374285D01*
X152370952Y-137326666D01*
X152513809Y-137326666D01*
X152704285Y-137374285D01*
X152799523Y-137421904D01*
X152894761Y-137517142D01*
X152942380Y-137660000D01*
X152942380Y-137898095D01*
X152942380Y-136374285D02*
X152942380Y-136945714D01*
X152942380Y-136660000D02*
X151942380Y-136660000D01*
X152085238Y-136755238D01*
X152180476Y-136850476D01*
X152228095Y-136945714D01*
X154062380Y-143771904D02*
X153062380Y-143771904D01*
X154062380Y-143200476D02*
X153490952Y-143629047D01*
X153062380Y-143200476D02*
X153633809Y-143771904D01*
X133143333Y-142697142D02*
X133095714Y-142744761D01*
X132952857Y-142792380D01*
X132857619Y-142792380D01*
X132714761Y-142744761D01*
X132619523Y-142649523D01*
X132571904Y-142554285D01*
X132524285Y-142363809D01*
X132524285Y-142220952D01*
X132571904Y-142030476D01*
X132619523Y-141935238D01*
X132714761Y-141840000D01*
X132857619Y-141792380D01*
X132952857Y-141792380D01*
X133095714Y-141840000D01*
X133143333Y-141887619D01*
X134095714Y-142792380D02*
X133524285Y-142792380D01*
X133810000Y-142792380D02*
X133810000Y-141792380D01*
X133714761Y-141935238D01*
X133619523Y-142030476D01*
X133524285Y-142078095D01*
X120417142Y-134806666D02*
X120464761Y-134854285D01*
X120512380Y-134997142D01*
X120512380Y-135092380D01*
X120464761Y-135235238D01*
X120369523Y-135330476D01*
X120274285Y-135378095D01*
X120083809Y-135425714D01*
X119940952Y-135425714D01*
X119750476Y-135378095D01*
X119655238Y-135330476D01*
X119560000Y-135235238D01*
X119512380Y-135092380D01*
X119512380Y-134997142D01*
X119560000Y-134854285D01*
X119607619Y-134806666D01*
X119607619Y-134425714D02*
X119560000Y-134378095D01*
X119512380Y-134282857D01*
X119512380Y-134044761D01*
X119560000Y-133949523D01*
X119607619Y-133901904D01*
X119702857Y-133854285D01*
X119798095Y-133854285D01*
X119940952Y-133901904D01*
X120512380Y-134473333D01*
X120512380Y-133854285D01*
M02*
