G04 #@! TF.GenerationSoftware,KiCad,Pcbnew,(5.1.5)-3*
G04 #@! TF.CreationDate,2020-08-20T14:44:53-04:00*
G04 #@! TF.ProjectId,Ebike Board,4562696b-6520-4426-9f61-72642e6b6963,rev?*
G04 #@! TF.SameCoordinates,Original*
G04 #@! TF.FileFunction,Copper,L1,Top*
G04 #@! TF.FilePolarity,Positive*
%FSLAX46Y46*%
G04 Gerber Fmt 4.6, Leading zero omitted, Abs format (unit mm)*
G04 Created by KiCad (PCBNEW (5.1.5)-3) date 2020-08-20 14:44:53*
%MOMM*%
%LPD*%
G04 APERTURE LIST*
%ADD10C,0.120000*%
%ADD11C,0.050000*%
%ADD12R,9.400000X10.800000*%
%ADD13R,4.600000X1.100000*%
%ADD14O,1.950000X1.700000*%
%ADD15C,0.100000*%
%ADD16C,2.400000*%
%ADD17O,1.700000X1.950000*%
%ADD18C,2.000000*%
%ADD19R,5.000000X5.000000*%
%ADD20R,2.000000X0.900000*%
%ADD21R,0.900000X2.000000*%
%ADD22O,2.000000X1.700000*%
%ADD23O,1.700000X1.700000*%
%ADD24R,1.700000X1.700000*%
%ADD25O,3.200000X3.200000*%
%ADD26R,3.200000X3.200000*%
%ADD27R,2.000000X2.000000*%
%ADD28C,1.600000*%
%ADD29R,1.600000X1.600000*%
%ADD30C,1.500000*%
%ADD31C,0.250000*%
G04 APERTURE END LIST*
D10*
X111900000Y-157100000D02*
G75*
G02X111000000Y-156200000I0J900000D01*
G01*
X111000000Y-70600000D02*
G75*
G02X111900000Y-69700000I900000J0D01*
G01*
X159600000Y-69700000D02*
G75*
G02X160500000Y-70600000I0J-900000D01*
G01*
X160500000Y-156200000D02*
G75*
G02X159600000Y-157100000I-900000J0D01*
G01*
D11*
X111000000Y-156200000D02*
X111000000Y-70600000D01*
X159600000Y-157100000D02*
X111900000Y-157100000D01*
X160500000Y-70600000D02*
X160500000Y-156200000D01*
X111900000Y-69700000D02*
X159600000Y-69700000D01*
D12*
X134825000Y-135225000D03*
D13*
X143975000Y-131825000D03*
X143975000Y-133525000D03*
X143975000Y-135225000D03*
X143975000Y-136925000D03*
X143975000Y-138625000D03*
D14*
X115400000Y-92900000D03*
X115400000Y-95400000D03*
X115400000Y-97900000D03*
G04 #@! TA.AperFunction,ComponentPad*
D15*
G36*
X116149504Y-99551204D02*
G01*
X116173773Y-99554804D01*
X116197571Y-99560765D01*
X116220671Y-99569030D01*
X116242849Y-99579520D01*
X116263893Y-99592133D01*
X116283598Y-99606747D01*
X116301777Y-99623223D01*
X116318253Y-99641402D01*
X116332867Y-99661107D01*
X116345480Y-99682151D01*
X116355970Y-99704329D01*
X116364235Y-99727429D01*
X116370196Y-99751227D01*
X116373796Y-99775496D01*
X116375000Y-99800000D01*
X116375000Y-101000000D01*
X116373796Y-101024504D01*
X116370196Y-101048773D01*
X116364235Y-101072571D01*
X116355970Y-101095671D01*
X116345480Y-101117849D01*
X116332867Y-101138893D01*
X116318253Y-101158598D01*
X116301777Y-101176777D01*
X116283598Y-101193253D01*
X116263893Y-101207867D01*
X116242849Y-101220480D01*
X116220671Y-101230970D01*
X116197571Y-101239235D01*
X116173773Y-101245196D01*
X116149504Y-101248796D01*
X116125000Y-101250000D01*
X114675000Y-101250000D01*
X114650496Y-101248796D01*
X114626227Y-101245196D01*
X114602429Y-101239235D01*
X114579329Y-101230970D01*
X114557151Y-101220480D01*
X114536107Y-101207867D01*
X114516402Y-101193253D01*
X114498223Y-101176777D01*
X114481747Y-101158598D01*
X114467133Y-101138893D01*
X114454520Y-101117849D01*
X114444030Y-101095671D01*
X114435765Y-101072571D01*
X114429804Y-101048773D01*
X114426204Y-101024504D01*
X114425000Y-101000000D01*
X114425000Y-99800000D01*
X114426204Y-99775496D01*
X114429804Y-99751227D01*
X114435765Y-99727429D01*
X114444030Y-99704329D01*
X114454520Y-99682151D01*
X114467133Y-99661107D01*
X114481747Y-99641402D01*
X114498223Y-99623223D01*
X114516402Y-99606747D01*
X114536107Y-99592133D01*
X114557151Y-99579520D01*
X114579329Y-99569030D01*
X114602429Y-99560765D01*
X114626227Y-99554804D01*
X114650496Y-99551204D01*
X114675000Y-99550000D01*
X116125000Y-99550000D01*
X116149504Y-99551204D01*
G37*
G04 #@! TD.AperFunction*
D16*
X142860000Y-148590000D03*
X149860000Y-148590000D03*
G04 #@! TA.AperFunction,ComponentPad*
D15*
G36*
X132829504Y-112181204D02*
G01*
X132853773Y-112184804D01*
X132877571Y-112190765D01*
X132900671Y-112199030D01*
X132922849Y-112209520D01*
X132943893Y-112222133D01*
X132963598Y-112236747D01*
X132981777Y-112253223D01*
X132998253Y-112271402D01*
X133012867Y-112291107D01*
X133025480Y-112312151D01*
X133035970Y-112334329D01*
X133044235Y-112357429D01*
X133050196Y-112381227D01*
X133053796Y-112405496D01*
X133055000Y-112430000D01*
X133055000Y-113630000D01*
X133053796Y-113654504D01*
X133050196Y-113678773D01*
X133044235Y-113702571D01*
X133035970Y-113725671D01*
X133025480Y-113747849D01*
X133012867Y-113768893D01*
X132998253Y-113788598D01*
X132981777Y-113806777D01*
X132963598Y-113823253D01*
X132943893Y-113837867D01*
X132922849Y-113850480D01*
X132900671Y-113860970D01*
X132877571Y-113869235D01*
X132853773Y-113875196D01*
X132829504Y-113878796D01*
X132805000Y-113880000D01*
X131355000Y-113880000D01*
X131330496Y-113878796D01*
X131306227Y-113875196D01*
X131282429Y-113869235D01*
X131259329Y-113860970D01*
X131237151Y-113850480D01*
X131216107Y-113837867D01*
X131196402Y-113823253D01*
X131178223Y-113806777D01*
X131161747Y-113788598D01*
X131147133Y-113768893D01*
X131134520Y-113747849D01*
X131124030Y-113725671D01*
X131115765Y-113702571D01*
X131109804Y-113678773D01*
X131106204Y-113654504D01*
X131105000Y-113630000D01*
X131105000Y-112430000D01*
X131106204Y-112405496D01*
X131109804Y-112381227D01*
X131115765Y-112357429D01*
X131124030Y-112334329D01*
X131134520Y-112312151D01*
X131147133Y-112291107D01*
X131161747Y-112271402D01*
X131178223Y-112253223D01*
X131196402Y-112236747D01*
X131216107Y-112222133D01*
X131237151Y-112209520D01*
X131259329Y-112199030D01*
X131282429Y-112190765D01*
X131306227Y-112184804D01*
X131330496Y-112181204D01*
X131355000Y-112180000D01*
X132805000Y-112180000D01*
X132829504Y-112181204D01*
G37*
G04 #@! TD.AperFunction*
D14*
X132080000Y-115530000D03*
X132080000Y-118030000D03*
X132080000Y-120530000D03*
X132080000Y-123030000D03*
G04 #@! TA.AperFunction,ComponentPad*
D15*
G36*
X154419504Y-122341204D02*
G01*
X154443773Y-122344804D01*
X154467571Y-122350765D01*
X154490671Y-122359030D01*
X154512849Y-122369520D01*
X154533893Y-122382133D01*
X154553598Y-122396747D01*
X154571777Y-122413223D01*
X154588253Y-122431402D01*
X154602867Y-122451107D01*
X154615480Y-122472151D01*
X154625970Y-122494329D01*
X154634235Y-122517429D01*
X154640196Y-122541227D01*
X154643796Y-122565496D01*
X154645000Y-122590000D01*
X154645000Y-123790000D01*
X154643796Y-123814504D01*
X154640196Y-123838773D01*
X154634235Y-123862571D01*
X154625970Y-123885671D01*
X154615480Y-123907849D01*
X154602867Y-123928893D01*
X154588253Y-123948598D01*
X154571777Y-123966777D01*
X154553598Y-123983253D01*
X154533893Y-123997867D01*
X154512849Y-124010480D01*
X154490671Y-124020970D01*
X154467571Y-124029235D01*
X154443773Y-124035196D01*
X154419504Y-124038796D01*
X154395000Y-124040000D01*
X152945000Y-124040000D01*
X152920496Y-124038796D01*
X152896227Y-124035196D01*
X152872429Y-124029235D01*
X152849329Y-124020970D01*
X152827151Y-124010480D01*
X152806107Y-123997867D01*
X152786402Y-123983253D01*
X152768223Y-123966777D01*
X152751747Y-123948598D01*
X152737133Y-123928893D01*
X152724520Y-123907849D01*
X152714030Y-123885671D01*
X152705765Y-123862571D01*
X152699804Y-123838773D01*
X152696204Y-123814504D01*
X152695000Y-123790000D01*
X152695000Y-122590000D01*
X152696204Y-122565496D01*
X152699804Y-122541227D01*
X152705765Y-122517429D01*
X152714030Y-122494329D01*
X152724520Y-122472151D01*
X152737133Y-122451107D01*
X152751747Y-122431402D01*
X152768223Y-122413223D01*
X152786402Y-122396747D01*
X152806107Y-122382133D01*
X152827151Y-122369520D01*
X152849329Y-122359030D01*
X152872429Y-122350765D01*
X152896227Y-122344804D01*
X152920496Y-122341204D01*
X152945000Y-122340000D01*
X154395000Y-122340000D01*
X154419504Y-122341204D01*
G37*
G04 #@! TD.AperFunction*
D14*
X153670000Y-120690000D03*
X153670000Y-118190000D03*
X153670000Y-115690000D03*
X153670000Y-113190000D03*
G04 #@! TA.AperFunction,ComponentPad*
D15*
G36*
X142989504Y-122341204D02*
G01*
X143013773Y-122344804D01*
X143037571Y-122350765D01*
X143060671Y-122359030D01*
X143082849Y-122369520D01*
X143103893Y-122382133D01*
X143123598Y-122396747D01*
X143141777Y-122413223D01*
X143158253Y-122431402D01*
X143172867Y-122451107D01*
X143185480Y-122472151D01*
X143195970Y-122494329D01*
X143204235Y-122517429D01*
X143210196Y-122541227D01*
X143213796Y-122565496D01*
X143215000Y-122590000D01*
X143215000Y-123790000D01*
X143213796Y-123814504D01*
X143210196Y-123838773D01*
X143204235Y-123862571D01*
X143195970Y-123885671D01*
X143185480Y-123907849D01*
X143172867Y-123928893D01*
X143158253Y-123948598D01*
X143141777Y-123966777D01*
X143123598Y-123983253D01*
X143103893Y-123997867D01*
X143082849Y-124010480D01*
X143060671Y-124020970D01*
X143037571Y-124029235D01*
X143013773Y-124035196D01*
X142989504Y-124038796D01*
X142965000Y-124040000D01*
X141515000Y-124040000D01*
X141490496Y-124038796D01*
X141466227Y-124035196D01*
X141442429Y-124029235D01*
X141419329Y-124020970D01*
X141397151Y-124010480D01*
X141376107Y-123997867D01*
X141356402Y-123983253D01*
X141338223Y-123966777D01*
X141321747Y-123948598D01*
X141307133Y-123928893D01*
X141294520Y-123907849D01*
X141284030Y-123885671D01*
X141275765Y-123862571D01*
X141269804Y-123838773D01*
X141266204Y-123814504D01*
X141265000Y-123790000D01*
X141265000Y-122590000D01*
X141266204Y-122565496D01*
X141269804Y-122541227D01*
X141275765Y-122517429D01*
X141284030Y-122494329D01*
X141294520Y-122472151D01*
X141307133Y-122451107D01*
X141321747Y-122431402D01*
X141338223Y-122413223D01*
X141356402Y-122396747D01*
X141376107Y-122382133D01*
X141397151Y-122369520D01*
X141419329Y-122359030D01*
X141442429Y-122350765D01*
X141466227Y-122344804D01*
X141490496Y-122341204D01*
X141515000Y-122340000D01*
X142965000Y-122340000D01*
X142989504Y-122341204D01*
G37*
G04 #@! TD.AperFunction*
D14*
X142240000Y-120690000D03*
X142240000Y-118190000D03*
X142240000Y-115690000D03*
X142240000Y-113190000D03*
G04 #@! TA.AperFunction,ComponentPad*
D15*
G36*
X152114504Y-104526204D02*
G01*
X152138773Y-104529804D01*
X152162571Y-104535765D01*
X152185671Y-104544030D01*
X152207849Y-104554520D01*
X152228893Y-104567133D01*
X152248598Y-104581747D01*
X152266777Y-104598223D01*
X152283253Y-104616402D01*
X152297867Y-104636107D01*
X152310480Y-104657151D01*
X152320970Y-104679329D01*
X152329235Y-104702429D01*
X152335196Y-104726227D01*
X152338796Y-104750496D01*
X152340000Y-104775000D01*
X152340000Y-106225000D01*
X152338796Y-106249504D01*
X152335196Y-106273773D01*
X152329235Y-106297571D01*
X152320970Y-106320671D01*
X152310480Y-106342849D01*
X152297867Y-106363893D01*
X152283253Y-106383598D01*
X152266777Y-106401777D01*
X152248598Y-106418253D01*
X152228893Y-106432867D01*
X152207849Y-106445480D01*
X152185671Y-106455970D01*
X152162571Y-106464235D01*
X152138773Y-106470196D01*
X152114504Y-106473796D01*
X152090000Y-106475000D01*
X150890000Y-106475000D01*
X150865496Y-106473796D01*
X150841227Y-106470196D01*
X150817429Y-106464235D01*
X150794329Y-106455970D01*
X150772151Y-106445480D01*
X150751107Y-106432867D01*
X150731402Y-106418253D01*
X150713223Y-106401777D01*
X150696747Y-106383598D01*
X150682133Y-106363893D01*
X150669520Y-106342849D01*
X150659030Y-106320671D01*
X150650765Y-106297571D01*
X150644804Y-106273773D01*
X150641204Y-106249504D01*
X150640000Y-106225000D01*
X150640000Y-104775000D01*
X150641204Y-104750496D01*
X150644804Y-104726227D01*
X150650765Y-104702429D01*
X150659030Y-104679329D01*
X150669520Y-104657151D01*
X150682133Y-104636107D01*
X150696747Y-104616402D01*
X150713223Y-104598223D01*
X150731402Y-104581747D01*
X150751107Y-104567133D01*
X150772151Y-104554520D01*
X150794329Y-104544030D01*
X150817429Y-104535765D01*
X150841227Y-104529804D01*
X150865496Y-104526204D01*
X150890000Y-104525000D01*
X152090000Y-104525000D01*
X152114504Y-104526204D01*
G37*
G04 #@! TD.AperFunction*
D17*
X148990000Y-105500000D03*
X146490000Y-105500000D03*
X143990000Y-105500000D03*
G04 #@! TA.AperFunction,ComponentPad*
D15*
G36*
X123249504Y-77751204D02*
G01*
X123273773Y-77754804D01*
X123297571Y-77760765D01*
X123320671Y-77769030D01*
X123342849Y-77779520D01*
X123363893Y-77792133D01*
X123383598Y-77806747D01*
X123401777Y-77823223D01*
X123418253Y-77841402D01*
X123432867Y-77861107D01*
X123445480Y-77882151D01*
X123455970Y-77904329D01*
X123464235Y-77927429D01*
X123470196Y-77951227D01*
X123473796Y-77975496D01*
X123475000Y-78000000D01*
X123475000Y-79200000D01*
X123473796Y-79224504D01*
X123470196Y-79248773D01*
X123464235Y-79272571D01*
X123455970Y-79295671D01*
X123445480Y-79317849D01*
X123432867Y-79338893D01*
X123418253Y-79358598D01*
X123401777Y-79376777D01*
X123383598Y-79393253D01*
X123363893Y-79407867D01*
X123342849Y-79420480D01*
X123320671Y-79430970D01*
X123297571Y-79439235D01*
X123273773Y-79445196D01*
X123249504Y-79448796D01*
X123225000Y-79450000D01*
X121775000Y-79450000D01*
X121750496Y-79448796D01*
X121726227Y-79445196D01*
X121702429Y-79439235D01*
X121679329Y-79430970D01*
X121657151Y-79420480D01*
X121636107Y-79407867D01*
X121616402Y-79393253D01*
X121598223Y-79376777D01*
X121581747Y-79358598D01*
X121567133Y-79338893D01*
X121554520Y-79317849D01*
X121544030Y-79295671D01*
X121535765Y-79272571D01*
X121529804Y-79248773D01*
X121526204Y-79224504D01*
X121525000Y-79200000D01*
X121525000Y-78000000D01*
X121526204Y-77975496D01*
X121529804Y-77951227D01*
X121535765Y-77927429D01*
X121544030Y-77904329D01*
X121554520Y-77882151D01*
X121567133Y-77861107D01*
X121581747Y-77841402D01*
X121598223Y-77823223D01*
X121616402Y-77806747D01*
X121636107Y-77792133D01*
X121657151Y-77779520D01*
X121679329Y-77769030D01*
X121702429Y-77760765D01*
X121726227Y-77754804D01*
X121750496Y-77751204D01*
X121775000Y-77750000D01*
X123225000Y-77750000D01*
X123249504Y-77751204D01*
G37*
G04 #@! TD.AperFunction*
D14*
X122500000Y-76100000D03*
X122500000Y-73600000D03*
D18*
X113700000Y-79800000D03*
X118200000Y-79800000D03*
X113700000Y-86300000D03*
X118200000Y-86300000D03*
D19*
X135700000Y-83945000D03*
D20*
X145200000Y-93955000D03*
X145200000Y-92685000D03*
X145200000Y-91415000D03*
X145200000Y-90145000D03*
X145200000Y-88875000D03*
X145200000Y-87605000D03*
X145200000Y-86335000D03*
X145200000Y-85065000D03*
X145200000Y-83795000D03*
X145200000Y-82525000D03*
X145200000Y-81255000D03*
X145200000Y-79985000D03*
X145200000Y-78715000D03*
X145200000Y-77445000D03*
X128200000Y-93955000D03*
X128200000Y-92685000D03*
X128200000Y-91415000D03*
X128200000Y-90145000D03*
X128200000Y-88875000D03*
X128200000Y-87605000D03*
X128200000Y-86335000D03*
X128200000Y-85065000D03*
X128200000Y-83795000D03*
X128200000Y-82525000D03*
X128200000Y-81255000D03*
X128200000Y-79985000D03*
X128200000Y-78715000D03*
D21*
X142415000Y-94955000D03*
X141145000Y-94955000D03*
X139875000Y-94955000D03*
X138605000Y-94955000D03*
X137335000Y-94955000D03*
X136065000Y-94955000D03*
X134795000Y-94955000D03*
X133525000Y-94955000D03*
X132255000Y-94955000D03*
X130985000Y-94955000D03*
D20*
X128200000Y-77445000D03*
G04 #@! TA.AperFunction,ComponentPad*
D15*
G36*
X155714504Y-91901204D02*
G01*
X155738773Y-91904804D01*
X155762571Y-91910765D01*
X155785671Y-91919030D01*
X155807849Y-91929520D01*
X155828893Y-91942133D01*
X155848598Y-91956747D01*
X155866777Y-91973223D01*
X155883253Y-91991402D01*
X155897867Y-92011107D01*
X155910480Y-92032151D01*
X155920970Y-92054329D01*
X155929235Y-92077429D01*
X155935196Y-92101227D01*
X155938796Y-92125496D01*
X155940000Y-92150000D01*
X155940000Y-93350000D01*
X155938796Y-93374504D01*
X155935196Y-93398773D01*
X155929235Y-93422571D01*
X155920970Y-93445671D01*
X155910480Y-93467849D01*
X155897867Y-93488893D01*
X155883253Y-93508598D01*
X155866777Y-93526777D01*
X155848598Y-93543253D01*
X155828893Y-93557867D01*
X155807849Y-93570480D01*
X155785671Y-93580970D01*
X155762571Y-93589235D01*
X155738773Y-93595196D01*
X155714504Y-93598796D01*
X155690000Y-93600000D01*
X154190000Y-93600000D01*
X154165496Y-93598796D01*
X154141227Y-93595196D01*
X154117429Y-93589235D01*
X154094329Y-93580970D01*
X154072151Y-93570480D01*
X154051107Y-93557867D01*
X154031402Y-93543253D01*
X154013223Y-93526777D01*
X153996747Y-93508598D01*
X153982133Y-93488893D01*
X153969520Y-93467849D01*
X153959030Y-93445671D01*
X153950765Y-93422571D01*
X153944804Y-93398773D01*
X153941204Y-93374504D01*
X153940000Y-93350000D01*
X153940000Y-92150000D01*
X153941204Y-92125496D01*
X153944804Y-92101227D01*
X153950765Y-92077429D01*
X153959030Y-92054329D01*
X153969520Y-92032151D01*
X153982133Y-92011107D01*
X153996747Y-91991402D01*
X154013223Y-91973223D01*
X154031402Y-91956747D01*
X154051107Y-91942133D01*
X154072151Y-91929520D01*
X154094329Y-91919030D01*
X154117429Y-91910765D01*
X154141227Y-91904804D01*
X154165496Y-91901204D01*
X154190000Y-91900000D01*
X155690000Y-91900000D01*
X155714504Y-91901204D01*
G37*
G04 #@! TD.AperFunction*
D22*
X154940000Y-95250000D03*
G04 #@! TA.AperFunction,ComponentPad*
D15*
G36*
X123249504Y-93251204D02*
G01*
X123273773Y-93254804D01*
X123297571Y-93260765D01*
X123320671Y-93269030D01*
X123342849Y-93279520D01*
X123363893Y-93292133D01*
X123383598Y-93306747D01*
X123401777Y-93323223D01*
X123418253Y-93341402D01*
X123432867Y-93361107D01*
X123445480Y-93382151D01*
X123455970Y-93404329D01*
X123464235Y-93427429D01*
X123470196Y-93451227D01*
X123473796Y-93475496D01*
X123475000Y-93500000D01*
X123475000Y-94700000D01*
X123473796Y-94724504D01*
X123470196Y-94748773D01*
X123464235Y-94772571D01*
X123455970Y-94795671D01*
X123445480Y-94817849D01*
X123432867Y-94838893D01*
X123418253Y-94858598D01*
X123401777Y-94876777D01*
X123383598Y-94893253D01*
X123363893Y-94907867D01*
X123342849Y-94920480D01*
X123320671Y-94930970D01*
X123297571Y-94939235D01*
X123273773Y-94945196D01*
X123249504Y-94948796D01*
X123225000Y-94950000D01*
X121775000Y-94950000D01*
X121750496Y-94948796D01*
X121726227Y-94945196D01*
X121702429Y-94939235D01*
X121679329Y-94930970D01*
X121657151Y-94920480D01*
X121636107Y-94907867D01*
X121616402Y-94893253D01*
X121598223Y-94876777D01*
X121581747Y-94858598D01*
X121567133Y-94838893D01*
X121554520Y-94817849D01*
X121544030Y-94795671D01*
X121535765Y-94772571D01*
X121529804Y-94748773D01*
X121526204Y-94724504D01*
X121525000Y-94700000D01*
X121525000Y-93500000D01*
X121526204Y-93475496D01*
X121529804Y-93451227D01*
X121535765Y-93427429D01*
X121544030Y-93404329D01*
X121554520Y-93382151D01*
X121567133Y-93361107D01*
X121581747Y-93341402D01*
X121598223Y-93323223D01*
X121616402Y-93306747D01*
X121636107Y-93292133D01*
X121657151Y-93279520D01*
X121679329Y-93269030D01*
X121702429Y-93260765D01*
X121726227Y-93254804D01*
X121750496Y-93251204D01*
X121775000Y-93250000D01*
X123225000Y-93250000D01*
X123249504Y-93251204D01*
G37*
G04 #@! TD.AperFunction*
D14*
X122500000Y-91600000D03*
X122500000Y-89100000D03*
X122500000Y-86600000D03*
G04 #@! TA.AperFunction,ComponentPad*
D15*
G36*
X135244504Y-104436204D02*
G01*
X135268773Y-104439804D01*
X135292571Y-104445765D01*
X135315671Y-104454030D01*
X135337849Y-104464520D01*
X135358893Y-104477133D01*
X135378598Y-104491747D01*
X135396777Y-104508223D01*
X135413253Y-104526402D01*
X135427867Y-104546107D01*
X135440480Y-104567151D01*
X135450970Y-104589329D01*
X135459235Y-104612429D01*
X135465196Y-104636227D01*
X135468796Y-104660496D01*
X135470000Y-104685000D01*
X135470000Y-106135000D01*
X135468796Y-106159504D01*
X135465196Y-106183773D01*
X135459235Y-106207571D01*
X135450970Y-106230671D01*
X135440480Y-106252849D01*
X135427867Y-106273893D01*
X135413253Y-106293598D01*
X135396777Y-106311777D01*
X135378598Y-106328253D01*
X135358893Y-106342867D01*
X135337849Y-106355480D01*
X135315671Y-106365970D01*
X135292571Y-106374235D01*
X135268773Y-106380196D01*
X135244504Y-106383796D01*
X135220000Y-106385000D01*
X134020000Y-106385000D01*
X133995496Y-106383796D01*
X133971227Y-106380196D01*
X133947429Y-106374235D01*
X133924329Y-106365970D01*
X133902151Y-106355480D01*
X133881107Y-106342867D01*
X133861402Y-106328253D01*
X133843223Y-106311777D01*
X133826747Y-106293598D01*
X133812133Y-106273893D01*
X133799520Y-106252849D01*
X133789030Y-106230671D01*
X133780765Y-106207571D01*
X133774804Y-106183773D01*
X133771204Y-106159504D01*
X133770000Y-106135000D01*
X133770000Y-104685000D01*
X133771204Y-104660496D01*
X133774804Y-104636227D01*
X133780765Y-104612429D01*
X133789030Y-104589329D01*
X133799520Y-104567151D01*
X133812133Y-104546107D01*
X133826747Y-104526402D01*
X133843223Y-104508223D01*
X133861402Y-104491747D01*
X133881107Y-104477133D01*
X133902151Y-104464520D01*
X133924329Y-104454030D01*
X133947429Y-104445765D01*
X133971227Y-104439804D01*
X133995496Y-104436204D01*
X134020000Y-104435000D01*
X135220000Y-104435000D01*
X135244504Y-104436204D01*
G37*
G04 #@! TD.AperFunction*
D17*
X132120000Y-105410000D03*
X129620000Y-105410000D03*
X127120000Y-105410000D03*
X124620000Y-105410000D03*
G04 #@! TA.AperFunction,ComponentPad*
D15*
G36*
X122694504Y-148971204D02*
G01*
X122718773Y-148974804D01*
X122742571Y-148980765D01*
X122765671Y-148989030D01*
X122787849Y-148999520D01*
X122808893Y-149012133D01*
X122828598Y-149026747D01*
X122846777Y-149043223D01*
X122863253Y-149061402D01*
X122877867Y-149081107D01*
X122890480Y-149102151D01*
X122900970Y-149124329D01*
X122909235Y-149147429D01*
X122915196Y-149171227D01*
X122918796Y-149195496D01*
X122920000Y-149220000D01*
X122920000Y-150420000D01*
X122918796Y-150444504D01*
X122915196Y-150468773D01*
X122909235Y-150492571D01*
X122900970Y-150515671D01*
X122890480Y-150537849D01*
X122877867Y-150558893D01*
X122863253Y-150578598D01*
X122846777Y-150596777D01*
X122828598Y-150613253D01*
X122808893Y-150627867D01*
X122787849Y-150640480D01*
X122765671Y-150650970D01*
X122742571Y-150659235D01*
X122718773Y-150665196D01*
X122694504Y-150668796D01*
X122670000Y-150670000D01*
X121170000Y-150670000D01*
X121145496Y-150668796D01*
X121121227Y-150665196D01*
X121097429Y-150659235D01*
X121074329Y-150650970D01*
X121052151Y-150640480D01*
X121031107Y-150627867D01*
X121011402Y-150613253D01*
X120993223Y-150596777D01*
X120976747Y-150578598D01*
X120962133Y-150558893D01*
X120949520Y-150537849D01*
X120939030Y-150515671D01*
X120930765Y-150492571D01*
X120924804Y-150468773D01*
X120921204Y-150444504D01*
X120920000Y-150420000D01*
X120920000Y-149220000D01*
X120921204Y-149195496D01*
X120924804Y-149171227D01*
X120930765Y-149147429D01*
X120939030Y-149124329D01*
X120949520Y-149102151D01*
X120962133Y-149081107D01*
X120976747Y-149061402D01*
X120993223Y-149043223D01*
X121011402Y-149026747D01*
X121031107Y-149012133D01*
X121052151Y-148999520D01*
X121074329Y-148989030D01*
X121097429Y-148980765D01*
X121121227Y-148974804D01*
X121145496Y-148971204D01*
X121170000Y-148970000D01*
X122670000Y-148970000D01*
X122694504Y-148971204D01*
G37*
G04 #@! TD.AperFunction*
D22*
X121920000Y-147320000D03*
G04 #@! TA.AperFunction,ComponentPad*
D15*
G36*
X121399504Y-112181204D02*
G01*
X121423773Y-112184804D01*
X121447571Y-112190765D01*
X121470671Y-112199030D01*
X121492849Y-112209520D01*
X121513893Y-112222133D01*
X121533598Y-112236747D01*
X121551777Y-112253223D01*
X121568253Y-112271402D01*
X121582867Y-112291107D01*
X121595480Y-112312151D01*
X121605970Y-112334329D01*
X121614235Y-112357429D01*
X121620196Y-112381227D01*
X121623796Y-112405496D01*
X121625000Y-112430000D01*
X121625000Y-113630000D01*
X121623796Y-113654504D01*
X121620196Y-113678773D01*
X121614235Y-113702571D01*
X121605970Y-113725671D01*
X121595480Y-113747849D01*
X121582867Y-113768893D01*
X121568253Y-113788598D01*
X121551777Y-113806777D01*
X121533598Y-113823253D01*
X121513893Y-113837867D01*
X121492849Y-113850480D01*
X121470671Y-113860970D01*
X121447571Y-113869235D01*
X121423773Y-113875196D01*
X121399504Y-113878796D01*
X121375000Y-113880000D01*
X119925000Y-113880000D01*
X119900496Y-113878796D01*
X119876227Y-113875196D01*
X119852429Y-113869235D01*
X119829329Y-113860970D01*
X119807151Y-113850480D01*
X119786107Y-113837867D01*
X119766402Y-113823253D01*
X119748223Y-113806777D01*
X119731747Y-113788598D01*
X119717133Y-113768893D01*
X119704520Y-113747849D01*
X119694030Y-113725671D01*
X119685765Y-113702571D01*
X119679804Y-113678773D01*
X119676204Y-113654504D01*
X119675000Y-113630000D01*
X119675000Y-112430000D01*
X119676204Y-112405496D01*
X119679804Y-112381227D01*
X119685765Y-112357429D01*
X119694030Y-112334329D01*
X119704520Y-112312151D01*
X119717133Y-112291107D01*
X119731747Y-112271402D01*
X119748223Y-112253223D01*
X119766402Y-112236747D01*
X119786107Y-112222133D01*
X119807151Y-112209520D01*
X119829329Y-112199030D01*
X119852429Y-112190765D01*
X119876227Y-112184804D01*
X119900496Y-112181204D01*
X119925000Y-112180000D01*
X121375000Y-112180000D01*
X121399504Y-112181204D01*
G37*
G04 #@! TD.AperFunction*
D14*
X120650000Y-115530000D03*
X120650000Y-118030000D03*
X120650000Y-120530000D03*
X120650000Y-123030000D03*
D23*
X148900000Y-71200000D03*
D24*
X151440000Y-71200000D03*
D23*
X159000000Y-87040000D03*
X159000000Y-84500000D03*
X159000000Y-81960000D03*
D24*
X159000000Y-79420000D03*
G04 #@! TA.AperFunction,SMDPad,CuDef*
D15*
G36*
X150849504Y-81176204D02*
G01*
X150873773Y-81179804D01*
X150897571Y-81185765D01*
X150920671Y-81194030D01*
X150942849Y-81204520D01*
X150963893Y-81217133D01*
X150983598Y-81231747D01*
X151001777Y-81248223D01*
X151018253Y-81266402D01*
X151032867Y-81286107D01*
X151045480Y-81307151D01*
X151055970Y-81329329D01*
X151064235Y-81352429D01*
X151070196Y-81376227D01*
X151073796Y-81400496D01*
X151075000Y-81425000D01*
X151075000Y-82350000D01*
X151073796Y-82374504D01*
X151070196Y-82398773D01*
X151064235Y-82422571D01*
X151055970Y-82445671D01*
X151045480Y-82467849D01*
X151032867Y-82488893D01*
X151018253Y-82508598D01*
X151001777Y-82526777D01*
X150983598Y-82543253D01*
X150963893Y-82557867D01*
X150942849Y-82570480D01*
X150920671Y-82580970D01*
X150897571Y-82589235D01*
X150873773Y-82595196D01*
X150849504Y-82598796D01*
X150825000Y-82600000D01*
X149575000Y-82600000D01*
X149550496Y-82598796D01*
X149526227Y-82595196D01*
X149502429Y-82589235D01*
X149479329Y-82580970D01*
X149457151Y-82570480D01*
X149436107Y-82557867D01*
X149416402Y-82543253D01*
X149398223Y-82526777D01*
X149381747Y-82508598D01*
X149367133Y-82488893D01*
X149354520Y-82467849D01*
X149344030Y-82445671D01*
X149335765Y-82422571D01*
X149329804Y-82398773D01*
X149326204Y-82374504D01*
X149325000Y-82350000D01*
X149325000Y-81425000D01*
X149326204Y-81400496D01*
X149329804Y-81376227D01*
X149335765Y-81352429D01*
X149344030Y-81329329D01*
X149354520Y-81307151D01*
X149367133Y-81286107D01*
X149381747Y-81266402D01*
X149398223Y-81248223D01*
X149416402Y-81231747D01*
X149436107Y-81217133D01*
X149457151Y-81204520D01*
X149479329Y-81194030D01*
X149502429Y-81185765D01*
X149526227Y-81179804D01*
X149550496Y-81176204D01*
X149575000Y-81175000D01*
X150825000Y-81175000D01*
X150849504Y-81176204D01*
G37*
G04 #@! TD.AperFunction*
G04 #@! TA.AperFunction,SMDPad,CuDef*
G36*
X150849504Y-78201204D02*
G01*
X150873773Y-78204804D01*
X150897571Y-78210765D01*
X150920671Y-78219030D01*
X150942849Y-78229520D01*
X150963893Y-78242133D01*
X150983598Y-78256747D01*
X151001777Y-78273223D01*
X151018253Y-78291402D01*
X151032867Y-78311107D01*
X151045480Y-78332151D01*
X151055970Y-78354329D01*
X151064235Y-78377429D01*
X151070196Y-78401227D01*
X151073796Y-78425496D01*
X151075000Y-78450000D01*
X151075000Y-79375000D01*
X151073796Y-79399504D01*
X151070196Y-79423773D01*
X151064235Y-79447571D01*
X151055970Y-79470671D01*
X151045480Y-79492849D01*
X151032867Y-79513893D01*
X151018253Y-79533598D01*
X151001777Y-79551777D01*
X150983598Y-79568253D01*
X150963893Y-79582867D01*
X150942849Y-79595480D01*
X150920671Y-79605970D01*
X150897571Y-79614235D01*
X150873773Y-79620196D01*
X150849504Y-79623796D01*
X150825000Y-79625000D01*
X149575000Y-79625000D01*
X149550496Y-79623796D01*
X149526227Y-79620196D01*
X149502429Y-79614235D01*
X149479329Y-79605970D01*
X149457151Y-79595480D01*
X149436107Y-79582867D01*
X149416402Y-79568253D01*
X149398223Y-79551777D01*
X149381747Y-79533598D01*
X149367133Y-79513893D01*
X149354520Y-79492849D01*
X149344030Y-79470671D01*
X149335765Y-79447571D01*
X149329804Y-79423773D01*
X149326204Y-79399504D01*
X149325000Y-79375000D01*
X149325000Y-78450000D01*
X149326204Y-78425496D01*
X149329804Y-78401227D01*
X149335765Y-78377429D01*
X149344030Y-78354329D01*
X149354520Y-78332151D01*
X149367133Y-78311107D01*
X149381747Y-78291402D01*
X149398223Y-78273223D01*
X149416402Y-78256747D01*
X149436107Y-78242133D01*
X149457151Y-78229520D01*
X149479329Y-78219030D01*
X149502429Y-78210765D01*
X149526227Y-78204804D01*
X149550496Y-78201204D01*
X149575000Y-78200000D01*
X150825000Y-78200000D01*
X150849504Y-78201204D01*
G37*
G04 #@! TD.AperFunction*
D25*
X156210000Y-130810000D03*
D26*
X156210000Y-143510000D03*
D18*
X135810000Y-148590000D03*
D27*
X130810000Y-148590000D03*
D28*
X124460000Y-133390000D03*
D29*
X124460000Y-135890000D03*
D30*
X136329200Y-89034000D03*
X138146300Y-90739300D03*
X135163400Y-92014200D03*
X130505500Y-90266100D03*
X130637600Y-88606100D03*
X126278100Y-86077500D03*
X135887400Y-87352800D03*
X148401900Y-81441400D03*
D31*
X151187500Y-72735200D02*
X151440000Y-72482700D01*
X151440000Y-72482700D02*
X151440000Y-71200000D01*
X146477700Y-77445000D02*
X151187500Y-72735200D01*
X157872300Y-79420000D02*
X151187500Y-72735200D01*
X159000000Y-79420000D02*
X157872300Y-79420000D01*
X145200000Y-77445000D02*
X146477700Y-77445000D01*
X135700000Y-81167300D02*
X139422300Y-77445000D01*
X139422300Y-77445000D02*
X145200000Y-77445000D01*
X124620000Y-105410000D02*
X124620000Y-102597700D01*
X124620000Y-102597700D02*
X130985000Y-96232700D01*
X146552700Y-131825000D02*
X146552700Y-135225000D01*
X153670000Y-130478800D02*
X147898900Y-130478800D01*
X147898900Y-130478800D02*
X146552700Y-131825000D01*
X143975000Y-135225000D02*
X146552700Y-135225000D01*
X154332300Y-130810000D02*
X154001100Y-130478800D01*
X154001100Y-130478800D02*
X153670000Y-130478800D01*
X153670000Y-130478800D02*
X153670000Y-123190000D01*
X143975000Y-131825000D02*
X146552700Y-131825000D01*
X141498000Y-131825000D02*
X139802700Y-133520300D01*
X139802700Y-133520300D02*
X139802700Y-135225000D01*
X120650000Y-113030000D02*
X124620000Y-109060000D01*
X124620000Y-109060000D02*
X124620000Y-105410000D01*
X130985000Y-94955000D02*
X130985000Y-96232700D01*
X156210000Y-130810000D02*
X154332300Y-130810000D01*
X142240000Y-123190000D02*
X141498000Y-123932000D01*
X141498000Y-123932000D02*
X141498000Y-131825000D01*
X134825000Y-135225000D02*
X139802700Y-135225000D01*
X143975000Y-131825000D02*
X141498000Y-131825000D01*
X134825000Y-135225000D02*
X134825000Y-140902700D01*
X135810000Y-148590000D02*
X135810000Y-141887700D01*
X135810000Y-141887700D02*
X134825000Y-140902700D01*
X113700000Y-79800000D02*
X118772300Y-74727700D01*
X118772300Y-74727700D02*
X122500000Y-74727700D01*
X113700000Y-86300000D02*
X113700000Y-79800000D01*
X115400000Y-92900000D02*
X115400000Y-91772300D01*
X115400000Y-91772300D02*
X113700000Y-90072300D01*
X113700000Y-90072300D02*
X113700000Y-86300000D01*
X135700000Y-83945000D02*
X135700000Y-81167300D01*
X128200000Y-77445000D02*
X129477700Y-77445000D01*
X129477700Y-77445000D02*
X133200000Y-81167300D01*
X133200000Y-81167300D02*
X135700000Y-81167300D01*
X122500000Y-74727700D02*
X123627700Y-74727700D01*
X123627700Y-74727700D02*
X126345000Y-77445000D01*
X126345000Y-77445000D02*
X128200000Y-77445000D01*
X122500000Y-73600000D02*
X122500000Y-74727700D01*
X143975000Y-138625000D02*
X141397300Y-138625000D01*
X130810000Y-148590000D02*
X132087700Y-148590000D01*
X132087700Y-148590000D02*
X133406300Y-149908600D01*
X133406300Y-149908600D02*
X136332200Y-149908600D01*
X136332200Y-149908600D02*
X141397300Y-144843500D01*
X141397300Y-144843500D02*
X141397300Y-138625000D01*
X143975000Y-133525000D02*
X141397300Y-133525000D01*
X142860000Y-148590000D02*
X146552800Y-144897200D01*
X146552800Y-144897200D02*
X146552800Y-137952000D01*
X146552800Y-137952000D02*
X146398000Y-137797200D01*
X146398000Y-137797200D02*
X141597100Y-137797200D01*
X141597100Y-137797200D02*
X141397300Y-137597400D01*
X141397300Y-137597400D02*
X141397300Y-133525000D01*
X124460000Y-135890000D02*
X124460000Y-134812300D01*
X124460000Y-134812300D02*
X124594700Y-134812300D01*
X124594700Y-134812300D02*
X127120000Y-132287000D01*
X127120000Y-132287000D02*
X127120000Y-105410000D01*
X159000000Y-81960000D02*
X157872300Y-81960000D01*
X157872300Y-81960000D02*
X154824800Y-78912500D01*
X154824800Y-78912500D02*
X150200000Y-78912500D01*
X115400000Y-95400000D02*
X115400000Y-94272300D01*
X115400000Y-94272300D02*
X115822900Y-94272300D01*
X115822900Y-94272300D02*
X116692900Y-93402300D01*
X116692900Y-93402300D02*
X116692900Y-91999200D01*
X116692900Y-91999200D02*
X116489600Y-91795900D01*
X116489600Y-91795900D02*
X116489600Y-79037100D01*
X116489600Y-79037100D02*
X118299000Y-77227700D01*
X118299000Y-77227700D02*
X122500000Y-77227700D01*
X122500000Y-76100000D02*
X122500000Y-77227700D01*
X128200000Y-78715000D02*
X125115000Y-78715000D01*
X125115000Y-78715000D02*
X123627700Y-77227700D01*
X123627700Y-77227700D02*
X122500000Y-77227700D01*
X153982900Y-144355100D02*
X149860000Y-148478000D01*
X149860000Y-148478000D02*
X149860000Y-148590000D01*
X154828000Y-143510000D02*
X153982900Y-144355100D01*
X153982900Y-144355100D02*
X146552700Y-136925000D01*
X143975000Y-136925000D02*
X146552700Y-136925000D01*
X156210000Y-143510000D02*
X154828000Y-143510000D01*
X129620000Y-105410000D02*
X130747700Y-105410000D01*
X145200000Y-87605000D02*
X143922300Y-87605000D01*
X143922300Y-87605000D02*
X143519500Y-88007800D01*
X143519500Y-88007800D02*
X143519500Y-95693400D01*
X143519500Y-95693400D02*
X137820000Y-101392900D01*
X137820000Y-101392900D02*
X134394600Y-101392900D01*
X134394600Y-101392900D02*
X130747700Y-105039800D01*
X130747700Y-105039800D02*
X130747700Y-105410000D01*
X143922300Y-78715000D02*
X143132300Y-79505000D01*
X143132300Y-79505000D02*
X143132300Y-82230900D01*
X143132300Y-82230900D02*
X136329200Y-89034000D01*
X145200000Y-78715000D02*
X143922300Y-78715000D01*
X145200000Y-86335000D02*
X142550600Y-86335000D01*
X142550600Y-86335000D02*
X138146300Y-90739300D01*
X154940000Y-95250000D02*
X154940000Y-94122300D01*
X154940000Y-94122300D02*
X153812300Y-94122300D01*
X153812300Y-94122300D02*
X151105000Y-91415000D01*
X151105000Y-91415000D02*
X145200000Y-91415000D01*
X154940000Y-92750000D02*
X153230600Y-92750000D01*
X153230600Y-92750000D02*
X150625600Y-90145000D01*
X150625600Y-90145000D02*
X145200000Y-90145000D01*
X128200000Y-83795000D02*
X120382200Y-83795000D01*
X120382200Y-83795000D02*
X116892400Y-80305200D01*
X116892400Y-80305200D02*
X116892400Y-79204000D01*
X116892400Y-79204000D02*
X117578300Y-78518100D01*
X117578300Y-78518100D02*
X122418100Y-78518100D01*
X122418100Y-78518100D02*
X122500000Y-78600000D01*
X128200000Y-87605000D02*
X129477700Y-87605000D01*
X129477700Y-87605000D02*
X129528600Y-87554100D01*
X129528600Y-87554100D02*
X131039100Y-87554100D01*
X131039100Y-87554100D02*
X135163400Y-91678400D01*
X135163400Y-91678400D02*
X135163400Y-92014200D01*
X146490000Y-105500000D02*
X145362300Y-105500000D01*
X132255000Y-94955000D02*
X132255000Y-99402900D01*
X132255000Y-99402900D02*
X128446800Y-103211100D01*
X128446800Y-103211100D02*
X128446800Y-105960000D01*
X128446800Y-105960000D02*
X129261700Y-106774900D01*
X129261700Y-106774900D02*
X144457600Y-106774900D01*
X144457600Y-106774900D02*
X145362300Y-105870200D01*
X145362300Y-105870200D02*
X145362300Y-105500000D01*
X148990000Y-105500000D02*
X147862300Y-105500000D01*
X145200000Y-88875000D02*
X143922300Y-88875000D01*
X143922300Y-88875000D02*
X143922300Y-100432300D01*
X143922300Y-100432300D02*
X147862300Y-104372300D01*
X147862300Y-104372300D02*
X147862300Y-105500000D01*
X128200000Y-92685000D02*
X126922300Y-92685000D01*
X126922300Y-92685000D02*
X124660300Y-90423000D01*
X124660300Y-90423000D02*
X121944700Y-90423000D01*
X121944700Y-90423000D02*
X117095600Y-95272100D01*
X117095600Y-95272100D02*
X117095600Y-95444500D01*
X117095600Y-95444500D02*
X115890100Y-96650000D01*
X115890100Y-96650000D02*
X114846000Y-96650000D01*
X114846000Y-96650000D02*
X114137100Y-97358900D01*
X114137100Y-97358900D02*
X114137100Y-127570400D01*
X114137100Y-127570400D02*
X123573600Y-137006900D01*
X123573600Y-137006900D02*
X125363200Y-137006900D01*
X125363200Y-137006900D02*
X129516400Y-132853700D01*
X129516400Y-132853700D02*
X129516400Y-129157000D01*
X129516400Y-129157000D02*
X141733400Y-116940000D01*
X141733400Y-116940000D02*
X142719400Y-116940000D01*
X142719400Y-116940000D02*
X151490000Y-108169400D01*
X151490000Y-108169400D02*
X151490000Y-105500000D01*
X129477700Y-91415000D02*
X129477700Y-91293900D01*
X129477700Y-91293900D02*
X130505500Y-90266100D01*
X128200000Y-91415000D02*
X129477700Y-91415000D01*
X128200000Y-90145000D02*
X129477700Y-90145000D01*
X129477700Y-90145000D02*
X129477700Y-89766000D01*
X129477700Y-89766000D02*
X130637600Y-88606100D01*
X126922300Y-88875000D02*
X126922300Y-86721700D01*
X126922300Y-86721700D02*
X126278100Y-86077500D01*
X128200000Y-88875000D02*
X126922300Y-88875000D01*
X135887400Y-87352800D02*
X135484700Y-86950100D01*
X135484700Y-86950100D02*
X130092800Y-86950100D01*
X130092800Y-86950100D02*
X129477700Y-86335000D01*
X128200000Y-86335000D02*
X129477700Y-86335000D01*
X145200000Y-93955000D02*
X146477700Y-93955000D01*
X148900000Y-71200000D02*
X150027700Y-71200000D01*
X150027700Y-71200000D02*
X150027700Y-70495200D01*
X150027700Y-70495200D02*
X150450700Y-70072200D01*
X150450700Y-70072200D02*
X152444600Y-70072200D01*
X152444600Y-70072200D02*
X152852800Y-70480400D01*
X152852800Y-70480400D02*
X152852800Y-71762500D01*
X152852800Y-71762500D02*
X157721600Y-76631300D01*
X157721600Y-76631300D02*
X158323300Y-76631300D01*
X158323300Y-76631300D02*
X160133800Y-78441800D01*
X160133800Y-78441800D02*
X160133800Y-91842400D01*
X160133800Y-91842400D02*
X155568300Y-96407900D01*
X155568300Y-96407900D02*
X148930600Y-96407900D01*
X148930600Y-96407900D02*
X146477700Y-93955000D01*
X159000000Y-87040000D02*
X151214300Y-87040000D01*
X151214300Y-87040000D02*
X146699300Y-82525000D01*
X146699300Y-82525000D02*
X145200000Y-82525000D01*
X159000000Y-84500000D02*
X149722700Y-84500000D01*
X149722700Y-84500000D02*
X146477700Y-81255000D01*
X145200000Y-81255000D02*
X146477700Y-81255000D01*
X148401900Y-81441400D02*
X149753900Y-81441400D01*
X149753900Y-81441400D02*
X150200000Y-81887500D01*
X128200000Y-79985000D02*
X125671600Y-79985000D01*
X125671600Y-79985000D02*
X124984700Y-79298100D01*
X124984700Y-79298100D02*
X124052900Y-79298100D01*
X124052900Y-79298100D02*
X123551000Y-79800000D01*
X123551000Y-79800000D02*
X118200000Y-79800000D01*
X115400000Y-97900000D02*
X120343700Y-92956300D01*
X120343700Y-92956300D02*
X123477200Y-92956300D01*
X123477200Y-92956300D02*
X125203700Y-94682800D01*
X125203700Y-94682800D02*
X129343300Y-94682800D01*
X129343300Y-94682800D02*
X129575600Y-94450500D01*
X129575600Y-94450500D02*
X129575600Y-93952100D01*
X129575600Y-93952100D02*
X130485800Y-93041900D01*
X130485800Y-93041900D02*
X135594200Y-93041900D01*
X135594200Y-93041900D02*
X136399600Y-92236500D01*
X136399600Y-92236500D02*
X136399600Y-90463000D01*
X136399600Y-90463000D02*
X143922300Y-82940300D01*
X143922300Y-82940300D02*
X143922300Y-79985000D01*
X145200000Y-79985000D02*
X143922300Y-79985000D01*
X115400000Y-100400000D02*
X124228000Y-100400000D01*
X124228000Y-100400000D02*
X130120800Y-94507200D01*
X130120800Y-94507200D02*
X130120800Y-93976500D01*
X130120800Y-93976500D02*
X130652700Y-93444600D01*
X130652700Y-93444600D02*
X135761100Y-93444600D01*
X135761100Y-93444600D02*
X136802300Y-92403400D01*
X136802300Y-92403400D02*
X136802300Y-90629900D01*
X136802300Y-90629900D02*
X143637200Y-83795000D01*
X143637200Y-83795000D02*
X145200000Y-83795000D01*
M02*
