G04 #@! TF.GenerationSoftware,KiCad,Pcbnew,(5.1.5)-3*
G04 #@! TF.CreationDate,2020-08-20T14:44:53-04:00*
G04 #@! TF.ProjectId,Ebike Board,4562696b-6520-4426-9f61-72642e6b6963,rev?*
G04 #@! TF.SameCoordinates,Original*
G04 #@! TF.FileFunction,Legend,Bot*
G04 #@! TF.FilePolarity,Positive*
%FSLAX46Y46*%
G04 Gerber Fmt 4.6, Leading zero omitted, Abs format (unit mm)*
G04 Created by KiCad (PCBNEW (5.1.5)-3) date 2020-08-20 14:44:53*
%MOMM*%
%LPD*%
G04 APERTURE LIST*
%ADD10C,0.120000*%
%ADD11C,0.050000*%
%ADD12C,0.300000*%
%ADD13C,0.150000*%
%ADD14C,0.187500*%
G04 APERTURE END LIST*
D10*
X111900000Y-157100000D02*
G75*
G02X111000000Y-156200000I0J900000D01*
G01*
X111000000Y-70600000D02*
G75*
G02X111900000Y-69700000I900000J0D01*
G01*
X159600000Y-69700000D02*
G75*
G02X160500000Y-70600000I0J-900000D01*
G01*
X160500000Y-156200000D02*
G75*
G02X159600000Y-157100000I-900000J0D01*
G01*
D11*
X111000000Y-156200000D02*
X111000000Y-70600000D01*
X159600000Y-157100000D02*
X111900000Y-157100000D01*
X160500000Y-70600000D02*
X160500000Y-156200000D01*
X111900000Y-69700000D02*
X159600000Y-69700000D01*
D12*
X148628571Y-153978571D02*
X148628571Y-152478571D01*
X148485714Y-153407142D02*
X148057142Y-153978571D01*
X148057142Y-152978571D02*
X148628571Y-153550000D01*
X147200000Y-153978571D02*
X147342857Y-153907142D01*
X147414285Y-153764285D01*
X147414285Y-152478571D01*
X145985714Y-153978571D02*
X145985714Y-153192857D01*
X146057142Y-153050000D01*
X146200000Y-152978571D01*
X146485714Y-152978571D01*
X146628571Y-153050000D01*
X145985714Y-153907142D02*
X146128571Y-153978571D01*
X146485714Y-153978571D01*
X146628571Y-153907142D01*
X146700000Y-153764285D01*
X146700000Y-153621428D01*
X146628571Y-153478571D01*
X146485714Y-153407142D01*
X146128571Y-153407142D01*
X145985714Y-153335714D01*
X145414285Y-152978571D02*
X145057142Y-153978571D01*
X144700000Y-152978571D02*
X145057142Y-153978571D01*
X145200000Y-154335714D01*
X145271428Y-154407142D01*
X145414285Y-154478571D01*
X144342857Y-152978571D02*
X143771428Y-152978571D01*
X144128571Y-152478571D02*
X144128571Y-153764285D01*
X144057142Y-153907142D01*
X143914285Y-153978571D01*
X143771428Y-153978571D01*
X143057142Y-153978571D02*
X143200000Y-153907142D01*
X143271428Y-153835714D01*
X143342857Y-153692857D01*
X143342857Y-153264285D01*
X143271428Y-153121428D01*
X143200000Y-153050000D01*
X143057142Y-152978571D01*
X142842857Y-152978571D01*
X142700000Y-153050000D01*
X142628571Y-153121428D01*
X142557142Y-153264285D01*
X142557142Y-153692857D01*
X142628571Y-153835714D01*
X142700000Y-153907142D01*
X142842857Y-153978571D01*
X143057142Y-153978571D01*
X141914285Y-152978571D02*
X141914285Y-153978571D01*
X141914285Y-153121428D02*
X141842857Y-153050000D01*
X141700000Y-152978571D01*
X141485714Y-152978571D01*
X141342857Y-153050000D01*
X141271428Y-153192857D01*
X141271428Y-153978571D01*
X140628571Y-153907142D02*
X140485714Y-153978571D01*
X140200000Y-153978571D01*
X140057142Y-153907142D01*
X139985714Y-153764285D01*
X139985714Y-153692857D01*
X140057142Y-153550000D01*
X140200000Y-153478571D01*
X140414285Y-153478571D01*
X140557142Y-153407142D01*
X140628571Y-153264285D01*
X140628571Y-153192857D01*
X140557142Y-153050000D01*
X140414285Y-152978571D01*
X140200000Y-152978571D01*
X140057142Y-153050000D01*
X139342857Y-153978571D02*
X139342857Y-152978571D01*
X139342857Y-153121428D02*
X139271428Y-153050000D01*
X139128571Y-152978571D01*
X138914285Y-152978571D01*
X138771428Y-153050000D01*
X138700000Y-153192857D01*
X138700000Y-153978571D01*
X138700000Y-153192857D02*
X138628571Y-153050000D01*
X138485714Y-152978571D01*
X138271428Y-152978571D01*
X138128571Y-153050000D01*
X138057142Y-153192857D01*
X138057142Y-153978571D01*
X137342857Y-153978571D02*
X137342857Y-152978571D01*
X137342857Y-152478571D02*
X137414285Y-152550000D01*
X137342857Y-152621428D01*
X137271428Y-152550000D01*
X137342857Y-152478571D01*
X137342857Y-152621428D01*
X136842857Y-152978571D02*
X136271428Y-152978571D01*
X136628571Y-152478571D02*
X136628571Y-153764285D01*
X136557142Y-153907142D01*
X136414285Y-153978571D01*
X136271428Y-153978571D01*
X135771428Y-153978571D02*
X135771428Y-152478571D01*
X135128571Y-153978571D02*
X135128571Y-153192857D01*
X135200000Y-153050000D01*
X135342857Y-152978571D01*
X135557142Y-152978571D01*
X135700000Y-153050000D01*
X135771428Y-153121428D01*
X134414285Y-153835714D02*
X134342857Y-153907142D01*
X134414285Y-153978571D01*
X134485714Y-153907142D01*
X134414285Y-153835714D01*
X134414285Y-153978571D01*
X133057142Y-153907142D02*
X133200000Y-153978571D01*
X133485714Y-153978571D01*
X133628571Y-153907142D01*
X133700000Y-153835714D01*
X133771428Y-153692857D01*
X133771428Y-153264285D01*
X133700000Y-153121428D01*
X133628571Y-153050000D01*
X133485714Y-152978571D01*
X133200000Y-152978571D01*
X133057142Y-153050000D01*
X132200000Y-153978571D02*
X132342857Y-153907142D01*
X132414285Y-153835714D01*
X132485714Y-153692857D01*
X132485714Y-153264285D01*
X132414285Y-153121428D01*
X132342857Y-153050000D01*
X132200000Y-152978571D01*
X131985714Y-152978571D01*
X131842857Y-153050000D01*
X131771428Y-153121428D01*
X131700000Y-153264285D01*
X131700000Y-153692857D01*
X131771428Y-153835714D01*
X131842857Y-153907142D01*
X131985714Y-153978571D01*
X132200000Y-153978571D01*
X131057142Y-153978571D02*
X131057142Y-152978571D01*
X131057142Y-153121428D02*
X130985714Y-153050000D01*
X130842857Y-152978571D01*
X130628571Y-152978571D01*
X130485714Y-153050000D01*
X130414285Y-153192857D01*
X130414285Y-153978571D01*
X130414285Y-153192857D02*
X130342857Y-153050000D01*
X130200000Y-152978571D01*
X129985714Y-152978571D01*
X129842857Y-153050000D01*
X129771428Y-153192857D01*
X129771428Y-153978571D01*
D13*
X147009523Y-71527380D02*
X147009523Y-72241666D01*
X147057142Y-72384523D01*
X147152380Y-72479761D01*
X147295238Y-72527380D01*
X147390476Y-72527380D01*
X146104761Y-71860714D02*
X146104761Y-72527380D01*
X146533333Y-71860714D02*
X146533333Y-72384523D01*
X146485714Y-72479761D01*
X146390476Y-72527380D01*
X146247619Y-72527380D01*
X146152380Y-72479761D01*
X146104761Y-72432142D01*
X145676190Y-72479761D02*
X145580952Y-72527380D01*
X145390476Y-72527380D01*
X145295238Y-72479761D01*
X145247619Y-72384523D01*
X145247619Y-72336904D01*
X145295238Y-72241666D01*
X145390476Y-72194047D01*
X145533333Y-72194047D01*
X145628571Y-72146428D01*
X145676190Y-72051190D01*
X145676190Y-72003571D01*
X145628571Y-71908333D01*
X145533333Y-71860714D01*
X145390476Y-71860714D01*
X145295238Y-71908333D01*
X144961904Y-71860714D02*
X144580952Y-71860714D01*
X144819047Y-71527380D02*
X144819047Y-72384523D01*
X144771428Y-72479761D01*
X144676190Y-72527380D01*
X144580952Y-72527380D01*
X143057142Y-72527380D02*
X143057142Y-71527380D01*
X143057142Y-72479761D02*
X143152380Y-72527380D01*
X143342857Y-72527380D01*
X143438095Y-72479761D01*
X143485714Y-72432142D01*
X143533333Y-72336904D01*
X143533333Y-72051190D01*
X143485714Y-71955952D01*
X143438095Y-71908333D01*
X143342857Y-71860714D01*
X143152380Y-71860714D01*
X143057142Y-71908333D01*
X142438095Y-72527380D02*
X142533333Y-72479761D01*
X142580952Y-72432142D01*
X142628571Y-72336904D01*
X142628571Y-72051190D01*
X142580952Y-71955952D01*
X142533333Y-71908333D01*
X142438095Y-71860714D01*
X142295238Y-71860714D01*
X142200000Y-71908333D01*
X142152380Y-71955952D01*
X142104761Y-72051190D01*
X142104761Y-72336904D01*
X142152380Y-72432142D01*
X142200000Y-72479761D01*
X142295238Y-72527380D01*
X142438095Y-72527380D01*
X141676190Y-71860714D02*
X141676190Y-72527380D01*
X141676190Y-71955952D02*
X141628571Y-71908333D01*
X141533333Y-71860714D01*
X141390476Y-71860714D01*
X141295238Y-71908333D01*
X141247619Y-72003571D01*
X141247619Y-72527380D01*
X140723809Y-71527380D02*
X140819047Y-71717857D01*
X140438095Y-71860714D02*
X140057142Y-71860714D01*
X140295238Y-71527380D02*
X140295238Y-72384523D01*
X140247619Y-72479761D01*
X140152380Y-72527380D01*
X140057142Y-72527380D01*
X138961904Y-71860714D02*
X138961904Y-72860714D01*
X138961904Y-71908333D02*
X138866666Y-71860714D01*
X138676190Y-71860714D01*
X138580952Y-71908333D01*
X138533333Y-71955952D01*
X138485714Y-72051190D01*
X138485714Y-72336904D01*
X138533333Y-72432142D01*
X138580952Y-72479761D01*
X138676190Y-72527380D01*
X138866666Y-72527380D01*
X138961904Y-72479761D01*
X137628571Y-71860714D02*
X137628571Y-72527380D01*
X138057142Y-71860714D02*
X138057142Y-72384523D01*
X138009523Y-72479761D01*
X137914285Y-72527380D01*
X137771428Y-72527380D01*
X137676190Y-72479761D01*
X137628571Y-72432142D01*
X137295238Y-71860714D02*
X136914285Y-71860714D01*
X137152380Y-71527380D02*
X137152380Y-72384523D01*
X137104761Y-72479761D01*
X137009523Y-72527380D01*
X136914285Y-72527380D01*
X135390476Y-72527380D02*
X135390476Y-72003571D01*
X135438095Y-71908333D01*
X135533333Y-71860714D01*
X135723809Y-71860714D01*
X135819047Y-71908333D01*
X135390476Y-72479761D02*
X135485714Y-72527380D01*
X135723809Y-72527380D01*
X135819047Y-72479761D01*
X135866666Y-72384523D01*
X135866666Y-72289285D01*
X135819047Y-72194047D01*
X135723809Y-72146428D01*
X135485714Y-72146428D01*
X135390476Y-72098809D01*
X134914285Y-71860714D02*
X134914285Y-72527380D01*
X134914285Y-71955952D02*
X134866666Y-71908333D01*
X134771428Y-71860714D01*
X134628571Y-71860714D01*
X134533333Y-71908333D01*
X134485714Y-72003571D01*
X134485714Y-72527380D01*
X134104761Y-71860714D02*
X133866666Y-72527380D01*
X133628571Y-71860714D02*
X133866666Y-72527380D01*
X133961904Y-72765476D01*
X134009523Y-72813095D01*
X134104761Y-72860714D01*
X133390476Y-71860714D02*
X133009523Y-71860714D01*
X133247619Y-71527380D02*
X133247619Y-72384523D01*
X133200000Y-72479761D01*
X133104761Y-72527380D01*
X133009523Y-72527380D01*
X132676190Y-72527380D02*
X132676190Y-71527380D01*
X132247619Y-72527380D02*
X132247619Y-72003571D01*
X132295238Y-71908333D01*
X132390476Y-71860714D01*
X132533333Y-71860714D01*
X132628571Y-71908333D01*
X132676190Y-71955952D01*
X131771428Y-72527380D02*
X131771428Y-71860714D01*
X131771428Y-71527380D02*
X131819047Y-71575000D01*
X131771428Y-71622619D01*
X131723809Y-71575000D01*
X131771428Y-71527380D01*
X131771428Y-71622619D01*
X131295238Y-71860714D02*
X131295238Y-72527380D01*
X131295238Y-71955952D02*
X131247619Y-71908333D01*
X131152380Y-71860714D01*
X131009523Y-71860714D01*
X130914285Y-71908333D01*
X130866666Y-72003571D01*
X130866666Y-72527380D01*
X129961904Y-71860714D02*
X129961904Y-72670238D01*
X130009523Y-72765476D01*
X130057142Y-72813095D01*
X130152380Y-72860714D01*
X130295238Y-72860714D01*
X130390476Y-72813095D01*
X129961904Y-72479761D02*
X130057142Y-72527380D01*
X130247619Y-72527380D01*
X130342857Y-72479761D01*
X130390476Y-72432142D01*
X130438095Y-72336904D01*
X130438095Y-72051190D01*
X130390476Y-71955952D01*
X130342857Y-71908333D01*
X130247619Y-71860714D01*
X130057142Y-71860714D01*
X129961904Y-71908333D01*
X128580952Y-72527380D02*
X128676190Y-72479761D01*
X128723809Y-72432142D01*
X128771428Y-72336904D01*
X128771428Y-72051190D01*
X128723809Y-71955952D01*
X128676190Y-71908333D01*
X128580952Y-71860714D01*
X128438095Y-71860714D01*
X128342857Y-71908333D01*
X128295238Y-71955952D01*
X128247619Y-72051190D01*
X128247619Y-72336904D01*
X128295238Y-72432142D01*
X128342857Y-72479761D01*
X128438095Y-72527380D01*
X128580952Y-72527380D01*
X127819047Y-71860714D02*
X127819047Y-72527380D01*
X127819047Y-71955952D02*
X127771428Y-71908333D01*
X127676190Y-71860714D01*
X127533333Y-71860714D01*
X127438095Y-71908333D01*
X127390476Y-72003571D01*
X127390476Y-72527380D01*
X126152380Y-72527380D02*
X126152380Y-71860714D01*
X126152380Y-71527380D02*
X126200000Y-71575000D01*
X126152380Y-71622619D01*
X126104761Y-71575000D01*
X126152380Y-71527380D01*
X126152380Y-71622619D01*
X125819047Y-71860714D02*
X125438095Y-71860714D01*
X125676190Y-71527380D02*
X125676190Y-72384523D01*
X125628571Y-72479761D01*
X125533333Y-72527380D01*
X125438095Y-72527380D01*
X125104761Y-72432142D02*
X125057142Y-72479761D01*
X125104761Y-72527380D01*
X125152380Y-72479761D01*
X125104761Y-72432142D01*
X125104761Y-72527380D01*
X143080952Y-74177380D02*
X143557142Y-74177380D01*
X143557142Y-73177380D01*
X142747619Y-74177380D02*
X142747619Y-73510714D01*
X142747619Y-73177380D02*
X142795238Y-73225000D01*
X142747619Y-73272619D01*
X142700000Y-73225000D01*
X142747619Y-73177380D01*
X142747619Y-73272619D01*
X142271428Y-74177380D02*
X142271428Y-73177380D01*
X142176190Y-73796428D02*
X141890476Y-74177380D01*
X141890476Y-73510714D02*
X142271428Y-73891666D01*
X141080952Y-74129761D02*
X141176190Y-74177380D01*
X141366666Y-74177380D01*
X141461904Y-74129761D01*
X141509523Y-74034523D01*
X141509523Y-73653571D01*
X141461904Y-73558333D01*
X141366666Y-73510714D01*
X141176190Y-73510714D01*
X141080952Y-73558333D01*
X141033333Y-73653571D01*
X141033333Y-73748809D01*
X141509523Y-73844047D01*
X140557142Y-74129761D02*
X140557142Y-74177380D01*
X140604761Y-74272619D01*
X140652380Y-74320238D01*
X139223809Y-74177380D02*
X139319047Y-74129761D01*
X139366666Y-74034523D01*
X139366666Y-73177380D01*
X138461904Y-74129761D02*
X138557142Y-74177380D01*
X138747619Y-74177380D01*
X138842857Y-74129761D01*
X138890476Y-74034523D01*
X138890476Y-73653571D01*
X138842857Y-73558333D01*
X138747619Y-73510714D01*
X138557142Y-73510714D01*
X138461904Y-73558333D01*
X138414285Y-73653571D01*
X138414285Y-73748809D01*
X138890476Y-73844047D01*
X137557142Y-74177380D02*
X137557142Y-73653571D01*
X137604761Y-73558333D01*
X137700000Y-73510714D01*
X137890476Y-73510714D01*
X137985714Y-73558333D01*
X137557142Y-74129761D02*
X137652380Y-74177380D01*
X137890476Y-74177380D01*
X137985714Y-74129761D01*
X138033333Y-74034523D01*
X138033333Y-73939285D01*
X137985714Y-73844047D01*
X137890476Y-73796428D01*
X137652380Y-73796428D01*
X137557142Y-73748809D01*
X137176190Y-73510714D02*
X136938095Y-74177380D01*
X136700000Y-73510714D01*
X135938095Y-74129761D02*
X136033333Y-74177380D01*
X136223809Y-74177380D01*
X136319047Y-74129761D01*
X136366666Y-74034523D01*
X136366666Y-73653571D01*
X136319047Y-73558333D01*
X136223809Y-73510714D01*
X136033333Y-73510714D01*
X135938095Y-73558333D01*
X135890476Y-73653571D01*
X135890476Y-73748809D01*
X136366666Y-73844047D01*
X134700000Y-74177380D02*
X134700000Y-73510714D01*
X134700000Y-73177380D02*
X134747619Y-73225000D01*
X134700000Y-73272619D01*
X134652380Y-73225000D01*
X134700000Y-73177380D01*
X134700000Y-73272619D01*
X134366666Y-73510714D02*
X133985714Y-73510714D01*
X134223809Y-73177380D02*
X134223809Y-74034523D01*
X134176190Y-74129761D01*
X134080952Y-74177380D01*
X133985714Y-74177380D01*
X132890476Y-74177380D02*
X132890476Y-73177380D01*
X132890476Y-73558333D02*
X132795238Y-73510714D01*
X132604761Y-73510714D01*
X132509523Y-73558333D01*
X132461904Y-73605952D01*
X132414285Y-73701190D01*
X132414285Y-73986904D01*
X132461904Y-74082142D01*
X132509523Y-74129761D01*
X132604761Y-74177380D01*
X132795238Y-74177380D01*
X132890476Y-74129761D01*
X131842857Y-74177380D02*
X131938095Y-74129761D01*
X131985714Y-74034523D01*
X131985714Y-73177380D01*
X131033333Y-74177380D02*
X131033333Y-73653571D01*
X131080952Y-73558333D01*
X131176190Y-73510714D01*
X131366666Y-73510714D01*
X131461904Y-73558333D01*
X131033333Y-74129761D02*
X131128571Y-74177380D01*
X131366666Y-74177380D01*
X131461904Y-74129761D01*
X131509523Y-74034523D01*
X131509523Y-73939285D01*
X131461904Y-73844047D01*
X131366666Y-73796428D01*
X131128571Y-73796428D01*
X131033333Y-73748809D01*
X130557142Y-73510714D02*
X130557142Y-74177380D01*
X130557142Y-73605952D02*
X130509523Y-73558333D01*
X130414285Y-73510714D01*
X130271428Y-73510714D01*
X130176190Y-73558333D01*
X130128571Y-73653571D01*
X130128571Y-74177380D01*
X129652380Y-74177380D02*
X129652380Y-73177380D01*
X129557142Y-73796428D02*
X129271428Y-74177380D01*
X129271428Y-73510714D02*
X129652380Y-73891666D01*
X128842857Y-74082142D02*
X128795238Y-74129761D01*
X128842857Y-74177380D01*
X128890476Y-74129761D01*
X128842857Y-74082142D01*
X128842857Y-74177380D01*
D14*
X115826785Y-132439285D02*
X115076785Y-132439285D01*
X115612500Y-132689285D01*
X115076785Y-132939285D01*
X115826785Y-132939285D01*
X115826785Y-133617857D02*
X115433928Y-133617857D01*
X115362500Y-133582142D01*
X115326785Y-133510714D01*
X115326785Y-133367857D01*
X115362500Y-133296428D01*
X115791071Y-133617857D02*
X115826785Y-133546428D01*
X115826785Y-133367857D01*
X115791071Y-133296428D01*
X115719642Y-133260714D01*
X115648214Y-133260714D01*
X115576785Y-133296428D01*
X115541071Y-133367857D01*
X115541071Y-133546428D01*
X115505357Y-133617857D01*
X115826785Y-134296428D02*
X115076785Y-134296428D01*
X115791071Y-134296428D02*
X115826785Y-134225000D01*
X115826785Y-134082142D01*
X115791071Y-134010714D01*
X115755357Y-133975000D01*
X115683928Y-133939285D01*
X115469642Y-133939285D01*
X115398214Y-133975000D01*
X115362500Y-134010714D01*
X115326785Y-134082142D01*
X115326785Y-134225000D01*
X115362500Y-134296428D01*
X115791071Y-134939285D02*
X115826785Y-134867857D01*
X115826785Y-134725000D01*
X115791071Y-134653571D01*
X115719642Y-134617857D01*
X115433928Y-134617857D01*
X115362500Y-134653571D01*
X115326785Y-134725000D01*
X115326785Y-134867857D01*
X115362500Y-134939285D01*
X115433928Y-134975000D01*
X115505357Y-134975000D01*
X115576785Y-134617857D01*
X115826785Y-135975000D02*
X115791071Y-135903571D01*
X115755357Y-135867857D01*
X115683928Y-135832142D01*
X115469642Y-135832142D01*
X115398214Y-135867857D01*
X115362500Y-135903571D01*
X115326785Y-135975000D01*
X115326785Y-136082142D01*
X115362500Y-136153571D01*
X115398214Y-136189285D01*
X115469642Y-136225000D01*
X115683928Y-136225000D01*
X115755357Y-136189285D01*
X115791071Y-136153571D01*
X115826785Y-136082142D01*
X115826785Y-135975000D01*
X115326785Y-136546428D02*
X115826785Y-136546428D01*
X115398214Y-136546428D02*
X115362500Y-136582142D01*
X115326785Y-136653571D01*
X115326785Y-136760714D01*
X115362500Y-136832142D01*
X115433928Y-136867857D01*
X115826785Y-136867857D01*
X115433928Y-137796428D02*
X115433928Y-138046428D01*
X115826785Y-138153571D02*
X115826785Y-137796428D01*
X115076785Y-137796428D01*
X115076785Y-138153571D01*
X115826785Y-138796428D02*
X115433928Y-138796428D01*
X115362500Y-138760714D01*
X115326785Y-138689285D01*
X115326785Y-138546428D01*
X115362500Y-138475000D01*
X115791071Y-138796428D02*
X115826785Y-138725000D01*
X115826785Y-138546428D01*
X115791071Y-138475000D01*
X115719642Y-138439285D01*
X115648214Y-138439285D01*
X115576785Y-138475000D01*
X115541071Y-138546428D01*
X115541071Y-138725000D01*
X115505357Y-138796428D01*
X115826785Y-139153571D02*
X115326785Y-139153571D01*
X115469642Y-139153571D02*
X115398214Y-139189285D01*
X115362500Y-139225000D01*
X115326785Y-139296428D01*
X115326785Y-139367857D01*
X115326785Y-139510714D02*
X115326785Y-139796428D01*
X115076785Y-139617857D02*
X115719642Y-139617857D01*
X115791071Y-139653571D01*
X115826785Y-139725000D01*
X115826785Y-139796428D01*
X115826785Y-140046428D02*
X115076785Y-140046428D01*
X115826785Y-140367857D02*
X115433928Y-140367857D01*
X115362500Y-140332142D01*
X115326785Y-140260714D01*
X115326785Y-140153571D01*
X115362500Y-140082142D01*
X115398214Y-140046428D01*
X115826785Y-141296428D02*
X115076785Y-141296428D01*
X115362500Y-141296428D02*
X115326785Y-141367857D01*
X115326785Y-141510714D01*
X115362500Y-141582142D01*
X115398214Y-141617857D01*
X115469642Y-141653571D01*
X115683928Y-141653571D01*
X115755357Y-141617857D01*
X115791071Y-141582142D01*
X115826785Y-141510714D01*
X115826785Y-141367857D01*
X115791071Y-141296428D01*
X115326785Y-141903571D02*
X115826785Y-142082142D01*
X115326785Y-142260714D02*
X115826785Y-142082142D01*
X116005357Y-142010714D01*
X116041071Y-141975000D01*
X116076785Y-141903571D01*
X115826785Y-143117857D02*
X115076785Y-143117857D01*
X115433928Y-143117857D02*
X115433928Y-143546428D01*
X115826785Y-143546428D02*
X115076785Y-143546428D01*
X115326785Y-144225000D02*
X115826785Y-144225000D01*
X115326785Y-143903571D02*
X115719642Y-143903571D01*
X115791071Y-143939285D01*
X115826785Y-144010714D01*
X115826785Y-144117857D01*
X115791071Y-144189285D01*
X115755357Y-144225000D01*
X115826785Y-144582142D02*
X115326785Y-144582142D01*
X115398214Y-144582142D02*
X115362500Y-144617857D01*
X115326785Y-144689285D01*
X115326785Y-144796428D01*
X115362500Y-144867857D01*
X115433928Y-144903571D01*
X115826785Y-144903571D01*
X115433928Y-144903571D02*
X115362500Y-144939285D01*
X115326785Y-145010714D01*
X115326785Y-145117857D01*
X115362500Y-145189285D01*
X115433928Y-145225000D01*
X115826785Y-145225000D01*
X115826785Y-145903571D02*
X115433928Y-145903571D01*
X115362500Y-145867857D01*
X115326785Y-145796428D01*
X115326785Y-145653571D01*
X115362500Y-145582142D01*
X115791071Y-145903571D02*
X115826785Y-145832142D01*
X115826785Y-145653571D01*
X115791071Y-145582142D01*
X115719642Y-145546428D01*
X115648214Y-145546428D01*
X115576785Y-145582142D01*
X115541071Y-145653571D01*
X115541071Y-145832142D01*
X115505357Y-145903571D01*
X115326785Y-146260714D02*
X115826785Y-146260714D01*
X115398214Y-146260714D02*
X115362500Y-146296428D01*
X115326785Y-146367857D01*
X115326785Y-146475000D01*
X115362500Y-146546428D01*
X115433928Y-146582142D01*
X115826785Y-146582142D01*
X115791071Y-146903571D02*
X115826785Y-146975000D01*
X115826785Y-147117857D01*
X115791071Y-147189285D01*
X115719642Y-147225000D01*
X115683928Y-147225000D01*
X115612500Y-147189285D01*
X115576785Y-147117857D01*
X115576785Y-147010714D01*
X115541071Y-146939285D01*
X115469642Y-146903571D01*
X115433928Y-146903571D01*
X115362500Y-146939285D01*
X115326785Y-147010714D01*
X115326785Y-147117857D01*
X115362500Y-147189285D01*
X115076785Y-147653571D02*
X115255357Y-147653571D01*
X115183928Y-147475000D02*
X115255357Y-147653571D01*
X115183928Y-147832142D01*
X115398214Y-147546428D02*
X115255357Y-147653571D01*
X115398214Y-147760714D01*
X117701785Y-131957142D02*
X117880357Y-131957142D01*
X117808928Y-131778571D02*
X117880357Y-131957142D01*
X117808928Y-132135714D01*
X118023214Y-131850000D02*
X117880357Y-131957142D01*
X118023214Y-132064285D01*
X118451785Y-132992857D02*
X117701785Y-132992857D01*
X117701785Y-133278571D01*
X117737500Y-133350000D01*
X117773214Y-133385714D01*
X117844642Y-133421428D01*
X117951785Y-133421428D01*
X118023214Y-133385714D01*
X118058928Y-133350000D01*
X118094642Y-133278571D01*
X118094642Y-132992857D01*
X118451785Y-134064285D02*
X118058928Y-134064285D01*
X117987500Y-134028571D01*
X117951785Y-133957142D01*
X117951785Y-133814285D01*
X117987500Y-133742857D01*
X118416071Y-134064285D02*
X118451785Y-133992857D01*
X118451785Y-133814285D01*
X118416071Y-133742857D01*
X118344642Y-133707142D01*
X118273214Y-133707142D01*
X118201785Y-133742857D01*
X118166071Y-133814285D01*
X118166071Y-133992857D01*
X118130357Y-134064285D01*
X118451785Y-134421428D02*
X117951785Y-134421428D01*
X118094642Y-134421428D02*
X118023214Y-134457142D01*
X117987500Y-134492857D01*
X117951785Y-134564285D01*
X117951785Y-134635714D01*
X117951785Y-134778571D02*
X117951785Y-135064285D01*
X117701785Y-134885714D02*
X118344642Y-134885714D01*
X118416071Y-134921428D01*
X118451785Y-134992857D01*
X118451785Y-135064285D01*
X118451785Y-135314285D02*
X117951785Y-135314285D01*
X117701785Y-135314285D02*
X117737500Y-135278571D01*
X117773214Y-135314285D01*
X117737500Y-135350000D01*
X117701785Y-135314285D01*
X117773214Y-135314285D01*
X118451785Y-135992857D02*
X118058928Y-135992857D01*
X117987500Y-135957142D01*
X117951785Y-135885714D01*
X117951785Y-135742857D01*
X117987500Y-135671428D01*
X118416071Y-135992857D02*
X118451785Y-135921428D01*
X118451785Y-135742857D01*
X118416071Y-135671428D01*
X118344642Y-135635714D01*
X118273214Y-135635714D01*
X118201785Y-135671428D01*
X118166071Y-135742857D01*
X118166071Y-135921428D01*
X118130357Y-135992857D01*
X118451785Y-136457142D02*
X118416071Y-136385714D01*
X118344642Y-136350000D01*
X117701785Y-136350000D01*
X118451785Y-136850000D02*
X118416071Y-136778571D01*
X118344642Y-136742857D01*
X117701785Y-136742857D01*
X117951785Y-137064285D02*
X118451785Y-137242857D01*
X117951785Y-137421428D02*
X118451785Y-137242857D01*
X118630357Y-137171428D01*
X118666071Y-137135714D01*
X118701785Y-137064285D01*
X118451785Y-138278571D02*
X117951785Y-138278571D01*
X118023214Y-138278571D02*
X117987500Y-138314285D01*
X117951785Y-138385714D01*
X117951785Y-138492857D01*
X117987500Y-138564285D01*
X118058928Y-138600000D01*
X118451785Y-138600000D01*
X118058928Y-138600000D02*
X117987500Y-138635714D01*
X117951785Y-138707142D01*
X117951785Y-138814285D01*
X117987500Y-138885714D01*
X118058928Y-138921428D01*
X118451785Y-138921428D01*
X118451785Y-139600000D02*
X118058928Y-139600000D01*
X117987500Y-139564285D01*
X117951785Y-139492857D01*
X117951785Y-139350000D01*
X117987500Y-139278571D01*
X118416071Y-139600000D02*
X118451785Y-139528571D01*
X118451785Y-139350000D01*
X118416071Y-139278571D01*
X118344642Y-139242857D01*
X118273214Y-139242857D01*
X118201785Y-139278571D01*
X118166071Y-139350000D01*
X118166071Y-139528571D01*
X118130357Y-139600000D01*
X118451785Y-140278571D02*
X117701785Y-140278571D01*
X118416071Y-140278571D02*
X118451785Y-140207142D01*
X118451785Y-140064285D01*
X118416071Y-139992857D01*
X118380357Y-139957142D01*
X118308928Y-139921428D01*
X118094642Y-139921428D01*
X118023214Y-139957142D01*
X117987500Y-139992857D01*
X117951785Y-140064285D01*
X117951785Y-140207142D01*
X117987500Y-140278571D01*
X118416071Y-140921428D02*
X118451785Y-140850000D01*
X118451785Y-140707142D01*
X118416071Y-140635714D01*
X118344642Y-140600000D01*
X118058928Y-140600000D01*
X117987500Y-140635714D01*
X117951785Y-140707142D01*
X117951785Y-140850000D01*
X117987500Y-140921428D01*
X118058928Y-140957142D01*
X118130357Y-140957142D01*
X118201785Y-140600000D01*
X118451785Y-141850000D02*
X117701785Y-141850000D01*
X117987500Y-141850000D02*
X117951785Y-141921428D01*
X117951785Y-142064285D01*
X117987500Y-142135714D01*
X118023214Y-142171428D01*
X118094642Y-142207142D01*
X118308928Y-142207142D01*
X118380357Y-142171428D01*
X118416071Y-142135714D01*
X118451785Y-142064285D01*
X118451785Y-141921428D01*
X118416071Y-141850000D01*
X117951785Y-142457142D02*
X118451785Y-142635714D01*
X117951785Y-142814285D02*
X118451785Y-142635714D01*
X118630357Y-142564285D01*
X118666071Y-142528571D01*
X118701785Y-142457142D01*
X118451785Y-143671428D02*
X117951785Y-143671428D01*
X118023214Y-143671428D02*
X117987500Y-143707142D01*
X117951785Y-143778571D01*
X117951785Y-143885714D01*
X117987500Y-143957142D01*
X118058928Y-143992857D01*
X118451785Y-143992857D01*
X118058928Y-143992857D02*
X117987500Y-144028571D01*
X117951785Y-144100000D01*
X117951785Y-144207142D01*
X117987500Y-144278571D01*
X118058928Y-144314285D01*
X118451785Y-144314285D01*
X118451785Y-144992857D02*
X118058928Y-144992857D01*
X117987500Y-144957142D01*
X117951785Y-144885714D01*
X117951785Y-144742857D01*
X117987500Y-144671428D01*
X118416071Y-144992857D02*
X118451785Y-144921428D01*
X118451785Y-144742857D01*
X118416071Y-144671428D01*
X118344642Y-144635714D01*
X118273214Y-144635714D01*
X118201785Y-144671428D01*
X118166071Y-144742857D01*
X118166071Y-144921428D01*
X118130357Y-144992857D01*
X118416071Y-145671428D02*
X118451785Y-145600000D01*
X118451785Y-145457142D01*
X118416071Y-145385714D01*
X118380357Y-145350000D01*
X118308928Y-145314285D01*
X118094642Y-145314285D01*
X118023214Y-145350000D01*
X117987500Y-145385714D01*
X117951785Y-145457142D01*
X117951785Y-145600000D01*
X117987500Y-145671428D01*
X118451785Y-145992857D02*
X117701785Y-145992857D01*
X118451785Y-146314285D02*
X118058928Y-146314285D01*
X117987500Y-146278571D01*
X117951785Y-146207142D01*
X117951785Y-146100000D01*
X117987500Y-146028571D01*
X118023214Y-145992857D01*
X118451785Y-146671428D02*
X117951785Y-146671428D01*
X117701785Y-146671428D02*
X117737500Y-146635714D01*
X117773214Y-146671428D01*
X117737500Y-146707142D01*
X117701785Y-146671428D01*
X117773214Y-146671428D01*
X117951785Y-147028571D02*
X118451785Y-147028571D01*
X118023214Y-147028571D02*
X117987500Y-147064285D01*
X117951785Y-147135714D01*
X117951785Y-147242857D01*
X117987500Y-147314285D01*
X118058928Y-147350000D01*
X118451785Y-147350000D01*
X118416071Y-147992857D02*
X118451785Y-147921428D01*
X118451785Y-147778571D01*
X118416071Y-147707142D01*
X118344642Y-147671428D01*
X118058928Y-147671428D01*
X117987500Y-147707142D01*
X117951785Y-147778571D01*
X117951785Y-147921428D01*
X117987500Y-147992857D01*
X118058928Y-148028571D01*
X118130357Y-148028571D01*
X118201785Y-147671428D01*
X118380357Y-148350000D02*
X118416071Y-148385714D01*
X118451785Y-148350000D01*
X118416071Y-148314285D01*
X118380357Y-148350000D01*
X118451785Y-148350000D01*
D12*
X130378571Y-126903571D02*
X130378571Y-125403571D01*
X129521428Y-126903571D01*
X129521428Y-125403571D01*
X128592857Y-126903571D02*
X128735714Y-126832142D01*
X128807142Y-126760714D01*
X128878571Y-126617857D01*
X128878571Y-126189285D01*
X128807142Y-126046428D01*
X128735714Y-125975000D01*
X128592857Y-125903571D01*
X128378571Y-125903571D01*
X128235714Y-125975000D01*
X128164285Y-126046428D01*
X128092857Y-126189285D01*
X128092857Y-126617857D01*
X128164285Y-126760714D01*
X128235714Y-126832142D01*
X128378571Y-126903571D01*
X128592857Y-126903571D01*
X127664285Y-125903571D02*
X127092857Y-125903571D01*
X127450000Y-125403571D02*
X127450000Y-126689285D01*
X127378571Y-126832142D01*
X127235714Y-126903571D01*
X127092857Y-126903571D01*
X125664285Y-125903571D02*
X125092857Y-125903571D01*
X125450000Y-126903571D02*
X125450000Y-125617857D01*
X125378571Y-125475000D01*
X125235714Y-125403571D01*
X125092857Y-125403571D01*
X124378571Y-126903571D02*
X124521428Y-126832142D01*
X124592857Y-126760714D01*
X124664285Y-126617857D01*
X124664285Y-126189285D01*
X124592857Y-126046428D01*
X124521428Y-125975000D01*
X124378571Y-125903571D01*
X124164285Y-125903571D01*
X124021428Y-125975000D01*
X123950000Y-126046428D01*
X123878571Y-126189285D01*
X123878571Y-126617857D01*
X123950000Y-126760714D01*
X124021428Y-126832142D01*
X124164285Y-126903571D01*
X124378571Y-126903571D01*
X123235714Y-126903571D02*
X123235714Y-125903571D01*
X123235714Y-126189285D02*
X123164285Y-126046428D01*
X123092857Y-125975000D01*
X122950000Y-125903571D01*
X122807142Y-125903571D01*
X138092857Y-129453571D02*
X138092857Y-127953571D01*
X137450000Y-129453571D02*
X137450000Y-128667857D01*
X137521428Y-128525000D01*
X137664285Y-128453571D01*
X137878571Y-128453571D01*
X138021428Y-128525000D01*
X138092857Y-128596428D01*
X136092857Y-128453571D02*
X136092857Y-129453571D01*
X136735714Y-128453571D02*
X136735714Y-129239285D01*
X136664285Y-129382142D01*
X136521428Y-129453571D01*
X136307142Y-129453571D01*
X136164285Y-129382142D01*
X136092857Y-129310714D01*
X135378571Y-129453571D02*
X135378571Y-128453571D01*
X135378571Y-128596428D02*
X135307142Y-128525000D01*
X135164285Y-128453571D01*
X134950000Y-128453571D01*
X134807142Y-128525000D01*
X134735714Y-128667857D01*
X134735714Y-129453571D01*
X134735714Y-128667857D02*
X134664285Y-128525000D01*
X134521428Y-128453571D01*
X134307142Y-128453571D01*
X134164285Y-128525000D01*
X134092857Y-128667857D01*
X134092857Y-129453571D01*
X132735714Y-129453571D02*
X132735714Y-128667857D01*
X132807142Y-128525000D01*
X132950000Y-128453571D01*
X133235714Y-128453571D01*
X133378571Y-128525000D01*
X132735714Y-129382142D02*
X132878571Y-129453571D01*
X133235714Y-129453571D01*
X133378571Y-129382142D01*
X133450000Y-129239285D01*
X133450000Y-129096428D01*
X133378571Y-128953571D01*
X133235714Y-128882142D01*
X132878571Y-128882142D01*
X132735714Y-128810714D01*
X132021428Y-128453571D02*
X132021428Y-129453571D01*
X132021428Y-128596428D02*
X131950000Y-128525000D01*
X131807142Y-128453571D01*
X131592857Y-128453571D01*
X131450000Y-128525000D01*
X131378571Y-128667857D01*
X131378571Y-129453571D01*
X128878571Y-129382142D02*
X129021428Y-129453571D01*
X129307142Y-129453571D01*
X129450000Y-129382142D01*
X129521428Y-129310714D01*
X129592857Y-129167857D01*
X129592857Y-128739285D01*
X129521428Y-128596428D01*
X129450000Y-128525000D01*
X129307142Y-128453571D01*
X129021428Y-128453571D01*
X128878571Y-128525000D01*
X128021428Y-129453571D02*
X128164285Y-129382142D01*
X128235714Y-129310714D01*
X128307142Y-129167857D01*
X128307142Y-128739285D01*
X128235714Y-128596428D01*
X128164285Y-128525000D01*
X128021428Y-128453571D01*
X127807142Y-128453571D01*
X127664285Y-128525000D01*
X127592857Y-128596428D01*
X127521428Y-128739285D01*
X127521428Y-129167857D01*
X127592857Y-129310714D01*
X127664285Y-129382142D01*
X127807142Y-129453571D01*
X128021428Y-129453571D01*
X126878571Y-128453571D02*
X126878571Y-129453571D01*
X126878571Y-128596428D02*
X126807142Y-128525000D01*
X126664285Y-128453571D01*
X126450000Y-128453571D01*
X126307142Y-128525000D01*
X126235714Y-128667857D01*
X126235714Y-129453571D01*
X125592857Y-129382142D02*
X125450000Y-129453571D01*
X125164285Y-129453571D01*
X125021428Y-129382142D01*
X124950000Y-129239285D01*
X124950000Y-129167857D01*
X125021428Y-129025000D01*
X125164285Y-128953571D01*
X125378571Y-128953571D01*
X125521428Y-128882142D01*
X125592857Y-128739285D01*
X125592857Y-128667857D01*
X125521428Y-128525000D01*
X125378571Y-128453571D01*
X125164285Y-128453571D01*
X125021428Y-128525000D01*
X123664285Y-128453571D02*
X123664285Y-129453571D01*
X124307142Y-128453571D02*
X124307142Y-129239285D01*
X124235714Y-129382142D01*
X124092857Y-129453571D01*
X123878571Y-129453571D01*
X123735714Y-129382142D01*
X123664285Y-129310714D01*
X122950000Y-129453571D02*
X122950000Y-128453571D01*
X122950000Y-128596428D02*
X122878571Y-128525000D01*
X122735714Y-128453571D01*
X122521428Y-128453571D01*
X122378571Y-128525000D01*
X122307142Y-128667857D01*
X122307142Y-129453571D01*
X122307142Y-128667857D02*
X122235714Y-128525000D01*
X122092857Y-128453571D01*
X121878571Y-128453571D01*
X121735714Y-128525000D01*
X121664285Y-128667857D01*
X121664285Y-129453571D01*
X120950000Y-128453571D02*
X120950000Y-129953571D01*
X120950000Y-128525000D02*
X120807142Y-128453571D01*
X120521428Y-128453571D01*
X120378571Y-128525000D01*
X120307142Y-128596428D01*
X120235714Y-128739285D01*
X120235714Y-129167857D01*
X120307142Y-129310714D01*
X120378571Y-129382142D01*
X120521428Y-129453571D01*
X120807142Y-129453571D01*
X120950000Y-129382142D01*
X119807142Y-128453571D02*
X119235714Y-128453571D01*
X119592857Y-127953571D02*
X119592857Y-129239285D01*
X119521428Y-129382142D01*
X119378571Y-129453571D01*
X119235714Y-129453571D01*
X118735714Y-129453571D02*
X118735714Y-128453571D01*
X118735714Y-127953571D02*
X118807142Y-128025000D01*
X118735714Y-128096428D01*
X118664285Y-128025000D01*
X118735714Y-127953571D01*
X118735714Y-128096428D01*
X117807142Y-129453571D02*
X117950000Y-129382142D01*
X118021428Y-129310714D01*
X118092857Y-129167857D01*
X118092857Y-128739285D01*
X118021428Y-128596428D01*
X117950000Y-128525000D01*
X117807142Y-128453571D01*
X117592857Y-128453571D01*
X117450000Y-128525000D01*
X117378571Y-128596428D01*
X117307142Y-128739285D01*
X117307142Y-129167857D01*
X117378571Y-129310714D01*
X117450000Y-129382142D01*
X117592857Y-129453571D01*
X117807142Y-129453571D01*
X116664285Y-128453571D02*
X116664285Y-129453571D01*
X116664285Y-128596428D02*
X116592857Y-128525000D01*
X116450000Y-128453571D01*
X116235714Y-128453571D01*
X116092857Y-128525000D01*
X116021428Y-128667857D01*
X116021428Y-129453571D01*
X115307142Y-129310714D02*
X115235714Y-129382142D01*
X115307142Y-129453571D01*
X115378571Y-129382142D01*
X115307142Y-129310714D01*
X115307142Y-129453571D01*
X156478571Y-108292857D02*
X155978571Y-108292857D01*
X155764285Y-109078571D02*
X156478571Y-109078571D01*
X156478571Y-107578571D01*
X155764285Y-107578571D01*
X155121428Y-109078571D02*
X155121428Y-107578571D01*
X155121428Y-108150000D02*
X154978571Y-108078571D01*
X154692857Y-108078571D01*
X154550000Y-108150000D01*
X154478571Y-108221428D01*
X154407142Y-108364285D01*
X154407142Y-108792857D01*
X154478571Y-108935714D01*
X154550000Y-109007142D01*
X154692857Y-109078571D01*
X154978571Y-109078571D01*
X155121428Y-109007142D01*
X153764285Y-109078571D02*
X153764285Y-108078571D01*
X153764285Y-107578571D02*
X153835714Y-107650000D01*
X153764285Y-107721428D01*
X153692857Y-107650000D01*
X153764285Y-107578571D01*
X153764285Y-107721428D01*
X153050000Y-109078571D02*
X153050000Y-107578571D01*
X152907142Y-108507142D02*
X152478571Y-109078571D01*
X152478571Y-108078571D02*
X153050000Y-108650000D01*
X151264285Y-109007142D02*
X151407142Y-109078571D01*
X151692857Y-109078571D01*
X151835714Y-109007142D01*
X151907142Y-108864285D01*
X151907142Y-108292857D01*
X151835714Y-108150000D01*
X151692857Y-108078571D01*
X151407142Y-108078571D01*
X151264285Y-108150000D01*
X151192857Y-108292857D01*
X151192857Y-108435714D01*
X151907142Y-108578571D01*
X148550000Y-108935714D02*
X148621428Y-109007142D01*
X148835714Y-109078571D01*
X148978571Y-109078571D01*
X149192857Y-109007142D01*
X149335714Y-108864285D01*
X149407142Y-108721428D01*
X149478571Y-108435714D01*
X149478571Y-108221428D01*
X149407142Y-107935714D01*
X149335714Y-107792857D01*
X149192857Y-107650000D01*
X148978571Y-107578571D01*
X148835714Y-107578571D01*
X148621428Y-107650000D01*
X148550000Y-107721428D01*
X147692857Y-109078571D02*
X147835714Y-109007142D01*
X147907142Y-108935714D01*
X147978571Y-108792857D01*
X147978571Y-108364285D01*
X147907142Y-108221428D01*
X147835714Y-108150000D01*
X147692857Y-108078571D01*
X147478571Y-108078571D01*
X147335714Y-108150000D01*
X147264285Y-108221428D01*
X147192857Y-108364285D01*
X147192857Y-108792857D01*
X147264285Y-108935714D01*
X147335714Y-109007142D01*
X147478571Y-109078571D01*
X147692857Y-109078571D01*
X146550000Y-108078571D02*
X146550000Y-109078571D01*
X146550000Y-108221428D02*
X146478571Y-108150000D01*
X146335714Y-108078571D01*
X146121428Y-108078571D01*
X145978571Y-108150000D01*
X145907142Y-108292857D01*
X145907142Y-109078571D01*
X145407142Y-108078571D02*
X144835714Y-108078571D01*
X145192857Y-107578571D02*
X145192857Y-108864285D01*
X145121428Y-109007142D01*
X144978571Y-109078571D01*
X144835714Y-109078571D01*
X144335714Y-109078571D02*
X144335714Y-108078571D01*
X144335714Y-108364285D02*
X144264285Y-108221428D01*
X144192857Y-108150000D01*
X144050000Y-108078571D01*
X143907142Y-108078571D01*
X143192857Y-109078571D02*
X143335714Y-109007142D01*
X143407142Y-108935714D01*
X143478571Y-108792857D01*
X143478571Y-108364285D01*
X143407142Y-108221428D01*
X143335714Y-108150000D01*
X143192857Y-108078571D01*
X142978571Y-108078571D01*
X142835714Y-108150000D01*
X142764285Y-108221428D01*
X142692857Y-108364285D01*
X142692857Y-108792857D01*
X142764285Y-108935714D01*
X142835714Y-109007142D01*
X142978571Y-109078571D01*
X143192857Y-109078571D01*
X141835714Y-109078571D02*
X141978571Y-109007142D01*
X142050000Y-108864285D01*
X142050000Y-107578571D01*
X141050000Y-109078571D02*
X141192857Y-109007142D01*
X141264285Y-108864285D01*
X141264285Y-107578571D01*
X139907142Y-109007142D02*
X140050000Y-109078571D01*
X140335714Y-109078571D01*
X140478571Y-109007142D01*
X140550000Y-108864285D01*
X140550000Y-108292857D01*
X140478571Y-108150000D01*
X140335714Y-108078571D01*
X140050000Y-108078571D01*
X139907142Y-108150000D01*
X139835714Y-108292857D01*
X139835714Y-108435714D01*
X140550000Y-108578571D01*
X139192857Y-109078571D02*
X139192857Y-108078571D01*
X139192857Y-108364285D02*
X139121428Y-108221428D01*
X139050000Y-108150000D01*
X138907142Y-108078571D01*
X138764285Y-108078571D01*
X137335714Y-107578571D02*
X136835714Y-109078571D01*
X136335714Y-107578571D01*
X135907142Y-107721428D02*
X135835714Y-107650000D01*
X135692857Y-107578571D01*
X135335714Y-107578571D01*
X135192857Y-107650000D01*
X135121428Y-107721428D01*
X135050000Y-107864285D01*
X135050000Y-108007142D01*
X135121428Y-108221428D01*
X135978571Y-109078571D01*
X135050000Y-109078571D01*
X154471428Y-98703571D02*
X154471428Y-97203571D01*
X153614285Y-98703571D02*
X154257142Y-97846428D01*
X153614285Y-97203571D02*
X154471428Y-98060714D01*
X152757142Y-98703571D02*
X152900000Y-98632142D01*
X152971428Y-98489285D01*
X152971428Y-97203571D01*
X151542857Y-98703571D02*
X151542857Y-97917857D01*
X151614285Y-97775000D01*
X151757142Y-97703571D01*
X152042857Y-97703571D01*
X152185714Y-97775000D01*
X151542857Y-98632142D02*
X151685714Y-98703571D01*
X152042857Y-98703571D01*
X152185714Y-98632142D01*
X152257142Y-98489285D01*
X152257142Y-98346428D01*
X152185714Y-98203571D01*
X152042857Y-98132142D01*
X151685714Y-98132142D01*
X151542857Y-98060714D01*
X150971428Y-97703571D02*
X150614285Y-98703571D01*
X150257142Y-97703571D02*
X150614285Y-98703571D01*
X150757142Y-99060714D01*
X150828571Y-99132142D01*
X150971428Y-99203571D01*
X149900000Y-97703571D02*
X149328571Y-97703571D01*
X149685714Y-97203571D02*
X149685714Y-98489285D01*
X149614285Y-98632142D01*
X149471428Y-98703571D01*
X149328571Y-98703571D01*
X148614285Y-98703571D02*
X148757142Y-98632142D01*
X148828571Y-98560714D01*
X148900000Y-98417857D01*
X148900000Y-97989285D01*
X148828571Y-97846428D01*
X148757142Y-97775000D01*
X148614285Y-97703571D01*
X148400000Y-97703571D01*
X148257142Y-97775000D01*
X148185714Y-97846428D01*
X148114285Y-97989285D01*
X148114285Y-98417857D01*
X148185714Y-98560714D01*
X148257142Y-98632142D01*
X148400000Y-98703571D01*
X148614285Y-98703571D01*
X147471428Y-97703571D02*
X147471428Y-98703571D01*
X147471428Y-97846428D02*
X147400000Y-97775000D01*
X147257142Y-97703571D01*
X147042857Y-97703571D01*
X146900000Y-97775000D01*
X146828571Y-97917857D01*
X146828571Y-98703571D01*
X145042857Y-98632142D02*
X144828571Y-98703571D01*
X144471428Y-98703571D01*
X144328571Y-98632142D01*
X144257142Y-98560714D01*
X144185714Y-98417857D01*
X144185714Y-98275000D01*
X144257142Y-98132142D01*
X144328571Y-98060714D01*
X144471428Y-97989285D01*
X144757142Y-97917857D01*
X144900000Y-97846428D01*
X144971428Y-97775000D01*
X145042857Y-97632142D01*
X145042857Y-97489285D01*
X144971428Y-97346428D01*
X144900000Y-97275000D01*
X144757142Y-97203571D01*
X144400000Y-97203571D01*
X144185714Y-97275000D01*
X143542857Y-98703571D02*
X143542857Y-97703571D01*
X143542857Y-97846428D02*
X143471428Y-97775000D01*
X143328571Y-97703571D01*
X143114285Y-97703571D01*
X142971428Y-97775000D01*
X142900000Y-97917857D01*
X142900000Y-98703571D01*
X142900000Y-97917857D02*
X142828571Y-97775000D01*
X142685714Y-97703571D01*
X142471428Y-97703571D01*
X142328571Y-97775000D01*
X142257142Y-97917857D01*
X142257142Y-98703571D01*
X141542857Y-98703571D02*
X141542857Y-97703571D01*
X141542857Y-97203571D02*
X141614285Y-97275000D01*
X141542857Y-97346428D01*
X141471428Y-97275000D01*
X141542857Y-97203571D01*
X141542857Y-97346428D01*
X141042857Y-97703571D02*
X140471428Y-97703571D01*
X140828571Y-97203571D02*
X140828571Y-98489285D01*
X140757142Y-98632142D01*
X140614285Y-98703571D01*
X140471428Y-98703571D01*
X139971428Y-98703571D02*
X139971428Y-97203571D01*
X139328571Y-98703571D02*
X139328571Y-97917857D01*
X139400000Y-97775000D01*
X139542857Y-97703571D01*
X139757142Y-97703571D01*
X139900000Y-97775000D01*
X139971428Y-97846428D01*
X153257142Y-99753571D02*
X152257142Y-99753571D01*
X152900000Y-101253571D01*
X150614285Y-99682142D02*
X151900000Y-101610714D01*
X149328571Y-101253571D02*
X150185714Y-101253571D01*
X149757142Y-101253571D02*
X149757142Y-99753571D01*
X149900000Y-99967857D01*
X150042857Y-100110714D01*
X150185714Y-100182142D01*
X147900000Y-101253571D02*
X148757142Y-101253571D01*
X148328571Y-101253571D02*
X148328571Y-99753571D01*
X148471428Y-99967857D01*
X148614285Y-100110714D01*
X148757142Y-100182142D01*
X146185714Y-99682142D02*
X147471428Y-101610714D01*
X145757142Y-99896428D02*
X145685714Y-99825000D01*
X145542857Y-99753571D01*
X145185714Y-99753571D01*
X145042857Y-99825000D01*
X144971428Y-99896428D01*
X144900000Y-100039285D01*
X144900000Y-100182142D01*
X144971428Y-100396428D01*
X145828571Y-101253571D01*
X144900000Y-101253571D01*
X143971428Y-99753571D02*
X143828571Y-99753571D01*
X143685714Y-99825000D01*
X143614285Y-99896428D01*
X143542857Y-100039285D01*
X143471428Y-100325000D01*
X143471428Y-100682142D01*
X143542857Y-100967857D01*
X143614285Y-101110714D01*
X143685714Y-101182142D01*
X143828571Y-101253571D01*
X143971428Y-101253571D01*
X144114285Y-101182142D01*
X144185714Y-101110714D01*
X144257142Y-100967857D01*
X144328571Y-100682142D01*
X144328571Y-100325000D01*
X144257142Y-100039285D01*
X144185714Y-99896428D01*
X144114285Y-99825000D01*
X143971428Y-99753571D01*
X142900000Y-99896428D02*
X142828571Y-99825000D01*
X142685714Y-99753571D01*
X142328571Y-99753571D01*
X142185714Y-99825000D01*
X142114285Y-99896428D01*
X142042857Y-100039285D01*
X142042857Y-100182142D01*
X142114285Y-100396428D01*
X142971428Y-101253571D01*
X142042857Y-101253571D01*
X141114285Y-99753571D02*
X140971428Y-99753571D01*
X140828571Y-99825000D01*
X140757142Y-99896428D01*
X140685714Y-100039285D01*
X140614285Y-100325000D01*
X140614285Y-100682142D01*
X140685714Y-100967857D01*
X140757142Y-101110714D01*
X140828571Y-101182142D01*
X140971428Y-101253571D01*
X141114285Y-101253571D01*
X141257142Y-101182142D01*
X141328571Y-101110714D01*
X141400000Y-100967857D01*
X141471428Y-100682142D01*
X141471428Y-100325000D01*
X141400000Y-100039285D01*
X141328571Y-99896428D01*
X141257142Y-99825000D01*
X141114285Y-99753571D01*
D10*
X133814064Y-83410000D02*
X132609936Y-83410000D01*
X133814064Y-81590000D02*
X132609936Y-81590000D01*
X147315000Y-141660000D02*
X147315000Y-143475000D01*
X147560000Y-141660000D02*
X147315000Y-141660000D01*
X147560000Y-137800000D02*
X147560000Y-141660000D01*
X147560000Y-133940000D02*
X147315000Y-133940000D01*
X147560000Y-137800000D02*
X147560000Y-133940000D01*
X129440000Y-141660000D02*
X129685000Y-141660000D01*
X129440000Y-137800000D02*
X129440000Y-141660000D01*
X129440000Y-133940000D02*
X129685000Y-133940000D01*
X129440000Y-137800000D02*
X129440000Y-133940000D01*
X133790064Y-86610000D02*
X132585936Y-86610000D01*
X133790064Y-84790000D02*
X132585936Y-84790000D01*
X133814064Y-80010000D02*
X132609936Y-80010000D01*
X133814064Y-78190000D02*
X132609936Y-78190000D01*
D13*
X137766666Y-82952380D02*
X138100000Y-82476190D01*
X138338095Y-82952380D02*
X138338095Y-81952380D01*
X137957142Y-81952380D01*
X137861904Y-82000000D01*
X137814285Y-82047619D01*
X137766666Y-82142857D01*
X137766666Y-82285714D01*
X137814285Y-82380952D01*
X137861904Y-82428571D01*
X137957142Y-82476190D01*
X138338095Y-82476190D01*
X137385714Y-82047619D02*
X137338095Y-82000000D01*
X137242857Y-81952380D01*
X137004761Y-81952380D01*
X136909523Y-82000000D01*
X136861904Y-82047619D01*
X136814285Y-82142857D01*
X136814285Y-82238095D01*
X136861904Y-82380952D01*
X137433333Y-82952380D01*
X136814285Y-82952380D01*
X147852380Y-137038095D02*
X148661904Y-137038095D01*
X148757142Y-137085714D01*
X148804761Y-137133333D01*
X148852380Y-137228571D01*
X148852380Y-137419047D01*
X148804761Y-137514285D01*
X148757142Y-137561904D01*
X148661904Y-137609523D01*
X147852380Y-137609523D01*
X147852380Y-137990476D02*
X147852380Y-138609523D01*
X148233333Y-138276190D01*
X148233333Y-138419047D01*
X148280952Y-138514285D01*
X148328571Y-138561904D01*
X148423809Y-138609523D01*
X148661904Y-138609523D01*
X148757142Y-138561904D01*
X148804761Y-138514285D01*
X148852380Y-138419047D01*
X148852380Y-138133333D01*
X148804761Y-138038095D01*
X148757142Y-137990476D01*
X137866666Y-86052380D02*
X138200000Y-85576190D01*
X138438095Y-86052380D02*
X138438095Y-85052380D01*
X138057142Y-85052380D01*
X137961904Y-85100000D01*
X137914285Y-85147619D01*
X137866666Y-85242857D01*
X137866666Y-85385714D01*
X137914285Y-85480952D01*
X137961904Y-85528571D01*
X138057142Y-85576190D01*
X138438095Y-85576190D01*
X137533333Y-85052380D02*
X136914285Y-85052380D01*
X137247619Y-85433333D01*
X137104761Y-85433333D01*
X137009523Y-85480952D01*
X136961904Y-85528571D01*
X136914285Y-85623809D01*
X136914285Y-85861904D01*
X136961904Y-85957142D01*
X137009523Y-86004761D01*
X137104761Y-86052380D01*
X137390476Y-86052380D01*
X137485714Y-86004761D01*
X137533333Y-85957142D01*
X137566666Y-79552380D02*
X137900000Y-79076190D01*
X138138095Y-79552380D02*
X138138095Y-78552380D01*
X137757142Y-78552380D01*
X137661904Y-78600000D01*
X137614285Y-78647619D01*
X137566666Y-78742857D01*
X137566666Y-78885714D01*
X137614285Y-78980952D01*
X137661904Y-79028571D01*
X137757142Y-79076190D01*
X138138095Y-79076190D01*
X136614285Y-79552380D02*
X137185714Y-79552380D01*
X136900000Y-79552380D02*
X136900000Y-78552380D01*
X136995238Y-78695238D01*
X137090476Y-78790476D01*
X137185714Y-78838095D01*
X142406666Y-127577142D02*
X142454285Y-127624761D01*
X142597142Y-127672380D01*
X142692380Y-127672380D01*
X142835238Y-127624761D01*
X142930476Y-127529523D01*
X142978095Y-127434285D01*
X143025714Y-127243809D01*
X143025714Y-127100952D01*
X142978095Y-126910476D01*
X142930476Y-126815238D01*
X142835238Y-126720000D01*
X142692380Y-126672380D01*
X142597142Y-126672380D01*
X142454285Y-126720000D01*
X142406666Y-126767619D01*
X141835238Y-127100952D02*
X141930476Y-127053333D01*
X141978095Y-127005714D01*
X142025714Y-126910476D01*
X142025714Y-126862857D01*
X141978095Y-126767619D01*
X141930476Y-126720000D01*
X141835238Y-126672380D01*
X141644761Y-126672380D01*
X141549523Y-126720000D01*
X141501904Y-126767619D01*
X141454285Y-126862857D01*
X141454285Y-126910476D01*
X141501904Y-127005714D01*
X141549523Y-127053333D01*
X141644761Y-127100952D01*
X141835238Y-127100952D01*
X141930476Y-127148571D01*
X141978095Y-127196190D01*
X142025714Y-127291428D01*
X142025714Y-127481904D01*
X141978095Y-127577142D01*
X141930476Y-127624761D01*
X141835238Y-127672380D01*
X141644761Y-127672380D01*
X141549523Y-127624761D01*
X141501904Y-127577142D01*
X141454285Y-127481904D01*
X141454285Y-127291428D01*
X141501904Y-127196190D01*
X141549523Y-127148571D01*
X141644761Y-127100952D01*
M02*
