                                                                        S      1
,,19HMini USB Dust Cover,19HMini USB Dust Cover,7Hunknown,7Hunknown,32, G      1
38,7,99,15,,1.,2,2HMM,1,0.08,15H20191230.152910,0.01,10000.,7Hunknown,7HG      2
unknown,11,0,15H20191230.202828;                                        G      3
     186       1                                                00000000D      1
     186            -175       1       0                               0D      2
     514       2                                                00010000D      3
     514                       2       1                               0D      4
     510       4                                                00010000D      5
     510            -175       1       1                               0D      6
     510       5                                                00010000D      7
     510            -175       1       1                               0D      8
     510       6                                                00010000D      9
     510            -175       1       1                               0D     10
     510       7                                                00010000D     11
     510            -175       1       1                               0D     12
     510       8                                                00010000D     13
     510            -175       1       1                               0D     14
     510       9                                                00010000D     15
     510            -175       1       1                               0D     16
     510      10                                                00010000D     17
     510            -175       1       1                               0D     18
     510      11                                                00010000D     19
     510            -175       1       1                               0D     20
     510      12                                                00010000D     21
     510            -175       1       1                               0D     22
     510      13                                                00010000D     23
     510            -175       1       1                               0D     24
     510      14                                                00010000D     25
     510            -175       1       1                               0D     26
     510      15                                                00010000D     27
     510            -175       1       1                               0D     28
     510      16                                                00010000D     29
     510            -175       1       1                               0D     30
     510      17                                                00010000D     31
     510            -175       1       1                               0D     32
     510      18                                                00010000D     33
     510            -175       1       1                               0D     34
     508      19                                                00010000D     35
     508                       1       1                               0D     36
     508      20                                                00010000D     37
     508                       1       1                               0D     38
     508      21                                                00010000D     39
     508                       2       1                               0D     40
     508      23                                                00010000D     41
     508                       1       1                               0D     42
     508      24                                                00010000D     43
     508                       1       1                               0D     44
     508      25                                                00010000D     45
     508                       1       1                               0D     46
     508      26                                                00010000D     47
     508                       1       1                               0D     48
     508      27                                                00010000D     49
     508                       1       1                               0D     50
     508      28                                                00010000D     51
     508                       1       1                               0D     52
     508      29                                                00010000D     53
     508                       2       1                               0D     54
     508      31                                                00010000D     55
     508                       1       1                               0D     56
     508      32                                                00010000D     57
     508                       1       1                               0D     58
     508      33                                                00010000D     59
     508                       1       1                               0D     60
     508      34                                                00010000D     61
     508                       1       1                               0D     62
     508      35                                                00010000D     63
     508                       1       1                               0D     64
     508      36                                                00010000D     65
     508                       1       1                               0D     66
     126      37                                                00010000D     67
     126       0               5       0                               0D     68
     126      42                                                00010000D     69
     126       0               2       0                               0D     70
     126      44                                                00010000D     71
     126       0               5       0                               0D     72
     126      49                                                00010000D     73
     126       0               2       0                               0D     74
     126      51                                                00010000D     75
     126       0               2       0                               0D     76
     126      53                                                00010000D     77
     126       0               2       0                               0D     78
     126      55                                                00010000D     79
     126       0               2       0                               0D     80
     126      57                                                00010000D     81
     126       0               2       0                               0D     82
     126      59                                                00010000D     83
     126       0               5       0                               0D     84
     126      64                                                00010000D     85
     126       0               2       0                               0D     86
     126      66                                                00010000D     87
     126       0               5       0                               0D     88
     126      71                                                00010000D     89
     126       0               2       0                               0D     90
     126      73                                                00010000D     91
     126       0               5       0                               0D     92
     126      78                                                00010000D     93
     126       0               5       0                               0D     94
     126      83                                                00010000D     95
     126       0               2       0                               0D     96
     126      85                                                00010000D     97
     126       0               2       0                               0D     98
     126      87                                                00010000D     99
     126       0               2       0                               0D    100
     126      89                                                00010000D    101
     126       0               5       0                               0D    102
     126      94                                                00010000D    103
     126       0               2       0                               0D    104
     126      96                                                00010000D    105
     126       0               2       0                               0D    106
     126      98                                                00010000D    107
     126       0               2       0                               0D    108
     126     100                                                00010000D    109
     126       0               5       0                               0D    110
     126     105                                                00010000D    111
     126       0               2       0                               0D    112
     126     107                                                00010000D    113
     126       0               2       0                               0D    114
     126     109                                                00010000D    115
     126       0               2       0                               0D    116
     126     111                                                00010000D    117
     126       0               2       0                               0D    118
     126     113                                                00010000D    119
     126       0               2       0                               0D    120
     126     115                                                00010000D    121
     126       0               2       0                               0D    122
     126     117                                                00010000D    123
     126       0               2       0                               0D    124
     126     119                                                00010000D    125
     126       0               2       0                               0D    126
     126     121                                                00010000D    127
     126       0               2       0                               0D    128
     126     123                                                00010000D    129
     126       0               2       0                               0D    130
     126     125                                                00010000D    131
     126       0               2       0                               0D    132
     126     127                                                00010000D    133
     126       0               2       0                               0D    134
     126     129                                                00010000D    135
     126       0               2       0                               0D    136
     126     131                                                00010000D    137
     126       0               2       0                               0D    138
     128     133                                                00010000D    139
     128       0    -175       6       0                               0D    140
     128     139                                                00010000D    141
     128       0    -175       3       0                               0D    142
     128     142                                                00010000D    143
     128       0    -175       3       0                               0D    144
     128     145                                                00010000D    145
     128       0    -175       6       0                               0D    146
     128     151                                                00010000D    147
     128       0    -175       3       0                               0D    148
     128     154                                                00010000D    149
     128       0    -175       6       0                               0D    150
     128     160                                                00010000D    151
     128       0    -175       3       0                               0D    152
     128     163                                                00010000D    153
     128       0    -175       6       0                               0D    154
     128     169                                                00010000D    155
     128       0    -175       3       0                               0D    156
     128     172                                                00010000D    157
     128       0    -175       3       0                               0D    158
     128     175                                                00010000D    159
     128       0    -175       3       0                               0D    160
     128     178                                                00010000D    161
     128       0    -175       3       0                               0D    162
     128     181                                                00010000D    163
     128       0    -175       3       0                               0D    164
     128     184                                                00010000D    165
     128       0    -175       3       0                               0D    166
     128     187                                                00010000D    167
     128       0    -175       3       0                               0D    168
     502     190                                                00010000D    169
     502                       6       1                               0D    170
     504     196                                                00010001D    171
     504                      10       1                               0D    172
     406     206                                                00000000D    173
     406                       1      15                               0D    174
     314     207                                                00000200D    175
     314                       2       0                               0D    176
186,3,1,0,0,1,173;                                                     1P      1
514,15,5,1,7,1,9,1,11,1,13,1,15,1,17,1,19,1,21,1,23,1,25,1,27,1,       3P      2
29,1,31,1,33,1;                                                        3P      3
510,139,1,1,35;                                                        5P      4
510,141,1,1,37;                                                        7P      5
510,143,1,1,39;                                                        9P      6
510,145,1,1,41;                                                       11P      7
510,147,1,1,43;                                                       13P      8
510,149,1,1,45;                                                       15P      9
510,151,1,1,47;                                                       17P     10
510,153,1,1,49;                                                       19P     11
510,155,1,1,51;                                                       21P     12
510,157,2,1,53,55;                                                    23P     13
510,159,1,1,57;                                                       25P     14
510,161,1,1,59;                                                       27P     15
510,163,1,1,61;                                                       29P     16
510,165,1,1,63;                                                       31P     17
510,167,1,1,65;                                                       33P     18
508,4,0,171,1,1,0,0,171,2,1,0,0,171,3,1,0,0,171,4,1,0;                35P     19
508,4,0,171,4,0,0,0,171,5,1,0,0,171,6,0,0,0,171,7,0,0;                37P     20
508,8,0,171,3,0,0,0,171,8,0,0,0,171,9,0,0,0,171,10,0,0,0,171,11,      39P     21
0,0,0,171,12,0,0,0,171,13,0,0,0,171,5,0,0;                            39P     22
508,4,0,171,14,1,0,0,171,6,1,0,0,171,13,1,0,0,171,15,1,0;             41P     23
508,4,0,171,15,0,0,0,171,12,1,0,0,171,16,0,0,0,171,17,0,0;            43P     24
508,4,0,171,18,1,0,0,171,19,1,0,0,171,9,1,0,0,171,20,1,0;             45P     25
508,4,0,171,2,0,0,0,171,21,0,0,0,171,20,0,0,0,171,8,1,0;              47P     26
508,4,0,171,22,1,0,0,171,16,1,0,0,171,11,1,0,0,171,23,1,0;            49P     27
508,4,0,171,19,0,0,0,171,24,0,0,0,171,23,0,0,0,171,10,1,0;            51P     28
508,8,0,171,1,0,0,0,171,7,1,0,0,171,14,0,0,0,171,17,1,0,0,171,        53P     29
22,0,0,0,171,24,1,0,0,171,18,0,0,0,171,21,1,0;                        53P     30
508,4,0,171,25,0,0,0,171,26,0,0,0,171,27,0,0,0,171,28,0,0;            55P     31
508,4,0,171,27,1,0,0,171,29,1,0,0,171,30,0,0,0,171,31,0,0;            57P     32
508,4,0,171,26,1,0,0,171,32,1,0,0,171,33,0,0,0,171,29,0,0;            59P     33
508,4,0,171,28,1,0,0,171,31,1,0,0,171,34,0,0,0,171,35,0,0;            61P     34
508,4,0,171,25,1,0,0,171,35,1,0,0,171,36,0,0,0,171,32,0,0;            63P     35
508,4,0,171,36,1,0,0,171,34,1,0,0,171,30,1,0,0,171,33,1,0;            65P     36
126,2,2,0,0,0,0,-0.785398163397448,-0.785398163397448,                67P     37
-0.785398163397448,0.785398163397448,0.785398163397448,               67P     38
0.785398163397448,1.,0.707106781186548,1.,-5.25,0.5,5.175,-6.5,       67P     39
0.5,5.175,-6.5,0.5,3.925,-0.785398163397448,0.785398163397448,        67P     40
0.,0.,0.;                                                             67P     41
126,1,1,0,0,1,0,-0.05,-0.05,0.,0.,1.,1.,-6.5,0.5,3.925,-6.5,0.,       69P     42
3.925,-0.05,0.,0.,0.,0.;                                              69P     43
126,2,2,0,0,0,0,-0.785398163397448,-0.785398163397448,                71P     44
-0.785398163397448,0.785398163397448,0.785398163397448,               71P     45
0.785398163397448,1.,0.707106781186548,1.,-6.5,0.,3.925,-6.5,0.,      71P     46
5.175,-5.25,0.,5.175,-0.785398163397448,0.785398163397448,0.,0.,      71P     47
0.;                                                                   71P     48
126,1,1,0,0,1,0,0.,0.,0.05,0.05,1.,1.,-5.25,0.,5.175,-5.25,0.5,       73P     49
5.175,0.,0.05,0.,0.,0.;                                               73P     50
126,1,1,0,0,1,0,0.125,0.125,1.175,1.175,1.,1.,-5.25,0.,5.175,         75P     51
5.25,0.,5.175,0.125,1.175,0.,0.,0.;                                   75P     52
126,1,1,0,0,1,0,-0.05,-0.05,0.,0.,1.,1.,5.25,0.5,5.175,5.25,0.,       77P     53
5.175,-0.05,0.,0.,0.,0.;                                              77P     54
126,1,1,0,0,1,0,0.125,0.125,1.175,1.175,1.,1.,-5.25,0.5,5.175,        79P     55
5.25,0.5,5.175,0.125,1.175,0.,0.,0.;                                  79P     56
126,1,1,0,0,1,0,0.125,0.125,0.91,0.91,1.,1.,-6.5,0.,-3.925,-6.5,      81P     57
0.,3.925,0.125,0.91,0.,0.,0.;                                         81P     58
126,2,2,0,0,0,0,-0.785398163397449,-0.785398163397449,                83P     59
-0.785398163397449,0.785398163397448,0.785398163397448,               83P     60
0.785398163397448,1.,0.707106781186547,1.,-5.25,0.,-5.175,-6.5,       83P     61
0.,-5.175,-6.5,0.,-3.925,-0.785398163397449,0.785398163397448,        83P     62
0.,0.,0.;                                                             83P     63
126,1,1,0,0,1,0,0.125,0.125,1.175,1.175,1.,1.,5.25,0.,-5.175,         85P     64
-5.25,0.,-5.175,0.125,1.175,0.,0.,0.;                                 85P     65
126,2,2,0,0,0,0,-0.785398163397448,-0.785398163397448,                87P     66
-0.785398163397448,0.785398163397448,0.785398163397448,               87P     67
0.785398163397448,1.,0.707106781186548,1.,6.5,0.,-3.925,6.5,0.,       87P     68
-5.175,5.25,0.,-5.175,-0.785398163397448,0.785398163397448,0.,        87P     69
0.,0.;                                                                87P     70
126,1,1,0,0,1,0,0.125,0.125,0.91,0.91,1.,1.,6.5,0.,3.925,6.5,0.,      89P     71
-3.925,0.125,0.91,0.,0.,0.;                                           89P     72
126,2,2,0,0,0,0,-0.785398163397448,-0.785398163397448,                91P     73
-0.785398163397448,0.785398163397448,0.785398163397448,               91P     74
0.785398163397448,1.,0.707106781186548,1.,5.25,0.,5.175,6.5,0.,       91P     75
5.175,6.5,0.,3.925,-0.785398163397448,0.785398163397448,0.,0.,        91P     76
0.;                                                                   91P     77
126,2,2,0,0,0,0,-0.785398163397448,-0.785398163397448,                93P     78
-0.785398163397448,0.785398163397448,0.785398163397448,               93P     79
0.785398163397448,1.,0.707106781186548,1.,6.5,0.5,3.925,6.5,0.5,      93P     80
5.175,5.25,0.5,5.175,-0.785398163397448,0.785398163397448,0.,0.,      93P     81
0.;                                                                   93P     82
126,1,1,0,0,1,0,0.,0.,0.05,0.05,1.,1.,6.5,0.,3.925,6.5,0.5,           95P     83
3.925,0.,0.05,0.,0.,0.;                                               95P     84
126,1,1,0,0,1,0,-0.05,-0.05,0.,0.,1.,1.,6.5,0.5,-3.925,6.5,0.,        97P     85
-3.925,-0.05,0.,0.,0.,0.;                                             97P     86
126,1,1,0,0,1,0,0.125,0.125,0.91,0.91,1.,1.,6.5,0.5,3.925,6.5,        99P     87
0.5,-3.925,0.125,0.91,0.,0.,0.;                                       99P     88
126,2,2,0,0,0,0,-0.785398163397448,-0.785398163397448,               101P     89
-0.785398163397448,0.785398163397449,0.785398163397449,              101P     90
0.785398163397449,1.,0.707106781186547,1.,-6.5,0.5,-3.925,-6.5,      101P     91
0.5,-5.175,-5.25,0.5,-5.175,-0.785398163397448,                      101P     92
0.785398163397449,0.,0.,0.;                                          101P     93
126,1,1,0,0,1,0,-0.05,-0.05,0.,0.,1.,1.,-5.25,0.5,-5.175,-5.25,      103P     94
0.,-5.175,-0.05,0.,0.,0.,0.;                                         103P     95
126,1,1,0,0,1,0,0.,0.,0.05,0.05,1.,1.,-6.5,0.,-3.925,-6.5,0.5,       105P     96
-3.925,0.,0.05,0.,0.,0.;                                             105P     97
126,1,1,0,0,1,0,0.125,0.125,0.91,0.91,1.,1.,-6.5,0.5,-3.925,         107P     98
-6.5,0.5,3.925,0.125,0.91,0.,0.,0.;                                  107P     99
126,2,2,0,0,0,0,-0.785398163397448,-0.785398163397448,               109P    100
-0.785398163397448,0.785398163397448,0.785398163397448,              109P    101
0.785398163397448,1.,0.707106781186548,1.,5.25,0.5,-5.175,6.5,       109P    102
0.5,-5.175,6.5,0.5,-3.925,-0.785398163397448,0.785398163397448,      109P    103
0.,0.,0.;                                                            109P    104
126,1,1,0,0,1,0,0.,0.,0.05,0.05,1.,1.,5.25,0.,-5.175,5.25,0.5,       111P    105
-5.175,0.,0.05,0.,0.,0.;                                             111P    106
126,1,1,0,0,1,0,0.125,0.125,1.175,1.175,1.,1.,5.25,0.5,-5.175,       113P    107
-5.25,0.5,-5.175,0.125,1.175,0.,0.,0.;                               113P    108
126,1,1,0,0,1,0,-0.20875,-0.20875,0.62625,0.62625,1.,1.,5.5,0.5,     115P    109
4.175,5.5,0.5,-4.175,-0.20875,0.62625,0.,0.,0.;                      115P    110
126,1,1,0,0,1,0,-0.275,-0.275,0.825,0.825,1.,1.,-5.5,0.5,4.175,      117P    111
5.5,0.5,4.175,-0.275,0.825,0.,0.,0.;                                 117P    112
126,1,1,0,0,1,0,-0.20875,-0.20875,0.62625,0.62625,1.,1.,-5.5,        119P    113
0.5,-4.175,-5.5,0.5,4.175,-0.20875,0.62625,0.,0.,0.;                 119P    114
126,1,1,0,0,1,0,-0.275,-0.275,0.825,0.825,1.,1.,5.5,0.5,-4.175,      121P    115
-5.5,0.5,-4.175,-0.275,0.825,0.,0.,0.;                               121P    116
126,1,1,0,0,1,0,0.05,0.05,0.35,0.35,1.,1.,-5.5,0.5,4.175,-5.5,       123P    117
3.5,4.175,0.05,0.35,0.,0.,0.;                                        123P    118
126,1,1,0,0,1,0,0.,0.,0.835,0.835,1.,1.,-5.5,3.5,-4.175,-5.5,        125P    119
3.5,4.175,0.,0.835,0.,0.,0.;                                         125P    120
126,1,1,0,0,1,0,0.05,0.05,0.35,0.35,1.,1.,-5.5,0.5,-4.175,-5.5,      127P    121
3.5,-4.175,0.05,0.35,0.,0.,0.;                                       127P    122
126,1,1,0,0,1,0,0.05,0.05,0.35,0.35,1.,1.,5.5,0.5,4.175,5.5,3.5,     129P    123
4.175,0.05,0.35,0.,0.,0.;                                            129P    124
126,1,1,0,0,1,0,0.,0.,1.1,1.1,1.,1.,-5.5,3.5,4.175,5.5,3.5,          131P    125
4.175,0.,1.1,0.,0.,0.;                                               131P    126
126,1,1,0,0,1,0,0.,0.,1.1,1.1,1.,1.,5.5,3.5,-4.175,-5.5,3.5,         133P    127
-4.175,0.,1.1,0.,0.,0.;                                              133P    128
126,1,1,0,0,1,0,0.05,0.05,0.35,0.35,1.,1.,5.5,0.5,-4.175,5.5,        135P    129
3.5,-4.175,0.05,0.35,0.,0.,0.;                                       135P    130
126,1,1,0,0,1,0,0.,0.,0.835,0.835,1.,1.,5.5,3.5,4.175,5.5,3.5,       137P    131
-4.175,0.,0.835,0.,0.,0.;                                            137P    132
128,1,2,1,2,0,0,0,0,0,0.,0.,0.4,0.4,-0.785398163397448,              139P    133
-0.785398163397448,-0.785398163397448,0.785398163397448,             139P    134
0.785398163397448,0.785398163397448,1.,1.,0.707106781186548,         139P    135
0.707106781186548,1.,1.,-6.5,0.5,3.925,-6.5,0.,3.925,-6.5,0.5,       139P    136
5.175,-6.5,0.,5.175,-5.25,0.5,5.175,-5.25,0.,5.175,0.,0.4,           139P    137
-0.785398163397448,0.785398163397448;                                139P    138
128,1,1,1,1,0,0,1,0,0,0.124,0.124,1.176,1.176,-0.001,-0.001,         141P    139
0.051,0.051,1.,1.,1.,1.,-5.26,-0.01,5.175,5.26,-0.01,5.175,          141P    140
-5.26,0.51,5.175,5.26,0.51,5.175,0.124,1.176,-0.001,0.051;           141P    141
128,1,1,1,1,0,0,1,0,0,-0.651,-0.651,0.651,0.651,-0.5185,-0.5185,     143P    142
0.5185,0.5185,1.,1.,1.,1.,6.51,0.,5.185,-6.51,0.,5.185,6.51,0.,      143P    143
-5.185,-6.51,0.,-5.185,-0.651,0.651,-0.5185,0.5185;                  143P    144
128,1,2,1,2,0,0,0,0,0,0.,0.,0.4,0.4,-0.785398163397448,              145P    145
-0.785398163397448,-0.785398163397448,0.785398163397448,             145P    146
0.785398163397448,0.785398163397448,1.,1.,0.707106781186548,         145P    147
0.707106781186548,1.,1.,5.25,0.5,5.175,5.25,0.,5.175,6.5,0.5,        145P    148
5.175,6.5,0.,5.175,6.5,0.5,3.925,6.5,0.,3.925,0.,0.4,                145P    149
-0.785398163397448,0.785398163397448;                                145P    150
128,1,1,1,1,0,0,1,0,0,0.124,0.124,0.911,0.911,-0.001,-0.001,         147P    151
0.051,0.051,1.,1.,1.,1.,6.5,-0.01,3.935,6.5,-0.01,-3.935,6.5,        147P    152
0.51,3.935,6.5,0.51,-3.935,0.124,0.911,-0.001,0.051;                 147P    153
128,1,2,1,2,0,0,0,0,0,0.,0.,0.4,0.4,-0.78539816339745,               149P    154
-0.78539816339745,-0.78539816339745,0.785398163397448,               149P    155
0.785398163397448,0.785398163397448,1.,1.,0.707106781186547,         149P    156
0.707106781186547,1.,1.,-5.25,0.5,-5.175,-5.25,0.,-5.175,-6.5,       149P    157
0.5,-5.175,-6.5,0.,-5.175,-6.5,0.5,-3.925,-6.5,0.,-3.925,0.,0.4,     149P    158
-0.78539816339745,0.785398163397448;                                 149P    159
128,1,1,1,1,0,0,1,0,0,0.124,0.124,0.911,0.911,-0.001,-0.001,         151P    160
0.051,0.051,1.,1.,1.,1.,-6.5,-0.01,-3.935,-6.5,-0.01,3.935,-6.5,     151P    161
0.51,-3.935,-6.5,0.51,3.935,0.124,0.911,-0.001,0.051;                151P    162
128,1,2,1,2,0,0,0,0,0,0.,0.,0.4,0.4,-0.785398163397448,              153P    163
-0.785398163397448,-0.785398163397448,0.785398163397448,             153P    164
0.785398163397448,0.785398163397448,1.,1.,0.707106781186548,         153P    165
0.707106781186548,1.,1.,6.5,0.5,-3.925,6.5,0.,-3.925,6.5,0.5,        153P    166
-5.175,6.5,0.,-5.175,5.25,0.5,-5.175,5.25,0.,-5.175,0.,0.4,          153P    167
-0.785398163397448,0.785398163397448;                                153P    168
128,1,1,1,1,0,0,1,0,0,0.124,0.124,1.176,1.176,-0.001,-0.001,         155P    169
0.051,0.051,1.,1.,1.,1.,5.26,-0.01,-5.175,-5.26,-0.01,-5.175,        155P    170
5.26,0.51,-5.175,-5.26,0.51,-5.175,0.124,1.176,-0.001,0.051;         155P    171
128,1,1,1,1,0,0,1,0,0,-0.5185,-0.5185,0.5185,0.5185,-0.651,          157P    172
-0.651,0.651,0.651,1.,1.,1.,1.,-6.51,0.5,-5.185,-6.51,0.5,5.185,     157P    173
6.51,0.5,-5.185,6.51,0.5,5.185,-0.5185,0.5185,-0.651,0.651;          157P    174
128,1,1,1,1,0,0,1,0,0,-0.001,-0.001,0.836,0.836,0.049,0.049,         159P    175
0.351,0.351,1.,1.,1.,1.,-5.5,0.49,-4.185,-5.5,0.49,4.185,-5.5,       159P    176
3.51,-4.185,-5.5,3.51,4.185,-0.001,0.836,0.049,0.351;                159P    177
128,1,1,1,1,0,0,1,0,0,-0.001,-0.001,1.101,1.101,0.049,0.049,         161P    178
0.351,0.351,1.,1.,1.,1.,-5.51,0.49,4.175,5.51,0.49,4.175,-5.51,      161P    179
3.51,4.175,5.51,3.51,4.175,-0.001,1.101,0.049,0.351;                 161P    180
128,1,1,1,1,0,0,1,0,0,-0.001,-0.001,1.101,1.101,0.049,0.049,         163P    181
0.351,0.351,1.,1.,1.,1.,5.51,0.49,-4.175,-5.51,0.49,-4.175,5.51,     163P    182
3.51,-4.175,-5.51,3.51,-4.175,-0.001,1.101,0.049,0.351;              163P    183
128,1,1,1,1,0,0,1,0,0,-0.001,-0.001,0.836,0.836,0.049,0.049,         165P    184
0.351,0.351,1.,1.,1.,1.,5.5,0.49,4.185,5.5,0.49,-4.185,5.5,3.51,     165P    185
4.185,5.5,3.51,-4.185,-0.001,0.836,0.049,0.351;                      165P    186
128,1,1,1,1,0,0,1,0,0,-0.4185,-0.4185,0.4185,0.4185,-0.551,          167P    187
-0.551,0.551,0.551,1.,1.,1.,1.,-5.51,3.5,-4.185,-5.51,3.5,4.185,     167P    188
5.51,3.5,-4.185,5.51,3.5,4.185,-0.4185,0.4185,-0.551,0.551;          167P    189
502,24,-5.25,0.5,5.175,-6.5,0.5,3.925,-6.5,0.,3.925,-5.25,0.,        169P    190
5.175,5.25,0.,5.175,5.25,0.5,5.175,-6.5,0.,-3.925,-5.25,0.,          169P    191
-5.175,5.25,0.,-5.175,6.5,0.,-3.925,6.5,0.,3.925,6.5,0.5,3.925,      169P    192
6.5,0.5,-3.925,-6.5,0.5,-3.925,-5.25,0.5,-5.175,5.25,0.5,-5.175,     169P    193
5.5,0.5,4.175,5.5,0.5,-4.175,-5.5,0.5,4.175,-5.5,0.5,-4.175,         169P    194
-5.5,3.5,4.175,-5.5,3.5,-4.175,5.5,3.5,4.175,5.5,3.5,-4.175;         169P    195
504,36,67,169,1,169,2,69,169,2,169,3,71,169,3,169,4,73,169,4,        171P    196
169,1,75,169,4,169,5,77,169,6,169,5,79,169,1,169,6,81,169,7,169,     171P    197
3,83,169,8,169,7,85,169,9,169,8,87,169,10,169,9,89,169,11,169,       171P    198
10,91,169,5,169,11,93,169,12,169,6,95,169,11,169,12,97,169,13,       171P    199
169,10,99,169,12,169,13,101,169,14,169,15,103,169,15,169,8,105,      171P    200
169,7,169,14,107,169,14,169,2,109,169,16,169,13,111,169,9,169,       171P    201
16,113,169,16,169,15,115,169,17,169,18,117,169,19,169,17,119,        171P    202
169,20,169,19,121,169,18,169,20,123,169,19,169,21,125,169,22,        171P    203
169,21,127,169,20,169,22,129,169,17,169,23,131,169,21,169,23,        171P    204
133,169,24,169,22,135,169,18,169,24,137,169,23,169,24;               171P    205
406,1,5HBody1;                                                       173P    206
314,62.7450980392157,62.7450980392157,62.7450980392157,13HSteel      175P    207
- Satin;                                                             175P    208
S      1G      3D    176P    208                                        T      1
