                                                                        S      1
,,20HVESC Heatsink Bottom,20HVESC Heatsink Bottom,7Hunknown,7Hunknown,  G      1
32,38,7,99,15,,1.,2,2HMM,1,0.08,15H20191230.153028,0.01,10000.,7HunknownG      2
,7Hunknown,11,0,15H20191225.013516;                                     G      3
     186       1                                                00000000D      1
     186            -103       1       0                               0D      2
     514       2                                                00010000D      3
     514                       1       1                               0D      4
     510       3                                                00010000D      5
     510            -103       1       1                               0D      6
     510       4                                                00010000D      7
     510            -103       1       1                               0D      8
     510       5                                                00010000D      9
     510            -103       1       1                               0D     10
     510       6                                                00010000D     11
     510            -103       1       1                               0D     12
     510       7                                                00010000D     13
     510            -103       1       1                               0D     14
     510       8                                                00010000D     15
     510            -103       1       1                               0D     16
     510       9                                                00010000D     17
     510            -103       1       1                               0D     18
     510      10                                                00010000D     19
     510            -103       1       1                               0D     20
     508      11                                                00010000D     21
     508                       1       1                               0D     22
     508      12                                                00010000D     23
     508                       1       1                               0D     24
     508      13                                                00010000D     25
     508                       1       1                               0D     26
     508      14                                                00010000D     27
     508                       1       1                               0D     28
     508      15                                                00010000D     29
     508                       1       1                               0D     30
     508      16                                                00010000D     31
     508                       1       1                               0D     32
     508      17                                                00010000D     33
     508                       1       1                               0D     34
     508      18                                                00010000D     35
     508                       1       1                               0D     36
     508      19                                                00010000D     37
     508                       1       1                               0D     38
     508      20                                                00010000D     39
     508                       1       1                               0D     40
     508      21                                                00010000D     41
     508                       1       1                               0D     42
     508      22                                                00010000D     43
     508                       1       1                               0D     44
     126      23                                                00010000D     45
     126       0              11       0                               0D     46
     126      34                                                00010000D     47
     126       0               3       0                               0D     48
     126      37                                                00010000D     49
     126       0              10       0                               0D     50
     126      47                                                00010000D     51
     126       0              11       0                               0D     52
     126      58                                                00010000D     53
     126       0               3       0                               0D     54
     126      61                                                00010000D     55
     126       0              10       0                               0D     56
     126      71                                                00010000D     57
     126       0               2       0                               0D     58
     126      73                                                00010000D     59
     126       0               2       0                               0D     60
     126      75                                                00010000D     61
     126       0               2       0                               0D     62
     126      77                                                00010000D     63
     126       0               2       0                               0D     64
     126      79                                                00010000D     65
     126       0               2       0                               0D     66
     126      81                                                00010000D     67
     126       0               2       0                               0D     68
     126      83                                                00010000D     69
     126       0               2       0                               0D     70
     126      85                                                00010000D     71
     126       0               2       0                               0D     72
     126      87                                                00010000D     73
     126       0               2       0                               0D     74
     126      89                                                00010000D     75
     126       0               2       0                               0D     76
     126      91                                                00010000D     77
     126       0               2       0                               0D     78
     126      93                                                00010000D     79
     126       0               2       0                               0D     80
     128      95                                                00010000D     81
     128       0    -103      17       0                               0D     82
     128     112                                                00010000D     83
     128       0    -103      18       0                               0D     84
     128     130                                                00010000D     85
     128       0    -103       3       0                               0D     86
     128     133                                                00010000D     87
     128       0    -103       3       0                               0D     88
     128     136                                                00010000D     89
     128       0    -103       3       0                               0D     90
     128     139                                                00010000D     91
     128       0    -103       3       0                               0D     92
     128     142                                                00010000D     93
     128       0    -103       3       0                               0D     94
     128     145                                                00010000D     95
     128       0    -103       3       0                               0D     96
     502     148                                                00010000D     97
     502                       4       1                               0D     98
     504     152                                                00010001D     99
     504                       4       1                               0D    100
     406     156                                                00000000D    101
     406                       1      15                               0D    102
     314     157                                                00000200D    103
     314                       2       0                               0D    104
186,3,1,0,0,1,101;                                                     1P      1
514,8,5,1,7,1,9,1,11,1,13,1,15,1,17,1,19,1;                            3P      2
510,81,1,1,21;                                                         5P      3
510,83,1,1,23;                                                         7P      4
510,85,1,1,25;                                                         9P      5
510,87,1,1,27;                                                        11P      6
510,89,1,1,29;                                                        13P      7
510,91,1,1,31;                                                        15P      8
510,93,3,1,33,35,37;                                                  17P      9
510,95,3,1,39,41,43;                                                  19P     10
508,4,0,99,1,0,0,0,99,2,1,0,0,99,3,1,0,0,99,2,0,0;                    21P     11
508,4,0,99,4,0,0,0,99,5,1,0,0,99,6,1,0,0,99,5,0,0;                    23P     12
508,4,0,99,7,1,0,0,99,8,1,0,0,99,9,0,0,0,99,10,0,0;                   25P     13
508,4,0,99,11,1,0,0,99,10,1,0,0,99,12,0,0,0,99,13,0,0;                27P     14
508,4,0,99,14,1,0,0,99,13,1,0,0,99,15,0,0,0,99,16,0,0;                29P     15
508,4,0,99,17,1,0,0,99,16,1,0,0,99,18,0,0,0,99,8,0,0;                 31P     16
508,4,0,99,18,1,0,0,99,15,1,0,0,99,12,1,0,0,99,9,1,0;                 33P     17
508,1,0,99,4,1,0;                                                     35P     18
508,1,0,99,1,1,0;                                                     37P     19
508,4,0,99,17,0,0,0,99,7,0,0,0,99,11,0,0,0,99,14,0,0;                 39P     20
508,1,0,99,6,0,0;                                                     41P     21
508,1,0,99,3,0,0;                                                     43P     22
126,8,2,0,1,0,0,-3.14159265358979,-3.14159265358979,                  45P     23
-3.14159265358979,-1.5707963267949,-1.5707963267949,0.,0.,            45P     24
1.5707963267949,1.5707963267949,3.14159265358979,                     45P     25
3.14159265358979,3.14159265358979,1.,0.707106781186546,1.,            45P     26
0.707106781186546,1.,0.707106781186546,1.,0.707106781186546,1.,       45P     27
20.25,3.175,6.70552248632819D-8,20.25,3.175,-3.24999993294478,        45P     28
23.5,3.175,-3.24999993294478,26.75,3.175,-3.24999993294478,           45P     29
26.75,3.175,6.70552252612922D-8,26.75,3.175,3.25000006705523,         45P     30
23.5,3.175,3.25000006705523,20.25,3.175,3.25000006705523,20.25,       45P     31
3.175,6.70552256593024D-8,-3.14159265358979,3.14159265358979,0.,      45P     32
0.,0.;                                                                45P     33
126,1,1,0,0,1,0,-0.976923076923076,-0.976923076923076,0.,0.,1.,       47P     34
1.,20.25,3.175,6.70552252612922D-8,20.25,0.,6.70552252612922D-8,      47P     35
-0.976923076923076,0.,0.,0.,0.;                                       47P     36
126,8,2,0,1,0,0,-3.14159265358979,-3.14159265358979,                  49P     37
-3.14159265358979,-1.5707963267949,-1.5707963267949,0.,0.,            49P     38
1.5707963267949,1.5707963267949,3.14159265358979,                     49P     39
3.14159265358979,3.14159265358979,1.,0.707106781186546,1.,            49P     40
0.707106781186546,1.,0.707106781186546,1.,0.707106781186546,1.,       49P     41
20.25,0.,6.70552248632819D-8,20.25,0.,-3.24999993294478,23.5,0.,      49P     42
-3.24999993294478,26.75,0.,-3.24999993294478,26.75,0.,                49P     43
6.70552252612922D-8,26.75,0.,3.25000006705523,23.5,0.,                49P     44
3.25000006705523,20.25,0.,3.25000006705523,20.25,0.,                  49P     45
6.70552256593024D-8,-3.14159265358979,3.14159265358979,0.,0.,0.;      49P     46
126,8,2,0,1,0,0,-3.14159265358979,-3.14159265358979,                  51P     47
-3.14159265358979,-1.5707963267949,-1.5707963267949,0.,0.,            51P     48
1.5707963267949,1.5707963267949,3.14159265358979,                     51P     49
3.14159265358979,3.14159265358979,1.,0.707106781186546,1.,            51P     50
0.707106781186546,1.,0.707106781186546,1.,0.707106781186546,1.,       51P     51
-26.75,3.175,6.70552254183935D-8,-26.75,3.175,-3.24999993294478,      51P     52
-23.5,3.175,-3.24999993294478,-20.25,3.175,-3.24999993294478,         51P     53
-20.25,3.175,6.70552258164037D-8,-20.25,3.175,3.25000006705523,       51P     54
-23.5,3.175,3.25000006705523,-26.75,3.175,3.25000006705523,           51P     55
-26.75,3.175,6.70552262144139D-8,-3.14159265358979,                   51P     56
3.14159265358979,0.,0.,0.;                                            51P     57
126,1,1,0,0,1,0,-0.976923076923076,-0.976923076923076,0.,0.,1.,       53P     58
1.,-26.75,3.175,6.70552258164037D-8,-26.75,0.,                        53P     59
6.70552258164037D-8,-0.976923076923076,0.,0.,0.,0.;                   53P     60
126,8,2,0,1,0,0,-3.14159265358979,-3.14159265358979,                  55P     61
-3.14159265358979,-1.5707963267949,-1.5707963267949,0.,0.,            55P     62
1.5707963267949,1.5707963267949,3.14159265358979,                     55P     63
3.14159265358979,3.14159265358979,1.,0.707106781186546,1.,            55P     64
0.707106781186546,1.,0.707106781186546,1.,0.707106781186546,1.,       55P     65
-26.75,0.,6.70552254183935D-8,-26.75,0.,-3.24999993294478,-23.5,      55P     66
0.,-3.24999993294478,-20.25,0.,-3.24999993294478,-20.25,0.,           55P     67
6.70552258164037D-8,-20.25,0.,3.25000006705523,-23.5,0.,              55P     68
3.25000006705523,-26.75,0.,3.25000006705523,-26.75,0.,                55P     69
6.70552262144139D-8,-3.14159265358979,3.14159265358979,0.,0.,0.;      55P     70
126,1,1,0,0,1,0,0.,0.,6.,6.,1.,1.,-30.,0.,9.,30.,0.,9.,0.,6.,0.,      57P     71
0.,0.;                                                                57P     72
126,1,1,0,0,1,0,0.,0.,0.3175,0.3175,1.,1.,30.,0.,9.,30.,3.175,        59P     73
9.,0.,0.3175,0.,0.,0.;                                                59P     74
126,1,1,0,0,1,0,0.,0.,6.,6.,1.,1.,-30.,3.175,9.,30.,3.175,9.,0.,      61P     75
6.,0.,0.,0.;                                                          61P     76
126,1,1,0,0,1,0,0.,0.,0.3175,0.3175,1.,1.,-30.,0.,9.,-30.,3.175,      63P     77
9.,0.,0.3175,0.,0.,0.;                                                63P     78
126,1,1,0,0,1,0,0.,0.,1.8,1.8,1.,1.,-30.,0.,-9.,-30.,0.,9.,0.,        65P     79
1.8,0.,0.,0.;                                                         65P     80
126,1,1,0,0,1,0,0.,0.,1.8,1.8,1.,1.,-30.,3.175,-9.,-30.,3.175,        67P     81
9.,0.,1.8,0.,0.,0.;                                                   67P     82
126,1,1,0,0,1,0,0.,0.,0.3175,0.3175,1.,1.,-30.,0.,-9.,-30.,           69P     83
3.175,-9.,0.,0.3175,0.,0.,0.;                                         69P     84
126,1,1,0,0,1,0,0.,0.,6.,6.,1.,1.,30.,0.,-9.,-30.,0.,-9.,0.,6.,       71P     85
0.,0.,0.;                                                             71P     86
126,1,1,0,0,1,0,0.,0.,6.,6.,1.,1.,30.,3.175,-9.,-30.,3.175,-9.,       73P     87
0.,6.,0.,0.,0.;                                                       73P     88
126,1,1,0,0,1,0,0.,0.,0.3175,0.3175,1.,1.,30.,0.,-9.,30.,3.175,       75P     89
-9.,0.,0.3175,0.,0.,0.;                                               75P     90
126,1,1,0,0,1,0,0.,0.,1.8,1.8,1.,1.,30.,0.,9.,30.,0.,-9.,0.,1.8,      77P     91
0.,0.,0.;                                                             77P     92
126,1,1,0,0,1,0,0.,0.,1.8,1.8,1.,1.,30.,3.175,9.,30.,3.175,-9.,       79P     93
0.,1.8,0.,0.,0.;                                                      79P     94
128,1,8,1,2,0,1,0,0,1,0.,0.,0.976923076923076,0.976923076923076,      81P     95
-3.14159265358979,-3.14159265358979,-3.14159265358979,                81P     96
-1.5707963267949,-1.5707963267949,0.,0.,1.5707963267949,              81P     97
1.5707963267949,3.14159265358979,3.14159265358979,                    81P     98
3.14159265358979,1.,1.,0.707106781186548,0.707106781186548,1.,        81P     99
1.,0.707106781186548,0.707106781186548,1.,1.,0.707106781186548,       81P    100
0.707106781186548,1.,1.,0.707106781186548,0.707106781186548,1.,       81P    101
1.,20.25,0.,6.70552252612922D-8,20.25,3.175,6.70552252612922D-8,      81P    102
20.25,0.,3.25000006705523,20.25,3.175,3.25000006705523,23.5,0.,       81P    103
3.25000006705523,23.5,3.175,3.25000006705523,26.75,0.,                81P    104
3.25000006705523,26.75,3.175,3.25000006705523,26.75,0.,               81P    105
6.70552252612922D-8,26.75,3.175,6.70552252612922D-8,26.75,0.,         81P    106
-3.24999993294478,26.75,3.175,-3.24999993294478,23.5,0.,              81P    107
-3.24999993294478,23.5,3.175,-3.24999993294478,20.25,0.,              81P    108
-3.24999993294478,20.25,3.175,-3.24999993294478,20.25,0.,             81P    109
6.70552252612922D-8,20.25,3.175,6.70552252612922D-8,0.,               81P    110
0.976923076923076,-3.14159265358979,3.14159265358979;                 81P    111
128,1,8,1,2,0,1,0,0,1,0.,0.,0.976923076923076,0.976923076923076,      83P    112
-3.14159265358979,-3.14159265358979,-3.14159265358979,                83P    113
-1.5707963267949,-1.5707963267949,0.,0.,1.5707963267949,              83P    114
1.5707963267949,3.14159265358979,3.14159265358979,                    83P    115
3.14159265358979,1.,1.,0.707106781186548,0.707106781186548,1.,        83P    116
1.,0.707106781186548,0.707106781186548,1.,1.,0.707106781186548,       83P    117
0.707106781186548,1.,1.,0.707106781186548,0.707106781186548,1.,       83P    118
1.,-26.75,0.,6.70552258164037D-8,-26.75,3.175,                        83P    119
6.70552258164037D-8,-26.75,0.,3.25000006705523,-26.75,3.175,          83P    120
3.25000006705523,-23.5,0.,3.25000006705523,-23.5,3.175,               83P    121
3.25000006705523,-20.25,0.,3.25000006705523,-20.25,3.175,             83P    122
3.25000006705523,-20.25,0.,6.70552258164037D-8,-20.25,3.175,          83P    123
6.70552258164037D-8,-20.25,0.,-3.24999993294478,-20.25,3.175,         83P    124
-3.24999993294478,-23.5,0.,-3.24999993294478,-23.5,3.175,             83P    125
-3.24999993294478,-26.75,0.,-3.24999993294478,-26.75,3.175,           83P    126
-3.24999993294478,-26.75,0.,6.70552258164037D-8,-26.75,3.175,         83P    127
6.70552258164037D-8,0.,0.976923076923076,-3.14159265358979,           83P    128
3.14159265358979;                                                     83P    129
128,1,1,1,1,0,0,1,0,0,-0.001,-0.001,6.001,6.001,-0.001,-0.001,        85P    130
0.3185,0.3185,1.,1.,1.,1.,-30.01,-0.01,9.,30.01,-0.01,9.,-30.01,      85P    131
3.185,9.,30.01,3.185,9.,-0.001,6.001,-0.001,0.3185;                   85P    132
128,1,1,1,1,0,0,1,0,0,-0.001,-0.001,1.801,1.801,-0.001,-0.001,        87P    133
0.3185,0.3185,1.,1.,1.,1.,-30.,-0.01,-9.01,-30.,-0.01,9.01,-30.,      87P    134
3.185,-9.01,-30.,3.185,9.01,-0.001,1.801,-0.001,0.3185;               87P    135
128,1,1,1,1,0,0,1,0,0,-0.001,-0.001,6.001,6.001,-0.001,-0.001,        89P    136
0.3185,0.3185,1.,1.,1.,1.,30.01,-0.01,-9.,-30.01,-0.01,-9.,           89P    137
30.01,3.185,-9.,-30.01,3.185,-9.,-0.001,6.001,-0.001,0.3185;          89P    138
128,1,1,1,1,0,0,1,0,0,-0.001,-0.001,1.801,1.801,-0.001,-0.001,        91P    139
0.3185,0.3185,1.,1.,1.,1.,30.,-0.01,9.01,30.,-0.01,-9.01,30.,         91P    140
3.185,9.01,30.,3.185,-9.01,-0.001,1.801,-0.001,0.3185;                91P    141
128,1,1,1,1,0,0,1,0,0,-3.001,-3.001,3.001,3.001,-0.901,-0.901,        93P    142
0.901,0.901,1.,1.,1.,1.,-30.01,3.175,9.01,30.01,3.175,9.01,           93P    143
-30.01,3.175,-9.01,30.01,3.175,-9.01,-3.001,3.001,-0.901,0.901;       93P    144
128,1,1,1,1,0,0,1,0,0,-3.001,-3.001,3.001,3.001,-0.901,-0.901,        95P    145
0.901,0.901,1.,1.,1.,1.,30.01,0.,9.01,-30.01,0.,9.01,30.01,0.,        95P    146
-9.01,-30.01,0.,-9.01,-3.001,3.001,-0.901,0.901;                      95P    147
502,12,20.25,3.175,6.70552256593024D-8,20.25,0.,                      97P    148
6.70552256593024D-8,-26.75,3.175,6.70552262144139D-8,-26.75,0.,       97P    149
6.70552262144139D-8,-30.,0.,9.,30.,0.,9.,30.,3.175,9.,-30.,           97P    150
3.175,9.,-30.,0.,-9.,-30.,3.175,-9.,30.,0.,-9.,30.,3.175,-9.;         97P    151
504,18,45,97,1,97,1,47,97,1,97,2,49,97,2,97,2,51,97,3,97,3,53,        99P    152
97,3,97,4,55,97,4,97,4,57,97,5,97,6,59,97,6,97,7,61,97,8,97,7,        99P    153
63,97,5,97,8,65,97,9,97,5,67,97,10,97,8,69,97,9,97,10,71,97,11,       99P    154
97,9,73,97,12,97,10,75,97,11,97,12,77,97,6,97,11,79,97,7,97,12;       99P    155
406,1,5HBody1;                                                       101P    156
314,62.7450980392157,62.7450980392157,62.7450980392157,13HSteel      103P    157
- Satin;                                                             103P    158
S      1G      3D    104P    158                                        T      1
