                                                                        S      1
,,11HMotor Mount,11HMotor Mount,7Hunknown,7Hunknown,32,38,7,99,15,,1.,2,G      1
2HMM,1,0.08,15H20191219.201036,0.01,10000.,7Hunknown,7Hunknown,11,0,15H2G      2
0191220.010842;                                                         G      3
     186       1                                                00000000D      1
     186            -155       1       0                               0D      2
     514       2                                                00010000D      3
     514                       1       1                               0D      4
     510       3                                                00010000D      5
     510            -155       1       1                               0D      6
     510       4                                                00010000D      7
     510            -155       1       1                               0D      8
     510       5                                                00010000D      9
     510            -155       1       1                               0D     10
     510       6                                                00010000D     11
     510            -155       1       1                               0D     12
     510       7                                                00010000D     13
     510            -155       1       1                               0D     14
     510       8                                                00010000D     15
     510            -155       1       1                               0D     16
     510       9                                                00010000D     17
     510            -155       1       1                               0D     18
     510      10                                                00010000D     19
     510            -155       1       1                               0D     20
     510      11                                                00010000D     21
     510            -155       1       1                               0D     22
     510      12                                                00010000D     23
     510            -155       1       1                               0D     24
     510      13                                                00010000D     25
     510            -155       1       1                               0D     26
     510      14                                                00010000D     27
     510            -155       1       1                               0D     28
     508      15                                                00010000D     29
     508                       1       1                               0D     30
     508      16                                                00010000D     31
     508                       1       1                               0D     32
     508      17                                                00010000D     33
     508                       1       1                               0D     34
     508      18                                                00010000D     35
     508                       1       1                               0D     36
     508      19                                                00010000D     37
     508                       1       1                               0D     38
     508      20                                                00010000D     39
     508                       1       1                               0D     40
     508      21                                                00010000D     41
     508                       1       1                               0D     42
     508      22                                                00010000D     43
     508                       1       1                               0D     44
     508      23                                                00010000D     45
     508                       1       1                               0D     46
     508      24                                                00010000D     47
     508                       1       1                               0D     48
     508      25                                                00010000D     49
     508                       1       1                               0D     50
     508      26                                                00010000D     51
     508                       1       1                               0D     52
     508      27                                                00010000D     53
     508                       1       1                               0D     54
     508      28                                                00010000D     55
     508                       1       1                               0D     56
     508      29                                                00010000D     57
     508                       1       1                               0D     58
     508      30                                                00010000D     59
     508                       1       1                               0D     60
     508      31                                                00010000D     61
     508                       1       1                               0D     62
     508      32                                                00010000D     63
     508                       1       1                               0D     64
     126      33                                                00010000D     65
     126       0              11       0                               0D     66
     126      44                                                00010000D     67
     126       0               3       0                               0D     68
     126      47                                                00010000D     69
     126       0              11       0                               0D     70
     126      58                                                00010000D     71
     126       0               2       0                               0D     72
     126      60                                                00010000D     73
     126       0               3       0                               0D     74
     126      63                                                00010000D     75
     126       0               2       0                               0D     76
     126      65                                                00010000D     77
     126       0               2       0                               0D     78
     126      67                                                00010000D     79
     126       0               6       0                               0D     80
     126      73                                                00010000D     81
     126       0               6       0                               0D     82
     126      79                                                00010000D     83
     126       0               2       0                               0D     84
     126      81                                                00010000D     85
     126       0               2       0                               0D     86
     126      83                                                00010000D     87
     126       0               2       0                               0D     88
     126      85                                                00010000D     89
     126       0               2       0                               0D     90
     126      87                                                00010000D     91
     126       0               6       0                               0D     92
     126      93                                                00010000D     93
     126       0               6       0                               0D     94
     126      99                                                00010000D     95
     126       0              11       0                               0D     96
     126     110                                                00010000D     97
     126       0               3       0                               0D     98
     126     113                                                00010000D     99
     126       0              11       0                               0D    100
     126     124                                                00010000D    101
     126       0               2       0                               0D    102
     126     126                                                00010000D    103
     126       0               2       0                               0D    104
     126     128                                                00010000D    105
     126       0               2       0                               0D    106
     126     130                                                00010000D    107
     126       0               2       0                               0D    108
     126     132                                                00010000D    109
     126       0               2       0                               0D    110
     126     134                                                00010000D    111
     126       0               2       0                               0D    112
     126     136                                                00010000D    113
     126       0               2       0                               0D    114
     126     138                                                00010000D    115
     126       0               2       0                               0D    116
     126     140                                                00010000D    117
     126       0               2       0                               0D    118
     126     142                                                00010000D    119
     126       0               2       0                               0D    120
     126     144                                                00010000D    121
     126       0               2       0                               0D    122
     126     146                                                00010000D    123
     126       0               2       0                               0D    124
     128     148                                                00010000D    125
     128       0    -155      17       0                               0D    126
     128     165                                                00010000D    127
     128       0    -155       5       0                               0D    128
     128     170                                                00010000D    129
     128       0    -155      10       0                               0D    130
     128     180                                                00010000D    131
     128       0    -155       4       0                               0D    132
     128     184                                                00010000D    133
     128       0    -155      10       0                               0D    134
     128     194                                                00010000D    135
     128       0    -155      17       0                               0D    136
     128     211                                                00010000D    137
     128       0    -155       4       0                               0D    138
     128     215                                                00010000D    139
     128       0    -155       3       0                               0D    140
     128     218                                                00010000D    141
     128       0    -155       3       0                               0D    142
     128     221                                                00010000D    143
     128       0    -155       5       0                               0D    144
     128     226                                                00010000D    145
     128       0    -155       5       0                               0D    146
     128     231                                                00010000D    147
     128       0    -155       4       0                               0D    148
     502     235                                                00010000D    149
     502                       7       1                               0D    150
     504     242                                                00010001D    151
     504                       8       1                               0D    152
     406     250                                                00000000D    153
     406                       1      15                               0D    154
     314     251                                                00000200D    155
     314                       2       0                               0D    156
186,3,1,0,0,1,153;                                                     1P      1
514,12,5,1,7,1,9,1,11,1,13,1,15,1,17,1,19,1,21,1,23,1,25,1,27,1;       3P      2
510,125,1,1,29;                                                        5P      3
510,127,1,1,31;                                                        7P      4
510,129,1,1,33;                                                        9P      5
510,131,1,1,35;                                                       11P      6
510,133,1,1,37;                                                       13P      7
510,135,1,1,39;                                                       15P      8
510,137,1,1,41;                                                       17P      9
510,139,1,1,43;                                                       19P     10
510,141,1,1,45;                                                       21P     11
510,143,1,1,47;                                                       23P     12
510,145,4,1,49,51,53,55;                                              25P     13
510,147,4,1,57,59,61,63;                                              27P     14
508,4,0,151,1,0,0,0,151,2,1,0,0,151,3,1,0,0,151,2,0,0;                29P     15
508,4,0,151,4,1,0,0,151,5,1,0,0,151,6,0,0,0,151,7,0,0;                31P     16
508,4,0,151,8,1,0,0,151,7,1,0,0,151,9,0,0,0,151,10,0,0;               33P     17
508,4,0,151,11,1,0,0,151,10,1,0,0,151,12,0,0,0,151,13,0,0;            35P     18
508,4,0,151,14,1,0,0,151,13,1,0,0,151,15,0,0,0,151,5,0,0;             37P     19
508,4,0,151,16,0,0,0,151,17,1,0,0,151,18,1,0,0,151,17,0,0;            39P     20
508,4,0,151,19,1,0,0,151,20,1,0,0,151,21,0,0,0,151,22,0,0;            41P     21
508,4,0,151,23,1,0,0,151,22,1,0,0,151,24,0,0,0,151,25,0,0;            43P     22
508,4,0,151,26,1,0,0,151,25,1,0,0,151,27,0,0,0,151,28,0,0;            45P     23
508,4,0,151,29,1,0,0,151,28,1,0,0,151,30,0,0,0,151,20,0,0;            47P     24
508,4,0,151,30,1,0,0,151,27,1,0,0,151,24,1,0,0,151,21,1,0;            49P     25
508,1,0,151,16,1,0;                                                   51P     26
508,4,0,151,15,1,0,0,151,12,1,0,0,151,9,1,0,0,151,6,1,0;              53P     27
508,1,0,151,1,1,0;                                                    55P     28
508,4,0,151,29,0,0,0,151,19,0,0,0,151,23,0,0,0,151,26,0,0;            57P     29
508,1,0,151,18,0,0;                                                   59P     30
508,4,0,151,14,0,0,0,151,4,0,0,0,151,8,0,0,0,151,11,0,0;              61P     31
508,1,0,151,3,0,0;                                                    63P     32
126,8,2,0,1,0,0,-3.14159265358979,-3.14159265358979,                  65P     33
-3.14159265358979,-1.5707963267949,-1.5707963267949,0.,0.,            65P     34
1.5707963267949,1.5707963267949,3.14159265358979,                     65P     35
3.14159265358979,3.14159265358979,1.,0.707106781186548,1.,            65P     36
0.707106781186547,1.,0.707106781186547,1.,0.707106781186548,1.,       65P     37
8.3883288743435,3.175,-86.6,8.3883288743435,3.175,-91.3625,           65P     38
13.1508288743435,3.175,-91.3625,17.9133288743435,3.175,-91.3625,      65P     39
17.9133288743435,3.175,-86.6,17.9133288743435,3.175,-81.8375,         65P     40
13.1508288743435,3.175,-81.8375,8.3883288743435,3.175,-81.8375,       65P     41
8.3883288743435,3.175,-86.6,-3.14159265358979,3.14159265358979,       65P     42
0.,0.,0.;                                                             65P     43
126,1,1,0,0,1,0,-0.666666666666667,-0.666666666666667,0.,0.,1.,       67P     44
1.,8.3883288743435,3.175,-86.6,8.3883288743435,0.,-86.6,              67P     45
-0.666666666666667,0.,0.,0.,0.;                                       67P     46
126,8,2,0,1,0,0,-3.14159265358979,-3.14159265358979,                  69P     47
-3.14159265358979,-1.5707963267949,-1.5707963267949,0.,0.,            69P     48
1.5707963267949,1.5707963267949,3.14159265358979,                     69P     49
3.14159265358979,3.14159265358979,1.,0.707106781186548,1.,            69P     50
0.707106781186547,1.,0.707106781186547,1.,0.707106781186548,1.,       69P     51
8.3883288743435,0.,-86.6,8.3883288743435,0.,-91.3625,                 69P     52
13.1508288743435,0.,-91.3625,17.9133288743435,0.,-91.3625,            69P     53
17.9133288743435,0.,-86.6,17.9133288743435,0.,-81.8375,               69P     54
13.1508288743435,0.,-81.8375,8.3883288743435,0.,-81.8375,             69P     55
8.3883288743435,0.,-86.6,-3.14159265358979,3.14159265358979,0.,       69P     56
0.,0.;                                                                69P     57
126,1,1,0,0,1,0,-10.6,-10.6,0.,0.,1.,1.,45.1656250000001,0.,          71P     58
-116.,45.165625,0.,-10.,-10.6,0.,0.,0.,0.;                            71P     59
126,1,1,0,0,1,0,0.,0.,0.3175,0.3175,1.,1.,45.165625,0.,               73P     60
-9.99999999999999,45.165625,3.175,-9.99999999999999,0.,0.3175,        73P     61
0.,0.,0.;                                                             73P     62
126,1,1,0,0,1,0,-10.6,-10.6,0.,0.,1.,1.,45.1656250000001,3.175,       75P     63
-116.,45.165625,3.175,-10.,-10.6,0.,0.,0.,0.;                         75P     64
126,1,1,0,0,1,0,0.,0.,0.3175,0.3175,1.,1.,45.1656250000001,0.,        77P     65
-116.,45.1656250000001,3.175,-116.,0.,0.3175,0.,0.,0.;                77P     66
126,4,2,0,0,0,0,-3.14159265358979,-3.14159265358979,                  79P     67
-3.14159265358979,-1.5707963267949,-1.5707963267949,0.,0.,0.,1.,      79P     68
0.707106781186541,1.,0.707106781186544,1.,36.4343749999999,0.,        79P     69
-116.,36.4343749999999,0.,-120.365625,40.8,0.,-120.365625,            79P     70
45.1656250000001,0.,-120.365625,45.1656250000001,0.,-116.,            79P     71
-3.14159265358979,0.,0.,0.,0.;                                        79P     72
126,4,2,0,0,0,0,-3.14159265358979,-3.14159265358979,                  81P     73
-3.14159265358979,-1.5707963267949,-1.5707963267949,0.,0.,0.,1.,      81P     74
0.707106781186541,1.,0.707106781186544,1.,36.4343749999999,           81P     75
3.175,-116.,36.4343749999999,3.175,-120.365625,40.8,3.175,            81P     76
-120.365625,45.1656250000001,3.175,-120.365625,45.1656250000001,      81P     77
3.175,-116.,-3.14159265358979,0.,0.,0.,0.;                            81P     78
126,1,1,0,0,1,0,0.,0.,0.3175,0.3175,1.,1.,36.434375,0.,-116.,         83P     79
36.434375,3.175,-116.,0.,0.3175,0.,0.,0.;                             83P     80
126,1,1,0,0,1,0,-10.6,-10.6,0.,0.,1.,1.,36.434375,0.,-10.,            85P     81
36.434375,0.,-116.,-10.6,0.,0.,0.,0.;                                 85P     82
126,1,1,0,0,1,0,-10.6,-10.6,0.,0.,1.,1.,36.434375,3.175,-10.,         87P     83
36.434375,3.175,-116.,-10.6,0.,0.,0.,0.;                              87P     84
126,1,1,0,0,1,0,0.,0.,0.3175,0.3175,1.,1.,36.434375,0.,-10.,          89P     85
36.434375,3.175,-10.,0.,0.3175,0.,0.,0.;                              89P     86
126,4,2,0,0,0,0,-3.14159265358979,-3.14159265358979,                  91P     87
-3.14159265358979,-1.5707963267949,-1.5707963267949,0.,0.,0.,1.,      91P     88
0.707106781186552,1.,0.707106781186547,1.,45.165625,0.,               91P     89
-9.99999999999999,45.165625,0.,-5.63437499999999,40.8,0.,             91P     90
-5.634375,36.434375,0.,-5.634375,36.434375,0.,-10.,                   91P     91
-3.14159265358979,0.,0.,0.,0.;                                        91P     92
126,4,2,0,0,0,0,-3.14159265358979,-3.14159265358979,                  93P     93
-3.14159265358979,-1.5707963267949,-1.5707963267949,0.,0.,0.,1.,      93P     94
0.707106781186552,1.,0.707106781186547,1.,45.165625,3.175,            93P     95
-9.99999999999999,45.165625,3.175,-5.63437499999999,40.8,3.175,       93P     96
-5.634375,36.434375,3.175,-5.634375,36.434375,3.175,-10.,             93P     97
-3.14159265358979,0.,0.,0.,0.;                                        93P     98
126,8,2,0,1,0,0,-3.14159265358979,-3.14159265358979,                  95P     99
-3.14159265358979,-1.5707963267949,-1.5707963267949,0.,0.,            95P    100
1.5707963267949,1.5707963267949,3.14159265358979,                     95P    101
3.14159265358979,3.14159265358979,1.,0.707106781186559,1.,            95P    102
0.707106781186558,1.,0.707106781186558,1.,0.707106781186559,1.,       95P    103
8.38832887434351,3.175,-175.5,8.38832887434352,3.175,-180.2625,       95P    104
13.1508288743435,3.175,-180.2625,17.9133288743435,3.175,              95P    105
-180.2625,17.9133288743435,3.175,-175.5,17.9133288743435,3.175,       95P    106
-170.7375,13.1508288743435,3.175,-170.7375,8.38832887434352,          95P    107
3.175,-170.7375,8.38832887434351,3.175,-175.5,-3.14159265358979,      95P    108
3.14159265358979,0.,0.,0.;                                            95P    109
126,1,1,0,0,1,0,-0.666666666666667,-0.666666666666667,0.,0.,1.,       97P    110
1.,8.38832887434351,3.175,-175.5,8.38832887434351,0.,-175.5,          97P    111
-0.666666666666667,0.,0.,0.,0.;                                       97P    112
126,8,2,0,1,0,0,-3.14159265358979,-3.14159265358979,                  99P    113
-3.14159265358979,-1.5707963267949,-1.5707963267949,0.,0.,            99P    114
1.5707963267949,1.5707963267949,3.14159265358979,                     99P    115
3.14159265358979,3.14159265358979,1.,0.707106781186559,1.,            99P    116
0.707106781186558,1.,0.707106781186558,1.,0.707106781186559,1.,       99P    117
8.38832887434351,0.,-175.5,8.38832887434352,0.,-180.2625,             99P    118
13.1508288743435,0.,-180.2625,17.9133288743435,0.,-180.2625,          99P    119
17.9133288743435,0.,-175.5,17.9133288743435,0.,-170.7375,             99P    120
13.1508288743435,0.,-170.7375,8.38832887434352,0.,-170.7375,          99P    121
8.38832887434351,0.,-175.5,-3.14159265358979,3.14159265358979,        99P    122
0.,0.,0.;                                                             99P    123
126,1,1,0,0,1,0,0.,0.,5.08,5.08,1.,1.,50.8,0.,-190.5,0.,0.,          101P    124
-190.5,0.,5.08,0.,0.,0.;                                             101P    125
126,1,1,0,0,1,0,0.,0.,0.3175,0.3175,1.,1.,-6.16297582203915D-31,     103P    126
0.,-190.5,-6.16297582203915D-31,3.175,-190.5,0.,0.3175,0.,0.,0.;     103P    127
126,1,1,0,0,1,0,0.,0.,5.08,5.08,1.,1.,50.8,3.175,-190.5,0.,          105P    128
3.175,-190.5,0.,5.08,0.,0.,0.;                                       105P    129
126,1,1,0,0,1,0,0.,0.,0.3175,0.3175,1.,1.,50.8,0.,-190.5,50.8,       107P    130
3.175,-190.5,0.,0.3175,0.,0.,0.;                                     107P    131
126,1,1,0,0,1,0,0.,0.,19.05,19.05,1.,1.,50.8,0.,0.,50.8,0.,          109P    132
-190.5,0.,19.05,0.,0.,0.;                                            109P    133
126,1,1,0,0,1,0,0.,0.,19.05,19.05,1.,1.,50.8,3.175,0.,50.8,          111P    134
3.175,-190.5,0.,19.05,0.,0.,0.;                                      111P    135
126,1,1,0,0,1,0,0.,0.,0.3175,0.3175,1.,1.,50.8,0.,0.,50.8,3.175,     113P    136
0.,0.,0.3175,0.,0.,0.;                                               113P    137
126,1,1,0,0,1,0,0.,0.,5.08,5.08,1.,1.,0.,0.,0.,50.8,0.,0.,0.,        115P    138
5.08,0.,0.,0.;                                                       115P    139
126,1,1,0,0,1,0,0.,0.,5.08,5.08,1.,1.,0.,3.175,0.,50.8,3.175,0.,     117P    140
0.,5.08,0.,0.,0.;                                                    117P    141
126,1,1,0,0,1,0,0.,0.,0.3175,0.3175,1.,1.,0.,0.,0.,0.,3.175,0.,      119P    142
0.,0.3175,0.,0.,0.;                                                  119P    143
126,1,1,0,0,1,0,0.,0.,19.05,19.05,1.,1.,-6.16297582203915D-31,       121P    144
0.,-190.5,0.,0.,0.,0.,19.05,0.,0.,0.;                                121P    145
126,1,1,0,0,1,0,0.,0.,19.05,19.05,1.,1.,-6.16297582203915D-31,       123P    146
3.175,-190.5,0.,3.175,0.,0.,19.05,0.,0.,0.;                          123P    147
128,1,8,1,2,0,1,0,0,1,0.,0.,0.666666666666667,0.666666666666667,     125P    148
-3.14159265358979,-3.14159265358979,-3.14159265358979,               125P    149
-1.5707963267949,-1.5707963267949,0.,0.,1.5707963267949,             125P    150
1.5707963267949,3.14159265358979,3.14159265358979,                   125P    151
3.14159265358979,1.,1.,0.707106781186548,0.707106781186548,1.,       125P    152
1.,0.707106781186548,0.707106781186548,1.,1.,0.707106781186548,      125P    153
0.707106781186548,1.,1.,0.707106781186548,0.707106781186548,1.,      125P    154
1.,8.3883288743435,0.,-86.6,8.3883288743435,3.175,-86.6,             125P    155
8.3883288743435,0.,-81.8375,8.3883288743435,3.175,-81.8375,          125P    156
13.1508288743435,0.,-81.8375,13.1508288743435,3.175,-81.8375,        125P    157
17.9133288743435,0.,-81.8375,17.9133288743435,3.175,-81.8375,        125P    158
17.9133288743435,0.,-86.6,17.9133288743435,3.175,-86.6,              125P    159
17.9133288743435,0.,-91.3625,17.9133288743435,3.175,-91.3625,        125P    160
13.1508288743435,0.,-91.3625,13.1508288743435,3.175,-91.3625,        125P    161
8.3883288743435,0.,-91.3625,8.3883288743435,3.175,-91.3625,          125P    162
8.3883288743435,0.,-86.6,8.3883288743435,3.175,-86.6,0.,             125P    163
0.666666666666667,-3.14159265358979,3.14159265358979;                125P    164
128,1,1,1,1,0,0,1,0,0,-0.001,-0.001,10.601,10.601,-0.001,-0.001,     127P    165
0.3185,0.3185,1.,1.,1.,1.,45.1656250000001,-0.01,-116.01,            127P    166
45.165625,-0.01,-9.98999999999999,45.1656250000001,3.185,            127P    167
-116.01,45.165625,3.185,-9.98999999999999,-0.001,10.601,-0.001,      127P    168
0.3185;                                                              127P    169
128,1,4,1,2,0,0,0,0,0,0.,0.,0.727272727272707,0.727272727272707,     129P    170
0.,0.,0.,1.5707963267949,1.5707963267949,3.1415926535898,            129P    171
3.1415926535898,3.1415926535898,1.,1.,0.707106781186547,             129P    172
0.707106781186547,1.,1.,0.707106781186547,0.707106781186547,1.,      129P    173
1.,45.1656250000001,0.,-116.,45.1656250000001,3.175,-116.,           129P    174
45.1656250000001,0.,-120.365625,45.1656250000001,3.175,              129P    175
-120.365625,40.8,0.,-120.365625,40.8,3.175,-120.365625,              129P    176
36.4343749999999,0.,-120.365625,36.4343749999999,3.175,              129P    177
-120.365625,36.4343749999999,0.,-116.,36.4343749999999,3.175,        129P    178
-116.,0.,0.727272727272707,0.,3.1415926535898;                       129P    179
128,1,1,1,1,0,0,1,0,0,-0.001,-0.001,10.601,10.601,-0.001,-0.001,     131P    180
0.3185,0.3185,1.,1.,1.,1.,36.434375,-0.01,-9.99,36.434375,-0.01,     131P    181
-116.01,36.434375,3.185,-9.99,36.434375,3.185,-116.01,-0.001,        131P    182
10.601,-0.001,0.3185;                                                131P    183
128,1,4,1,2,0,0,0,0,0,0.,0.,0.727272727272727,0.727272727272727,     133P    184
0.,0.,0.,1.5707963267949,1.5707963267949,3.14159265358979,           133P    185
3.14159265358979,3.14159265358979,1.,1.,0.707106781186548,           133P    186
0.707106781186548,1.,1.,0.707106781186548,0.707106781186548,1.,      133P    187
1.,36.434375,0.,-10.,36.434375,3.175,-10.,36.434375,0.,              133P    188
-5.634375,36.434375,3.175,-5.634375,40.8,0.,-5.634375,40.8,          133P    189
3.175,-5.634375,45.165625,0.,-5.63437499999999,45.165625,3.175,      133P    190
-5.63437499999999,45.165625,0.,-9.99999999999999,45.165625,          133P    191
3.175,-9.99999999999999,0.,0.727272727272727,0.,                     133P    192
3.14159265358979;                                                    133P    193
128,1,8,1,2,0,1,0,0,1,0.,0.,0.666666666666667,0.666666666666667,     135P    194
-3.14159265358979,-3.14159265358979,-3.14159265358979,               135P    195
-1.5707963267949,-1.5707963267949,0.,0.,1.5707963267949,             135P    196
1.5707963267949,3.14159265358979,3.14159265358979,                   135P    197
3.14159265358979,1.,1.,0.707106781186548,0.707106781186548,1.,       135P    198
1.,0.707106781186548,0.707106781186548,1.,1.,0.707106781186548,      135P    199
0.707106781186548,1.,1.,0.707106781186548,0.707106781186548,1.,      135P    200
1.,8.38832887434351,0.,-175.5,8.38832887434351,3.175,-175.5,         135P    201
8.38832887434351,0.,-170.7375,8.38832887434351,3.175,-170.7375,      135P    202
13.1508288743435,0.,-170.7375,13.1508288743435,3.175,-170.7375,      135P    203
17.9133288743435,0.,-170.7375,17.9133288743435,3.175,-170.7375,      135P    204
17.9133288743435,0.,-175.5,17.9133288743435,3.175,-175.5,            135P    205
17.9133288743435,0.,-180.2625,17.9133288743435,3.175,-180.2625,      135P    206
13.1508288743435,0.,-180.2625,13.1508288743435,3.175,-180.2625,      135P    207
8.38832887434351,0.,-180.2625,8.38832887434351,3.175,-180.2625,      135P    208
8.38832887434351,0.,-175.5,8.38832887434351,3.175,-175.5,0.,         135P    209
0.666666666666667,-3.14159265358979,3.14159265358979;                135P    210
128,1,1,1,1,0,0,1,0,0,-0.001,-0.001,5.081,5.081,-0.001,-0.001,       137P    211
0.3185,0.3185,1.,1.,1.,1.,50.81,-0.01,-190.5,                        137P    212
-0.0100000000000033,-0.01,-190.5,50.81,3.185,-190.5,                 137P    213
-0.0100000000000033,3.185,-190.5,-0.001,5.081,-0.001,0.3185;         137P    214
128,1,1,1,1,0,0,1,0,0,-0.001,-0.001,19.051,19.051,-0.001,-0.001,     139P    215
0.3185,0.3185,1.,1.,1.,1.,50.8,-0.01,0.01,50.8,-0.01,-190.51,        139P    216
50.8,3.185,0.01,50.8,3.185,-190.51,-0.001,19.051,-0.001,0.3185;      139P    217
128,1,1,1,1,0,0,1,0,0,-0.001,-0.001,5.081,5.081,-0.001,-0.001,       141P    218
0.3185,0.3185,1.,1.,1.,1.,-0.01,-0.01,0.,50.81,-0.01,0.,-0.01,       141P    219
3.185,0.,50.81,3.185,0.,-0.001,5.081,-0.001,0.3185;                  141P    220
128,1,1,1,1,0,0,1,0,0,-0.001,-0.001,19.051,19.051,-0.001,-0.001,     143P    221
0.3185,0.3185,1.,1.,1.,1.,-6.16329933783034D-31,-0.01,-190.51,       143P    222
3.23515791183303D-35,-0.01,0.0100000000000122,                       143P    223
-6.16329933783034D-31,3.185,-190.51,3.23515791183303D-35,3.185,      143P    224
0.0100000000000122,-0.001,19.051,-0.001,0.3185;                      143P    225
128,1,1,1,1,0,0,1,0,0,-2.541,-2.541,2.541,2.541,-9.526,-9.526,       145P    226
9.526,9.526,1.,1.,1.,1.,-0.0099999999999989,3.175,                   145P    227
0.00999999999999446,50.81,3.175,0.00999999999999446,                 145P    228
-0.0099999999999989,3.175,-190.51,50.81,3.175,-190.51,-2.541,        145P    229
2.541,-9.526,9.526;                                                  145P    230
128,1,1,1,1,0,0,1,0,0,-2.541,-2.541,2.541,2.541,-9.526,-9.526,       147P    231
9.526,9.526,1.,1.,1.,1.,50.81,0.,0.00999999999999446,                147P    232
-0.0099999999999989,0.,0.00999999999999446,50.81,0.,-190.51,         147P    233
-0.0099999999999989,0.,-190.51,-2.541,2.541,-9.526,9.526;            147P    234
502,20,8.3883288743435,3.175,-86.6,8.3883288743435,0.,-86.6,         149P    235
45.1656250000001,0.,-116.,45.165625,0.,-9.99999999999999,            149P    236
45.165625,3.175,-10.,45.1656250000001,3.175,-116.,36.434375,0.,      149P    237
-116.,36.434375,3.175,-116.,36.434375,0.,-10.,36.434375,3.175,       149P    238
-10.,8.38832887434351,3.175,-175.5,8.38832887434351,0.,-175.5,       149P    239
50.8,0.,-190.5,-6.16297582203915D-31,0.,-190.5,0.,3.175,-190.5,      149P    240
50.8,3.175,-190.5,50.8,0.,0.,50.8,3.175,0.,0.,0.,0.,0.,3.175,0.;     149P    241
504,30,65,149,1,149,1,67,149,1,149,2,69,149,2,149,2,71,149,3,        151P    242
149,4,73,149,4,149,5,75,149,6,149,5,77,149,3,149,6,79,149,7,149,     151P    243
3,81,149,8,149,6,83,149,7,149,8,85,149,9,149,7,87,149,10,149,8,      151P    244
89,149,9,149,10,91,149,4,149,9,93,149,5,149,10,95,149,11,149,11,     151P    245
97,149,11,149,12,99,149,12,149,12,101,149,13,149,14,103,149,14,      151P    246
149,15,105,149,16,149,15,107,149,13,149,16,109,149,17,149,13,        151P    247
111,149,18,149,16,113,149,17,149,18,115,149,19,149,17,117,149,       151P    248
20,149,18,119,149,19,149,20,121,149,14,149,19,123,149,15,149,20;     151P    249
406,1,5HBody1;                                                       153P    250
314,62.7450980392157,62.7450980392157,62.7450980392157,13HSteel      155P    251
- Satin;                                                             155P    252
S      1G      3D    156P    252                                        T      1
