                                                                        S      1
,,17HShaft Coupler v14,17HShaft Coupler v14,7Hunknown,7Hunknown,32,38,7,G      1
99,15,,1.,2,2HMM,1,0.08,15H20191217.170424,0.01,10000.,7Hunknown,7HunknoG      2
wn,11,0,15H20191217.220414;                                             G      3
     186       1                                                00000000D      1
     186            -177       1       0                               0D      2
     514       2                                                00010000D      3
     514                       2       1                               0D      4
     510       4                                                00010000D      5
     510            -177       1       1                               0D      6
     510       5                                                00010000D      7
     510            -177       1       1                               0D      8
     510       6                                                00010000D      9
     510            -177       1       1                               0D     10
     510       7                                                00010000D     11
     510            -177       1       1                               0D     12
     510       8                                                00010000D     13
     510            -177       1       1                               0D     14
     510       9                                                00010000D     15
     510            -177       1       1                               0D     16
     510      10                                                00010000D     17
     510            -177       1       1                               0D     18
     510      11                                                00010000D     19
     510            -177       1       1                               0D     20
     510      12                                                00010000D     21
     510            -177       1       1                               0D     22
     510      13                                                00010000D     23
     510            -177       1       1                               0D     24
     510      14                                                00010000D     25
     510            -177       1       1                               0D     26
     510      15                                                00010000D     27
     510            -177       1       1                               0D     28
     510      16                                                00010000D     29
     510            -177       1       1                               0D     30
     510      17                                                00010000D     31
     510            -177       1       1                               0D     32
     510      18                                                00010000D     33
     510            -177       1       1                               0D     34
     508      19                                                00010000D     35
     508                       1       1                               0D     36
     508      20                                                00010000D     37
     508                       1       1                               0D     38
     508      21                                                00010000D     39
     508                       1       1                               0D     40
     508      22                                                00010000D     41
     508                       1       1                               0D     42
     508      23                                                00010000D     43
     508                       2       1                               0D     44
     508      25                                                00010000D     45
     508                       1       1                               0D     46
     508      26                                                00010000D     47
     508                       1       1                               0D     48
     508      27                                                00010000D     49
     508                       1       1                               0D     50
     508      28                                                00010000D     51
     508                       1       1                               0D     52
     508      29                                                00010000D     53
     508                       1       1                               0D     54
     508      30                                                00010000D     55
     508                       1       1                               0D     56
     508      31                                                00010000D     57
     508                       1       1                               0D     58
     508      32                                                00010000D     59
     508                       1       1                               0D     60
     508      33                                                00010000D     61
     508                       1       1                               0D     62
     508      34                                                00010000D     63
     508                       1       1                               0D     64
     508      35                                                00010000D     65
     508                       2       1                               0D     66
     508      37                                                00010000D     67
     508                       3       1                               0D     68
     508      40                                                00010000D     69
     508                       1       1                               0D     70
     508      41                                                00010000D     71
     508                       1       1                               0D     72
     126      42                                                00010000D     73
     126       0               4       0                               0D     74
     126      46                                                00010000D     75
     126       0               2       0                               0D     76
     126      48                                                00010000D     77
     126       0               4       0                               0D     78
     126      52                                                00010000D     79
     126       0               2       0                               0D     80
     126      54                                                00010000D     81
     126       0               5       0                               0D     82
     126      59                                                00010000D     83
     126       0               4       0                               0D     84
     126      63                                                00010000D     85
     126       0               2       0                               0D     86
     126      65                                                00010000D     87
     126       0               4       0                               0D     88
     126      69                                                00010000D     89
     126       0               2       0                               0D     90
     126      71                                                00010000D     91
     126       0               5       0                               0D     92
     126      76                                                00010000D     93
     126       0               5       0                               0D     94
     126      81                                                00010000D     95
     126       0               5       0                               0D     96
     126      86                                                00010000D     97
     126       0               7       0                               0D     98
     126      93                                                00010000D     99
     126       0               4       0                               0D    100
     126      97                                                00010000D    101
     126       0               6       0                               0D    102
     126     103                                                00010000D    103
     126       0               4       0                               0D    104
     126     107                                                00010000D    105
     126       0               6       0                               0D    106
     126     113                                                00010000D    107
     126       0              10       0                               0D    108
     126     123                                                00010000D    109
     126       0               2       0                               0D    110
     126     125                                                00010000D    111
     126       0              10       0                               0D    112
     126     135                                                00010000D    113
     126       0               5       0                               0D    114
     126     140                                                00010000D    115
     126       0               9       0                               0D    116
     126     149                                                00010000D    117
     126       0               2       0                               0D    118
     126     151                                                00010000D    119
     126       0               3       0                               0D    120
     126     154                                                00010000D    121
     126       0               2       0                               0D    122
     126     156                                                00010000D    123
     126       0               2       0                               0D    124
     126     158                                                00010000D    125
     126       0               6       0                               0D    126
     126     164                                                00010000D    127
     126       0               2       0                               0D    128
     126     166                                                00010000D    129
     126       0               3       0                               0D    130
     126     169                                                00010000D    131
     126       0               6       0                               0D    132
     126     175                                                00010000D    133
     126       0              10       0                               0D    134
     126     185                                                00010000D    135
     126       0               3       0                               0D    136
     126     188                                                00010000D    137
     126       0              10       0                               0D    138
     126     198                                                00010000D    139
     126       0               2       0                               0D    140
     128     200                                                00010000D    141
     128       0    -177       5       0                               0D    142
     128     205                                                00010000D    143
     128       0    -177       6       0                               0D    144
     128     211                                                00010000D    145
     128       0    -177       5       0                               0D    146
     128     216                                                00010000D    147
     128       0    -177       7       0                               0D    148
     128     223                                                00010000D    149
     128       0    -177       3       0                               0D    150
     128     226                                                00010000D    151
     128       0    -177      14       0                               0D    152
     128     240                                                00010000D    153
     128       0    -177       4       0                               0D    154
     128     244                                                00010000D    155
     128       0    -177       5       0                               0D    156
     128     249                                                00010000D    157
     128       0    -177       9       0                               0D    158
     128     258                                                00010000D    159
     128       0    -177       5       0                               0D    160
     128     263                                                00010000D    161
     128       0    -177       9       0                               0D    162
     128     272                                                00010000D    163
     128       0    -177       3       0                               0D    164
     128     275                                                00010000D    165
     128       0    -177      15       0                               0D    166
     128     290                                                00010000D    167
     128       0    -177      11       0                               0D    168
     128     301                                                00010000D    169
     128       0    -177       3       0                               0D    170
     502     304                                                00010000D    171
     502                      11       1                               0D    172
     504     315                                                00010001D    173
     504                      10       1                               0D    174
     406     325                                                00000000D    175
     406                       1      15                               0D    176
     314     326                                                00000200D    177
     314                       2       0                               0D    178
186,3,1,0,0,1,175;                                                     1P      1
514,15,5,1,7,1,9,1,11,1,13,1,15,1,17,1,19,1,21,1,23,1,25,1,27,1,       3P      2
29,1,31,1,33,1;                                                        3P      3
510,141,1,1,35;                                                        5P      4
510,143,1,1,37;                                                        7P      5
510,145,1,1,39;                                                        9P      6
510,147,1,1,41;                                                       11P      7
510,149,2,1,43,45;                                                    13P      8
510,151,1,1,47;                                                       15P      9
510,153,2,1,49,51;                                                    17P     10
510,155,1,1,53;                                                       19P     11
510,157,1,1,55;                                                       21P     12
510,159,1,1,57;                                                       23P     13
510,161,1,1,59;                                                       25P     14
510,163,2,1,61,63;                                                    27P     15
510,165,1,1,65;                                                       29P     16
510,167,1,1,67;                                                       31P     17
510,169,2,1,69,71;                                                    33P     18
508,4,0,173,1,0,0,0,173,2,0,0,0,173,3,1,0,0,173,4,0,0;                35P     19
508,2,0,173,5,0,0,0,173,3,0,0;                                        37P     20
508,4,0,173,6,0,0,0,173,7,0,0,0,173,8,1,0,0,173,9,0,0;                39P     21
508,2,0,173,10,0,0,0,173,8,0,0;                                       41P     22
508,5,0,173,1,1,0,0,173,11,0,0,0,173,12,0,0,0,173,6,1,0,0,173,        43P     23
13,0,0;                                                               43P     24
508,4,0,173,14,1,0,0,173,15,1,0,0,173,16,1,0,0,173,17,1,0;            45P     25
508,4,0,173,18,0,0,0,173,19,1,0,0,173,20,1,0,0,173,19,0,0;            47P     26
508,1,0,173,20,0,0;                                                   49P     27
508,2,0,173,21,0,0,0,173,22,0,0;                                      51P     28
508,4,0,173,14,0,0,0,173,23,1,0,0,173,24,1,0,0,173,25,0,0;            53P     29
508,4,0,173,17,0,0,0,173,26,1,0,0,173,27,1,0,0,173,23,0,0;            55P     30
508,4,0,173,16,0,0,0,173,28,1,0,0,173,29,1,0,0,173,26,0,0;            57P     31
508,4,0,173,15,0,0,0,173,25,1,0,0,173,30,1,0,0,173,28,0,0;            59P     32
508,4,0,173,30,0,0,0,173,24,0,0,0,173,27,0,0,0,173,29,0,0;            61P     33
508,1,0,173,18,1,0;                                                   63P     34
508,5,0,173,31,0,0,0,173,32,1,0,0,173,22,1,0,0,173,21,1,0,0,173,      65P     35
32,0,0;                                                               65P     36
508,12,0,173,33,0,0,0,173,34,1,0,0,173,11,1,0,0,173,4,1,0,0,173,      67P     37
5,1,0,0,173,2,1,0,0,173,13,1,0,0,173,9,1,0,0,173,10,1,0,0,173,7,      67P     38
1,0,0,173,12,1,0,0,173,34,0,0;                                        67P     39
508,1,0,173,33,1,0;                                                   69P     40
508,1,0,173,31,1,0;                                                   71P     41
126,1,1,0,0,1,0,-0.134629120178363,-0.134629120178363,                73P     42
0.403887360535087,0.403887360535087,1.,1.,2.69258240356725,0.,        73P     43
7.,-2.69258240356724,0.,7.,-0.134629120178363,0.403887360535087,      73P     44
0.,0.,0.;                                                             73P     45
126,1,1,0,0,1,0,-1.,-1.,0.,0.,1.,1.,2.69258240356725,10.,7.,          75P     46
2.69258240356725,0.,7.,-1.,0.,0.,0.,0.;                               75P     47
126,1,1,0,0,1,0,0.480741759643275,0.480741759643275,                  77P     48
1.01925824035672,1.01925824035672,1.,1.,2.69258240356725,10.,7.,      77P     49
-2.69258240356725,10.,7.,0.480741759643275,1.01925824035672,0.,       77P     50
0.,0.;                                                                77P     51
126,1,1,0,0,1,0,0.,0.,1.,1.,1.,1.,-2.69258240356725,0.,7.,            79P     52
-2.69258240356725,10.,7.,0.,1.,0.,0.,0.;                              79P     53
126,2,2,0,0,0,0,-1.93800434735273,-1.93800434735273,                  81P     54
-1.93800434735273,-1.20358830623706,-1.20358830623706,                81P     55
-1.20358830623706,1.,0.933333333333332,1.,-2.69258240356725,10.,      81P     56
7.,3.05311331771918D-15,10.,8.03571428571429,2.69258240356725,        81P     57
10.,7.,-1.93800434735273,-1.20358830623706,0.,0.,0.;                  81P     58
126,1,1,0,0,1,0,-0.134629120178362,-0.134629120178362,                83P     59
0.403887360535088,0.403887360535088,1.,1.,-2.69258240356725,0.,       83P     60
-7.,2.69258240356725,0.,-7.,-0.134629120178362,                       83P     61
0.403887360535088,0.,0.,0.;                                           83P     62
126,1,1,0,0,1,0,-1.,-1.,0.,0.,1.,1.,-2.69258240356725,10.,-7.,        85P     63
-2.69258240356725,0.,-7.,-1.,0.,0.,0.,0.;                             85P     64
126,1,1,0,0,1,0,0.480741759643275,0.480741759643275,                  87P     65
1.01925824035672,1.01925824035672,1.,1.,-2.69258240356725,10.,        87P     66
-7.,2.69258240356725,10.,-7.,0.480741759643275,1.01925824035672,      87P     67
0.,0.,0.;                                                             87P     68
126,1,1,0,0,1,0,0.,0.,1.,1.,1.,1.,2.69258240356725,0.,-7.,            89P     69
2.69258240356725,10.,-7.,0.,1.,0.,0.,0.;                              89P     70
126,2,2,0,0,0,0,1.20358830623706,1.20358830623706,                    91P     71
1.20358830623706,1.93800434735273,1.93800434735273,                   91P     72
1.93800434735273,1.,0.933333333333335,1.,2.69258240356725,10.,        91P     73
-7.,2.4980018054066D-15,10.,-8.03571428571429,-2.69258240356725,      91P     74
10.,-7.,1.20358830623706,1.93800434735273,0.,0.,0.;                   91P     75
126,2,2,0,0,0,0,-3.14159265358979,-3.14159265358979,                  93P     76
-3.14159265358979,-1.93800434735273,-1.93800434735273,                93P     77
-1.93800434735273,1.,0.824321232027387,1.,-7.5,0.,                    93P     78
9.18485099360515D-16,-7.5,0.,5.15080456760652,-2.69258240356724,      93P     79
0.,7.,-3.14159265358979,-1.93800434735273,0.,0.,0.;                   93P     80
126,2,2,0,0,0,0,-4.34518095982685,-4.34518095982685,                  95P     81
-4.34518095982685,-3.14159265358979,-3.14159265358979,                95P     82
-3.14159265358979,1.,0.824321232027388,1.,-2.69258240356725,0.,       95P     83
-7.,-7.5,0.,-5.15080456760652,-7.5,0.,9.18485099360515D-16,           95P     84
-4.34518095982685,-3.14159265358979,0.,0.,0.;                         95P     85
126,4,2,0,0,0,0,-1.20358830623706,-1.20358830623706,                  97P     86
-1.20358830623706,-2.22044604925031D-16,-2.22044604925031D-16,        97P     87
1.20358830623706,1.20358830623706,1.20358830623706,1.,                97P     88
0.824321232027389,1.,0.824321232027387,1.,2.69258240356725,0.,        97P     89
7.,7.5,0.,5.15080456760652,7.5,0.,1.66533453693774D-15,7.5,0.,        97P     90
-5.15080456760651,2.69258240356725,0.,-7.,-1.20358830623706,          97P     91
1.20358830623706,0.,0.,0.;                                            97P     92
126,1,1,0,0,1,0,-0.139440847673843,-0.139440847673843,                99P     93
0.41832254302153,0.41832254302153,1.,1.,2.78881695347687,0.,          99P     94
-4.15,-2.78881695347687,0.,-4.15,-0.139440847673843,                  99P     95
0.41832254302153,0.,0.,0.;                                            99P     96
126,4,2,0,0,0,0,-1.95821536873671,-1.95821536873671,                 101P     97
-1.95821536873671,-0.979107684368353,-0.979107684368353,0.,0.,       101P     98
0.,1.,0.882542744204318,1.,0.882542744204318,1.,                     101P     99
-2.78881695347687,0.,-4.15,-5.,0.,-2.66407595966642,-5.,0.,          101P    100
-5.55111512312578D-16,-5.,0.,2.66407595966642,-2.78881695347687,     101P    101
0.,4.15,-1.95821536873671,0.,0.,0.,0.;                               101P    102
126,1,1,0,0,1,0,-0.139440847673843,-0.139440847673843,               103P    103
0.41832254302153,0.41832254302153,1.,1.,-2.78881695347687,0.,        103P    104
4.15,2.78881695347687,0.,4.15,-0.139440847673843,                    103P    105
0.41832254302153,0.,0.,0.;                                           103P    106
126,4,2,0,0,0,0,-1.9582153687367,-1.9582153687367,                   105P    107
-1.9582153687367,-0.979107684368352,-0.979107684368352,0.,0.,0.,     105P    108
1.,0.882542744204318,1.,0.882542744204316,1.,2.78881695347687,       105P    109
0.,4.15,5.,0.,2.66407595966642,5.,0.,-1.38777878078145D-15,5.,       105P    110
0.,-2.66407595966642,2.78881695347687,0.,-4.15,-1.9582153687367,     105P    111
0.,0.,0.,0.;                                                         105P    112
126,8,2,0,1,0,0,-3.14159265358979,-3.14159265358979,                 107P    113
-3.14159265358979,-1.5707963267949,-1.5707963267949,0.,0.,           107P    114
1.5707963267949,1.5707963267949,3.14159265358979,                    107P    115
3.14159265358979,3.14159265358979,1.,0.707106781186548,1.,           107P    116
0.707106781186548,1.,0.707106781186548,1.,0.707106781186548,1.,      107P    117
-3.96875,4.,4.86031698411606D-16,-3.96875,4.,3.96875,                107P    118
2.43015849205803D-16,4.,3.96875,3.96875,4.,3.96875,3.96875,4.,       107P    119
0.,3.96875,4.,-3.96875,2.43015849205803D-16,4.,-3.96875,             107P    120
-3.96875,4.,-3.96875,-3.96875,4.,-4.86031698411606D-16,              107P    121
-3.14159265358979,3.14159265358979,0.,0.,0.;                         107P    122
126,1,1,0,0,1,0,0.,0.,2.77165354330709,2.77165354330709,1.,1.,       109P    123
-3.96875,4.,0.,-3.96875,15.,0.,0.,2.77165354330709,0.,0.,0.;         109P    124
126,8,2,0,1,0,0,-3.14159265358979,-3.14159265358979,                 111P    125
-3.14159265358979,-1.5707963267949,-1.5707963267949,0.,0.,           111P    126
1.5707963267949,1.5707963267949,3.14159265358979,                    111P    127
3.14159265358979,3.14159265358979,1.,0.707106781186548,1.,           111P    128
0.707106781186548,1.,0.707106781186548,1.,0.707106781186548,1.,      111P    129
-3.96875,15.,4.86031698411606D-16,-3.96875,15.,3.96875,              111P    130
2.43015849205803D-16,15.,3.96875,3.96875,15.,3.96875,3.96875,        111P    131
15.,0.,3.96875,15.,-3.96875,2.43015849205803D-16,15.,-3.96875,       111P    132
-3.96875,15.,-3.96875,-3.96875,15.,-4.86031698411606D-16,            111P    133
-3.14159265358979,3.14159265358979,0.,0.,0.;                         111P    134
126,2,2,0,0,0,0,1.5707963267949,1.5707963267949,1.5707963267949,     113P    135
3.14159265358979,3.14159265358979,3.14159265358979,1.,               113P    136
0.707106781186548,1.,-3.38975,15.,-5.45113375174138D-16,             113P    137
-3.38975,15.,-3.38975,-4.15124648740974D-16,15.,-3.38975,            113P    138
1.5707963267949,3.14159265358979,0.,0.,0.;                           113P    139
126,6,2,0,0,0,0,3.14159265358979,3.14159265358979,                   115P    140
3.14159265358979,4.71238898038469,4.71238898038469,                  115P    141
6.28318530717959,6.28318530717959,7.85398163397448,                  115P    142
7.85398163397448,7.85398163397448,1.,0.707106781186548,1.,           115P    143
0.707106781186548,1.,0.707106781186548,1.,-4.15124648740974D-16,     115P    144
15.,-3.38975,3.38975,15.,-3.38975,3.38975,15.,                       115P    145
-6.22686973111461D-16,3.38975,15.,3.38975,8.30249297481948D-16,      115P    146
15.,3.38975,-3.38975,15.,3.38975,-3.38975,15.,                       115P    147
1.03781162185244D-15,3.14159265358979,7.85398163397448,0.,0.,0.;     115P    148
126,1,1,0,0,1,0,0.,0.,0.4,0.4,1.,1.,2.78881695347687,0.,-4.15,       117P    149
2.78881695347687,4.,-4.15,0.,0.4,0.,0.,0.;                           117P    150
126,1,1,0,0,1,0,0.,0.,0.557763390695374,0.557763390695374,1.,1.,     119P    151
2.78881695347687,4.,-4.15,-2.78881695347687,4.,-4.15,0.,             119P    152
0.557763390695374,0.,0.,0.;                                          119P    153
126,1,1,0,0,1,0,0.,0.,0.4,0.4,1.,1.,-2.78881695347687,0.,-4.15,      121P    154
-2.78881695347687,4.,-4.15,0.,0.4,0.,0.,0.;                          121P    155
126,1,1,0,0,1,0,0.,0.,0.4,0.4,1.,1.,2.78881695347687,0.,4.15,        123P    156
2.78881695347687,4.,4.15,0.,0.4,0.,0.,0.;                            123P    157
126,4,2,0,0,0,0,-1.9582153687367,-1.9582153687367,                   125P    158
-1.9582153687367,-0.979107684368352,-0.979107684368352,0.,0.,0.,     125P    159
1.,0.882542744204318,1.,0.882542744204316,1.,2.78881695347687,       125P    160
4.,4.15,5.,4.,2.66407595966642,5.,4.,-1.38777878078145D-15,5.,       125P    161
4.,-2.66407595966642,2.78881695347687,4.,-4.15,-1.9582153687367,     125P    162
0.,0.,0.,0.;                                                         125P    163
126,1,1,0,0,1,0,0.,0.,0.4,0.4,1.,1.,-2.78881695347687,0.,4.15,       127P    164
-2.78881695347687,4.,4.15,0.,0.4,0.,0.,0.;                           127P    165
126,1,1,0,0,1,0,0.,0.,0.557763390695374,0.557763390695374,1.,1.,     129P    166
-2.78881695347687,4.,4.15,2.78881695347687,4.,4.15,0.,               129P    167
0.557763390695374,0.,0.,0.;                                          129P    168
126,4,2,0,0,0,0,-1.95821536873671,-1.95821536873671,                 131P    169
-1.95821536873671,-0.979107684368353,-0.979107684368353,0.,0.,       131P    170
0.,1.,0.882542744204318,1.,0.882542744204318,1.,                     131P    171
-2.78881695347687,4.,-4.15,-5.,4.,-2.66407595966642,-5.,4.,          131P    172
-5.55111512312578D-16,-5.,4.,2.66407595966642,-2.78881695347687,     131P    173
4.,4.15,-1.95821536873671,0.,0.,0.,0.;                               131P    174
126,8,2,0,1,0,0,-3.14159265358979,-3.14159265358979,                 133P    175
-3.14159265358979,-1.5707963267949,-1.5707963267949,0.,0.,           133P    176
1.5707963267949,1.5707963267949,3.14159265358979,                    133P    177
3.14159265358979,3.14159265358979,1.,0.707106781186548,1.,           133P    178
0.707106781186548,1.,0.707106781186548,1.,0.707106781186548,1.,      133P    179
4.15124648740974D-16,24.,-3.38975,3.38975,24.,-3.38975,3.38975,      133P    180
24.,2.07562324370487D-16,3.38975,24.,3.38975,0.,24.,3.38975,         133P    181
-3.38975,24.,3.38975,-3.38975,24.,2.07562324370487D-16,-3.38975,     133P    182
24.,-3.38975,-4.15124648740974D-16,24.,-3.38975,                     133P    183
-3.14159265358979,3.14159265358979,0.,0.,0.;                         133P    184
126,1,1,0,0,1,0,-3.89380530973451,-3.89380530973451,                 135P    185
-1.23893805309734,-1.23893805309734,1.,1.,0.,24.,-3.38975,0.,        135P    186
15.,-3.38975,-3.89380530973451,-1.23893805309734,0.,0.,0.;           135P    187
126,8,2,0,1,0,0,-3.14159265358979,-3.14159265358979,                 137P    188
-3.14159265358979,-1.5707963267949,-1.5707963267949,0.,0.,           137P    189
1.5707963267949,1.5707963267949,3.14159265358979,                    137P    190
3.14159265358979,3.14159265358979,1.,0.707106781186548,1.,           137P    191
0.707106781186548,1.,0.707106781186548,1.,0.707106781186548,1.,      137P    192
-7.5,24.,9.18485099360515D-16,-7.5,24.,7.5,4.59242549680258D-16,     137P    193
24.,7.5,7.5,24.,7.5,7.5,24.,0.,7.5,24.,-7.5,                         137P    194
4.59242549680258D-16,24.,-7.5,-7.5,24.,-7.5,-7.5,24.,                137P    195
-9.18485099360515D-16,-3.14159265358979,3.14159265358979,0.,0.,      137P    196
0.;                                                                  137P    197
126,1,1,0,0,1,0,-3.2,-3.2,0.,0.,1.,1.,-7.5,24.,0.,-7.5,0.,0.,        139P    198
-3.2,0.,0.,0.,0.;                                                    139P    199
128,1,1,1,1,0,0,1,0,0,-0.00100000000000033,-0.00100000000000033,     141P    200
0.53951648071345,0.53951648071345,-0.001,-0.001,1.001,1.001,1.,      141P    201
1.,1.,1.,-2.70258240356725,-0.01,7.,2.70258240356725,-0.01,7.,       141P    202
-2.70258240356725,10.01,7.,2.70258240356725,10.01,7.,                141P    203
-0.00100000000000033,0.53951648071345,-0.001,1.001;                  141P    204
128,1,1,1,1,0,0,1,0,0,-0.270258240356725,-0.270258240356725,         143P    205
0.270258240356725,0.270258240356725,-0.0795714285714285,             143P    206
-0.0795714285714285,0.026,0.026,1.,1.,1.,1.,2.70258240356725,        143P    207
10.,8.04571428571429,-2.70258240356725,10.,8.04571428571429,         143P    208
2.70258240356725,10.,6.99,-2.70258240356725,10.,6.99,                143P    209
-0.270258240356725,0.270258240356725,-0.0795714285714285,0.026;      143P    210
128,1,1,1,1,0,0,1,0,0,-0.0010000000000005,-0.0010000000000005,       145P    211
0.53951648071345,0.53951648071345,-0.001,-0.001,1.001,1.001,1.,      145P    212
1.,1.,1.,2.70258240356725,-0.01,-7.,-2.70258240356725,-0.01,-7.,     145P    213
2.70258240356725,10.01,-7.,-2.70258240356725,10.01,-7.,              145P    214
-0.0010000000000005,0.53951648071345,-0.001,1.001;                   145P    215
128,1,1,1,1,0,0,1,0,0,-0.270258240356725,-0.270258240356725,         147P    216
0.270258240356725,0.270258240356725,-0.0259999999999999,             147P    217
-0.0259999999999999,0.0795714285714286,0.0795714285714286,1.,1.,     147P    218
1.,1.,2.70258240356725,10.,-6.99,-2.70258240356725,10.,-6.99,        147P    219
2.70258240356725,10.,-8.04571428571429,-2.70258240356725,10.,        147P    220
-8.04571428571428,-0.270258240356725,0.270258240356725,              147P    221
-0.0259999999999999,0.0795714285714286;                              147P    222
128,1,1,1,1,0,0,1,0,0,-0.751,-0.751,0.751,0.751,-0.701,-0.701,       149P    223
0.701,0.701,1.,1.,1.,1.,7.51,0.,7.01,-7.51,0.,7.01,7.51,0.,          149P    224
-7.01,-7.51,0.,-7.01,-0.751,0.751,-0.701,0.701;                      149P    225
128,1,8,1,2,0,1,0,0,1,0.,0.,2.77165354330709,2.77165354330709,       151P    226
-3.14159265358979,-3.14159265358979,-3.14159265358979,               151P    227
-1.5707963267949,-1.5707963267949,0.,0.,1.5707963267949,             151P    228
1.5707963267949,3.14159265358979,3.14159265358979,                   151P    229
3.14159265358979,1.,1.,0.707106781186548,0.707106781186548,1.,       151P    230
1.,0.707106781186548,0.707106781186548,1.,1.,0.707106781186548,      151P    231
0.707106781186548,1.,1.,0.707106781186548,0.707106781186548,1.,      151P    232
1.,-3.96875,4.,0.,-3.96875,15.,0.,-3.96875,4.,3.96875,-3.96875,      151P    233
15.,3.96875,0.,4.,3.96875,0.,15.,3.96875,3.96875,4.,3.96875,         151P    234
3.96875,15.,3.96875,3.96875,4.,0.,3.96875,15.,0.,3.96875,4.,         151P    235
-3.96875,3.96875,15.,-3.96875,0.,4.,-3.96875,0.,15.,-3.96875,        151P    236
-3.96875,4.,-3.96875,-3.96875,15.,-3.96875,-3.96875,4.,0.,           151P    237
-3.96875,15.,0.,0.,2.77165354330709,-3.14159265358979,               151P    238
3.14159265358979;                                                    151P    239
128,1,1,1,1,0,0,1,0,0,-0.397875,-0.397875,0.397875,0.397875,         153P    240
-0.397875,-0.397875,0.397875,0.397875,1.,1.,1.,1.,-3.97875,15.,      153P    241
-3.97875,3.97875,15.,-3.97875,-3.97875,15.,3.97875,3.97875,15.,      153P    242
3.97875,-0.397875,0.397875,-0.397875,0.397875;                       153P    243
128,1,1,1,1,0,0,1,0,0,-0.00100000000000006,-0.00100000000000006,     155P    244
0.558763390695374,0.558763390695374,-0.001,-0.001,0.401,0.401,       155P    245
1.,1.,1.,1.,-2.79881695347687,-0.01,-4.15,2.79881695347687,          155P    246
-0.01,-4.15,-2.79881695347687,4.01,-4.15,2.79881695347687,4.01,      155P    247
-4.15,-0.00100000000000006,0.558763390695374,-0.001,0.401;           155P    248
128,1,4,1,2,0,0,0,0,0,0.,0.,0.8,0.8,-1.9582153687367,                157P    249
-1.9582153687367,-1.9582153687367,-0.979107684368352,                157P    250
-0.979107684368352,0.,0.,0.,1.,1.,0.882542744204317,                 157P    251
0.882542744204317,1.,1.,0.882542744204317,0.882542744204317,1.,      157P    252
1.,2.78881695347687,0.,4.15,2.78881695347687,4.,4.15,5.,0.,          157P    253
2.66407595966642,5.,4.,2.66407595966642,5.,0.,                       157P    254
-1.38777878078145D-15,5.,4.,-1.38777878078145D-15,5.,0.,             157P    255
-2.66407595966642,5.,4.,-2.66407595966642,2.78881695347687,0.,       157P    256
-4.15,2.78881695347687,4.,-4.15,0.,0.8,-1.9582153687367,0.;          157P    257
128,1,1,1,1,0,0,1,0,0,-0.00100000000000006,-0.00100000000000006,     159P    258
0.558763390695374,0.558763390695374,-0.001,-0.001,0.401,0.401,       159P    259
1.,1.,1.,1.,2.79881695347687,-0.01,4.15,-2.79881695347687,-0.01,     159P    260
4.15,2.79881695347687,4.01,4.15,-2.79881695347687,4.01,4.15,         159P    261
-0.00100000000000006,0.558763390695374,-0.001,0.401;                 159P    262
128,1,4,1,2,0,0,0,0,0,0.,0.,0.8,0.8,-1.95821536873671,               161P    263
-1.95821536873671,-1.95821536873671,-0.979107684368352,              161P    264
-0.979107684368352,0.,0.,0.,1.,1.,0.882542744204317,                 161P    265
0.882542744204317,1.,1.,0.882542744204317,0.882542744204317,1.,      161P    266
1.,-2.78881695347687,0.,-4.15,-2.78881695347687,4.,-4.15,-5.,0.,     161P    267
-2.66407595966642,-5.,4.,-2.66407595966642,-5.,0.,                   161P    268
-5.55111512312578D-16,-5.,4.,-5.55111512312578D-16,-5.,0.,           161P    269
2.66407595966642,-5.,4.,2.66407595966642,-2.78881695347687,0.,       161P    270
4.15,-2.78881695347687,4.,4.15,0.,0.8,-1.95821536873671,0.;          161P    271
128,1,1,1,1,0,0,1,0,0,-0.501,-0.501,0.501,0.501,-0.416,-0.416,       163P    272
0.416,0.416,1.,1.,1.,1.,-5.01,4.,-4.16,5.01,4.,-4.16,-5.01,4.,       163P    273
4.16,5.01,4.,4.16,-0.501,0.501,-0.416,0.416;                         163P    274
128,1,8,1,2,0,1,0,0,1,-3.89380530973451,-3.89380530973451,           165P    275
-1.23893805309734,-1.23893805309734,-3.14159265358979,               165P    276
-3.14159265358979,-3.14159265358979,-1.5707963267949,                165P    277
-1.5707963267949,0.,0.,1.5707963267949,1.5707963267949,              165P    278
3.14159265358979,3.14159265358979,3.14159265358979,1.,1.,            165P    279
0.707106781186548,0.707106781186548,1.,1.,0.707106781186548,         165P    280
0.707106781186548,1.,1.,0.707106781186548,0.707106781186548,1.,      165P    281
1.,0.707106781186548,0.707106781186548,1.,1.,0.,24.,-3.38975,0.,     165P    282
15.,-3.38975,3.38975,24.,-3.38975,3.38975,15.,-3.38975,3.38975,      165P    283
24.,0.,3.38975,15.,0.,3.38975,24.,3.38975,3.38975,15.,3.38975,       165P    284
0.,24.,3.38975,0.,15.,3.38975,-3.38975,24.,3.38975,-3.38975,15.,     165P    285
3.38975,-3.38975,24.,0.,-3.38975,15.,0.,-3.38975,24.,-3.38975,       165P    286
-3.38975,15.,-3.38975,0.,24.,-3.38975,0.,15.,-3.38975,               165P    287
-3.89380530973451,-1.23893805309734,-3.14159265358979,               165P    288
3.14159265358979;                                                    165P    289
128,1,8,1,2,0,1,0,0,1,0.,0.,3.2,3.2,-3.14159265358979,               167P    290
-3.14159265358979,-3.14159265358979,-1.5707963267949,                167P    291
-1.5707963267949,0.,0.,1.5707963267949,1.5707963267949,              167P    292
3.14159265358979,3.14159265358979,3.14159265358979,1.,1.,            167P    293
0.707106781186548,0.707106781186548,1.,1.,0.707106781186548,         167P    294
0.707106781186548,1.,1.,0.707106781186548,0.707106781186548,1.,      167P    295
1.,0.707106781186548,0.707106781186548,1.,1.,-7.5,24.,0.,-7.5,       167P    296
0.,0.,-7.5,24.,7.5,-7.5,0.,7.5,0.,24.,7.5,0.,0.,7.5,7.5,24.,7.5,     167P    297
7.5,0.,7.5,7.5,24.,0.,7.5,0.,0.,7.5,24.,-7.5,7.5,0.,-7.5,0.,24.,     167P    298
-7.5,0.,0.,-7.5,-7.5,24.,-7.5,-7.5,0.,-7.5,-7.5,24.,0.,-7.5,0.,      167P    299
0.,0.,3.2,-3.14159265358979,3.14159265358979;                        167P    300
128,1,1,1,1,0,0,1,0,0,-0.751,-0.751,0.751,0.751,-0.751,-0.751,       169P    301
0.751,0.751,1.,1.,1.,1.,-7.51,24.,7.51,7.51,24.,7.51,-7.51,24.,      169P    302
-7.51,7.51,24.,-7.51,-0.751,0.751,-0.751,0.751;                      169P    303
502,23,2.69258240356725,0.,7.,-2.69258240356724,0.,7.,               171P    304
2.69258240356725,10.,7.,-2.69258240356724,10.,7.,                    171P    305
-2.69258240356725,0.,-7.,2.69258240356725,0.,-7.,                    171P    306
-2.69258240356725,10.,-7.,2.69258240356725,10.,-7.,-7.5,0.,0.,       171P    307
2.78881695347687,0.,-4.15,-2.78881695347687,0.,-4.15,                171P    308
-2.78881695347687,0.,4.15,2.78881695347687,0.,4.15,-3.96875,4.,      171P    309
-4.86031698411606D-16,-3.96875,15.,-4.86031698411606D-16,            171P    310
-3.38975,15.,-4.15124648740974D-16,0.,15.,-3.38975,                  171P    311
2.78881695347687,4.,-4.15,-2.78881695347687,4.,-4.15,                171P    312
2.78881695347687,4.,4.15,-2.78881695347687,4.,4.15,                  171P    313
4.15124648740974D-16,24.,-3.38975,-7.5,24.,9.18485099360515D-16;     171P    314
504,34,73,171,1,171,2,75,171,3,171,1,77,171,3,171,4,79,171,2,        173P    315
171,4,81,171,4,171,3,83,171,5,171,6,85,171,7,171,5,87,171,7,171,     173P    316
8,89,171,6,171,8,91,171,8,171,7,93,171,9,171,2,95,171,5,171,9,       173P    317
97,171,1,171,6,99,171,10,171,11,101,171,11,171,12,103,171,12,        173P    318
171,13,105,171,13,171,10,107,171,14,171,14,109,171,14,171,15,        173P    319
111,171,15,171,15,113,171,16,171,17,115,171,17,171,16,117,171,       173P    320
10,171,18,119,171,18,171,19,121,171,11,171,19,123,171,13,171,20,     173P    321
125,171,20,171,18,127,171,12,171,21,129,171,21,171,20,131,171,       173P    322
19,171,21,133,171,22,171,22,135,171,22,171,17,137,171,23,171,23,     173P    323
139,171,23,171,9;                                                    173P    324
406,1,5HBody1;                                                       175P    325
314,62.7450980392157,62.7450980392157,62.7450980392157,13HSteel      177P    326
- Satin;                                                             177P    327
S      1G      3D    178P    327                                        T      1
