G04 #@! TF.GenerationSoftware,KiCad,Pcbnew,(5.1.5)-3*
G04 #@! TF.CreationDate,2020-08-07T20:28:23-04:00*
G04 #@! TF.ProjectId,Ebike Board,4562696b-6520-4426-9f61-72642e6b6963,rev?*
G04 #@! TF.SameCoordinates,Original*
G04 #@! TF.FileFunction,Copper,L2,Bot*
G04 #@! TF.FilePolarity,Positive*
%FSLAX46Y46*%
G04 Gerber Fmt 4.6, Leading zero omitted, Abs format (unit mm)*
G04 Created by KiCad (PCBNEW (5.1.5)-3) date 2020-08-07 20:28:23*
%MOMM*%
%LPD*%
G04 APERTURE LIST*
%ADD10C,0.050000*%
%ADD11O,1.950000X1.700000*%
%ADD12C,0.100000*%
%ADD13C,2.400000*%
%ADD14O,1.700000X1.950000*%
%ADD15C,2.000000*%
%ADD16O,2.000000X1.700000*%
%ADD17O,1.700000X1.700000*%
%ADD18R,1.700000X1.700000*%
%ADD19O,3.200000X3.200000*%
%ADD20R,3.200000X3.200000*%
%ADD21R,2.000000X2.000000*%
%ADD22C,1.600000*%
%ADD23R,1.600000X1.600000*%
%ADD24C,1.500000*%
%ADD25C,0.250000*%
G04 APERTURE END LIST*
D10*
X111000000Y-157100000D02*
X111000000Y-69700000D01*
X160500000Y-157100000D02*
X111000000Y-157100000D01*
X160500000Y-69700000D02*
X160500000Y-157100000D01*
X111000000Y-69700000D02*
X160500000Y-69700000D01*
D11*
X115400000Y-92900000D03*
X115400000Y-95400000D03*
X115400000Y-97900000D03*
G04 #@! TA.AperFunction,ComponentPad*
D12*
G36*
X116149504Y-99551204D02*
G01*
X116173773Y-99554804D01*
X116197571Y-99560765D01*
X116220671Y-99569030D01*
X116242849Y-99579520D01*
X116263893Y-99592133D01*
X116283598Y-99606747D01*
X116301777Y-99623223D01*
X116318253Y-99641402D01*
X116332867Y-99661107D01*
X116345480Y-99682151D01*
X116355970Y-99704329D01*
X116364235Y-99727429D01*
X116370196Y-99751227D01*
X116373796Y-99775496D01*
X116375000Y-99800000D01*
X116375000Y-101000000D01*
X116373796Y-101024504D01*
X116370196Y-101048773D01*
X116364235Y-101072571D01*
X116355970Y-101095671D01*
X116345480Y-101117849D01*
X116332867Y-101138893D01*
X116318253Y-101158598D01*
X116301777Y-101176777D01*
X116283598Y-101193253D01*
X116263893Y-101207867D01*
X116242849Y-101220480D01*
X116220671Y-101230970D01*
X116197571Y-101239235D01*
X116173773Y-101245196D01*
X116149504Y-101248796D01*
X116125000Y-101250000D01*
X114675000Y-101250000D01*
X114650496Y-101248796D01*
X114626227Y-101245196D01*
X114602429Y-101239235D01*
X114579329Y-101230970D01*
X114557151Y-101220480D01*
X114536107Y-101207867D01*
X114516402Y-101193253D01*
X114498223Y-101176777D01*
X114481747Y-101158598D01*
X114467133Y-101138893D01*
X114454520Y-101117849D01*
X114444030Y-101095671D01*
X114435765Y-101072571D01*
X114429804Y-101048773D01*
X114426204Y-101024504D01*
X114425000Y-101000000D01*
X114425000Y-99800000D01*
X114426204Y-99775496D01*
X114429804Y-99751227D01*
X114435765Y-99727429D01*
X114444030Y-99704329D01*
X114454520Y-99682151D01*
X114467133Y-99661107D01*
X114481747Y-99641402D01*
X114498223Y-99623223D01*
X114516402Y-99606747D01*
X114536107Y-99592133D01*
X114557151Y-99579520D01*
X114579329Y-99569030D01*
X114602429Y-99560765D01*
X114626227Y-99554804D01*
X114650496Y-99551204D01*
X114675000Y-99550000D01*
X116125000Y-99550000D01*
X116149504Y-99551204D01*
G37*
G04 #@! TD.AperFunction*
D13*
X142860000Y-148590000D03*
X149860000Y-148590000D03*
G04 #@! TA.AperFunction,ComponentPad*
D12*
G36*
X132829504Y-112181204D02*
G01*
X132853773Y-112184804D01*
X132877571Y-112190765D01*
X132900671Y-112199030D01*
X132922849Y-112209520D01*
X132943893Y-112222133D01*
X132963598Y-112236747D01*
X132981777Y-112253223D01*
X132998253Y-112271402D01*
X133012867Y-112291107D01*
X133025480Y-112312151D01*
X133035970Y-112334329D01*
X133044235Y-112357429D01*
X133050196Y-112381227D01*
X133053796Y-112405496D01*
X133055000Y-112430000D01*
X133055000Y-113630000D01*
X133053796Y-113654504D01*
X133050196Y-113678773D01*
X133044235Y-113702571D01*
X133035970Y-113725671D01*
X133025480Y-113747849D01*
X133012867Y-113768893D01*
X132998253Y-113788598D01*
X132981777Y-113806777D01*
X132963598Y-113823253D01*
X132943893Y-113837867D01*
X132922849Y-113850480D01*
X132900671Y-113860970D01*
X132877571Y-113869235D01*
X132853773Y-113875196D01*
X132829504Y-113878796D01*
X132805000Y-113880000D01*
X131355000Y-113880000D01*
X131330496Y-113878796D01*
X131306227Y-113875196D01*
X131282429Y-113869235D01*
X131259329Y-113860970D01*
X131237151Y-113850480D01*
X131216107Y-113837867D01*
X131196402Y-113823253D01*
X131178223Y-113806777D01*
X131161747Y-113788598D01*
X131147133Y-113768893D01*
X131134520Y-113747849D01*
X131124030Y-113725671D01*
X131115765Y-113702571D01*
X131109804Y-113678773D01*
X131106204Y-113654504D01*
X131105000Y-113630000D01*
X131105000Y-112430000D01*
X131106204Y-112405496D01*
X131109804Y-112381227D01*
X131115765Y-112357429D01*
X131124030Y-112334329D01*
X131134520Y-112312151D01*
X131147133Y-112291107D01*
X131161747Y-112271402D01*
X131178223Y-112253223D01*
X131196402Y-112236747D01*
X131216107Y-112222133D01*
X131237151Y-112209520D01*
X131259329Y-112199030D01*
X131282429Y-112190765D01*
X131306227Y-112184804D01*
X131330496Y-112181204D01*
X131355000Y-112180000D01*
X132805000Y-112180000D01*
X132829504Y-112181204D01*
G37*
G04 #@! TD.AperFunction*
D11*
X132080000Y-115530000D03*
X132080000Y-118030000D03*
X132080000Y-120530000D03*
X132080000Y-123030000D03*
G04 #@! TA.AperFunction,SMDPad,CuDef*
D12*
G36*
X132211504Y-81626204D02*
G01*
X132235773Y-81629804D01*
X132259571Y-81635765D01*
X132282671Y-81644030D01*
X132304849Y-81654520D01*
X132325893Y-81667133D01*
X132345598Y-81681747D01*
X132363777Y-81698223D01*
X132380253Y-81716402D01*
X132394867Y-81736107D01*
X132407480Y-81757151D01*
X132417970Y-81779329D01*
X132426235Y-81802429D01*
X132432196Y-81826227D01*
X132435796Y-81850496D01*
X132437000Y-81875000D01*
X132437000Y-83125000D01*
X132435796Y-83149504D01*
X132432196Y-83173773D01*
X132426235Y-83197571D01*
X132417970Y-83220671D01*
X132407480Y-83242849D01*
X132394867Y-83263893D01*
X132380253Y-83283598D01*
X132363777Y-83301777D01*
X132345598Y-83318253D01*
X132325893Y-83332867D01*
X132304849Y-83345480D01*
X132282671Y-83355970D01*
X132259571Y-83364235D01*
X132235773Y-83370196D01*
X132211504Y-83373796D01*
X132187000Y-83375000D01*
X131262000Y-83375000D01*
X131237496Y-83373796D01*
X131213227Y-83370196D01*
X131189429Y-83364235D01*
X131166329Y-83355970D01*
X131144151Y-83345480D01*
X131123107Y-83332867D01*
X131103402Y-83318253D01*
X131085223Y-83301777D01*
X131068747Y-83283598D01*
X131054133Y-83263893D01*
X131041520Y-83242849D01*
X131031030Y-83220671D01*
X131022765Y-83197571D01*
X131016804Y-83173773D01*
X131013204Y-83149504D01*
X131012000Y-83125000D01*
X131012000Y-81875000D01*
X131013204Y-81850496D01*
X131016804Y-81826227D01*
X131022765Y-81802429D01*
X131031030Y-81779329D01*
X131041520Y-81757151D01*
X131054133Y-81736107D01*
X131068747Y-81716402D01*
X131085223Y-81698223D01*
X131103402Y-81681747D01*
X131123107Y-81667133D01*
X131144151Y-81654520D01*
X131166329Y-81644030D01*
X131189429Y-81635765D01*
X131213227Y-81629804D01*
X131237496Y-81626204D01*
X131262000Y-81625000D01*
X132187000Y-81625000D01*
X132211504Y-81626204D01*
G37*
G04 #@! TD.AperFunction*
G04 #@! TA.AperFunction,SMDPad,CuDef*
G36*
X135186504Y-81626204D02*
G01*
X135210773Y-81629804D01*
X135234571Y-81635765D01*
X135257671Y-81644030D01*
X135279849Y-81654520D01*
X135300893Y-81667133D01*
X135320598Y-81681747D01*
X135338777Y-81698223D01*
X135355253Y-81716402D01*
X135369867Y-81736107D01*
X135382480Y-81757151D01*
X135392970Y-81779329D01*
X135401235Y-81802429D01*
X135407196Y-81826227D01*
X135410796Y-81850496D01*
X135412000Y-81875000D01*
X135412000Y-83125000D01*
X135410796Y-83149504D01*
X135407196Y-83173773D01*
X135401235Y-83197571D01*
X135392970Y-83220671D01*
X135382480Y-83242849D01*
X135369867Y-83263893D01*
X135355253Y-83283598D01*
X135338777Y-83301777D01*
X135320598Y-83318253D01*
X135300893Y-83332867D01*
X135279849Y-83345480D01*
X135257671Y-83355970D01*
X135234571Y-83364235D01*
X135210773Y-83370196D01*
X135186504Y-83373796D01*
X135162000Y-83375000D01*
X134237000Y-83375000D01*
X134212496Y-83373796D01*
X134188227Y-83370196D01*
X134164429Y-83364235D01*
X134141329Y-83355970D01*
X134119151Y-83345480D01*
X134098107Y-83332867D01*
X134078402Y-83318253D01*
X134060223Y-83301777D01*
X134043747Y-83283598D01*
X134029133Y-83263893D01*
X134016520Y-83242849D01*
X134006030Y-83220671D01*
X133997765Y-83197571D01*
X133991804Y-83173773D01*
X133988204Y-83149504D01*
X133987000Y-83125000D01*
X133987000Y-81875000D01*
X133988204Y-81850496D01*
X133991804Y-81826227D01*
X133997765Y-81802429D01*
X134006030Y-81779329D01*
X134016520Y-81757151D01*
X134029133Y-81736107D01*
X134043747Y-81716402D01*
X134060223Y-81698223D01*
X134078402Y-81681747D01*
X134098107Y-81667133D01*
X134119151Y-81654520D01*
X134141329Y-81644030D01*
X134164429Y-81635765D01*
X134188227Y-81629804D01*
X134212496Y-81626204D01*
X134237000Y-81625000D01*
X135162000Y-81625000D01*
X135186504Y-81626204D01*
G37*
G04 #@! TD.AperFunction*
G04 #@! TA.AperFunction,ComponentPad*
G36*
X154419504Y-122341204D02*
G01*
X154443773Y-122344804D01*
X154467571Y-122350765D01*
X154490671Y-122359030D01*
X154512849Y-122369520D01*
X154533893Y-122382133D01*
X154553598Y-122396747D01*
X154571777Y-122413223D01*
X154588253Y-122431402D01*
X154602867Y-122451107D01*
X154615480Y-122472151D01*
X154625970Y-122494329D01*
X154634235Y-122517429D01*
X154640196Y-122541227D01*
X154643796Y-122565496D01*
X154645000Y-122590000D01*
X154645000Y-123790000D01*
X154643796Y-123814504D01*
X154640196Y-123838773D01*
X154634235Y-123862571D01*
X154625970Y-123885671D01*
X154615480Y-123907849D01*
X154602867Y-123928893D01*
X154588253Y-123948598D01*
X154571777Y-123966777D01*
X154553598Y-123983253D01*
X154533893Y-123997867D01*
X154512849Y-124010480D01*
X154490671Y-124020970D01*
X154467571Y-124029235D01*
X154443773Y-124035196D01*
X154419504Y-124038796D01*
X154395000Y-124040000D01*
X152945000Y-124040000D01*
X152920496Y-124038796D01*
X152896227Y-124035196D01*
X152872429Y-124029235D01*
X152849329Y-124020970D01*
X152827151Y-124010480D01*
X152806107Y-123997867D01*
X152786402Y-123983253D01*
X152768223Y-123966777D01*
X152751747Y-123948598D01*
X152737133Y-123928893D01*
X152724520Y-123907849D01*
X152714030Y-123885671D01*
X152705765Y-123862571D01*
X152699804Y-123838773D01*
X152696204Y-123814504D01*
X152695000Y-123790000D01*
X152695000Y-122590000D01*
X152696204Y-122565496D01*
X152699804Y-122541227D01*
X152705765Y-122517429D01*
X152714030Y-122494329D01*
X152724520Y-122472151D01*
X152737133Y-122451107D01*
X152751747Y-122431402D01*
X152768223Y-122413223D01*
X152786402Y-122396747D01*
X152806107Y-122382133D01*
X152827151Y-122369520D01*
X152849329Y-122359030D01*
X152872429Y-122350765D01*
X152896227Y-122344804D01*
X152920496Y-122341204D01*
X152945000Y-122340000D01*
X154395000Y-122340000D01*
X154419504Y-122341204D01*
G37*
G04 #@! TD.AperFunction*
D11*
X153670000Y-120690000D03*
X153670000Y-118190000D03*
X153670000Y-115690000D03*
X153670000Y-113190000D03*
G04 #@! TA.AperFunction,ComponentPad*
D12*
G36*
X142989504Y-122341204D02*
G01*
X143013773Y-122344804D01*
X143037571Y-122350765D01*
X143060671Y-122359030D01*
X143082849Y-122369520D01*
X143103893Y-122382133D01*
X143123598Y-122396747D01*
X143141777Y-122413223D01*
X143158253Y-122431402D01*
X143172867Y-122451107D01*
X143185480Y-122472151D01*
X143195970Y-122494329D01*
X143204235Y-122517429D01*
X143210196Y-122541227D01*
X143213796Y-122565496D01*
X143215000Y-122590000D01*
X143215000Y-123790000D01*
X143213796Y-123814504D01*
X143210196Y-123838773D01*
X143204235Y-123862571D01*
X143195970Y-123885671D01*
X143185480Y-123907849D01*
X143172867Y-123928893D01*
X143158253Y-123948598D01*
X143141777Y-123966777D01*
X143123598Y-123983253D01*
X143103893Y-123997867D01*
X143082849Y-124010480D01*
X143060671Y-124020970D01*
X143037571Y-124029235D01*
X143013773Y-124035196D01*
X142989504Y-124038796D01*
X142965000Y-124040000D01*
X141515000Y-124040000D01*
X141490496Y-124038796D01*
X141466227Y-124035196D01*
X141442429Y-124029235D01*
X141419329Y-124020970D01*
X141397151Y-124010480D01*
X141376107Y-123997867D01*
X141356402Y-123983253D01*
X141338223Y-123966777D01*
X141321747Y-123948598D01*
X141307133Y-123928893D01*
X141294520Y-123907849D01*
X141284030Y-123885671D01*
X141275765Y-123862571D01*
X141269804Y-123838773D01*
X141266204Y-123814504D01*
X141265000Y-123790000D01*
X141265000Y-122590000D01*
X141266204Y-122565496D01*
X141269804Y-122541227D01*
X141275765Y-122517429D01*
X141284030Y-122494329D01*
X141294520Y-122472151D01*
X141307133Y-122451107D01*
X141321747Y-122431402D01*
X141338223Y-122413223D01*
X141356402Y-122396747D01*
X141376107Y-122382133D01*
X141397151Y-122369520D01*
X141419329Y-122359030D01*
X141442429Y-122350765D01*
X141466227Y-122344804D01*
X141490496Y-122341204D01*
X141515000Y-122340000D01*
X142965000Y-122340000D01*
X142989504Y-122341204D01*
G37*
G04 #@! TD.AperFunction*
D11*
X142240000Y-120690000D03*
X142240000Y-118190000D03*
X142240000Y-115690000D03*
X142240000Y-113190000D03*
G04 #@! TA.AperFunction,ComponentPad*
D12*
G36*
X152114504Y-104526204D02*
G01*
X152138773Y-104529804D01*
X152162571Y-104535765D01*
X152185671Y-104544030D01*
X152207849Y-104554520D01*
X152228893Y-104567133D01*
X152248598Y-104581747D01*
X152266777Y-104598223D01*
X152283253Y-104616402D01*
X152297867Y-104636107D01*
X152310480Y-104657151D01*
X152320970Y-104679329D01*
X152329235Y-104702429D01*
X152335196Y-104726227D01*
X152338796Y-104750496D01*
X152340000Y-104775000D01*
X152340000Y-106225000D01*
X152338796Y-106249504D01*
X152335196Y-106273773D01*
X152329235Y-106297571D01*
X152320970Y-106320671D01*
X152310480Y-106342849D01*
X152297867Y-106363893D01*
X152283253Y-106383598D01*
X152266777Y-106401777D01*
X152248598Y-106418253D01*
X152228893Y-106432867D01*
X152207849Y-106445480D01*
X152185671Y-106455970D01*
X152162571Y-106464235D01*
X152138773Y-106470196D01*
X152114504Y-106473796D01*
X152090000Y-106475000D01*
X150890000Y-106475000D01*
X150865496Y-106473796D01*
X150841227Y-106470196D01*
X150817429Y-106464235D01*
X150794329Y-106455970D01*
X150772151Y-106445480D01*
X150751107Y-106432867D01*
X150731402Y-106418253D01*
X150713223Y-106401777D01*
X150696747Y-106383598D01*
X150682133Y-106363893D01*
X150669520Y-106342849D01*
X150659030Y-106320671D01*
X150650765Y-106297571D01*
X150644804Y-106273773D01*
X150641204Y-106249504D01*
X150640000Y-106225000D01*
X150640000Y-104775000D01*
X150641204Y-104750496D01*
X150644804Y-104726227D01*
X150650765Y-104702429D01*
X150659030Y-104679329D01*
X150669520Y-104657151D01*
X150682133Y-104636107D01*
X150696747Y-104616402D01*
X150713223Y-104598223D01*
X150731402Y-104581747D01*
X150751107Y-104567133D01*
X150772151Y-104554520D01*
X150794329Y-104544030D01*
X150817429Y-104535765D01*
X150841227Y-104529804D01*
X150865496Y-104526204D01*
X150890000Y-104525000D01*
X152090000Y-104525000D01*
X152114504Y-104526204D01*
G37*
G04 #@! TD.AperFunction*
D14*
X148990000Y-105500000D03*
X146490000Y-105500000D03*
X143990000Y-105500000D03*
G04 #@! TA.AperFunction,ComponentPad*
D12*
G36*
X123249504Y-77751204D02*
G01*
X123273773Y-77754804D01*
X123297571Y-77760765D01*
X123320671Y-77769030D01*
X123342849Y-77779520D01*
X123363893Y-77792133D01*
X123383598Y-77806747D01*
X123401777Y-77823223D01*
X123418253Y-77841402D01*
X123432867Y-77861107D01*
X123445480Y-77882151D01*
X123455970Y-77904329D01*
X123464235Y-77927429D01*
X123470196Y-77951227D01*
X123473796Y-77975496D01*
X123475000Y-78000000D01*
X123475000Y-79200000D01*
X123473796Y-79224504D01*
X123470196Y-79248773D01*
X123464235Y-79272571D01*
X123455970Y-79295671D01*
X123445480Y-79317849D01*
X123432867Y-79338893D01*
X123418253Y-79358598D01*
X123401777Y-79376777D01*
X123383598Y-79393253D01*
X123363893Y-79407867D01*
X123342849Y-79420480D01*
X123320671Y-79430970D01*
X123297571Y-79439235D01*
X123273773Y-79445196D01*
X123249504Y-79448796D01*
X123225000Y-79450000D01*
X121775000Y-79450000D01*
X121750496Y-79448796D01*
X121726227Y-79445196D01*
X121702429Y-79439235D01*
X121679329Y-79430970D01*
X121657151Y-79420480D01*
X121636107Y-79407867D01*
X121616402Y-79393253D01*
X121598223Y-79376777D01*
X121581747Y-79358598D01*
X121567133Y-79338893D01*
X121554520Y-79317849D01*
X121544030Y-79295671D01*
X121535765Y-79272571D01*
X121529804Y-79248773D01*
X121526204Y-79224504D01*
X121525000Y-79200000D01*
X121525000Y-78000000D01*
X121526204Y-77975496D01*
X121529804Y-77951227D01*
X121535765Y-77927429D01*
X121544030Y-77904329D01*
X121554520Y-77882151D01*
X121567133Y-77861107D01*
X121581747Y-77841402D01*
X121598223Y-77823223D01*
X121616402Y-77806747D01*
X121636107Y-77792133D01*
X121657151Y-77779520D01*
X121679329Y-77769030D01*
X121702429Y-77760765D01*
X121726227Y-77754804D01*
X121750496Y-77751204D01*
X121775000Y-77750000D01*
X123225000Y-77750000D01*
X123249504Y-77751204D01*
G37*
G04 #@! TD.AperFunction*
D11*
X122500000Y-76100000D03*
X122500000Y-73600000D03*
D15*
X113700000Y-79800000D03*
X118200000Y-79800000D03*
X113700000Y-86300000D03*
X118200000Y-86300000D03*
G04 #@! TA.AperFunction,SMDPad,CuDef*
D12*
G36*
X146919703Y-132125722D02*
G01*
X146934264Y-132127882D01*
X146948543Y-132131459D01*
X146962403Y-132136418D01*
X146975710Y-132142712D01*
X146988336Y-132150280D01*
X147000159Y-132159048D01*
X147011066Y-132168934D01*
X147020952Y-132179841D01*
X147029720Y-132191664D01*
X147037288Y-132204290D01*
X147043582Y-132217597D01*
X147048541Y-132231457D01*
X147052118Y-132245736D01*
X147054278Y-132260297D01*
X147055000Y-132275000D01*
X147055000Y-134025000D01*
X147054278Y-134039703D01*
X147052118Y-134054264D01*
X147048541Y-134068543D01*
X147043582Y-134082403D01*
X147037288Y-134095710D01*
X147029720Y-134108336D01*
X147020952Y-134120159D01*
X147011066Y-134131066D01*
X147000159Y-134140952D01*
X146988336Y-134149720D01*
X146975710Y-134157288D01*
X146962403Y-134163582D01*
X146948543Y-134168541D01*
X146934264Y-134172118D01*
X146919703Y-134174278D01*
X146905000Y-134175000D01*
X146605000Y-134175000D01*
X146590297Y-134174278D01*
X146575736Y-134172118D01*
X146561457Y-134168541D01*
X146547597Y-134163582D01*
X146534290Y-134157288D01*
X146521664Y-134149720D01*
X146509841Y-134140952D01*
X146498934Y-134131066D01*
X146489048Y-134120159D01*
X146480280Y-134108336D01*
X146472712Y-134095710D01*
X146466418Y-134082403D01*
X146461459Y-134068543D01*
X146457882Y-134054264D01*
X146455722Y-134039703D01*
X146455000Y-134025000D01*
X146455000Y-132275000D01*
X146455722Y-132260297D01*
X146457882Y-132245736D01*
X146461459Y-132231457D01*
X146466418Y-132217597D01*
X146472712Y-132204290D01*
X146480280Y-132191664D01*
X146489048Y-132179841D01*
X146498934Y-132168934D01*
X146509841Y-132159048D01*
X146521664Y-132150280D01*
X146534290Y-132142712D01*
X146547597Y-132136418D01*
X146561457Y-132131459D01*
X146575736Y-132127882D01*
X146590297Y-132125722D01*
X146605000Y-132125000D01*
X146905000Y-132125000D01*
X146919703Y-132125722D01*
G37*
G04 #@! TD.AperFunction*
G04 #@! TA.AperFunction,SMDPad,CuDef*
G36*
X145649703Y-132125722D02*
G01*
X145664264Y-132127882D01*
X145678543Y-132131459D01*
X145692403Y-132136418D01*
X145705710Y-132142712D01*
X145718336Y-132150280D01*
X145730159Y-132159048D01*
X145741066Y-132168934D01*
X145750952Y-132179841D01*
X145759720Y-132191664D01*
X145767288Y-132204290D01*
X145773582Y-132217597D01*
X145778541Y-132231457D01*
X145782118Y-132245736D01*
X145784278Y-132260297D01*
X145785000Y-132275000D01*
X145785000Y-134025000D01*
X145784278Y-134039703D01*
X145782118Y-134054264D01*
X145778541Y-134068543D01*
X145773582Y-134082403D01*
X145767288Y-134095710D01*
X145759720Y-134108336D01*
X145750952Y-134120159D01*
X145741066Y-134131066D01*
X145730159Y-134140952D01*
X145718336Y-134149720D01*
X145705710Y-134157288D01*
X145692403Y-134163582D01*
X145678543Y-134168541D01*
X145664264Y-134172118D01*
X145649703Y-134174278D01*
X145635000Y-134175000D01*
X145335000Y-134175000D01*
X145320297Y-134174278D01*
X145305736Y-134172118D01*
X145291457Y-134168541D01*
X145277597Y-134163582D01*
X145264290Y-134157288D01*
X145251664Y-134149720D01*
X145239841Y-134140952D01*
X145228934Y-134131066D01*
X145219048Y-134120159D01*
X145210280Y-134108336D01*
X145202712Y-134095710D01*
X145196418Y-134082403D01*
X145191459Y-134068543D01*
X145187882Y-134054264D01*
X145185722Y-134039703D01*
X145185000Y-134025000D01*
X145185000Y-132275000D01*
X145185722Y-132260297D01*
X145187882Y-132245736D01*
X145191459Y-132231457D01*
X145196418Y-132217597D01*
X145202712Y-132204290D01*
X145210280Y-132191664D01*
X145219048Y-132179841D01*
X145228934Y-132168934D01*
X145239841Y-132159048D01*
X145251664Y-132150280D01*
X145264290Y-132142712D01*
X145277597Y-132136418D01*
X145291457Y-132131459D01*
X145305736Y-132127882D01*
X145320297Y-132125722D01*
X145335000Y-132125000D01*
X145635000Y-132125000D01*
X145649703Y-132125722D01*
G37*
G04 #@! TD.AperFunction*
G04 #@! TA.AperFunction,SMDPad,CuDef*
G36*
X144379703Y-132125722D02*
G01*
X144394264Y-132127882D01*
X144408543Y-132131459D01*
X144422403Y-132136418D01*
X144435710Y-132142712D01*
X144448336Y-132150280D01*
X144460159Y-132159048D01*
X144471066Y-132168934D01*
X144480952Y-132179841D01*
X144489720Y-132191664D01*
X144497288Y-132204290D01*
X144503582Y-132217597D01*
X144508541Y-132231457D01*
X144512118Y-132245736D01*
X144514278Y-132260297D01*
X144515000Y-132275000D01*
X144515000Y-134025000D01*
X144514278Y-134039703D01*
X144512118Y-134054264D01*
X144508541Y-134068543D01*
X144503582Y-134082403D01*
X144497288Y-134095710D01*
X144489720Y-134108336D01*
X144480952Y-134120159D01*
X144471066Y-134131066D01*
X144460159Y-134140952D01*
X144448336Y-134149720D01*
X144435710Y-134157288D01*
X144422403Y-134163582D01*
X144408543Y-134168541D01*
X144394264Y-134172118D01*
X144379703Y-134174278D01*
X144365000Y-134175000D01*
X144065000Y-134175000D01*
X144050297Y-134174278D01*
X144035736Y-134172118D01*
X144021457Y-134168541D01*
X144007597Y-134163582D01*
X143994290Y-134157288D01*
X143981664Y-134149720D01*
X143969841Y-134140952D01*
X143958934Y-134131066D01*
X143949048Y-134120159D01*
X143940280Y-134108336D01*
X143932712Y-134095710D01*
X143926418Y-134082403D01*
X143921459Y-134068543D01*
X143917882Y-134054264D01*
X143915722Y-134039703D01*
X143915000Y-134025000D01*
X143915000Y-132275000D01*
X143915722Y-132260297D01*
X143917882Y-132245736D01*
X143921459Y-132231457D01*
X143926418Y-132217597D01*
X143932712Y-132204290D01*
X143940280Y-132191664D01*
X143949048Y-132179841D01*
X143958934Y-132168934D01*
X143969841Y-132159048D01*
X143981664Y-132150280D01*
X143994290Y-132142712D01*
X144007597Y-132136418D01*
X144021457Y-132131459D01*
X144035736Y-132127882D01*
X144050297Y-132125722D01*
X144065000Y-132125000D01*
X144365000Y-132125000D01*
X144379703Y-132125722D01*
G37*
G04 #@! TD.AperFunction*
G04 #@! TA.AperFunction,SMDPad,CuDef*
G36*
X143109703Y-132125722D02*
G01*
X143124264Y-132127882D01*
X143138543Y-132131459D01*
X143152403Y-132136418D01*
X143165710Y-132142712D01*
X143178336Y-132150280D01*
X143190159Y-132159048D01*
X143201066Y-132168934D01*
X143210952Y-132179841D01*
X143219720Y-132191664D01*
X143227288Y-132204290D01*
X143233582Y-132217597D01*
X143238541Y-132231457D01*
X143242118Y-132245736D01*
X143244278Y-132260297D01*
X143245000Y-132275000D01*
X143245000Y-134025000D01*
X143244278Y-134039703D01*
X143242118Y-134054264D01*
X143238541Y-134068543D01*
X143233582Y-134082403D01*
X143227288Y-134095710D01*
X143219720Y-134108336D01*
X143210952Y-134120159D01*
X143201066Y-134131066D01*
X143190159Y-134140952D01*
X143178336Y-134149720D01*
X143165710Y-134157288D01*
X143152403Y-134163582D01*
X143138543Y-134168541D01*
X143124264Y-134172118D01*
X143109703Y-134174278D01*
X143095000Y-134175000D01*
X142795000Y-134175000D01*
X142780297Y-134174278D01*
X142765736Y-134172118D01*
X142751457Y-134168541D01*
X142737597Y-134163582D01*
X142724290Y-134157288D01*
X142711664Y-134149720D01*
X142699841Y-134140952D01*
X142688934Y-134131066D01*
X142679048Y-134120159D01*
X142670280Y-134108336D01*
X142662712Y-134095710D01*
X142656418Y-134082403D01*
X142651459Y-134068543D01*
X142647882Y-134054264D01*
X142645722Y-134039703D01*
X142645000Y-134025000D01*
X142645000Y-132275000D01*
X142645722Y-132260297D01*
X142647882Y-132245736D01*
X142651459Y-132231457D01*
X142656418Y-132217597D01*
X142662712Y-132204290D01*
X142670280Y-132191664D01*
X142679048Y-132179841D01*
X142688934Y-132168934D01*
X142699841Y-132159048D01*
X142711664Y-132150280D01*
X142724290Y-132142712D01*
X142737597Y-132136418D01*
X142751457Y-132131459D01*
X142765736Y-132127882D01*
X142780297Y-132125722D01*
X142795000Y-132125000D01*
X143095000Y-132125000D01*
X143109703Y-132125722D01*
G37*
G04 #@! TD.AperFunction*
G04 #@! TA.AperFunction,SMDPad,CuDef*
G36*
X141839703Y-132125722D02*
G01*
X141854264Y-132127882D01*
X141868543Y-132131459D01*
X141882403Y-132136418D01*
X141895710Y-132142712D01*
X141908336Y-132150280D01*
X141920159Y-132159048D01*
X141931066Y-132168934D01*
X141940952Y-132179841D01*
X141949720Y-132191664D01*
X141957288Y-132204290D01*
X141963582Y-132217597D01*
X141968541Y-132231457D01*
X141972118Y-132245736D01*
X141974278Y-132260297D01*
X141975000Y-132275000D01*
X141975000Y-134025000D01*
X141974278Y-134039703D01*
X141972118Y-134054264D01*
X141968541Y-134068543D01*
X141963582Y-134082403D01*
X141957288Y-134095710D01*
X141949720Y-134108336D01*
X141940952Y-134120159D01*
X141931066Y-134131066D01*
X141920159Y-134140952D01*
X141908336Y-134149720D01*
X141895710Y-134157288D01*
X141882403Y-134163582D01*
X141868543Y-134168541D01*
X141854264Y-134172118D01*
X141839703Y-134174278D01*
X141825000Y-134175000D01*
X141525000Y-134175000D01*
X141510297Y-134174278D01*
X141495736Y-134172118D01*
X141481457Y-134168541D01*
X141467597Y-134163582D01*
X141454290Y-134157288D01*
X141441664Y-134149720D01*
X141429841Y-134140952D01*
X141418934Y-134131066D01*
X141409048Y-134120159D01*
X141400280Y-134108336D01*
X141392712Y-134095710D01*
X141386418Y-134082403D01*
X141381459Y-134068543D01*
X141377882Y-134054264D01*
X141375722Y-134039703D01*
X141375000Y-134025000D01*
X141375000Y-132275000D01*
X141375722Y-132260297D01*
X141377882Y-132245736D01*
X141381459Y-132231457D01*
X141386418Y-132217597D01*
X141392712Y-132204290D01*
X141400280Y-132191664D01*
X141409048Y-132179841D01*
X141418934Y-132168934D01*
X141429841Y-132159048D01*
X141441664Y-132150280D01*
X141454290Y-132142712D01*
X141467597Y-132136418D01*
X141481457Y-132131459D01*
X141495736Y-132127882D01*
X141510297Y-132125722D01*
X141525000Y-132125000D01*
X141825000Y-132125000D01*
X141839703Y-132125722D01*
G37*
G04 #@! TD.AperFunction*
G04 #@! TA.AperFunction,SMDPad,CuDef*
G36*
X140569703Y-132125722D02*
G01*
X140584264Y-132127882D01*
X140598543Y-132131459D01*
X140612403Y-132136418D01*
X140625710Y-132142712D01*
X140638336Y-132150280D01*
X140650159Y-132159048D01*
X140661066Y-132168934D01*
X140670952Y-132179841D01*
X140679720Y-132191664D01*
X140687288Y-132204290D01*
X140693582Y-132217597D01*
X140698541Y-132231457D01*
X140702118Y-132245736D01*
X140704278Y-132260297D01*
X140705000Y-132275000D01*
X140705000Y-134025000D01*
X140704278Y-134039703D01*
X140702118Y-134054264D01*
X140698541Y-134068543D01*
X140693582Y-134082403D01*
X140687288Y-134095710D01*
X140679720Y-134108336D01*
X140670952Y-134120159D01*
X140661066Y-134131066D01*
X140650159Y-134140952D01*
X140638336Y-134149720D01*
X140625710Y-134157288D01*
X140612403Y-134163582D01*
X140598543Y-134168541D01*
X140584264Y-134172118D01*
X140569703Y-134174278D01*
X140555000Y-134175000D01*
X140255000Y-134175000D01*
X140240297Y-134174278D01*
X140225736Y-134172118D01*
X140211457Y-134168541D01*
X140197597Y-134163582D01*
X140184290Y-134157288D01*
X140171664Y-134149720D01*
X140159841Y-134140952D01*
X140148934Y-134131066D01*
X140139048Y-134120159D01*
X140130280Y-134108336D01*
X140122712Y-134095710D01*
X140116418Y-134082403D01*
X140111459Y-134068543D01*
X140107882Y-134054264D01*
X140105722Y-134039703D01*
X140105000Y-134025000D01*
X140105000Y-132275000D01*
X140105722Y-132260297D01*
X140107882Y-132245736D01*
X140111459Y-132231457D01*
X140116418Y-132217597D01*
X140122712Y-132204290D01*
X140130280Y-132191664D01*
X140139048Y-132179841D01*
X140148934Y-132168934D01*
X140159841Y-132159048D01*
X140171664Y-132150280D01*
X140184290Y-132142712D01*
X140197597Y-132136418D01*
X140211457Y-132131459D01*
X140225736Y-132127882D01*
X140240297Y-132125722D01*
X140255000Y-132125000D01*
X140555000Y-132125000D01*
X140569703Y-132125722D01*
G37*
G04 #@! TD.AperFunction*
G04 #@! TA.AperFunction,SMDPad,CuDef*
G36*
X139299703Y-132125722D02*
G01*
X139314264Y-132127882D01*
X139328543Y-132131459D01*
X139342403Y-132136418D01*
X139355710Y-132142712D01*
X139368336Y-132150280D01*
X139380159Y-132159048D01*
X139391066Y-132168934D01*
X139400952Y-132179841D01*
X139409720Y-132191664D01*
X139417288Y-132204290D01*
X139423582Y-132217597D01*
X139428541Y-132231457D01*
X139432118Y-132245736D01*
X139434278Y-132260297D01*
X139435000Y-132275000D01*
X139435000Y-134025000D01*
X139434278Y-134039703D01*
X139432118Y-134054264D01*
X139428541Y-134068543D01*
X139423582Y-134082403D01*
X139417288Y-134095710D01*
X139409720Y-134108336D01*
X139400952Y-134120159D01*
X139391066Y-134131066D01*
X139380159Y-134140952D01*
X139368336Y-134149720D01*
X139355710Y-134157288D01*
X139342403Y-134163582D01*
X139328543Y-134168541D01*
X139314264Y-134172118D01*
X139299703Y-134174278D01*
X139285000Y-134175000D01*
X138985000Y-134175000D01*
X138970297Y-134174278D01*
X138955736Y-134172118D01*
X138941457Y-134168541D01*
X138927597Y-134163582D01*
X138914290Y-134157288D01*
X138901664Y-134149720D01*
X138889841Y-134140952D01*
X138878934Y-134131066D01*
X138869048Y-134120159D01*
X138860280Y-134108336D01*
X138852712Y-134095710D01*
X138846418Y-134082403D01*
X138841459Y-134068543D01*
X138837882Y-134054264D01*
X138835722Y-134039703D01*
X138835000Y-134025000D01*
X138835000Y-132275000D01*
X138835722Y-132260297D01*
X138837882Y-132245736D01*
X138841459Y-132231457D01*
X138846418Y-132217597D01*
X138852712Y-132204290D01*
X138860280Y-132191664D01*
X138869048Y-132179841D01*
X138878934Y-132168934D01*
X138889841Y-132159048D01*
X138901664Y-132150280D01*
X138914290Y-132142712D01*
X138927597Y-132136418D01*
X138941457Y-132131459D01*
X138955736Y-132127882D01*
X138970297Y-132125722D01*
X138985000Y-132125000D01*
X139285000Y-132125000D01*
X139299703Y-132125722D01*
G37*
G04 #@! TD.AperFunction*
G04 #@! TA.AperFunction,SMDPad,CuDef*
G36*
X138029703Y-132125722D02*
G01*
X138044264Y-132127882D01*
X138058543Y-132131459D01*
X138072403Y-132136418D01*
X138085710Y-132142712D01*
X138098336Y-132150280D01*
X138110159Y-132159048D01*
X138121066Y-132168934D01*
X138130952Y-132179841D01*
X138139720Y-132191664D01*
X138147288Y-132204290D01*
X138153582Y-132217597D01*
X138158541Y-132231457D01*
X138162118Y-132245736D01*
X138164278Y-132260297D01*
X138165000Y-132275000D01*
X138165000Y-134025000D01*
X138164278Y-134039703D01*
X138162118Y-134054264D01*
X138158541Y-134068543D01*
X138153582Y-134082403D01*
X138147288Y-134095710D01*
X138139720Y-134108336D01*
X138130952Y-134120159D01*
X138121066Y-134131066D01*
X138110159Y-134140952D01*
X138098336Y-134149720D01*
X138085710Y-134157288D01*
X138072403Y-134163582D01*
X138058543Y-134168541D01*
X138044264Y-134172118D01*
X138029703Y-134174278D01*
X138015000Y-134175000D01*
X137715000Y-134175000D01*
X137700297Y-134174278D01*
X137685736Y-134172118D01*
X137671457Y-134168541D01*
X137657597Y-134163582D01*
X137644290Y-134157288D01*
X137631664Y-134149720D01*
X137619841Y-134140952D01*
X137608934Y-134131066D01*
X137599048Y-134120159D01*
X137590280Y-134108336D01*
X137582712Y-134095710D01*
X137576418Y-134082403D01*
X137571459Y-134068543D01*
X137567882Y-134054264D01*
X137565722Y-134039703D01*
X137565000Y-134025000D01*
X137565000Y-132275000D01*
X137565722Y-132260297D01*
X137567882Y-132245736D01*
X137571459Y-132231457D01*
X137576418Y-132217597D01*
X137582712Y-132204290D01*
X137590280Y-132191664D01*
X137599048Y-132179841D01*
X137608934Y-132168934D01*
X137619841Y-132159048D01*
X137631664Y-132150280D01*
X137644290Y-132142712D01*
X137657597Y-132136418D01*
X137671457Y-132131459D01*
X137685736Y-132127882D01*
X137700297Y-132125722D01*
X137715000Y-132125000D01*
X138015000Y-132125000D01*
X138029703Y-132125722D01*
G37*
G04 #@! TD.AperFunction*
G04 #@! TA.AperFunction,SMDPad,CuDef*
G36*
X136759703Y-132125722D02*
G01*
X136774264Y-132127882D01*
X136788543Y-132131459D01*
X136802403Y-132136418D01*
X136815710Y-132142712D01*
X136828336Y-132150280D01*
X136840159Y-132159048D01*
X136851066Y-132168934D01*
X136860952Y-132179841D01*
X136869720Y-132191664D01*
X136877288Y-132204290D01*
X136883582Y-132217597D01*
X136888541Y-132231457D01*
X136892118Y-132245736D01*
X136894278Y-132260297D01*
X136895000Y-132275000D01*
X136895000Y-134025000D01*
X136894278Y-134039703D01*
X136892118Y-134054264D01*
X136888541Y-134068543D01*
X136883582Y-134082403D01*
X136877288Y-134095710D01*
X136869720Y-134108336D01*
X136860952Y-134120159D01*
X136851066Y-134131066D01*
X136840159Y-134140952D01*
X136828336Y-134149720D01*
X136815710Y-134157288D01*
X136802403Y-134163582D01*
X136788543Y-134168541D01*
X136774264Y-134172118D01*
X136759703Y-134174278D01*
X136745000Y-134175000D01*
X136445000Y-134175000D01*
X136430297Y-134174278D01*
X136415736Y-134172118D01*
X136401457Y-134168541D01*
X136387597Y-134163582D01*
X136374290Y-134157288D01*
X136361664Y-134149720D01*
X136349841Y-134140952D01*
X136338934Y-134131066D01*
X136329048Y-134120159D01*
X136320280Y-134108336D01*
X136312712Y-134095710D01*
X136306418Y-134082403D01*
X136301459Y-134068543D01*
X136297882Y-134054264D01*
X136295722Y-134039703D01*
X136295000Y-134025000D01*
X136295000Y-132275000D01*
X136295722Y-132260297D01*
X136297882Y-132245736D01*
X136301459Y-132231457D01*
X136306418Y-132217597D01*
X136312712Y-132204290D01*
X136320280Y-132191664D01*
X136329048Y-132179841D01*
X136338934Y-132168934D01*
X136349841Y-132159048D01*
X136361664Y-132150280D01*
X136374290Y-132142712D01*
X136387597Y-132136418D01*
X136401457Y-132131459D01*
X136415736Y-132127882D01*
X136430297Y-132125722D01*
X136445000Y-132125000D01*
X136745000Y-132125000D01*
X136759703Y-132125722D01*
G37*
G04 #@! TD.AperFunction*
G04 #@! TA.AperFunction,SMDPad,CuDef*
G36*
X135489703Y-132125722D02*
G01*
X135504264Y-132127882D01*
X135518543Y-132131459D01*
X135532403Y-132136418D01*
X135545710Y-132142712D01*
X135558336Y-132150280D01*
X135570159Y-132159048D01*
X135581066Y-132168934D01*
X135590952Y-132179841D01*
X135599720Y-132191664D01*
X135607288Y-132204290D01*
X135613582Y-132217597D01*
X135618541Y-132231457D01*
X135622118Y-132245736D01*
X135624278Y-132260297D01*
X135625000Y-132275000D01*
X135625000Y-134025000D01*
X135624278Y-134039703D01*
X135622118Y-134054264D01*
X135618541Y-134068543D01*
X135613582Y-134082403D01*
X135607288Y-134095710D01*
X135599720Y-134108336D01*
X135590952Y-134120159D01*
X135581066Y-134131066D01*
X135570159Y-134140952D01*
X135558336Y-134149720D01*
X135545710Y-134157288D01*
X135532403Y-134163582D01*
X135518543Y-134168541D01*
X135504264Y-134172118D01*
X135489703Y-134174278D01*
X135475000Y-134175000D01*
X135175000Y-134175000D01*
X135160297Y-134174278D01*
X135145736Y-134172118D01*
X135131457Y-134168541D01*
X135117597Y-134163582D01*
X135104290Y-134157288D01*
X135091664Y-134149720D01*
X135079841Y-134140952D01*
X135068934Y-134131066D01*
X135059048Y-134120159D01*
X135050280Y-134108336D01*
X135042712Y-134095710D01*
X135036418Y-134082403D01*
X135031459Y-134068543D01*
X135027882Y-134054264D01*
X135025722Y-134039703D01*
X135025000Y-134025000D01*
X135025000Y-132275000D01*
X135025722Y-132260297D01*
X135027882Y-132245736D01*
X135031459Y-132231457D01*
X135036418Y-132217597D01*
X135042712Y-132204290D01*
X135050280Y-132191664D01*
X135059048Y-132179841D01*
X135068934Y-132168934D01*
X135079841Y-132159048D01*
X135091664Y-132150280D01*
X135104290Y-132142712D01*
X135117597Y-132136418D01*
X135131457Y-132131459D01*
X135145736Y-132127882D01*
X135160297Y-132125722D01*
X135175000Y-132125000D01*
X135475000Y-132125000D01*
X135489703Y-132125722D01*
G37*
G04 #@! TD.AperFunction*
G04 #@! TA.AperFunction,SMDPad,CuDef*
G36*
X134219703Y-132125722D02*
G01*
X134234264Y-132127882D01*
X134248543Y-132131459D01*
X134262403Y-132136418D01*
X134275710Y-132142712D01*
X134288336Y-132150280D01*
X134300159Y-132159048D01*
X134311066Y-132168934D01*
X134320952Y-132179841D01*
X134329720Y-132191664D01*
X134337288Y-132204290D01*
X134343582Y-132217597D01*
X134348541Y-132231457D01*
X134352118Y-132245736D01*
X134354278Y-132260297D01*
X134355000Y-132275000D01*
X134355000Y-134025000D01*
X134354278Y-134039703D01*
X134352118Y-134054264D01*
X134348541Y-134068543D01*
X134343582Y-134082403D01*
X134337288Y-134095710D01*
X134329720Y-134108336D01*
X134320952Y-134120159D01*
X134311066Y-134131066D01*
X134300159Y-134140952D01*
X134288336Y-134149720D01*
X134275710Y-134157288D01*
X134262403Y-134163582D01*
X134248543Y-134168541D01*
X134234264Y-134172118D01*
X134219703Y-134174278D01*
X134205000Y-134175000D01*
X133905000Y-134175000D01*
X133890297Y-134174278D01*
X133875736Y-134172118D01*
X133861457Y-134168541D01*
X133847597Y-134163582D01*
X133834290Y-134157288D01*
X133821664Y-134149720D01*
X133809841Y-134140952D01*
X133798934Y-134131066D01*
X133789048Y-134120159D01*
X133780280Y-134108336D01*
X133772712Y-134095710D01*
X133766418Y-134082403D01*
X133761459Y-134068543D01*
X133757882Y-134054264D01*
X133755722Y-134039703D01*
X133755000Y-134025000D01*
X133755000Y-132275000D01*
X133755722Y-132260297D01*
X133757882Y-132245736D01*
X133761459Y-132231457D01*
X133766418Y-132217597D01*
X133772712Y-132204290D01*
X133780280Y-132191664D01*
X133789048Y-132179841D01*
X133798934Y-132168934D01*
X133809841Y-132159048D01*
X133821664Y-132150280D01*
X133834290Y-132142712D01*
X133847597Y-132136418D01*
X133861457Y-132131459D01*
X133875736Y-132127882D01*
X133890297Y-132125722D01*
X133905000Y-132125000D01*
X134205000Y-132125000D01*
X134219703Y-132125722D01*
G37*
G04 #@! TD.AperFunction*
G04 #@! TA.AperFunction,SMDPad,CuDef*
G36*
X132949703Y-132125722D02*
G01*
X132964264Y-132127882D01*
X132978543Y-132131459D01*
X132992403Y-132136418D01*
X133005710Y-132142712D01*
X133018336Y-132150280D01*
X133030159Y-132159048D01*
X133041066Y-132168934D01*
X133050952Y-132179841D01*
X133059720Y-132191664D01*
X133067288Y-132204290D01*
X133073582Y-132217597D01*
X133078541Y-132231457D01*
X133082118Y-132245736D01*
X133084278Y-132260297D01*
X133085000Y-132275000D01*
X133085000Y-134025000D01*
X133084278Y-134039703D01*
X133082118Y-134054264D01*
X133078541Y-134068543D01*
X133073582Y-134082403D01*
X133067288Y-134095710D01*
X133059720Y-134108336D01*
X133050952Y-134120159D01*
X133041066Y-134131066D01*
X133030159Y-134140952D01*
X133018336Y-134149720D01*
X133005710Y-134157288D01*
X132992403Y-134163582D01*
X132978543Y-134168541D01*
X132964264Y-134172118D01*
X132949703Y-134174278D01*
X132935000Y-134175000D01*
X132635000Y-134175000D01*
X132620297Y-134174278D01*
X132605736Y-134172118D01*
X132591457Y-134168541D01*
X132577597Y-134163582D01*
X132564290Y-134157288D01*
X132551664Y-134149720D01*
X132539841Y-134140952D01*
X132528934Y-134131066D01*
X132519048Y-134120159D01*
X132510280Y-134108336D01*
X132502712Y-134095710D01*
X132496418Y-134082403D01*
X132491459Y-134068543D01*
X132487882Y-134054264D01*
X132485722Y-134039703D01*
X132485000Y-134025000D01*
X132485000Y-132275000D01*
X132485722Y-132260297D01*
X132487882Y-132245736D01*
X132491459Y-132231457D01*
X132496418Y-132217597D01*
X132502712Y-132204290D01*
X132510280Y-132191664D01*
X132519048Y-132179841D01*
X132528934Y-132168934D01*
X132539841Y-132159048D01*
X132551664Y-132150280D01*
X132564290Y-132142712D01*
X132577597Y-132136418D01*
X132591457Y-132131459D01*
X132605736Y-132127882D01*
X132620297Y-132125722D01*
X132635000Y-132125000D01*
X132935000Y-132125000D01*
X132949703Y-132125722D01*
G37*
G04 #@! TD.AperFunction*
G04 #@! TA.AperFunction,SMDPad,CuDef*
G36*
X131679703Y-132125722D02*
G01*
X131694264Y-132127882D01*
X131708543Y-132131459D01*
X131722403Y-132136418D01*
X131735710Y-132142712D01*
X131748336Y-132150280D01*
X131760159Y-132159048D01*
X131771066Y-132168934D01*
X131780952Y-132179841D01*
X131789720Y-132191664D01*
X131797288Y-132204290D01*
X131803582Y-132217597D01*
X131808541Y-132231457D01*
X131812118Y-132245736D01*
X131814278Y-132260297D01*
X131815000Y-132275000D01*
X131815000Y-134025000D01*
X131814278Y-134039703D01*
X131812118Y-134054264D01*
X131808541Y-134068543D01*
X131803582Y-134082403D01*
X131797288Y-134095710D01*
X131789720Y-134108336D01*
X131780952Y-134120159D01*
X131771066Y-134131066D01*
X131760159Y-134140952D01*
X131748336Y-134149720D01*
X131735710Y-134157288D01*
X131722403Y-134163582D01*
X131708543Y-134168541D01*
X131694264Y-134172118D01*
X131679703Y-134174278D01*
X131665000Y-134175000D01*
X131365000Y-134175000D01*
X131350297Y-134174278D01*
X131335736Y-134172118D01*
X131321457Y-134168541D01*
X131307597Y-134163582D01*
X131294290Y-134157288D01*
X131281664Y-134149720D01*
X131269841Y-134140952D01*
X131258934Y-134131066D01*
X131249048Y-134120159D01*
X131240280Y-134108336D01*
X131232712Y-134095710D01*
X131226418Y-134082403D01*
X131221459Y-134068543D01*
X131217882Y-134054264D01*
X131215722Y-134039703D01*
X131215000Y-134025000D01*
X131215000Y-132275000D01*
X131215722Y-132260297D01*
X131217882Y-132245736D01*
X131221459Y-132231457D01*
X131226418Y-132217597D01*
X131232712Y-132204290D01*
X131240280Y-132191664D01*
X131249048Y-132179841D01*
X131258934Y-132168934D01*
X131269841Y-132159048D01*
X131281664Y-132150280D01*
X131294290Y-132142712D01*
X131307597Y-132136418D01*
X131321457Y-132131459D01*
X131335736Y-132127882D01*
X131350297Y-132125722D01*
X131365000Y-132125000D01*
X131665000Y-132125000D01*
X131679703Y-132125722D01*
G37*
G04 #@! TD.AperFunction*
G04 #@! TA.AperFunction,SMDPad,CuDef*
G36*
X130409703Y-132125722D02*
G01*
X130424264Y-132127882D01*
X130438543Y-132131459D01*
X130452403Y-132136418D01*
X130465710Y-132142712D01*
X130478336Y-132150280D01*
X130490159Y-132159048D01*
X130501066Y-132168934D01*
X130510952Y-132179841D01*
X130519720Y-132191664D01*
X130527288Y-132204290D01*
X130533582Y-132217597D01*
X130538541Y-132231457D01*
X130542118Y-132245736D01*
X130544278Y-132260297D01*
X130545000Y-132275000D01*
X130545000Y-134025000D01*
X130544278Y-134039703D01*
X130542118Y-134054264D01*
X130538541Y-134068543D01*
X130533582Y-134082403D01*
X130527288Y-134095710D01*
X130519720Y-134108336D01*
X130510952Y-134120159D01*
X130501066Y-134131066D01*
X130490159Y-134140952D01*
X130478336Y-134149720D01*
X130465710Y-134157288D01*
X130452403Y-134163582D01*
X130438543Y-134168541D01*
X130424264Y-134172118D01*
X130409703Y-134174278D01*
X130395000Y-134175000D01*
X130095000Y-134175000D01*
X130080297Y-134174278D01*
X130065736Y-134172118D01*
X130051457Y-134168541D01*
X130037597Y-134163582D01*
X130024290Y-134157288D01*
X130011664Y-134149720D01*
X129999841Y-134140952D01*
X129988934Y-134131066D01*
X129979048Y-134120159D01*
X129970280Y-134108336D01*
X129962712Y-134095710D01*
X129956418Y-134082403D01*
X129951459Y-134068543D01*
X129947882Y-134054264D01*
X129945722Y-134039703D01*
X129945000Y-134025000D01*
X129945000Y-132275000D01*
X129945722Y-132260297D01*
X129947882Y-132245736D01*
X129951459Y-132231457D01*
X129956418Y-132217597D01*
X129962712Y-132204290D01*
X129970280Y-132191664D01*
X129979048Y-132179841D01*
X129988934Y-132168934D01*
X129999841Y-132159048D01*
X130011664Y-132150280D01*
X130024290Y-132142712D01*
X130037597Y-132136418D01*
X130051457Y-132131459D01*
X130065736Y-132127882D01*
X130080297Y-132125722D01*
X130095000Y-132125000D01*
X130395000Y-132125000D01*
X130409703Y-132125722D01*
G37*
G04 #@! TD.AperFunction*
G04 #@! TA.AperFunction,SMDPad,CuDef*
G36*
X130409703Y-141425722D02*
G01*
X130424264Y-141427882D01*
X130438543Y-141431459D01*
X130452403Y-141436418D01*
X130465710Y-141442712D01*
X130478336Y-141450280D01*
X130490159Y-141459048D01*
X130501066Y-141468934D01*
X130510952Y-141479841D01*
X130519720Y-141491664D01*
X130527288Y-141504290D01*
X130533582Y-141517597D01*
X130538541Y-141531457D01*
X130542118Y-141545736D01*
X130544278Y-141560297D01*
X130545000Y-141575000D01*
X130545000Y-143325000D01*
X130544278Y-143339703D01*
X130542118Y-143354264D01*
X130538541Y-143368543D01*
X130533582Y-143382403D01*
X130527288Y-143395710D01*
X130519720Y-143408336D01*
X130510952Y-143420159D01*
X130501066Y-143431066D01*
X130490159Y-143440952D01*
X130478336Y-143449720D01*
X130465710Y-143457288D01*
X130452403Y-143463582D01*
X130438543Y-143468541D01*
X130424264Y-143472118D01*
X130409703Y-143474278D01*
X130395000Y-143475000D01*
X130095000Y-143475000D01*
X130080297Y-143474278D01*
X130065736Y-143472118D01*
X130051457Y-143468541D01*
X130037597Y-143463582D01*
X130024290Y-143457288D01*
X130011664Y-143449720D01*
X129999841Y-143440952D01*
X129988934Y-143431066D01*
X129979048Y-143420159D01*
X129970280Y-143408336D01*
X129962712Y-143395710D01*
X129956418Y-143382403D01*
X129951459Y-143368543D01*
X129947882Y-143354264D01*
X129945722Y-143339703D01*
X129945000Y-143325000D01*
X129945000Y-141575000D01*
X129945722Y-141560297D01*
X129947882Y-141545736D01*
X129951459Y-141531457D01*
X129956418Y-141517597D01*
X129962712Y-141504290D01*
X129970280Y-141491664D01*
X129979048Y-141479841D01*
X129988934Y-141468934D01*
X129999841Y-141459048D01*
X130011664Y-141450280D01*
X130024290Y-141442712D01*
X130037597Y-141436418D01*
X130051457Y-141431459D01*
X130065736Y-141427882D01*
X130080297Y-141425722D01*
X130095000Y-141425000D01*
X130395000Y-141425000D01*
X130409703Y-141425722D01*
G37*
G04 #@! TD.AperFunction*
G04 #@! TA.AperFunction,SMDPad,CuDef*
G36*
X131679703Y-141425722D02*
G01*
X131694264Y-141427882D01*
X131708543Y-141431459D01*
X131722403Y-141436418D01*
X131735710Y-141442712D01*
X131748336Y-141450280D01*
X131760159Y-141459048D01*
X131771066Y-141468934D01*
X131780952Y-141479841D01*
X131789720Y-141491664D01*
X131797288Y-141504290D01*
X131803582Y-141517597D01*
X131808541Y-141531457D01*
X131812118Y-141545736D01*
X131814278Y-141560297D01*
X131815000Y-141575000D01*
X131815000Y-143325000D01*
X131814278Y-143339703D01*
X131812118Y-143354264D01*
X131808541Y-143368543D01*
X131803582Y-143382403D01*
X131797288Y-143395710D01*
X131789720Y-143408336D01*
X131780952Y-143420159D01*
X131771066Y-143431066D01*
X131760159Y-143440952D01*
X131748336Y-143449720D01*
X131735710Y-143457288D01*
X131722403Y-143463582D01*
X131708543Y-143468541D01*
X131694264Y-143472118D01*
X131679703Y-143474278D01*
X131665000Y-143475000D01*
X131365000Y-143475000D01*
X131350297Y-143474278D01*
X131335736Y-143472118D01*
X131321457Y-143468541D01*
X131307597Y-143463582D01*
X131294290Y-143457288D01*
X131281664Y-143449720D01*
X131269841Y-143440952D01*
X131258934Y-143431066D01*
X131249048Y-143420159D01*
X131240280Y-143408336D01*
X131232712Y-143395710D01*
X131226418Y-143382403D01*
X131221459Y-143368543D01*
X131217882Y-143354264D01*
X131215722Y-143339703D01*
X131215000Y-143325000D01*
X131215000Y-141575000D01*
X131215722Y-141560297D01*
X131217882Y-141545736D01*
X131221459Y-141531457D01*
X131226418Y-141517597D01*
X131232712Y-141504290D01*
X131240280Y-141491664D01*
X131249048Y-141479841D01*
X131258934Y-141468934D01*
X131269841Y-141459048D01*
X131281664Y-141450280D01*
X131294290Y-141442712D01*
X131307597Y-141436418D01*
X131321457Y-141431459D01*
X131335736Y-141427882D01*
X131350297Y-141425722D01*
X131365000Y-141425000D01*
X131665000Y-141425000D01*
X131679703Y-141425722D01*
G37*
G04 #@! TD.AperFunction*
G04 #@! TA.AperFunction,SMDPad,CuDef*
G36*
X132949703Y-141425722D02*
G01*
X132964264Y-141427882D01*
X132978543Y-141431459D01*
X132992403Y-141436418D01*
X133005710Y-141442712D01*
X133018336Y-141450280D01*
X133030159Y-141459048D01*
X133041066Y-141468934D01*
X133050952Y-141479841D01*
X133059720Y-141491664D01*
X133067288Y-141504290D01*
X133073582Y-141517597D01*
X133078541Y-141531457D01*
X133082118Y-141545736D01*
X133084278Y-141560297D01*
X133085000Y-141575000D01*
X133085000Y-143325000D01*
X133084278Y-143339703D01*
X133082118Y-143354264D01*
X133078541Y-143368543D01*
X133073582Y-143382403D01*
X133067288Y-143395710D01*
X133059720Y-143408336D01*
X133050952Y-143420159D01*
X133041066Y-143431066D01*
X133030159Y-143440952D01*
X133018336Y-143449720D01*
X133005710Y-143457288D01*
X132992403Y-143463582D01*
X132978543Y-143468541D01*
X132964264Y-143472118D01*
X132949703Y-143474278D01*
X132935000Y-143475000D01*
X132635000Y-143475000D01*
X132620297Y-143474278D01*
X132605736Y-143472118D01*
X132591457Y-143468541D01*
X132577597Y-143463582D01*
X132564290Y-143457288D01*
X132551664Y-143449720D01*
X132539841Y-143440952D01*
X132528934Y-143431066D01*
X132519048Y-143420159D01*
X132510280Y-143408336D01*
X132502712Y-143395710D01*
X132496418Y-143382403D01*
X132491459Y-143368543D01*
X132487882Y-143354264D01*
X132485722Y-143339703D01*
X132485000Y-143325000D01*
X132485000Y-141575000D01*
X132485722Y-141560297D01*
X132487882Y-141545736D01*
X132491459Y-141531457D01*
X132496418Y-141517597D01*
X132502712Y-141504290D01*
X132510280Y-141491664D01*
X132519048Y-141479841D01*
X132528934Y-141468934D01*
X132539841Y-141459048D01*
X132551664Y-141450280D01*
X132564290Y-141442712D01*
X132577597Y-141436418D01*
X132591457Y-141431459D01*
X132605736Y-141427882D01*
X132620297Y-141425722D01*
X132635000Y-141425000D01*
X132935000Y-141425000D01*
X132949703Y-141425722D01*
G37*
G04 #@! TD.AperFunction*
G04 #@! TA.AperFunction,SMDPad,CuDef*
G36*
X134219703Y-141425722D02*
G01*
X134234264Y-141427882D01*
X134248543Y-141431459D01*
X134262403Y-141436418D01*
X134275710Y-141442712D01*
X134288336Y-141450280D01*
X134300159Y-141459048D01*
X134311066Y-141468934D01*
X134320952Y-141479841D01*
X134329720Y-141491664D01*
X134337288Y-141504290D01*
X134343582Y-141517597D01*
X134348541Y-141531457D01*
X134352118Y-141545736D01*
X134354278Y-141560297D01*
X134355000Y-141575000D01*
X134355000Y-143325000D01*
X134354278Y-143339703D01*
X134352118Y-143354264D01*
X134348541Y-143368543D01*
X134343582Y-143382403D01*
X134337288Y-143395710D01*
X134329720Y-143408336D01*
X134320952Y-143420159D01*
X134311066Y-143431066D01*
X134300159Y-143440952D01*
X134288336Y-143449720D01*
X134275710Y-143457288D01*
X134262403Y-143463582D01*
X134248543Y-143468541D01*
X134234264Y-143472118D01*
X134219703Y-143474278D01*
X134205000Y-143475000D01*
X133905000Y-143475000D01*
X133890297Y-143474278D01*
X133875736Y-143472118D01*
X133861457Y-143468541D01*
X133847597Y-143463582D01*
X133834290Y-143457288D01*
X133821664Y-143449720D01*
X133809841Y-143440952D01*
X133798934Y-143431066D01*
X133789048Y-143420159D01*
X133780280Y-143408336D01*
X133772712Y-143395710D01*
X133766418Y-143382403D01*
X133761459Y-143368543D01*
X133757882Y-143354264D01*
X133755722Y-143339703D01*
X133755000Y-143325000D01*
X133755000Y-141575000D01*
X133755722Y-141560297D01*
X133757882Y-141545736D01*
X133761459Y-141531457D01*
X133766418Y-141517597D01*
X133772712Y-141504290D01*
X133780280Y-141491664D01*
X133789048Y-141479841D01*
X133798934Y-141468934D01*
X133809841Y-141459048D01*
X133821664Y-141450280D01*
X133834290Y-141442712D01*
X133847597Y-141436418D01*
X133861457Y-141431459D01*
X133875736Y-141427882D01*
X133890297Y-141425722D01*
X133905000Y-141425000D01*
X134205000Y-141425000D01*
X134219703Y-141425722D01*
G37*
G04 #@! TD.AperFunction*
G04 #@! TA.AperFunction,SMDPad,CuDef*
G36*
X135489703Y-141425722D02*
G01*
X135504264Y-141427882D01*
X135518543Y-141431459D01*
X135532403Y-141436418D01*
X135545710Y-141442712D01*
X135558336Y-141450280D01*
X135570159Y-141459048D01*
X135581066Y-141468934D01*
X135590952Y-141479841D01*
X135599720Y-141491664D01*
X135607288Y-141504290D01*
X135613582Y-141517597D01*
X135618541Y-141531457D01*
X135622118Y-141545736D01*
X135624278Y-141560297D01*
X135625000Y-141575000D01*
X135625000Y-143325000D01*
X135624278Y-143339703D01*
X135622118Y-143354264D01*
X135618541Y-143368543D01*
X135613582Y-143382403D01*
X135607288Y-143395710D01*
X135599720Y-143408336D01*
X135590952Y-143420159D01*
X135581066Y-143431066D01*
X135570159Y-143440952D01*
X135558336Y-143449720D01*
X135545710Y-143457288D01*
X135532403Y-143463582D01*
X135518543Y-143468541D01*
X135504264Y-143472118D01*
X135489703Y-143474278D01*
X135475000Y-143475000D01*
X135175000Y-143475000D01*
X135160297Y-143474278D01*
X135145736Y-143472118D01*
X135131457Y-143468541D01*
X135117597Y-143463582D01*
X135104290Y-143457288D01*
X135091664Y-143449720D01*
X135079841Y-143440952D01*
X135068934Y-143431066D01*
X135059048Y-143420159D01*
X135050280Y-143408336D01*
X135042712Y-143395710D01*
X135036418Y-143382403D01*
X135031459Y-143368543D01*
X135027882Y-143354264D01*
X135025722Y-143339703D01*
X135025000Y-143325000D01*
X135025000Y-141575000D01*
X135025722Y-141560297D01*
X135027882Y-141545736D01*
X135031459Y-141531457D01*
X135036418Y-141517597D01*
X135042712Y-141504290D01*
X135050280Y-141491664D01*
X135059048Y-141479841D01*
X135068934Y-141468934D01*
X135079841Y-141459048D01*
X135091664Y-141450280D01*
X135104290Y-141442712D01*
X135117597Y-141436418D01*
X135131457Y-141431459D01*
X135145736Y-141427882D01*
X135160297Y-141425722D01*
X135175000Y-141425000D01*
X135475000Y-141425000D01*
X135489703Y-141425722D01*
G37*
G04 #@! TD.AperFunction*
G04 #@! TA.AperFunction,SMDPad,CuDef*
G36*
X136759703Y-141425722D02*
G01*
X136774264Y-141427882D01*
X136788543Y-141431459D01*
X136802403Y-141436418D01*
X136815710Y-141442712D01*
X136828336Y-141450280D01*
X136840159Y-141459048D01*
X136851066Y-141468934D01*
X136860952Y-141479841D01*
X136869720Y-141491664D01*
X136877288Y-141504290D01*
X136883582Y-141517597D01*
X136888541Y-141531457D01*
X136892118Y-141545736D01*
X136894278Y-141560297D01*
X136895000Y-141575000D01*
X136895000Y-143325000D01*
X136894278Y-143339703D01*
X136892118Y-143354264D01*
X136888541Y-143368543D01*
X136883582Y-143382403D01*
X136877288Y-143395710D01*
X136869720Y-143408336D01*
X136860952Y-143420159D01*
X136851066Y-143431066D01*
X136840159Y-143440952D01*
X136828336Y-143449720D01*
X136815710Y-143457288D01*
X136802403Y-143463582D01*
X136788543Y-143468541D01*
X136774264Y-143472118D01*
X136759703Y-143474278D01*
X136745000Y-143475000D01*
X136445000Y-143475000D01*
X136430297Y-143474278D01*
X136415736Y-143472118D01*
X136401457Y-143468541D01*
X136387597Y-143463582D01*
X136374290Y-143457288D01*
X136361664Y-143449720D01*
X136349841Y-143440952D01*
X136338934Y-143431066D01*
X136329048Y-143420159D01*
X136320280Y-143408336D01*
X136312712Y-143395710D01*
X136306418Y-143382403D01*
X136301459Y-143368543D01*
X136297882Y-143354264D01*
X136295722Y-143339703D01*
X136295000Y-143325000D01*
X136295000Y-141575000D01*
X136295722Y-141560297D01*
X136297882Y-141545736D01*
X136301459Y-141531457D01*
X136306418Y-141517597D01*
X136312712Y-141504290D01*
X136320280Y-141491664D01*
X136329048Y-141479841D01*
X136338934Y-141468934D01*
X136349841Y-141459048D01*
X136361664Y-141450280D01*
X136374290Y-141442712D01*
X136387597Y-141436418D01*
X136401457Y-141431459D01*
X136415736Y-141427882D01*
X136430297Y-141425722D01*
X136445000Y-141425000D01*
X136745000Y-141425000D01*
X136759703Y-141425722D01*
G37*
G04 #@! TD.AperFunction*
G04 #@! TA.AperFunction,SMDPad,CuDef*
G36*
X138029703Y-141425722D02*
G01*
X138044264Y-141427882D01*
X138058543Y-141431459D01*
X138072403Y-141436418D01*
X138085710Y-141442712D01*
X138098336Y-141450280D01*
X138110159Y-141459048D01*
X138121066Y-141468934D01*
X138130952Y-141479841D01*
X138139720Y-141491664D01*
X138147288Y-141504290D01*
X138153582Y-141517597D01*
X138158541Y-141531457D01*
X138162118Y-141545736D01*
X138164278Y-141560297D01*
X138165000Y-141575000D01*
X138165000Y-143325000D01*
X138164278Y-143339703D01*
X138162118Y-143354264D01*
X138158541Y-143368543D01*
X138153582Y-143382403D01*
X138147288Y-143395710D01*
X138139720Y-143408336D01*
X138130952Y-143420159D01*
X138121066Y-143431066D01*
X138110159Y-143440952D01*
X138098336Y-143449720D01*
X138085710Y-143457288D01*
X138072403Y-143463582D01*
X138058543Y-143468541D01*
X138044264Y-143472118D01*
X138029703Y-143474278D01*
X138015000Y-143475000D01*
X137715000Y-143475000D01*
X137700297Y-143474278D01*
X137685736Y-143472118D01*
X137671457Y-143468541D01*
X137657597Y-143463582D01*
X137644290Y-143457288D01*
X137631664Y-143449720D01*
X137619841Y-143440952D01*
X137608934Y-143431066D01*
X137599048Y-143420159D01*
X137590280Y-143408336D01*
X137582712Y-143395710D01*
X137576418Y-143382403D01*
X137571459Y-143368543D01*
X137567882Y-143354264D01*
X137565722Y-143339703D01*
X137565000Y-143325000D01*
X137565000Y-141575000D01*
X137565722Y-141560297D01*
X137567882Y-141545736D01*
X137571459Y-141531457D01*
X137576418Y-141517597D01*
X137582712Y-141504290D01*
X137590280Y-141491664D01*
X137599048Y-141479841D01*
X137608934Y-141468934D01*
X137619841Y-141459048D01*
X137631664Y-141450280D01*
X137644290Y-141442712D01*
X137657597Y-141436418D01*
X137671457Y-141431459D01*
X137685736Y-141427882D01*
X137700297Y-141425722D01*
X137715000Y-141425000D01*
X138015000Y-141425000D01*
X138029703Y-141425722D01*
G37*
G04 #@! TD.AperFunction*
G04 #@! TA.AperFunction,SMDPad,CuDef*
G36*
X139299703Y-141425722D02*
G01*
X139314264Y-141427882D01*
X139328543Y-141431459D01*
X139342403Y-141436418D01*
X139355710Y-141442712D01*
X139368336Y-141450280D01*
X139380159Y-141459048D01*
X139391066Y-141468934D01*
X139400952Y-141479841D01*
X139409720Y-141491664D01*
X139417288Y-141504290D01*
X139423582Y-141517597D01*
X139428541Y-141531457D01*
X139432118Y-141545736D01*
X139434278Y-141560297D01*
X139435000Y-141575000D01*
X139435000Y-143325000D01*
X139434278Y-143339703D01*
X139432118Y-143354264D01*
X139428541Y-143368543D01*
X139423582Y-143382403D01*
X139417288Y-143395710D01*
X139409720Y-143408336D01*
X139400952Y-143420159D01*
X139391066Y-143431066D01*
X139380159Y-143440952D01*
X139368336Y-143449720D01*
X139355710Y-143457288D01*
X139342403Y-143463582D01*
X139328543Y-143468541D01*
X139314264Y-143472118D01*
X139299703Y-143474278D01*
X139285000Y-143475000D01*
X138985000Y-143475000D01*
X138970297Y-143474278D01*
X138955736Y-143472118D01*
X138941457Y-143468541D01*
X138927597Y-143463582D01*
X138914290Y-143457288D01*
X138901664Y-143449720D01*
X138889841Y-143440952D01*
X138878934Y-143431066D01*
X138869048Y-143420159D01*
X138860280Y-143408336D01*
X138852712Y-143395710D01*
X138846418Y-143382403D01*
X138841459Y-143368543D01*
X138837882Y-143354264D01*
X138835722Y-143339703D01*
X138835000Y-143325000D01*
X138835000Y-141575000D01*
X138835722Y-141560297D01*
X138837882Y-141545736D01*
X138841459Y-141531457D01*
X138846418Y-141517597D01*
X138852712Y-141504290D01*
X138860280Y-141491664D01*
X138869048Y-141479841D01*
X138878934Y-141468934D01*
X138889841Y-141459048D01*
X138901664Y-141450280D01*
X138914290Y-141442712D01*
X138927597Y-141436418D01*
X138941457Y-141431459D01*
X138955736Y-141427882D01*
X138970297Y-141425722D01*
X138985000Y-141425000D01*
X139285000Y-141425000D01*
X139299703Y-141425722D01*
G37*
G04 #@! TD.AperFunction*
G04 #@! TA.AperFunction,SMDPad,CuDef*
G36*
X140569703Y-141425722D02*
G01*
X140584264Y-141427882D01*
X140598543Y-141431459D01*
X140612403Y-141436418D01*
X140625710Y-141442712D01*
X140638336Y-141450280D01*
X140650159Y-141459048D01*
X140661066Y-141468934D01*
X140670952Y-141479841D01*
X140679720Y-141491664D01*
X140687288Y-141504290D01*
X140693582Y-141517597D01*
X140698541Y-141531457D01*
X140702118Y-141545736D01*
X140704278Y-141560297D01*
X140705000Y-141575000D01*
X140705000Y-143325000D01*
X140704278Y-143339703D01*
X140702118Y-143354264D01*
X140698541Y-143368543D01*
X140693582Y-143382403D01*
X140687288Y-143395710D01*
X140679720Y-143408336D01*
X140670952Y-143420159D01*
X140661066Y-143431066D01*
X140650159Y-143440952D01*
X140638336Y-143449720D01*
X140625710Y-143457288D01*
X140612403Y-143463582D01*
X140598543Y-143468541D01*
X140584264Y-143472118D01*
X140569703Y-143474278D01*
X140555000Y-143475000D01*
X140255000Y-143475000D01*
X140240297Y-143474278D01*
X140225736Y-143472118D01*
X140211457Y-143468541D01*
X140197597Y-143463582D01*
X140184290Y-143457288D01*
X140171664Y-143449720D01*
X140159841Y-143440952D01*
X140148934Y-143431066D01*
X140139048Y-143420159D01*
X140130280Y-143408336D01*
X140122712Y-143395710D01*
X140116418Y-143382403D01*
X140111459Y-143368543D01*
X140107882Y-143354264D01*
X140105722Y-143339703D01*
X140105000Y-143325000D01*
X140105000Y-141575000D01*
X140105722Y-141560297D01*
X140107882Y-141545736D01*
X140111459Y-141531457D01*
X140116418Y-141517597D01*
X140122712Y-141504290D01*
X140130280Y-141491664D01*
X140139048Y-141479841D01*
X140148934Y-141468934D01*
X140159841Y-141459048D01*
X140171664Y-141450280D01*
X140184290Y-141442712D01*
X140197597Y-141436418D01*
X140211457Y-141431459D01*
X140225736Y-141427882D01*
X140240297Y-141425722D01*
X140255000Y-141425000D01*
X140555000Y-141425000D01*
X140569703Y-141425722D01*
G37*
G04 #@! TD.AperFunction*
G04 #@! TA.AperFunction,SMDPad,CuDef*
G36*
X141839703Y-141425722D02*
G01*
X141854264Y-141427882D01*
X141868543Y-141431459D01*
X141882403Y-141436418D01*
X141895710Y-141442712D01*
X141908336Y-141450280D01*
X141920159Y-141459048D01*
X141931066Y-141468934D01*
X141940952Y-141479841D01*
X141949720Y-141491664D01*
X141957288Y-141504290D01*
X141963582Y-141517597D01*
X141968541Y-141531457D01*
X141972118Y-141545736D01*
X141974278Y-141560297D01*
X141975000Y-141575000D01*
X141975000Y-143325000D01*
X141974278Y-143339703D01*
X141972118Y-143354264D01*
X141968541Y-143368543D01*
X141963582Y-143382403D01*
X141957288Y-143395710D01*
X141949720Y-143408336D01*
X141940952Y-143420159D01*
X141931066Y-143431066D01*
X141920159Y-143440952D01*
X141908336Y-143449720D01*
X141895710Y-143457288D01*
X141882403Y-143463582D01*
X141868543Y-143468541D01*
X141854264Y-143472118D01*
X141839703Y-143474278D01*
X141825000Y-143475000D01*
X141525000Y-143475000D01*
X141510297Y-143474278D01*
X141495736Y-143472118D01*
X141481457Y-143468541D01*
X141467597Y-143463582D01*
X141454290Y-143457288D01*
X141441664Y-143449720D01*
X141429841Y-143440952D01*
X141418934Y-143431066D01*
X141409048Y-143420159D01*
X141400280Y-143408336D01*
X141392712Y-143395710D01*
X141386418Y-143382403D01*
X141381459Y-143368543D01*
X141377882Y-143354264D01*
X141375722Y-143339703D01*
X141375000Y-143325000D01*
X141375000Y-141575000D01*
X141375722Y-141560297D01*
X141377882Y-141545736D01*
X141381459Y-141531457D01*
X141386418Y-141517597D01*
X141392712Y-141504290D01*
X141400280Y-141491664D01*
X141409048Y-141479841D01*
X141418934Y-141468934D01*
X141429841Y-141459048D01*
X141441664Y-141450280D01*
X141454290Y-141442712D01*
X141467597Y-141436418D01*
X141481457Y-141431459D01*
X141495736Y-141427882D01*
X141510297Y-141425722D01*
X141525000Y-141425000D01*
X141825000Y-141425000D01*
X141839703Y-141425722D01*
G37*
G04 #@! TD.AperFunction*
G04 #@! TA.AperFunction,SMDPad,CuDef*
G36*
X143109703Y-141425722D02*
G01*
X143124264Y-141427882D01*
X143138543Y-141431459D01*
X143152403Y-141436418D01*
X143165710Y-141442712D01*
X143178336Y-141450280D01*
X143190159Y-141459048D01*
X143201066Y-141468934D01*
X143210952Y-141479841D01*
X143219720Y-141491664D01*
X143227288Y-141504290D01*
X143233582Y-141517597D01*
X143238541Y-141531457D01*
X143242118Y-141545736D01*
X143244278Y-141560297D01*
X143245000Y-141575000D01*
X143245000Y-143325000D01*
X143244278Y-143339703D01*
X143242118Y-143354264D01*
X143238541Y-143368543D01*
X143233582Y-143382403D01*
X143227288Y-143395710D01*
X143219720Y-143408336D01*
X143210952Y-143420159D01*
X143201066Y-143431066D01*
X143190159Y-143440952D01*
X143178336Y-143449720D01*
X143165710Y-143457288D01*
X143152403Y-143463582D01*
X143138543Y-143468541D01*
X143124264Y-143472118D01*
X143109703Y-143474278D01*
X143095000Y-143475000D01*
X142795000Y-143475000D01*
X142780297Y-143474278D01*
X142765736Y-143472118D01*
X142751457Y-143468541D01*
X142737597Y-143463582D01*
X142724290Y-143457288D01*
X142711664Y-143449720D01*
X142699841Y-143440952D01*
X142688934Y-143431066D01*
X142679048Y-143420159D01*
X142670280Y-143408336D01*
X142662712Y-143395710D01*
X142656418Y-143382403D01*
X142651459Y-143368543D01*
X142647882Y-143354264D01*
X142645722Y-143339703D01*
X142645000Y-143325000D01*
X142645000Y-141575000D01*
X142645722Y-141560297D01*
X142647882Y-141545736D01*
X142651459Y-141531457D01*
X142656418Y-141517597D01*
X142662712Y-141504290D01*
X142670280Y-141491664D01*
X142679048Y-141479841D01*
X142688934Y-141468934D01*
X142699841Y-141459048D01*
X142711664Y-141450280D01*
X142724290Y-141442712D01*
X142737597Y-141436418D01*
X142751457Y-141431459D01*
X142765736Y-141427882D01*
X142780297Y-141425722D01*
X142795000Y-141425000D01*
X143095000Y-141425000D01*
X143109703Y-141425722D01*
G37*
G04 #@! TD.AperFunction*
G04 #@! TA.AperFunction,SMDPad,CuDef*
G36*
X144379703Y-141425722D02*
G01*
X144394264Y-141427882D01*
X144408543Y-141431459D01*
X144422403Y-141436418D01*
X144435710Y-141442712D01*
X144448336Y-141450280D01*
X144460159Y-141459048D01*
X144471066Y-141468934D01*
X144480952Y-141479841D01*
X144489720Y-141491664D01*
X144497288Y-141504290D01*
X144503582Y-141517597D01*
X144508541Y-141531457D01*
X144512118Y-141545736D01*
X144514278Y-141560297D01*
X144515000Y-141575000D01*
X144515000Y-143325000D01*
X144514278Y-143339703D01*
X144512118Y-143354264D01*
X144508541Y-143368543D01*
X144503582Y-143382403D01*
X144497288Y-143395710D01*
X144489720Y-143408336D01*
X144480952Y-143420159D01*
X144471066Y-143431066D01*
X144460159Y-143440952D01*
X144448336Y-143449720D01*
X144435710Y-143457288D01*
X144422403Y-143463582D01*
X144408543Y-143468541D01*
X144394264Y-143472118D01*
X144379703Y-143474278D01*
X144365000Y-143475000D01*
X144065000Y-143475000D01*
X144050297Y-143474278D01*
X144035736Y-143472118D01*
X144021457Y-143468541D01*
X144007597Y-143463582D01*
X143994290Y-143457288D01*
X143981664Y-143449720D01*
X143969841Y-143440952D01*
X143958934Y-143431066D01*
X143949048Y-143420159D01*
X143940280Y-143408336D01*
X143932712Y-143395710D01*
X143926418Y-143382403D01*
X143921459Y-143368543D01*
X143917882Y-143354264D01*
X143915722Y-143339703D01*
X143915000Y-143325000D01*
X143915000Y-141575000D01*
X143915722Y-141560297D01*
X143917882Y-141545736D01*
X143921459Y-141531457D01*
X143926418Y-141517597D01*
X143932712Y-141504290D01*
X143940280Y-141491664D01*
X143949048Y-141479841D01*
X143958934Y-141468934D01*
X143969841Y-141459048D01*
X143981664Y-141450280D01*
X143994290Y-141442712D01*
X144007597Y-141436418D01*
X144021457Y-141431459D01*
X144035736Y-141427882D01*
X144050297Y-141425722D01*
X144065000Y-141425000D01*
X144365000Y-141425000D01*
X144379703Y-141425722D01*
G37*
G04 #@! TD.AperFunction*
G04 #@! TA.AperFunction,SMDPad,CuDef*
G36*
X145649703Y-141425722D02*
G01*
X145664264Y-141427882D01*
X145678543Y-141431459D01*
X145692403Y-141436418D01*
X145705710Y-141442712D01*
X145718336Y-141450280D01*
X145730159Y-141459048D01*
X145741066Y-141468934D01*
X145750952Y-141479841D01*
X145759720Y-141491664D01*
X145767288Y-141504290D01*
X145773582Y-141517597D01*
X145778541Y-141531457D01*
X145782118Y-141545736D01*
X145784278Y-141560297D01*
X145785000Y-141575000D01*
X145785000Y-143325000D01*
X145784278Y-143339703D01*
X145782118Y-143354264D01*
X145778541Y-143368543D01*
X145773582Y-143382403D01*
X145767288Y-143395710D01*
X145759720Y-143408336D01*
X145750952Y-143420159D01*
X145741066Y-143431066D01*
X145730159Y-143440952D01*
X145718336Y-143449720D01*
X145705710Y-143457288D01*
X145692403Y-143463582D01*
X145678543Y-143468541D01*
X145664264Y-143472118D01*
X145649703Y-143474278D01*
X145635000Y-143475000D01*
X145335000Y-143475000D01*
X145320297Y-143474278D01*
X145305736Y-143472118D01*
X145291457Y-143468541D01*
X145277597Y-143463582D01*
X145264290Y-143457288D01*
X145251664Y-143449720D01*
X145239841Y-143440952D01*
X145228934Y-143431066D01*
X145219048Y-143420159D01*
X145210280Y-143408336D01*
X145202712Y-143395710D01*
X145196418Y-143382403D01*
X145191459Y-143368543D01*
X145187882Y-143354264D01*
X145185722Y-143339703D01*
X145185000Y-143325000D01*
X145185000Y-141575000D01*
X145185722Y-141560297D01*
X145187882Y-141545736D01*
X145191459Y-141531457D01*
X145196418Y-141517597D01*
X145202712Y-141504290D01*
X145210280Y-141491664D01*
X145219048Y-141479841D01*
X145228934Y-141468934D01*
X145239841Y-141459048D01*
X145251664Y-141450280D01*
X145264290Y-141442712D01*
X145277597Y-141436418D01*
X145291457Y-141431459D01*
X145305736Y-141427882D01*
X145320297Y-141425722D01*
X145335000Y-141425000D01*
X145635000Y-141425000D01*
X145649703Y-141425722D01*
G37*
G04 #@! TD.AperFunction*
G04 #@! TA.AperFunction,SMDPad,CuDef*
G36*
X146919703Y-141425722D02*
G01*
X146934264Y-141427882D01*
X146948543Y-141431459D01*
X146962403Y-141436418D01*
X146975710Y-141442712D01*
X146988336Y-141450280D01*
X147000159Y-141459048D01*
X147011066Y-141468934D01*
X147020952Y-141479841D01*
X147029720Y-141491664D01*
X147037288Y-141504290D01*
X147043582Y-141517597D01*
X147048541Y-141531457D01*
X147052118Y-141545736D01*
X147054278Y-141560297D01*
X147055000Y-141575000D01*
X147055000Y-143325000D01*
X147054278Y-143339703D01*
X147052118Y-143354264D01*
X147048541Y-143368543D01*
X147043582Y-143382403D01*
X147037288Y-143395710D01*
X147029720Y-143408336D01*
X147020952Y-143420159D01*
X147011066Y-143431066D01*
X147000159Y-143440952D01*
X146988336Y-143449720D01*
X146975710Y-143457288D01*
X146962403Y-143463582D01*
X146948543Y-143468541D01*
X146934264Y-143472118D01*
X146919703Y-143474278D01*
X146905000Y-143475000D01*
X146605000Y-143475000D01*
X146590297Y-143474278D01*
X146575736Y-143472118D01*
X146561457Y-143468541D01*
X146547597Y-143463582D01*
X146534290Y-143457288D01*
X146521664Y-143449720D01*
X146509841Y-143440952D01*
X146498934Y-143431066D01*
X146489048Y-143420159D01*
X146480280Y-143408336D01*
X146472712Y-143395710D01*
X146466418Y-143382403D01*
X146461459Y-143368543D01*
X146457882Y-143354264D01*
X146455722Y-143339703D01*
X146455000Y-143325000D01*
X146455000Y-141575000D01*
X146455722Y-141560297D01*
X146457882Y-141545736D01*
X146461459Y-141531457D01*
X146466418Y-141517597D01*
X146472712Y-141504290D01*
X146480280Y-141491664D01*
X146489048Y-141479841D01*
X146498934Y-141468934D01*
X146509841Y-141459048D01*
X146521664Y-141450280D01*
X146534290Y-141442712D01*
X146547597Y-141436418D01*
X146561457Y-141431459D01*
X146575736Y-141427882D01*
X146590297Y-141425722D01*
X146605000Y-141425000D01*
X146905000Y-141425000D01*
X146919703Y-141425722D01*
G37*
G04 #@! TD.AperFunction*
G04 #@! TA.AperFunction,ComponentPad*
G36*
X155714504Y-91901204D02*
G01*
X155738773Y-91904804D01*
X155762571Y-91910765D01*
X155785671Y-91919030D01*
X155807849Y-91929520D01*
X155828893Y-91942133D01*
X155848598Y-91956747D01*
X155866777Y-91973223D01*
X155883253Y-91991402D01*
X155897867Y-92011107D01*
X155910480Y-92032151D01*
X155920970Y-92054329D01*
X155929235Y-92077429D01*
X155935196Y-92101227D01*
X155938796Y-92125496D01*
X155940000Y-92150000D01*
X155940000Y-93350000D01*
X155938796Y-93374504D01*
X155935196Y-93398773D01*
X155929235Y-93422571D01*
X155920970Y-93445671D01*
X155910480Y-93467849D01*
X155897867Y-93488893D01*
X155883253Y-93508598D01*
X155866777Y-93526777D01*
X155848598Y-93543253D01*
X155828893Y-93557867D01*
X155807849Y-93570480D01*
X155785671Y-93580970D01*
X155762571Y-93589235D01*
X155738773Y-93595196D01*
X155714504Y-93598796D01*
X155690000Y-93600000D01*
X154190000Y-93600000D01*
X154165496Y-93598796D01*
X154141227Y-93595196D01*
X154117429Y-93589235D01*
X154094329Y-93580970D01*
X154072151Y-93570480D01*
X154051107Y-93557867D01*
X154031402Y-93543253D01*
X154013223Y-93526777D01*
X153996747Y-93508598D01*
X153982133Y-93488893D01*
X153969520Y-93467849D01*
X153959030Y-93445671D01*
X153950765Y-93422571D01*
X153944804Y-93398773D01*
X153941204Y-93374504D01*
X153940000Y-93350000D01*
X153940000Y-92150000D01*
X153941204Y-92125496D01*
X153944804Y-92101227D01*
X153950765Y-92077429D01*
X153959030Y-92054329D01*
X153969520Y-92032151D01*
X153982133Y-92011107D01*
X153996747Y-91991402D01*
X154013223Y-91973223D01*
X154031402Y-91956747D01*
X154051107Y-91942133D01*
X154072151Y-91929520D01*
X154094329Y-91919030D01*
X154117429Y-91910765D01*
X154141227Y-91904804D01*
X154165496Y-91901204D01*
X154190000Y-91900000D01*
X155690000Y-91900000D01*
X155714504Y-91901204D01*
G37*
G04 #@! TD.AperFunction*
D16*
X154940000Y-95250000D03*
G04 #@! TA.AperFunction,ComponentPad*
D12*
G36*
X123249504Y-93251204D02*
G01*
X123273773Y-93254804D01*
X123297571Y-93260765D01*
X123320671Y-93269030D01*
X123342849Y-93279520D01*
X123363893Y-93292133D01*
X123383598Y-93306747D01*
X123401777Y-93323223D01*
X123418253Y-93341402D01*
X123432867Y-93361107D01*
X123445480Y-93382151D01*
X123455970Y-93404329D01*
X123464235Y-93427429D01*
X123470196Y-93451227D01*
X123473796Y-93475496D01*
X123475000Y-93500000D01*
X123475000Y-94700000D01*
X123473796Y-94724504D01*
X123470196Y-94748773D01*
X123464235Y-94772571D01*
X123455970Y-94795671D01*
X123445480Y-94817849D01*
X123432867Y-94838893D01*
X123418253Y-94858598D01*
X123401777Y-94876777D01*
X123383598Y-94893253D01*
X123363893Y-94907867D01*
X123342849Y-94920480D01*
X123320671Y-94930970D01*
X123297571Y-94939235D01*
X123273773Y-94945196D01*
X123249504Y-94948796D01*
X123225000Y-94950000D01*
X121775000Y-94950000D01*
X121750496Y-94948796D01*
X121726227Y-94945196D01*
X121702429Y-94939235D01*
X121679329Y-94930970D01*
X121657151Y-94920480D01*
X121636107Y-94907867D01*
X121616402Y-94893253D01*
X121598223Y-94876777D01*
X121581747Y-94858598D01*
X121567133Y-94838893D01*
X121554520Y-94817849D01*
X121544030Y-94795671D01*
X121535765Y-94772571D01*
X121529804Y-94748773D01*
X121526204Y-94724504D01*
X121525000Y-94700000D01*
X121525000Y-93500000D01*
X121526204Y-93475496D01*
X121529804Y-93451227D01*
X121535765Y-93427429D01*
X121544030Y-93404329D01*
X121554520Y-93382151D01*
X121567133Y-93361107D01*
X121581747Y-93341402D01*
X121598223Y-93323223D01*
X121616402Y-93306747D01*
X121636107Y-93292133D01*
X121657151Y-93279520D01*
X121679329Y-93269030D01*
X121702429Y-93260765D01*
X121726227Y-93254804D01*
X121750496Y-93251204D01*
X121775000Y-93250000D01*
X123225000Y-93250000D01*
X123249504Y-93251204D01*
G37*
G04 #@! TD.AperFunction*
D11*
X122500000Y-91600000D03*
X122500000Y-89100000D03*
X122500000Y-86600000D03*
G04 #@! TA.AperFunction,ComponentPad*
D12*
G36*
X135244504Y-104436204D02*
G01*
X135268773Y-104439804D01*
X135292571Y-104445765D01*
X135315671Y-104454030D01*
X135337849Y-104464520D01*
X135358893Y-104477133D01*
X135378598Y-104491747D01*
X135396777Y-104508223D01*
X135413253Y-104526402D01*
X135427867Y-104546107D01*
X135440480Y-104567151D01*
X135450970Y-104589329D01*
X135459235Y-104612429D01*
X135465196Y-104636227D01*
X135468796Y-104660496D01*
X135470000Y-104685000D01*
X135470000Y-106135000D01*
X135468796Y-106159504D01*
X135465196Y-106183773D01*
X135459235Y-106207571D01*
X135450970Y-106230671D01*
X135440480Y-106252849D01*
X135427867Y-106273893D01*
X135413253Y-106293598D01*
X135396777Y-106311777D01*
X135378598Y-106328253D01*
X135358893Y-106342867D01*
X135337849Y-106355480D01*
X135315671Y-106365970D01*
X135292571Y-106374235D01*
X135268773Y-106380196D01*
X135244504Y-106383796D01*
X135220000Y-106385000D01*
X134020000Y-106385000D01*
X133995496Y-106383796D01*
X133971227Y-106380196D01*
X133947429Y-106374235D01*
X133924329Y-106365970D01*
X133902151Y-106355480D01*
X133881107Y-106342867D01*
X133861402Y-106328253D01*
X133843223Y-106311777D01*
X133826747Y-106293598D01*
X133812133Y-106273893D01*
X133799520Y-106252849D01*
X133789030Y-106230671D01*
X133780765Y-106207571D01*
X133774804Y-106183773D01*
X133771204Y-106159504D01*
X133770000Y-106135000D01*
X133770000Y-104685000D01*
X133771204Y-104660496D01*
X133774804Y-104636227D01*
X133780765Y-104612429D01*
X133789030Y-104589329D01*
X133799520Y-104567151D01*
X133812133Y-104546107D01*
X133826747Y-104526402D01*
X133843223Y-104508223D01*
X133861402Y-104491747D01*
X133881107Y-104477133D01*
X133902151Y-104464520D01*
X133924329Y-104454030D01*
X133947429Y-104445765D01*
X133971227Y-104439804D01*
X133995496Y-104436204D01*
X134020000Y-104435000D01*
X135220000Y-104435000D01*
X135244504Y-104436204D01*
G37*
G04 #@! TD.AperFunction*
D14*
X132120000Y-105410000D03*
X129620000Y-105410000D03*
X127120000Y-105410000D03*
X124620000Y-105410000D03*
G04 #@! TA.AperFunction,ComponentPad*
D12*
G36*
X122694504Y-148971204D02*
G01*
X122718773Y-148974804D01*
X122742571Y-148980765D01*
X122765671Y-148989030D01*
X122787849Y-148999520D01*
X122808893Y-149012133D01*
X122828598Y-149026747D01*
X122846777Y-149043223D01*
X122863253Y-149061402D01*
X122877867Y-149081107D01*
X122890480Y-149102151D01*
X122900970Y-149124329D01*
X122909235Y-149147429D01*
X122915196Y-149171227D01*
X122918796Y-149195496D01*
X122920000Y-149220000D01*
X122920000Y-150420000D01*
X122918796Y-150444504D01*
X122915196Y-150468773D01*
X122909235Y-150492571D01*
X122900970Y-150515671D01*
X122890480Y-150537849D01*
X122877867Y-150558893D01*
X122863253Y-150578598D01*
X122846777Y-150596777D01*
X122828598Y-150613253D01*
X122808893Y-150627867D01*
X122787849Y-150640480D01*
X122765671Y-150650970D01*
X122742571Y-150659235D01*
X122718773Y-150665196D01*
X122694504Y-150668796D01*
X122670000Y-150670000D01*
X121170000Y-150670000D01*
X121145496Y-150668796D01*
X121121227Y-150665196D01*
X121097429Y-150659235D01*
X121074329Y-150650970D01*
X121052151Y-150640480D01*
X121031107Y-150627867D01*
X121011402Y-150613253D01*
X120993223Y-150596777D01*
X120976747Y-150578598D01*
X120962133Y-150558893D01*
X120949520Y-150537849D01*
X120939030Y-150515671D01*
X120930765Y-150492571D01*
X120924804Y-150468773D01*
X120921204Y-150444504D01*
X120920000Y-150420000D01*
X120920000Y-149220000D01*
X120921204Y-149195496D01*
X120924804Y-149171227D01*
X120930765Y-149147429D01*
X120939030Y-149124329D01*
X120949520Y-149102151D01*
X120962133Y-149081107D01*
X120976747Y-149061402D01*
X120993223Y-149043223D01*
X121011402Y-149026747D01*
X121031107Y-149012133D01*
X121052151Y-148999520D01*
X121074329Y-148989030D01*
X121097429Y-148980765D01*
X121121227Y-148974804D01*
X121145496Y-148971204D01*
X121170000Y-148970000D01*
X122670000Y-148970000D01*
X122694504Y-148971204D01*
G37*
G04 #@! TD.AperFunction*
D16*
X121920000Y-147320000D03*
G04 #@! TA.AperFunction,ComponentPad*
D12*
G36*
X121399504Y-112181204D02*
G01*
X121423773Y-112184804D01*
X121447571Y-112190765D01*
X121470671Y-112199030D01*
X121492849Y-112209520D01*
X121513893Y-112222133D01*
X121533598Y-112236747D01*
X121551777Y-112253223D01*
X121568253Y-112271402D01*
X121582867Y-112291107D01*
X121595480Y-112312151D01*
X121605970Y-112334329D01*
X121614235Y-112357429D01*
X121620196Y-112381227D01*
X121623796Y-112405496D01*
X121625000Y-112430000D01*
X121625000Y-113630000D01*
X121623796Y-113654504D01*
X121620196Y-113678773D01*
X121614235Y-113702571D01*
X121605970Y-113725671D01*
X121595480Y-113747849D01*
X121582867Y-113768893D01*
X121568253Y-113788598D01*
X121551777Y-113806777D01*
X121533598Y-113823253D01*
X121513893Y-113837867D01*
X121492849Y-113850480D01*
X121470671Y-113860970D01*
X121447571Y-113869235D01*
X121423773Y-113875196D01*
X121399504Y-113878796D01*
X121375000Y-113880000D01*
X119925000Y-113880000D01*
X119900496Y-113878796D01*
X119876227Y-113875196D01*
X119852429Y-113869235D01*
X119829329Y-113860970D01*
X119807151Y-113850480D01*
X119786107Y-113837867D01*
X119766402Y-113823253D01*
X119748223Y-113806777D01*
X119731747Y-113788598D01*
X119717133Y-113768893D01*
X119704520Y-113747849D01*
X119694030Y-113725671D01*
X119685765Y-113702571D01*
X119679804Y-113678773D01*
X119676204Y-113654504D01*
X119675000Y-113630000D01*
X119675000Y-112430000D01*
X119676204Y-112405496D01*
X119679804Y-112381227D01*
X119685765Y-112357429D01*
X119694030Y-112334329D01*
X119704520Y-112312151D01*
X119717133Y-112291107D01*
X119731747Y-112271402D01*
X119748223Y-112253223D01*
X119766402Y-112236747D01*
X119786107Y-112222133D01*
X119807151Y-112209520D01*
X119829329Y-112199030D01*
X119852429Y-112190765D01*
X119876227Y-112184804D01*
X119900496Y-112181204D01*
X119925000Y-112180000D01*
X121375000Y-112180000D01*
X121399504Y-112181204D01*
G37*
G04 #@! TD.AperFunction*
D11*
X120650000Y-115530000D03*
X120650000Y-118030000D03*
X120650000Y-120530000D03*
X120650000Y-123030000D03*
D17*
X148900000Y-71200000D03*
D18*
X151440000Y-71200000D03*
G04 #@! TA.AperFunction,SMDPad,CuDef*
D12*
G36*
X132187504Y-84826204D02*
G01*
X132211773Y-84829804D01*
X132235571Y-84835765D01*
X132258671Y-84844030D01*
X132280849Y-84854520D01*
X132301893Y-84867133D01*
X132321598Y-84881747D01*
X132339777Y-84898223D01*
X132356253Y-84916402D01*
X132370867Y-84936107D01*
X132383480Y-84957151D01*
X132393970Y-84979329D01*
X132402235Y-85002429D01*
X132408196Y-85026227D01*
X132411796Y-85050496D01*
X132413000Y-85075000D01*
X132413000Y-86325000D01*
X132411796Y-86349504D01*
X132408196Y-86373773D01*
X132402235Y-86397571D01*
X132393970Y-86420671D01*
X132383480Y-86442849D01*
X132370867Y-86463893D01*
X132356253Y-86483598D01*
X132339777Y-86501777D01*
X132321598Y-86518253D01*
X132301893Y-86532867D01*
X132280849Y-86545480D01*
X132258671Y-86555970D01*
X132235571Y-86564235D01*
X132211773Y-86570196D01*
X132187504Y-86573796D01*
X132163000Y-86575000D01*
X131238000Y-86575000D01*
X131213496Y-86573796D01*
X131189227Y-86570196D01*
X131165429Y-86564235D01*
X131142329Y-86555970D01*
X131120151Y-86545480D01*
X131099107Y-86532867D01*
X131079402Y-86518253D01*
X131061223Y-86501777D01*
X131044747Y-86483598D01*
X131030133Y-86463893D01*
X131017520Y-86442849D01*
X131007030Y-86420671D01*
X130998765Y-86397571D01*
X130992804Y-86373773D01*
X130989204Y-86349504D01*
X130988000Y-86325000D01*
X130988000Y-85075000D01*
X130989204Y-85050496D01*
X130992804Y-85026227D01*
X130998765Y-85002429D01*
X131007030Y-84979329D01*
X131017520Y-84957151D01*
X131030133Y-84936107D01*
X131044747Y-84916402D01*
X131061223Y-84898223D01*
X131079402Y-84881747D01*
X131099107Y-84867133D01*
X131120151Y-84854520D01*
X131142329Y-84844030D01*
X131165429Y-84835765D01*
X131189227Y-84829804D01*
X131213496Y-84826204D01*
X131238000Y-84825000D01*
X132163000Y-84825000D01*
X132187504Y-84826204D01*
G37*
G04 #@! TD.AperFunction*
G04 #@! TA.AperFunction,SMDPad,CuDef*
G36*
X135162504Y-84826204D02*
G01*
X135186773Y-84829804D01*
X135210571Y-84835765D01*
X135233671Y-84844030D01*
X135255849Y-84854520D01*
X135276893Y-84867133D01*
X135296598Y-84881747D01*
X135314777Y-84898223D01*
X135331253Y-84916402D01*
X135345867Y-84936107D01*
X135358480Y-84957151D01*
X135368970Y-84979329D01*
X135377235Y-85002429D01*
X135383196Y-85026227D01*
X135386796Y-85050496D01*
X135388000Y-85075000D01*
X135388000Y-86325000D01*
X135386796Y-86349504D01*
X135383196Y-86373773D01*
X135377235Y-86397571D01*
X135368970Y-86420671D01*
X135358480Y-86442849D01*
X135345867Y-86463893D01*
X135331253Y-86483598D01*
X135314777Y-86501777D01*
X135296598Y-86518253D01*
X135276893Y-86532867D01*
X135255849Y-86545480D01*
X135233671Y-86555970D01*
X135210571Y-86564235D01*
X135186773Y-86570196D01*
X135162504Y-86573796D01*
X135138000Y-86575000D01*
X134213000Y-86575000D01*
X134188496Y-86573796D01*
X134164227Y-86570196D01*
X134140429Y-86564235D01*
X134117329Y-86555970D01*
X134095151Y-86545480D01*
X134074107Y-86532867D01*
X134054402Y-86518253D01*
X134036223Y-86501777D01*
X134019747Y-86483598D01*
X134005133Y-86463893D01*
X133992520Y-86442849D01*
X133982030Y-86420671D01*
X133973765Y-86397571D01*
X133967804Y-86373773D01*
X133964204Y-86349504D01*
X133963000Y-86325000D01*
X133963000Y-85075000D01*
X133964204Y-85050496D01*
X133967804Y-85026227D01*
X133973765Y-85002429D01*
X133982030Y-84979329D01*
X133992520Y-84957151D01*
X134005133Y-84936107D01*
X134019747Y-84916402D01*
X134036223Y-84898223D01*
X134054402Y-84881747D01*
X134074107Y-84867133D01*
X134095151Y-84854520D01*
X134117329Y-84844030D01*
X134140429Y-84835765D01*
X134164227Y-84829804D01*
X134188496Y-84826204D01*
X134213000Y-84825000D01*
X135138000Y-84825000D01*
X135162504Y-84826204D01*
G37*
G04 #@! TD.AperFunction*
G04 #@! TA.AperFunction,SMDPad,CuDef*
G36*
X132211504Y-78226204D02*
G01*
X132235773Y-78229804D01*
X132259571Y-78235765D01*
X132282671Y-78244030D01*
X132304849Y-78254520D01*
X132325893Y-78267133D01*
X132345598Y-78281747D01*
X132363777Y-78298223D01*
X132380253Y-78316402D01*
X132394867Y-78336107D01*
X132407480Y-78357151D01*
X132417970Y-78379329D01*
X132426235Y-78402429D01*
X132432196Y-78426227D01*
X132435796Y-78450496D01*
X132437000Y-78475000D01*
X132437000Y-79725000D01*
X132435796Y-79749504D01*
X132432196Y-79773773D01*
X132426235Y-79797571D01*
X132417970Y-79820671D01*
X132407480Y-79842849D01*
X132394867Y-79863893D01*
X132380253Y-79883598D01*
X132363777Y-79901777D01*
X132345598Y-79918253D01*
X132325893Y-79932867D01*
X132304849Y-79945480D01*
X132282671Y-79955970D01*
X132259571Y-79964235D01*
X132235773Y-79970196D01*
X132211504Y-79973796D01*
X132187000Y-79975000D01*
X131262000Y-79975000D01*
X131237496Y-79973796D01*
X131213227Y-79970196D01*
X131189429Y-79964235D01*
X131166329Y-79955970D01*
X131144151Y-79945480D01*
X131123107Y-79932867D01*
X131103402Y-79918253D01*
X131085223Y-79901777D01*
X131068747Y-79883598D01*
X131054133Y-79863893D01*
X131041520Y-79842849D01*
X131031030Y-79820671D01*
X131022765Y-79797571D01*
X131016804Y-79773773D01*
X131013204Y-79749504D01*
X131012000Y-79725000D01*
X131012000Y-78475000D01*
X131013204Y-78450496D01*
X131016804Y-78426227D01*
X131022765Y-78402429D01*
X131031030Y-78379329D01*
X131041520Y-78357151D01*
X131054133Y-78336107D01*
X131068747Y-78316402D01*
X131085223Y-78298223D01*
X131103402Y-78281747D01*
X131123107Y-78267133D01*
X131144151Y-78254520D01*
X131166329Y-78244030D01*
X131189429Y-78235765D01*
X131213227Y-78229804D01*
X131237496Y-78226204D01*
X131262000Y-78225000D01*
X132187000Y-78225000D01*
X132211504Y-78226204D01*
G37*
G04 #@! TD.AperFunction*
G04 #@! TA.AperFunction,SMDPad,CuDef*
G36*
X135186504Y-78226204D02*
G01*
X135210773Y-78229804D01*
X135234571Y-78235765D01*
X135257671Y-78244030D01*
X135279849Y-78254520D01*
X135300893Y-78267133D01*
X135320598Y-78281747D01*
X135338777Y-78298223D01*
X135355253Y-78316402D01*
X135369867Y-78336107D01*
X135382480Y-78357151D01*
X135392970Y-78379329D01*
X135401235Y-78402429D01*
X135407196Y-78426227D01*
X135410796Y-78450496D01*
X135412000Y-78475000D01*
X135412000Y-79725000D01*
X135410796Y-79749504D01*
X135407196Y-79773773D01*
X135401235Y-79797571D01*
X135392970Y-79820671D01*
X135382480Y-79842849D01*
X135369867Y-79863893D01*
X135355253Y-79883598D01*
X135338777Y-79901777D01*
X135320598Y-79918253D01*
X135300893Y-79932867D01*
X135279849Y-79945480D01*
X135257671Y-79955970D01*
X135234571Y-79964235D01*
X135210773Y-79970196D01*
X135186504Y-79973796D01*
X135162000Y-79975000D01*
X134237000Y-79975000D01*
X134212496Y-79973796D01*
X134188227Y-79970196D01*
X134164429Y-79964235D01*
X134141329Y-79955970D01*
X134119151Y-79945480D01*
X134098107Y-79932867D01*
X134078402Y-79918253D01*
X134060223Y-79901777D01*
X134043747Y-79883598D01*
X134029133Y-79863893D01*
X134016520Y-79842849D01*
X134006030Y-79820671D01*
X133997765Y-79797571D01*
X133991804Y-79773773D01*
X133988204Y-79749504D01*
X133987000Y-79725000D01*
X133987000Y-78475000D01*
X133988204Y-78450496D01*
X133991804Y-78426227D01*
X133997765Y-78402429D01*
X134006030Y-78379329D01*
X134016520Y-78357151D01*
X134029133Y-78336107D01*
X134043747Y-78316402D01*
X134060223Y-78298223D01*
X134078402Y-78281747D01*
X134098107Y-78267133D01*
X134119151Y-78254520D01*
X134141329Y-78244030D01*
X134164429Y-78235765D01*
X134188227Y-78229804D01*
X134212496Y-78226204D01*
X134237000Y-78225000D01*
X135162000Y-78225000D01*
X135186504Y-78226204D01*
G37*
G04 #@! TD.AperFunction*
D17*
X159000000Y-87040000D03*
X159000000Y-84500000D03*
X159000000Y-81960000D03*
D18*
X159000000Y-79420000D03*
D19*
X156210000Y-130810000D03*
D20*
X156210000Y-143510000D03*
G04 #@! TA.AperFunction,SMDPad,CuDef*
D12*
G36*
X142699802Y-128070482D02*
G01*
X142709509Y-128071921D01*
X142719028Y-128074306D01*
X142728268Y-128077612D01*
X142737140Y-128081808D01*
X142745557Y-128086853D01*
X142753439Y-128092699D01*
X142760711Y-128099289D01*
X142767301Y-128106561D01*
X142773147Y-128114443D01*
X142778192Y-128122860D01*
X142782388Y-128131732D01*
X142785694Y-128140972D01*
X142788079Y-128150491D01*
X142789518Y-128160198D01*
X142790000Y-128170000D01*
X142790000Y-128370000D01*
X142789518Y-128379802D01*
X142788079Y-128389509D01*
X142785694Y-128399028D01*
X142782388Y-128408268D01*
X142778192Y-128417140D01*
X142773147Y-128425557D01*
X142767301Y-128433439D01*
X142760711Y-128440711D01*
X142753439Y-128447301D01*
X142745557Y-128453147D01*
X142737140Y-128458192D01*
X142728268Y-128462388D01*
X142719028Y-128465694D01*
X142709509Y-128468079D01*
X142699802Y-128469518D01*
X142690000Y-128470000D01*
X142430000Y-128470000D01*
X142420198Y-128469518D01*
X142410491Y-128468079D01*
X142400972Y-128465694D01*
X142391732Y-128462388D01*
X142382860Y-128458192D01*
X142374443Y-128453147D01*
X142366561Y-128447301D01*
X142359289Y-128440711D01*
X142352699Y-128433439D01*
X142346853Y-128425557D01*
X142341808Y-128417140D01*
X142337612Y-128408268D01*
X142334306Y-128399028D01*
X142331921Y-128389509D01*
X142330482Y-128379802D01*
X142330000Y-128370000D01*
X142330000Y-128170000D01*
X142330482Y-128160198D01*
X142331921Y-128150491D01*
X142334306Y-128140972D01*
X142337612Y-128131732D01*
X142341808Y-128122860D01*
X142346853Y-128114443D01*
X142352699Y-128106561D01*
X142359289Y-128099289D01*
X142366561Y-128092699D01*
X142374443Y-128086853D01*
X142382860Y-128081808D01*
X142391732Y-128077612D01*
X142400972Y-128074306D01*
X142410491Y-128071921D01*
X142420198Y-128070482D01*
X142430000Y-128070000D01*
X142690000Y-128070000D01*
X142699802Y-128070482D01*
G37*
G04 #@! TD.AperFunction*
G04 #@! TA.AperFunction,SMDPad,CuDef*
G36*
X142059802Y-128070482D02*
G01*
X142069509Y-128071921D01*
X142079028Y-128074306D01*
X142088268Y-128077612D01*
X142097140Y-128081808D01*
X142105557Y-128086853D01*
X142113439Y-128092699D01*
X142120711Y-128099289D01*
X142127301Y-128106561D01*
X142133147Y-128114443D01*
X142138192Y-128122860D01*
X142142388Y-128131732D01*
X142145694Y-128140972D01*
X142148079Y-128150491D01*
X142149518Y-128160198D01*
X142150000Y-128170000D01*
X142150000Y-128370000D01*
X142149518Y-128379802D01*
X142148079Y-128389509D01*
X142145694Y-128399028D01*
X142142388Y-128408268D01*
X142138192Y-128417140D01*
X142133147Y-128425557D01*
X142127301Y-128433439D01*
X142120711Y-128440711D01*
X142113439Y-128447301D01*
X142105557Y-128453147D01*
X142097140Y-128458192D01*
X142088268Y-128462388D01*
X142079028Y-128465694D01*
X142069509Y-128468079D01*
X142059802Y-128469518D01*
X142050000Y-128470000D01*
X141790000Y-128470000D01*
X141780198Y-128469518D01*
X141770491Y-128468079D01*
X141760972Y-128465694D01*
X141751732Y-128462388D01*
X141742860Y-128458192D01*
X141734443Y-128453147D01*
X141726561Y-128447301D01*
X141719289Y-128440711D01*
X141712699Y-128433439D01*
X141706853Y-128425557D01*
X141701808Y-128417140D01*
X141697612Y-128408268D01*
X141694306Y-128399028D01*
X141691921Y-128389509D01*
X141690482Y-128379802D01*
X141690000Y-128370000D01*
X141690000Y-128170000D01*
X141690482Y-128160198D01*
X141691921Y-128150491D01*
X141694306Y-128140972D01*
X141697612Y-128131732D01*
X141701808Y-128122860D01*
X141706853Y-128114443D01*
X141712699Y-128106561D01*
X141719289Y-128099289D01*
X141726561Y-128092699D01*
X141734443Y-128086853D01*
X141742860Y-128081808D01*
X141751732Y-128077612D01*
X141760972Y-128074306D01*
X141770491Y-128071921D01*
X141780198Y-128070482D01*
X141790000Y-128070000D01*
X142050000Y-128070000D01*
X142059802Y-128070482D01*
G37*
G04 #@! TD.AperFunction*
D15*
X135810000Y-148590000D03*
D21*
X130810000Y-148590000D03*
D22*
X124460000Y-133390000D03*
D23*
X124460000Y-135890000D03*
D24*
X138730100Y-89848100D03*
X137893300Y-92587400D03*
X130505500Y-90187200D03*
X130855000Y-87709400D03*
X130105500Y-82231800D03*
X126178100Y-135312100D03*
X147105900Y-94583200D03*
X148325900Y-80873900D03*
X143267700Y-81109200D03*
X143287200Y-85233100D03*
D25*
X132785000Y-133150000D02*
X132785000Y-137687700D01*
X132785000Y-137687700D02*
X135325000Y-140227700D01*
X135325000Y-140227700D02*
X135325000Y-142450000D01*
X131515000Y-133150000D02*
X132785000Y-133150000D01*
X132080000Y-113030000D02*
X142239900Y-123189900D01*
X142239900Y-123189900D02*
X142240000Y-123189900D01*
X142240000Y-123189900D02*
X142240000Y-123190000D01*
X120650000Y-113030000D02*
X132080000Y-113030000D01*
X115400000Y-92900000D02*
X121300000Y-92900000D01*
X121300000Y-92900000D02*
X122500000Y-94100000D01*
X130245000Y-133150000D02*
X130005000Y-133390000D01*
X130005000Y-133390000D02*
X124460000Y-133390000D01*
X135810000Y-148590000D02*
X135325000Y-148105000D01*
X135325000Y-148105000D02*
X135325000Y-142450000D01*
X130245000Y-133150000D02*
X131515000Y-133150000D01*
X121920000Y-149820000D02*
X121967800Y-149867800D01*
X121967800Y-149867800D02*
X134532200Y-149867800D01*
X134532200Y-149867800D02*
X135810000Y-148590000D01*
X142560000Y-128270000D02*
X142560000Y-123510000D01*
X142560000Y-123510000D02*
X142240000Y-123190000D01*
X121920000Y-147320000D02*
X121920000Y-148447700D01*
X130810000Y-148590000D02*
X122062300Y-148590000D01*
X122062300Y-148590000D02*
X121920000Y-148447700D01*
X124460000Y-135890000D02*
X124460000Y-134812300D01*
X124460000Y-134812300D02*
X124325300Y-134812300D01*
X124325300Y-134812300D02*
X123337400Y-133824400D01*
X123337400Y-133824400D02*
X123337400Y-132942000D01*
X123337400Y-132942000D02*
X124483400Y-131796000D01*
X124483400Y-131796000D02*
X133161800Y-131796000D01*
X133161800Y-131796000D02*
X134055000Y-132689200D01*
X134055000Y-132689200D02*
X134055000Y-133150000D01*
X115400000Y-95400000D02*
X115400000Y-96527700D01*
X115400000Y-95400000D02*
X115400000Y-94272300D01*
X127120000Y-105410000D02*
X125992300Y-105410000D01*
X125992300Y-105410000D02*
X125992300Y-104987100D01*
X125992300Y-104987100D02*
X124322100Y-103316900D01*
X124322100Y-103316900D02*
X116241400Y-103316900D01*
X116241400Y-103316900D02*
X114113600Y-101189100D01*
X114113600Y-101189100D02*
X114113600Y-97443900D01*
X114113600Y-97443900D02*
X115029800Y-96527700D01*
X115029800Y-96527700D02*
X115400000Y-96527700D01*
X136595000Y-137724300D02*
X136595000Y-142450000D01*
X134055000Y-133150000D02*
X134055000Y-135184300D01*
X134055000Y-135184300D02*
X136595000Y-137724300D01*
X141920000Y-128270000D02*
X141920000Y-128418600D01*
X141920000Y-128418600D02*
X145136100Y-131634700D01*
X145136100Y-131634700D02*
X146921400Y-131634700D01*
X146921400Y-131634700D02*
X147348400Y-132061700D01*
X147348400Y-132061700D02*
X147348400Y-134225100D01*
X147348400Y-134225100D02*
X143849200Y-137724300D01*
X143849200Y-137724300D02*
X136595000Y-137724300D01*
X115400000Y-94272300D02*
X114977100Y-94272300D01*
X114977100Y-94272300D02*
X114140900Y-93436100D01*
X114140900Y-93436100D02*
X114140900Y-88144300D01*
X114140900Y-88144300D02*
X120506400Y-81778800D01*
X120506400Y-81778800D02*
X120506400Y-78455600D01*
X120506400Y-78455600D02*
X121734300Y-77227700D01*
X121734300Y-77227700D02*
X122500000Y-77227700D01*
X159000000Y-81960000D02*
X157872300Y-81960000D01*
X157872300Y-81960000D02*
X153140000Y-77227700D01*
X153140000Y-77227700D02*
X122500000Y-77227700D01*
X122500000Y-76100000D02*
X122500000Y-77227700D01*
X136595000Y-142450000D02*
X136595000Y-142818200D01*
X136595000Y-142818200D02*
X142366800Y-148590000D01*
X142366800Y-148590000D02*
X142860000Y-148590000D01*
X156210000Y-143510000D02*
X154332300Y-143510000D01*
X154332300Y-143510000D02*
X154332300Y-144117700D01*
X154332300Y-144117700D02*
X149860000Y-148590000D01*
X128492300Y-105410000D02*
X128492300Y-105832900D01*
X128492300Y-105832900D02*
X124940100Y-109385100D01*
X124940100Y-109385100D02*
X118821200Y-109385100D01*
X118821200Y-109385100D02*
X117367000Y-110839300D01*
X117367000Y-110839300D02*
X117367000Y-131937800D01*
X117367000Y-131937800D02*
X129236600Y-143807400D01*
X129236600Y-143807400D02*
X131839400Y-143807400D01*
X131839400Y-143807400D02*
X132785000Y-142861800D01*
X132785000Y-142861800D02*
X132785000Y-142450000D01*
X129620000Y-105410000D02*
X128492300Y-105410000D01*
X131515000Y-142450000D02*
X131515000Y-142082800D01*
X131515000Y-142082800D02*
X129954300Y-140522100D01*
X129954300Y-140522100D02*
X127098700Y-140522100D01*
X127098700Y-140522100D02*
X119388800Y-132812200D01*
X119388800Y-132812200D02*
X119388800Y-112207000D01*
X119388800Y-112207000D02*
X120915800Y-110680000D01*
X120915800Y-110680000D02*
X127413900Y-110680000D01*
X127413900Y-110680000D02*
X132683900Y-105410000D01*
X132683900Y-105410000D02*
X133247700Y-105410000D01*
X132120000Y-105410000D02*
X132683900Y-105410000D01*
X138730100Y-89848100D02*
X136845900Y-91732300D01*
X136845900Y-91732300D02*
X136845900Y-93363300D01*
X136845900Y-93363300D02*
X137097800Y-93615200D01*
X137097800Y-93615200D02*
X137097800Y-105012500D01*
X137097800Y-105012500D02*
X135446500Y-106663800D01*
X135446500Y-106663800D02*
X133775400Y-106663800D01*
X133775400Y-106663800D02*
X133247700Y-106136100D01*
X133247700Y-106136100D02*
X133247700Y-105410000D01*
X134620000Y-105410000D02*
X133363800Y-104153800D01*
X133363800Y-104153800D02*
X131605400Y-104153800D01*
X131605400Y-104153800D02*
X130861400Y-104897800D01*
X130861400Y-104897800D02*
X130861400Y-105942100D01*
X130861400Y-105942100D02*
X126776000Y-110027500D01*
X126776000Y-110027500D02*
X118748500Y-110027500D01*
X118748500Y-110027500D02*
X117769800Y-111006200D01*
X117769800Y-111006200D02*
X117769800Y-131770900D01*
X117769800Y-131770900D02*
X128448900Y-142450000D01*
X128448900Y-142450000D02*
X130245000Y-142450000D01*
X122500000Y-86600000D02*
X122500000Y-85472300D01*
X122500000Y-85472300D02*
X128872300Y-79100000D01*
X128872300Y-79100000D02*
X131724500Y-79100000D01*
X131724500Y-82500000D02*
X125124500Y-89100000D01*
X125124500Y-89100000D02*
X122500000Y-89100000D01*
X122500000Y-91600000D02*
X124151100Y-91600000D01*
X124151100Y-91600000D02*
X130051100Y-85700000D01*
X130051100Y-85700000D02*
X131700500Y-85700000D01*
X151490000Y-105500000D02*
X138577400Y-92587400D01*
X138577400Y-92587400D02*
X137893300Y-92587400D01*
X142240000Y-113190000D02*
X142240000Y-114317700D01*
X142945000Y-142450000D02*
X142945000Y-142810300D01*
X142945000Y-142810300D02*
X144784000Y-144649300D01*
X144784000Y-144649300D02*
X147411800Y-144649300D01*
X147411800Y-144649300D02*
X149028100Y-143033000D01*
X149028100Y-143033000D02*
X149028100Y-120735600D01*
X149028100Y-120735600D02*
X142610200Y-114317700D01*
X142610200Y-114317700D02*
X142240000Y-114317700D01*
X144215000Y-142450000D02*
X144215000Y-142860500D01*
X144215000Y-142860500D02*
X145578100Y-144223600D01*
X145578100Y-144223600D02*
X147236500Y-144223600D01*
X147236500Y-144223600D02*
X148582400Y-142877700D01*
X148582400Y-142877700D02*
X148582400Y-122790000D01*
X148582400Y-122790000D02*
X142610100Y-116817700D01*
X142610100Y-116817700D02*
X142240000Y-116817700D01*
X142240000Y-115690000D02*
X142240000Y-116817700D01*
X145485000Y-142450000D02*
X145485000Y-142860100D01*
X145485000Y-142860100D02*
X146428300Y-143803400D01*
X146428300Y-143803400D02*
X147031700Y-143803400D01*
X147031700Y-143803400D02*
X148175400Y-142659700D01*
X148175400Y-142659700D02*
X148175400Y-124882900D01*
X148175400Y-124882900D02*
X142610200Y-119317700D01*
X142610200Y-119317700D02*
X142240000Y-119317700D01*
X142240000Y-118190000D02*
X142240000Y-119317700D01*
X146755000Y-142450000D02*
X147751200Y-141453800D01*
X147751200Y-141453800D02*
X147751200Y-126624100D01*
X147751200Y-126624100D02*
X142944800Y-121817700D01*
X142944800Y-121817700D02*
X142240000Y-121817700D01*
X142240000Y-120690000D02*
X142240000Y-121817700D01*
X153670000Y-113190000D02*
X153670000Y-114317700D01*
X137865000Y-142450000D02*
X137865000Y-142042600D01*
X137865000Y-142042600D02*
X138764900Y-141142700D01*
X138764900Y-141142700D02*
X142063300Y-141142700D01*
X142063300Y-141142700D02*
X142286100Y-141365500D01*
X142286100Y-141365500D02*
X142286100Y-143468500D01*
X142286100Y-143468500D02*
X143869700Y-145052100D01*
X143869700Y-145052100D02*
X147578700Y-145052100D01*
X147578700Y-145052100D02*
X149820700Y-142810100D01*
X149820700Y-142810100D02*
X149820700Y-117796800D01*
X149820700Y-117796800D02*
X153299800Y-114317700D01*
X153299800Y-114317700D02*
X153670000Y-114317700D01*
X139135000Y-142450000D02*
X139135000Y-142885400D01*
X139135000Y-142885400D02*
X142509800Y-146260200D01*
X142509800Y-146260200D02*
X148079400Y-146260200D01*
X148079400Y-146260200D02*
X153663300Y-140676300D01*
X153663300Y-140676300D02*
X153663300Y-129429800D01*
X153663300Y-129429800D02*
X156567900Y-126525200D01*
X156567900Y-126525200D02*
X156567900Y-119345400D01*
X156567900Y-119345400D02*
X154040200Y-116817700D01*
X154040200Y-116817700D02*
X153670000Y-116817700D01*
X153670000Y-115690000D02*
X153670000Y-116817700D01*
X140405000Y-142450000D02*
X140405000Y-142827100D01*
X140405000Y-142827100D02*
X143435400Y-145857500D01*
X143435400Y-145857500D02*
X147912500Y-145857500D01*
X147912500Y-145857500D02*
X150768600Y-143001400D01*
X150768600Y-143001400D02*
X150768600Y-128176000D01*
X150768600Y-128176000D02*
X154956400Y-123988200D01*
X154956400Y-123988200D02*
X154956400Y-120233900D01*
X154956400Y-120233900D02*
X154040200Y-119317700D01*
X154040200Y-119317700D02*
X153670000Y-119317700D01*
X153670000Y-118190000D02*
X153670000Y-119317700D01*
X141675000Y-142450000D02*
X141675000Y-143427000D01*
X141675000Y-143427000D02*
X143702800Y-145454800D01*
X143702800Y-145454800D02*
X147745600Y-145454800D01*
X147745600Y-145454800D02*
X150365900Y-142834500D01*
X150365900Y-142834500D02*
X150365900Y-124395700D01*
X150365900Y-124395700D02*
X152943900Y-121817700D01*
X152943900Y-121817700D02*
X153670000Y-121817700D01*
X153670000Y-120690000D02*
X153670000Y-121817700D01*
X132080000Y-123030000D02*
X132080000Y-124157700D01*
X132080000Y-124157700D02*
X133076400Y-124157700D01*
X133076400Y-124157700D02*
X141675000Y-132756300D01*
X141675000Y-132756300D02*
X141675000Y-133150000D01*
X132080000Y-120530000D02*
X132080000Y-121657700D01*
X132080000Y-121657700D02*
X131657100Y-121657700D01*
X131657100Y-121657700D02*
X130826600Y-122488200D01*
X130826600Y-122488200D02*
X130826600Y-123557100D01*
X130826600Y-123557100D02*
X138799400Y-131529900D01*
X138799400Y-131529900D02*
X139256400Y-131529900D01*
X139256400Y-131529900D02*
X140405000Y-132678500D01*
X140405000Y-132678500D02*
X140405000Y-133150000D01*
X132080000Y-118030000D02*
X132080000Y-119157700D01*
X139135000Y-133150000D02*
X139135000Y-132555200D01*
X139135000Y-132555200D02*
X130422700Y-123842900D01*
X130422700Y-123842900D02*
X130422700Y-120444800D01*
X130422700Y-120444800D02*
X131709800Y-119157700D01*
X131709800Y-119157700D02*
X132080000Y-119157700D01*
X132080000Y-115530000D02*
X132080000Y-116657700D01*
X137865000Y-133150000D02*
X137865000Y-132187100D01*
X137865000Y-132187100D02*
X129980000Y-124302100D01*
X129980000Y-124302100D02*
X129980000Y-118387500D01*
X129980000Y-118387500D02*
X131709800Y-116657700D01*
X131709800Y-116657700D02*
X132080000Y-116657700D01*
X146755000Y-133150000D02*
X146755000Y-133592600D01*
X146755000Y-133592600D02*
X145029800Y-135317800D01*
X145029800Y-135317800D02*
X135855000Y-135317800D01*
X135855000Y-135317800D02*
X134690000Y-134152800D01*
X134690000Y-134152800D02*
X134690000Y-132134900D01*
X134690000Y-132134900D02*
X125585100Y-123030000D01*
X125585100Y-123030000D02*
X120650000Y-123030000D01*
X145485000Y-133150000D02*
X145485000Y-133520900D01*
X145485000Y-133520900D02*
X144101500Y-134904400D01*
X144101500Y-134904400D02*
X136710400Y-134904400D01*
X136710400Y-134904400D02*
X135960000Y-134154000D01*
X135960000Y-134154000D02*
X135960000Y-132097000D01*
X135960000Y-132097000D02*
X124393000Y-120530000D01*
X124393000Y-120530000D02*
X120650000Y-120530000D01*
X144215000Y-133150000D02*
X144215000Y-133608500D01*
X144215000Y-133608500D02*
X143346000Y-134477500D01*
X143346000Y-134477500D02*
X137558400Y-134477500D01*
X137558400Y-134477500D02*
X137230000Y-134149100D01*
X137230000Y-134149100D02*
X137230000Y-132155200D01*
X137230000Y-132155200D02*
X123104800Y-118030000D01*
X123104800Y-118030000D02*
X120650000Y-118030000D01*
X120650000Y-115530000D02*
X120650000Y-114402300D01*
X142945000Y-133150000D02*
X142945000Y-130678700D01*
X142945000Y-130678700D02*
X140814300Y-128548000D01*
X140814300Y-128548000D02*
X140814300Y-122500000D01*
X140814300Y-122500000D02*
X132716600Y-114402300D01*
X132716600Y-114402300D02*
X120650000Y-114402300D01*
X134675500Y-85700000D02*
X134675500Y-86017200D01*
X134675500Y-86017200D02*
X130505500Y-90187200D01*
X134699500Y-82500000D02*
X133188000Y-84011500D01*
X133188000Y-84011500D02*
X133188000Y-86059800D01*
X133188000Y-86059800D02*
X131538400Y-87709400D01*
X131538400Y-87709400D02*
X130855000Y-87709400D01*
X134699500Y-79100000D02*
X132999500Y-80800000D01*
X132999500Y-80800000D02*
X131537300Y-80800000D01*
X131537300Y-80800000D02*
X130105500Y-82231800D01*
X134055000Y-142450000D02*
X134055000Y-141989300D01*
X134055000Y-141989300D02*
X127404700Y-135339000D01*
X127404700Y-135339000D02*
X126204900Y-135339000D01*
X126204900Y-135339000D02*
X126204900Y-135338900D01*
X126204900Y-135338900D02*
X126178100Y-135312100D01*
X148900000Y-71200000D02*
X148900000Y-72327700D01*
X148900000Y-72327700D02*
X157120100Y-80547800D01*
X157120100Y-80547800D02*
X159184100Y-80547800D01*
X159184100Y-80547800D02*
X160141100Y-81504800D01*
X160141100Y-81504800D02*
X160141100Y-82475000D01*
X160141100Y-82475000D02*
X159477300Y-83138800D01*
X159477300Y-83138800D02*
X158550300Y-83138800D01*
X158550300Y-83138800D02*
X147105900Y-94583200D01*
X118200000Y-86300000D02*
X120779500Y-86300000D01*
X120779500Y-86300000D02*
X129169900Y-77909600D01*
X129169900Y-77909600D02*
X145361600Y-77909600D01*
X145361600Y-77909600D02*
X148325900Y-80873900D01*
X115400000Y-97900000D02*
X125907300Y-97900000D01*
X125907300Y-97900000D02*
X142698100Y-81109200D01*
X142698100Y-81109200D02*
X143267700Y-81109200D01*
X115400000Y-100400000D02*
X123976900Y-100400000D01*
X123976900Y-100400000D02*
X139143800Y-85233100D01*
X139143800Y-85233100D02*
X143287200Y-85233100D01*
M02*
